<svg id="Layer_1" data-name="Layer 1" xmlns="http://www.w3.org/2000/svg" xmlns:xlink="http://www.w3.org/1999/xlink" viewBox="0 0 741.04 483.93"><defs><clipPath id="clip-path" transform="translate(-22.67 192.16)"><polygon id="clipping" points="116.17 103.06 91.18 123.51 91.18 217.56 155.57 217.56 180.56 197.11 180.56 103.06 116.17 103.06" style="fill:none"/></clipPath><clipPath id="clip-path-2" transform="translate(-22.67 192.16)"><polygon id="clipping-2" data-name="clipping" points="697.48 -191.91 672.49 -171.47 672.49 37.07 736.88 37.07 761.87 16.63 761.87 -191.91 697.48 -191.91" style="fill:none"/></clipPath><clipPath id="clip-path-3" transform="translate(-22.67 192.16)"><polygon id="clipping-3" data-name="clipping" points="612.62 -162.75 587.63 -142.31 587.63 66.23 652.02 66.23 677.01 45.78 677.01 -162.75 612.62 -162.75" style="fill:none"/></clipPath><clipPath id="clip-path-4" transform="translate(-22.67 192.16)"><polygon id="clipping-4" data-name="clipping" points="657.31 -115.58 632.32 -95.13 632.32 113.41 696.71 113.41 721.7 92.96 721.7 -115.58 657.31 -115.58" style="fill:none"/></clipPath><clipPath id="clip-path-5" transform="translate(-22.67 192.16)"><polygon id="clipping-5" data-name="clipping" points="562.86 -115.58 537.87 -95.13 537.87 113.41 602.26 113.41 627.25 92.96 627.25 -115.58 562.86 -115.58" style="fill:none"/></clipPath><clipPath id="clip-path-6" transform="translate(-22.67 192.16)"><polygon id="clipping-6" data-name="clipping" points="455.3 -104.9 430.31 -84.46 430.31 124.08 494.7 124.08 519.69 103.64 519.69 -104.9 455.3 -104.9" style="fill:none"/></clipPath><clipPath id="clip-path-7" transform="translate(-22.67 192.16)"><polygon id="clipping-7" data-name="clipping" points="686.3 -61.19 661.31 -40.75 661.31 167.79 725.7 167.79 750.69 147.35 750.69 -61.19 686.3 -61.19" style="fill:none"/></clipPath><clipPath id="clip-path-8" transform="translate(-22.67 192.16)"><polygon id="clipping-8" data-name="clipping" points="573.94 -68.95 548.95 -48.5 548.95 160.03 613.34 160.03 638.33 139.59 638.33 -68.95 573.94 -68.95" style="fill:none"/></clipPath><clipPath id="clip-path-9" transform="translate(-22.67 192.16)"><polygon id="clipping-9" data-name="clipping" points="476.25 -54.73 451.26 -34.28 451.26 174.25 515.65 174.25 540.64 153.81 540.64 -54.73 476.25 -54.73" style="fill:none"/></clipPath><clipPath id="clip-path-10" transform="translate(-22.67 192.16)"><polygon id="clipping-10" data-name="clipping" points="376.72 -68.95 351.73 -48.5 351.73 160.03 416.12 160.03 441.12 139.59 441.12 -68.95 376.72 -68.95" style="fill:none"/></clipPath><clipPath id="clip-path-11" transform="translate(-22.67 192.16)"><polygon id="clipping-11" data-name="clipping" points="535.16 -21.77 510.17 -1.32 510.17 207.21 574.56 207.21 599.55 186.77 599.55 -21.77 535.16 -21.77" style="fill:none"/></clipPath><clipPath id="clip-path-12" transform="translate(-22.67 192.16)"><polygon id="clipping-12" data-name="clipping" points="587.87 -1.08 562.88 19.36 562.88 227.9 627.27 227.9 652.26 207.45 652.26 -1.08 587.87 -1.08" style="fill:none"/></clipPath><clipPath id="clip-path-13" transform="translate(-22.67 192.16)"><polygon id="clipping-13" data-name="clipping" points="566.78 59.76 541.79 80.2 541.79 174.25 606.18 174.25 631.17 153.81 631.17 59.76 566.78 59.76" style="fill:none"/></clipPath><clipPath id="clip-path-14" transform="translate(-22.67 192.16)"><polygon id="clipping-14" data-name="clipping" points="355.59 -21.77 330.6 -1.32 330.6 207.21 394.99 207.21 419.98 186.77 419.98 -21.77 355.59 -21.77" style="fill:none"/></clipPath><clipPath id="clip-path-15" transform="translate(-22.67 192.16)"><polygon id="clipping-15" data-name="clipping" points="336.48 30.58 311.49 51.03 311.49 259.56 375.88 259.56 400.87 239.12 400.87 30.58 336.48 30.58" style="fill:none"/></clipPath><clipPath id="clip-path-16" transform="translate(-22.67 192.16)"><polygon id="clipping-16" data-name="clipping" points="686.3 -11.43 661.31 9.02 661.31 217.56 725.7 217.56 750.69 197.11 750.69 -11.43 686.3 -11.43" style="fill:none"/></clipPath><clipPath id="clip-path-17" transform="translate(-22.67 192.16)"><polygon id="clipping-17" data-name="clipping" points="641.61 78.51 616.62 98.95 616.62 193 681.01 193 706 172.56 706 78.51 641.61 78.51" style="fill:none"/></clipPath><clipPath id="clip-path-18" transform="translate(-22.67 192.16)"><polygon id="clipping-18" data-name="clipping" points="434.34 -1.08 409.35 19.36 409.35 227.9 473.74 227.9 498.73 207.45 498.73 -1.08 434.34 -1.08" style="fill:none"/></clipPath><clipPath id="clip-path-19" transform="translate(-22.67 192.16)"><polygon id="clipping-19" data-name="clipping" points="464.76 59.76 439.77 80.2 439.77 174.25 504.17 174.25 529.15 153.81 529.15 59.76 464.76 59.76" style="fill:none"/></clipPath><clipPath id="clip-path-20" transform="translate(-22.67 192.16)"><polygon id="clipping-20" data-name="clipping" points="366.67 103.06 341.68 123.51 341.68 217.56 406.07 217.56 431.06 197.11 431.06 103.06 366.67 103.06" style="fill:none"/></clipPath><clipPath id="clip-path-21" transform="translate(-22.67 192.16)"><polygon id="clipping-21" data-name="clipping" points="447.27 134.97 422.28 155.42 422.28 249.46 486.67 249.46 511.66 229.02 511.66 134.97 447.27 134.97" style="fill:none"/></clipPath><clipPath id="clip-path-22" transform="translate(-22.67 192.16)"><polygon id="clipping-22" data-name="clipping" points="255.88 92.72 230.89 113.17 230.89 207.21 295.28 207.21 320.27 186.77 320.27 92.72 255.88 92.72" style="fill:none"/></clipPath><clipPath id="clip-path-23" transform="translate(-22.67 192.16)"><polygon id="clipping-23" data-name="clipping" points="301.9 145.07 276.91 165.52 276.91 259.56 341.3 259.56 366.29 239.12 366.29 145.07 301.9 145.07" style="fill:none"/></clipPath><clipPath id="clip-path-24" transform="translate(-22.67 192.16)"><polygon id="clipping-24" data-name="clipping" points="186.66 134.97 161.68 155.42 161.68 249.46 226.06 249.46 251.06 229.02 251.06 134.97 186.66 134.97" style="fill:none"/></clipPath><clipPath id="clip-path-25" transform="translate(-22.67 192.16)"><polygon id="clipping-25" data-name="clipping" points="217.67 174.25 192.68 194.7 192.68 288.74 257.07 288.74 282.06 268.3 282.06 174.25 217.67 174.25" style="fill:none"/></clipPath><clipPath id="clip-path-26" transform="translate(-22.67 192.16)"><polygon id="clipping-26" data-name="clipping" points="47.66 174.25 22.67 194.7 22.67 288.74 87.06 288.74 112.05 268.3 112.05 174.25 47.66 174.25" style="fill:none"/></clipPath><clipPath id="clip-path-27" transform="translate(-22.67 192.16)"><polygon id="clipping-27" data-name="clipping" points="698.91 115.8 673.92 136.24 673.92 230.29 738.31 230.29 763.3 209.84 763.3 115.8 698.91 115.8" style="fill:none"/></clipPath><clipPath id="clip-path-28" transform="translate(-22.67 192.16)"><polygon id="clipping-28" data-name="clipping" points="597.77 126.47 572.78 146.91 572.78 240.96 637.17 240.96 662.16 220.52 662.16 126.47 597.77 126.47" style="fill:none"/></clipPath><clipPath id="clip-path-29" transform="translate(-22.67 192.16)"><polygon id="clipping-29" data-name="clipping" points="697.48 147.46 672.49 167.91 672.49 261.95 736.88 261.95 761.87 241.51 761.87 147.46 697.48 147.46" style="fill:none"/></clipPath><clipPath id="clip-path-30" transform="translate(-22.67 192.16)"><polygon id="clipping-30" data-name="clipping" points="618.73 176.64 593.74 197.09 593.74 291.13 658.13 291.13 683.12 270.69 683.12 176.64 618.73 176.64" style="fill:none"/></clipPath><clipPath id="clip-path-31" transform="translate(-22.67 192.16)"><polygon id="clipping-31" data-name="clipping" points="519.2 162.43 494.21 182.87 494.21 276.92 558.6 276.92 583.59 256.47 583.59 162.43 519.2 162.43" style="fill:none"/></clipPath></defs><g id="bar-clip"><g style="clip-path:url(#clip-path)"><g id="bar"><polygon points="69.15 409.07 69.15 315.97 93.73 295.87 157.25 295.87 157.25 388.97 132.67 409.07 69.15 409.07" style="fill:#fff"/><path d="M179.28,104.35V196.5l-24.17,19.77H92.46V124.12l24.17-19.77h62.65m1.28-1.29H116.17l-25,20.45v94h64.39l25-20.44V103.06Z" transform="translate(-22.67 192.16)" style="fill:#231f20"/><polyline points="157.89 295.22 132.9 315.67 68.51 315.67" style="fill:#fff;stroke:#231f20;stroke-miterlimit:10;stroke-width:0.6418989297017441px"/><line x1="132.9" y1="315.67" x2="132.9" y2="409.71" style="fill:#fff;stroke:#231f20;stroke-miterlimit:10;stroke-width:0.6418989297017441px"/></g><polyline id="bottom-line" points="157.89 389.27 132.9 409.71 68.51 409.71" style="fill:none;stroke:#231f20;stroke-miterlimit:10;stroke-width:1.2837978594034882px"/></g></g><g id="bar-clip-2" data-name="bar-clip"><g style="clip-path:url(#clip-path-2)"><g id="bar-2" data-name="bar"><polygon points="650.46 228.59 650.46 21 675.03 0.89 738.55 0.89 738.55 208.48 713.98 228.59 650.46 228.59" style="fill:#fff"/><path d="M760.59-190.63V16L736.42,35.79H673.77V-170.86l24.17-19.77h62.65m1.28-1.28H697.48l-25,20.44V37.07h64.39l25-20.44V-191.91Z" transform="translate(-22.67 192.16)" style="fill:#231f20"/><polyline points="739.2 0.25 714.21 20.69 649.82 20.69" style="fill:#fff;stroke:#231f20;stroke-miterlimit:10;stroke-width:0.6418989297017441px"/><line x1="714.21" y1="20.69" x2="714.21" y2="229.23" style="fill:#fff;stroke:#231f20;stroke-miterlimit:10;stroke-width:0.6418989297017441px"/></g><polyline id="bottom-line-2" data-name="bottom-line" points="739.2 208.79 714.21 229.23 649.82 229.23" style="fill:none;stroke:#231f20;stroke-miterlimit:10;stroke-width:1.2837978594034882px"/></g></g><g id="bar-clip-3" data-name="bar-clip"><g style="clip-path:url(#clip-path-3)"><g id="bar-3" data-name="bar"><polygon points="565.6 257.74 565.6 50.15 590.18 30.05 653.7 30.05 653.7 237.64 629.12 257.74 565.6 257.74" style="fill:#fff"/><path d="M675.73-161.47V45.17L651.56,64.94H588.92V-141.7l24.16-19.77h62.65m1.28-1.28H612.62l-25,20.44V66.23H652l25-20.45V-162.75Z" transform="translate(-22.67 192.16)" style="fill:#231f20"/><polyline points="654.34 29.4 629.35 49.85 564.96 49.85" style="fill:#fff;stroke:#231f20;stroke-miterlimit:10;stroke-width:0.6418989297017441px"/><line x1="629.35" y1="49.85" x2="629.35" y2="258.38" style="fill:#fff;stroke:#231f20;stroke-miterlimit:10;stroke-width:0.6418989297017441px"/></g><polyline id="bottom-line-3" data-name="bottom-line" points="654.34 237.94 629.35 258.38 564.96 258.38" style="fill:none;stroke:#231f20;stroke-miterlimit:10;stroke-width:1.2837978594034882px"/></g></g><g id="bar-clip-4" data-name="bar-clip"><g style="clip-path:url(#clip-path-4)"><g id="bar-4" data-name="bar"><polygon points="610.29 304.92 610.29 97.33 634.87 77.23 698.39 77.23 698.39 284.82 673.81 304.92 610.29 304.92" style="fill:#fff"/><path d="M720.42-114.29V92.35l-24.17,19.77H633.61V-94.52l24.16-19.77h62.65m1.28-1.29H657.31l-25,20.45V113.41h64.39L721.7,93V-115.58Z" transform="translate(-22.67 192.16)" style="fill:#231f20"/><polyline points="699.03 76.58 674.04 97.03 609.65 97.03" style="fill:#fff;stroke:#231f20;stroke-miterlimit:10;stroke-width:0.6418989297017441px"/><line x1="674.04" y1="97.03" x2="674.04" y2="305.56" style="fill:#fff;stroke:#231f20;stroke-miterlimit:10;stroke-width:0.6418989297017441px"/></g><polyline id="bottom-line-4" data-name="bottom-line" points="699.03 285.12 674.04 305.56 609.65 305.56" style="fill:none;stroke:#231f20;stroke-miterlimit:10;stroke-width:1.2837978594034882px"/></g></g><g id="bar-clip-5" data-name="bar-clip"><g style="clip-path:url(#clip-path-5)"><g id="bar-5" data-name="bar"><polygon points="515.84 304.92 515.84 97.33 540.41 77.23 603.93 77.23 603.93 284.82 579.36 304.92 515.84 304.92" style="fill:#fff"/><path d="M626-114.29V92.35L601.8,112.12H539.15V-94.52l24.17-19.77H626m1.29-1.29H562.86l-25,20.45V113.41h64.39l25-20.45V-115.58Z" transform="translate(-22.67 192.16)" style="fill:#231f20"/><polyline points="604.58 76.58 579.59 97.03 515.2 97.03" style="fill:#fff;stroke:#231f20;stroke-miterlimit:10;stroke-width:0.6418989297017441px"/><line x1="579.59" y1="97.03" x2="579.59" y2="305.56" style="fill:#fff;stroke:#231f20;stroke-miterlimit:10;stroke-width:0.6418989297017441px"/></g><polyline id="bottom-line-5" data-name="bottom-line" points="604.58 285.12 579.59 305.56 515.2 305.56" style="fill:none;stroke:#231f20;stroke-miterlimit:10;stroke-width:1.2837978594034882px"/></g></g><g id="bar-clip-6" data-name="bar-clip"><g style="clip-path:url(#clip-path-6)"><g id="bar-6" data-name="bar"><polygon points="408.28 315.6 408.28 108.01 432.85 87.9 496.37 87.9 496.37 295.49 471.8 315.6 408.28 315.6" style="fill:#fff"/><path d="M518.4-103.62V103L494.24,122.8H431.59V-83.85l24.17-19.77H518.4m1.29-1.28H455.3l-25,20.44V124.08H494.7l25-20.44V-104.9Z" transform="translate(-22.67 192.16)" style="fill:#231f20"/><polyline points="497.01 87.26 472.02 107.7 407.63 107.7" style="fill:#fff;stroke:#231f20;stroke-miterlimit:10;stroke-width:0.6418989297017441px"/><line x1="472.02" y1="107.7" x2="472.02" y2="316.24" style="fill:#fff;stroke:#231f20;stroke-miterlimit:10;stroke-width:0.6418989297017441px"/></g><polyline id="bottom-line-6" data-name="bottom-line" points="497.01 295.8 472.02 316.24 407.63 316.24" style="fill:none;stroke:#231f20;stroke-miterlimit:10;stroke-width:1.2837978594034882px"/></g></g><g id="bar-clip-7" data-name="bar-clip"><g style="clip-path:url(#clip-path-7)"><g id="bar-7" data-name="bar"><polygon points="639.28 359.31 639.28 151.72 663.86 131.61 727.38 131.61 727.38 339.2 702.8 359.31 639.28 359.31" style="fill:#fff"/><path d="M749.41-59.91V146.74l-24.17,19.77H662.59V-40.14l24.17-19.77h62.65m1.28-1.28H686.3l-25,20.44V167.79H725.7l25-20.44V-61.19Z" transform="translate(-22.67 192.16)" style="fill:#231f20"/><polyline points="728.02 130.97 703.03 151.41 638.64 151.41" style="fill:#fff;stroke:#231f20;stroke-miterlimit:10;stroke-width:0.6418989297017441px"/><line x1="703.03" y1="151.41" x2="703.03" y2="359.95" style="fill:#fff;stroke:#231f20;stroke-miterlimit:10;stroke-width:0.6418989297017441px"/></g><polyline id="bottom-line-7" data-name="bottom-line" points="728.02 339.51 703.03 359.95 638.64 359.95" style="fill:none;stroke:#231f20;stroke-miterlimit:10;stroke-width:1.2837978594034882px"/></g></g><g id="bar-clip-8" data-name="bar-clip"><g style="clip-path:url(#clip-path-8)"><g id="bar-8" data-name="bar"><polygon points="526.92 351.55 526.92 143.96 551.5 123.86 615.02 123.86 615.02 331.45 590.44 351.55 526.92 351.55" style="fill:#fff"/><path d="M637.05-67.66V139l-24.17,19.77H550.23V-47.9L574.4-67.66h62.65m1.28-1.29H573.94L549-48.5V160h64.39l25-20.44V-68.95Z" transform="translate(-22.67 192.16)" style="fill:#231f20"/><polyline points="615.66 123.21 590.67 143.66 526.28 143.66" style="fill:#fff;stroke:#231f20;stroke-miterlimit:10;stroke-width:0.6418989297017441px"/><line x1="590.67" y1="143.66" x2="590.67" y2="352.19" style="fill:#fff;stroke:#231f20;stroke-miterlimit:10;stroke-width:0.6418989297017441px"/></g><polyline id="bottom-line-8" data-name="bottom-line" points="615.66 331.75 590.67 352.19 526.28 352.19" style="fill:none;stroke:#231f20;stroke-miterlimit:10;stroke-width:1.2837978594034882px"/></g></g><g id="bar-clip-9" data-name="bar-clip"><g style="clip-path:url(#clip-path-9)"><g id="bar-9" data-name="bar"><polygon points="429.23 365.77 429.23 158.18 453.81 138.07 517.33 138.07 517.33 345.67 492.75 365.77 429.23 365.77" style="fill:#fff"/><path d="M539.36-53.44V153.2L515.2,173H452.55V-33.68l24.16-19.76h62.65m1.28-1.29H476.25l-25,20.44V174.25h64.39l25-20.44V-54.73Z" transform="translate(-22.67 192.16)" style="fill:#231f20"/><polyline points="517.97 137.43 492.98 157.87 428.59 157.87" style="fill:#fff;stroke:#231f20;stroke-miterlimit:10;stroke-width:0.6418989297017441px"/><line x1="492.98" y1="157.87" x2="492.98" y2="366.41" style="fill:#fff;stroke:#231f20;stroke-miterlimit:10;stroke-width:0.6418989297017441px"/></g><polyline id="bottom-line-9" data-name="bottom-line" points="517.97 345.97 492.98 366.41 428.59 366.41" style="fill:none;stroke:#231f20;stroke-miterlimit:10;stroke-width:1.2837978594034882px"/></g></g><g id="bar-clip-10" data-name="bar-clip"><g style="clip-path:url(#clip-path-10)"><g id="bar-10" data-name="bar"><polygon points="329.7 351.55 329.7 143.96 354.28 123.86 417.8 123.86 417.8 331.45 393.22 351.55 329.7 351.55" style="fill:#fff"/><path d="M439.83-67.66V139l-24.16,19.77H353V-47.9l24.16-19.76h62.65m1.28-1.29H376.72l-25,20.45V160h64.39l25-20.44V-68.95Z" transform="translate(-22.67 192.16)" style="fill:#231f20"/><polyline points="418.44 123.21 393.45 143.66 329.06 143.66" style="fill:#fff;stroke:#231f20;stroke-miterlimit:10;stroke-width:0.6418989297017441px"/><line x1="393.45" y1="143.66" x2="393.45" y2="352.19" style="fill:#fff;stroke:#231f20;stroke-miterlimit:10;stroke-width:0.6418989297017441px"/></g><polyline id="bottom-line-10" data-name="bottom-line" points="418.44 331.75 393.45 352.19 329.06 352.19" style="fill:none;stroke:#231f20;stroke-miterlimit:10;stroke-width:1.2837978594034882px"/></g></g><g id="bar-clip-11" data-name="bar-clip"><g style="clip-path:url(#clip-path-11)"><g id="bar-11" data-name="bar"><polygon points="488.14 398.73 488.14 191.14 512.72 171.03 576.24 171.03 576.24 378.63 551.66 398.73 488.14 398.73" style="fill:#fff"/><path d="M598.27-20.48V186.16L574.1,205.93H511.46V-.72l24.16-19.76h62.65m1.28-1.29H535.16l-25,20.45V207.21h64.39l25-20.44V-21.77Z" transform="translate(-22.67 192.16)" style="fill:#231f20"/><polyline points="576.88 170.39 551.89 190.84 487.5 190.84" style="fill:#fff;stroke:#231f20;stroke-miterlimit:10;stroke-width:0.6418989297017441px"/><line x1="551.89" y1="190.83" x2="551.89" y2="399.37" style="fill:#fff;stroke:#231f20;stroke-miterlimit:10;stroke-width:0.6418989297017441px"/></g><polyline id="bottom-line-11" data-name="bottom-line" points="576.88 378.93 551.89 399.37 487.5 399.37" style="fill:none;stroke:#231f20;stroke-miterlimit:10;stroke-width:1.2837978594034882px"/></g></g><g id="bar-clip-12" data-name="bar-clip"><g style="clip-path:url(#clip-path-12)"><g id="bar-12" data-name="bar"><polygon points="540.85 419.41 540.85 211.82 565.43 191.72 628.95 191.72 628.95 399.31 604.37 419.41 540.85 419.41" style="fill:#fff"/><path d="M651,.2V206.84l-24.17,19.77H564.16V20L588.33.2H651m1.28-1.29H587.87l-25,20.45V227.9h64.39l25-20.45V-1.09Z" transform="translate(-22.67 192.16)" style="fill:#231f20"/><polyline points="629.59 191.07 604.6 211.52 540.21 211.52" style="fill:#fff;stroke:#231f20;stroke-miterlimit:10;stroke-width:0.6418989297017441px"/><line x1="604.6" y1="211.52" x2="604.6" y2="420.05" style="fill:#fff;stroke:#231f20;stroke-miterlimit:10;stroke-width:0.6418989297017441px"/></g><polyline id="bottom-line-12" data-name="bottom-line" points="629.59 399.61 604.6 420.06 540.21 420.06" style="fill:none;stroke:#231f20;stroke-miterlimit:10;stroke-width:1.2837978594034882px"/></g></g><g id="bar-clip-13" data-name="bar-clip"><g style="clip-path:url(#clip-path-13)"><g id="bar-13" data-name="bar"><polygon points="519.76 365.77 519.76 272.67 544.34 252.56 607.86 252.56 607.86 345.67 583.28 365.77 519.76 365.77" style="fill:#fff"/><path d="M629.89,61.05V153.2L605.73,173H543.08V80.81l24.16-19.76h62.65m1.28-1.29H566.78l-25,20.45v94h64.39l25-20.44V59.76Z" transform="translate(-22.67 192.16)" style="fill:#231f20"/><polyline points="608.5 251.92 583.51 272.36 519.12 272.36" style="fill:#fff;stroke:#231f20;stroke-miterlimit:10;stroke-width:0.6418989297017441px"/><line x1="583.51" y1="272.36" x2="583.51" y2="366.41" style="fill:#fff;stroke:#231f20;stroke-miterlimit:10;stroke-width:0.6418989297017441px"/></g><polyline id="bottom-line-13" data-name="bottom-line" points="608.5 345.97 583.51 366.41 519.12 366.41" style="fill:none;stroke:#231f20;stroke-miterlimit:10;stroke-width:1.2837978594034882px"/></g></g><g id="bar-clip-14" data-name="bar-clip"><g style="clip-path:url(#clip-path-14)"><g id="bar-14" data-name="bar"><polygon points="308.57 398.73 308.57 191.14 333.14 171.03 396.66 171.03 396.66 378.63 372.09 398.73 308.57 398.73" style="fill:#fff"/><path d="M418.69-20.48V186.16l-24.16,19.77H331.88V-.72l24.17-19.76h62.64M420-21.77H355.59l-25,20.45V207.21H395l25-20.44V-21.77Z" transform="translate(-22.67 192.16)" style="fill:#231f20"/><polyline points="397.31 170.39 372.32 190.84 307.93 190.84" style="fill:#fff;stroke:#231f20;stroke-miterlimit:10;stroke-width:0.6418989297017441px"/><line x1="372.32" y1="190.83" x2="372.32" y2="399.37" style="fill:#fff;stroke:#231f20;stroke-miterlimit:10;stroke-width:0.6418989297017441px"/></g><polyline id="bottom-line-14" data-name="bottom-line" points="397.31 378.93 372.32 399.37 307.93 399.37" style="fill:none;stroke:#231f20;stroke-miterlimit:10;stroke-width:1.2837978594034882px"/></g></g><g id="bar-clip-15" data-name="bar-clip"><g style="clip-path:url(#clip-path-15)"><g id="bar-15" data-name="bar"><polygon points="289.46 451.08 289.46 243.49 314.04 223.38 377.56 223.38 377.56 430.98 352.98 451.08 289.46 451.08" style="fill:#fff"/><path d="M399.59,31.87V238.51l-24.16,19.77H312.78V51.63l24.16-19.76h62.65m1.28-1.29H336.48L311.49,51V259.56h64.39l25-20.44V30.58Z" transform="translate(-22.67 192.16)" style="fill:#231f20"/><polyline points="378.2 222.74 353.21 243.19 288.82 243.19" style="fill:#fff;stroke:#231f20;stroke-miterlimit:10;stroke-width:0.6418989297017441px"/><line x1="353.21" y1="243.19" x2="353.21" y2="451.72" style="fill:#fff;stroke:#231f20;stroke-miterlimit:10;stroke-width:0.6418989297017441px"/></g><polyline id="bottom-line-15" data-name="bottom-line" points="378.2 431.28 353.21 451.72 288.82 451.72" style="fill:none;stroke:#231f20;stroke-miterlimit:10;stroke-width:1.2837978594034882px"/></g></g><g id="bar-clip-16" data-name="bar-clip"><g style="clip-path:url(#clip-path-16)"><g id="bar-16" data-name="bar"><polygon points="639.28 409.07 639.28 201.48 663.86 181.38 727.38 181.38 727.38 388.97 702.8 409.07 639.28 409.07" style="fill:#fff"/><path d="M749.41-10.14V196.5l-24.17,19.77H662.59V9.63l24.17-19.77h62.65m1.28-1.29H686.3L661.31,9V217.55H725.7l25-20.44V-11.43Z" transform="translate(-22.67 192.16)" style="fill:#231f20"/><polyline points="728.02 180.73 703.03 201.18 638.64 201.18" style="fill:#fff;stroke:#231f20;stroke-miterlimit:10;stroke-width:0.6418989297017441px"/><line x1="703.03" y1="201.18" x2="703.03" y2="409.71" style="fill:#fff;stroke:#231f20;stroke-miterlimit:10;stroke-width:0.6418989297017441px"/></g><polyline id="bottom-line-16" data-name="bottom-line" points="728.02 389.27 703.03 409.71 638.64 409.71" style="fill:none;stroke:#231f20;stroke-miterlimit:10;stroke-width:1.2837978594034882px"/></g></g><g id="bar-clip-17" data-name="bar-clip"><g style="clip-path:url(#clip-path-17)"><g id="bar-17" data-name="bar"><polygon points="594.59 384.52 594.59 291.42 619.17 271.31 682.69 271.31 682.69 364.42 658.11 384.52 594.59 384.52" style="fill:#fff"/><path d="M704.72,79.8V172l-24.17,19.77H617.9V99.56L642.07,79.8h62.65M706,78.51H641.61L616.62,99v94H681l25-20.44v-94Z" transform="translate(-22.67 192.16)" style="fill:#231f20"/><polyline points="683.33 270.67 658.34 291.11 593.95 291.11" style="fill:#fff;stroke:#231f20;stroke-miterlimit:10;stroke-width:0.6418989297017441px"/><line x1="658.34" y1="291.11" x2="658.34" y2="385.16" style="fill:#fff;stroke:#231f20;stroke-miterlimit:10;stroke-width:0.6418989297017441px"/></g><polyline id="bottom-line-17" data-name="bottom-line" points="683.33 364.72 658.34 385.16 593.95 385.16" style="fill:none;stroke:#231f20;stroke-miterlimit:10;stroke-width:1.2837978594034882px"/></g></g><g id="bar-clip-18" data-name="bar-clip"><g style="clip-path:url(#clip-path-18)"><g id="bar-18" data-name="bar"><polygon points="387.32 419.41 387.32 211.82 411.9 191.72 475.42 191.72 475.42 399.31 450.84 419.41 387.32 419.41" style="fill:#fff"/><path d="M497.45.2V206.84l-24.17,19.77H410.63V20L434.8.2h62.65m1.28-1.29H434.34l-25,20.45V227.9h64.39l25-20.45V-1.09Z" transform="translate(-22.67 192.16)" style="fill:#231f20"/><polyline points="476.06 191.07 451.07 211.52 386.68 211.52" style="fill:#fff;stroke:#231f20;stroke-miterlimit:10;stroke-width:0.6418989297017441px"/><line x1="451.07" y1="211.52" x2="451.07" y2="420.05" style="fill:#fff;stroke:#231f20;stroke-miterlimit:10;stroke-width:0.6418989297017441px"/></g><polyline id="bottom-line-18" data-name="bottom-line" points="476.06 399.61 451.07 420.06 386.68 420.06" style="fill:none;stroke:#231f20;stroke-miterlimit:10;stroke-width:1.2837978594034882px"/></g></g><g id="bar-clip-19" data-name="bar-clip"><g style="clip-path:url(#clip-path-19)"><g id="bar-19" data-name="bar"><polygon points="417.74 365.77 417.74 272.67 442.32 252.56 505.84 252.56 505.84 345.67 481.26 365.77 417.74 365.77" style="fill:#fff"/><path d="M527.87,61.05V153.2L503.71,173H441.06V80.81l24.16-19.76h62.65m1.28-1.29H464.76l-25,20.45v94h64.39l25-20.44V59.76Z" transform="translate(-22.67 192.16)" style="fill:#231f20"/><polyline points="506.48 251.92 481.49 272.36 417.1 272.36" style="fill:#fff;stroke:#231f20;stroke-miterlimit:10;stroke-width:0.6418989297017441px"/><line x1="481.49" y1="272.36" x2="481.49" y2="366.41" style="fill:#fff;stroke:#231f20;stroke-miterlimit:10;stroke-width:0.6418989297017441px"/></g><polyline id="bottom-line-19" data-name="bottom-line" points="506.48 345.97 481.49 366.41 417.1 366.41" style="fill:none;stroke:#231f20;stroke-miterlimit:10;stroke-width:1.2837978594034882px"/></g></g><g id="bar-clip-20" data-name="bar-clip"><g style="clip-path:url(#clip-path-20)"><g id="bar-20" data-name="bar"><polygon points="319.65 409.07 319.65 315.97 344.23 295.87 407.75 295.87 407.75 388.97 383.17 409.07 319.65 409.07" style="fill:#fff"/><path d="M429.78,104.35V196.5l-24.17,19.77H343V124.12l24.17-19.77h62.65m1.28-1.29H366.67l-25,20.45v94h64.39l25-20.44V103.06Z" transform="translate(-22.67 192.16)" style="fill:#231f20"/><polyline points="408.39 295.22 383.4 315.67 319.01 315.67" style="fill:#fff;stroke:#231f20;stroke-miterlimit:10;stroke-width:0.6418989297017441px"/><line x1="383.4" y1="315.67" x2="383.4" y2="409.71" style="fill:#fff;stroke:#231f20;stroke-miterlimit:10;stroke-width:0.6418989297017441px"/></g><polyline id="bottom-line-20" data-name="bottom-line" points="408.39 389.27 383.4 409.71 319.01 409.71" style="fill:none;stroke:#231f20;stroke-miterlimit:10;stroke-width:1.2837978594034882px"/></g></g><g id="bar-clip-21" data-name="bar-clip"><g style="clip-path:url(#clip-path-21)"><g id="bar-21" data-name="bar"><polygon points="400.25 440.98 400.25 347.88 424.82 327.77 488.34 327.77 488.34 420.88 463.76 440.98 400.25 440.98" style="fill:#fff"/><path d="M510.37,136.26v92.15l-24.16,19.77H423.56V156l24.16-19.76h62.65m1.29-1.29H447.27l-25,20.45v94h64.39l25-20.44V135Z" transform="translate(-22.67 192.16)" style="fill:#231f20"/><polyline points="488.98 327.13 463.99 347.57 399.6 347.57" style="fill:#fff;stroke:#231f20;stroke-miterlimit:10;stroke-width:0.6418989297017441px"/><line x1="463.99" y1="347.57" x2="463.99" y2="441.62" style="fill:#fff;stroke:#231f20;stroke-miterlimit:10;stroke-width:0.6418989297017441px"/></g><polyline id="bottom-line-21" data-name="bottom-line" points="488.98 421.18 463.99 441.62 399.6 441.62" style="fill:none;stroke:#231f20;stroke-miterlimit:10;stroke-width:1.2837978594034882px"/></g></g><g id="bar-clip-22" data-name="bar-clip"><g style="clip-path:url(#clip-path-22)"><g id="bar-22" data-name="bar"><polygon points="208.86 398.73 208.86 305.63 233.44 285.52 296.95 285.52 296.95 378.63 272.38 398.73 208.86 398.73" style="fill:#fff"/><path d="M319,94v92.15l-24.17,19.77H232.17V113.77L256.34,94H319m1.28-1.29H255.88l-25,20.45v94h64.39l25-20.44V92.72Z" transform="translate(-22.67 192.16)" style="fill:#231f20"/><polyline points="297.6 284.88 272.61 305.32 208.22 305.32" style="fill:#fff;stroke:#231f20;stroke-miterlimit:10;stroke-width:0.6418989297017441px"/><line x1="272.61" y1="305.33" x2="272.61" y2="399.37" style="fill:#fff;stroke:#231f20;stroke-miterlimit:10;stroke-width:0.6418989297017441px"/></g><polyline id="bottom-line-22" data-name="bottom-line" points="297.6 378.93 272.61 399.37 208.22 399.37" style="fill:none;stroke:#231f20;stroke-miterlimit:10;stroke-width:1.2837978594034882px"/></g></g><g id="bar-clip-23" data-name="bar-clip"><g style="clip-path:url(#clip-path-23)"><g id="bar-23" data-name="bar"><polygon points="254.88 451.08 254.88 357.98 279.45 337.88 342.97 337.88 342.97 430.98 318.4 451.08 254.88 451.08" style="fill:#fff"/><path d="M365,146.36v92.15l-24.16,19.77H278.19V166.12l24.17-19.76H365m1.29-1.29H301.9l-25,20.45v94H341.3l25-20.44V145.07Z" transform="translate(-22.67 192.16)" style="fill:#231f20"/><polyline points="343.62 337.23 318.63 357.68 254.24 357.68" style="fill:#fff;stroke:#231f20;stroke-miterlimit:10;stroke-width:0.6418989297017441px"/><line x1="318.63" y1="357.68" x2="318.63" y2="451.72" style="fill:#fff;stroke:#231f20;stroke-miterlimit:10;stroke-width:0.6418989297017441px"/></g><polyline id="bottom-line-23" data-name="bottom-line" points="343.62 431.28 318.63 451.72 254.24 451.72" style="fill:none;stroke:#231f20;stroke-miterlimit:10;stroke-width:1.2837978594034882px"/></g></g><g id="bar-clip-24" data-name="bar-clip"><g style="clip-path:url(#clip-path-24)"><g id="bar-24" data-name="bar"><polygon points="139.64 440.98 139.64 347.88 164.22 327.77 227.74 327.77 227.74 420.88 203.16 440.98 139.64 440.98" style="fill:#fff"/><path d="M249.77,136.26v92.15l-24.16,19.77H163V156l24.16-19.76h62.65m1.29-1.29h-64.4l-25,20.45v94h64.4l25-20.44V135Z" transform="translate(-22.67 192.16)" style="fill:#231f20"/><polyline points="228.38 327.13 203.39 347.57 139 347.57" style="fill:#fff;stroke:#231f20;stroke-miterlimit:10;stroke-width:0.6418989297017441px"/><line x1="203.39" y1="347.57" x2="203.39" y2="441.62" style="fill:#fff;stroke:#231f20;stroke-miterlimit:10;stroke-width:0.6418989297017441px"/></g><polyline id="bottom-line-24" data-name="bottom-line" points="228.38 421.18 203.39 441.62 139 441.62" style="fill:none;stroke:#231f20;stroke-miterlimit:10;stroke-width:1.2837978594034882px"/></g></g><g id="bar-clip-25" data-name="bar-clip"><g style="clip-path:url(#clip-path-25)"><g id="bar-25" data-name="bar"><polygon points="170.65 480.26 170.65 387.16 195.22 367.05 258.74 367.05 258.74 460.15 234.17 480.26 170.65 480.26" style="fill:#fff"/><path d="M280.78,175.54v92.15l-24.17,19.77H194V195.3l24.17-19.76h62.65m1.28-1.29H217.67l-25,20.45v94h64.39l25-20.44V174.25Z" transform="translate(-22.67 192.16)" style="fill:#231f20"/><polyline points="259.39 366.41 234.4 386.86 170.01 386.86" style="fill:#fff;stroke:#231f20;stroke-miterlimit:10;stroke-width:0.6418989297017441px"/><line x1="234.4" y1="386.85" x2="234.4" y2="480.9" style="fill:#fff;stroke:#231f20;stroke-miterlimit:10;stroke-width:0.6418989297017441px"/></g><polyline id="bottom-line-25" data-name="bottom-line" points="259.39 460.46 234.4 480.9 170.01 480.9" style="fill:none;stroke:#231f20;stroke-miterlimit:10;stroke-width:1.2837978594034882px"/></g></g><g id="bar-clip-26" data-name="bar-clip"><g style="clip-path:url(#clip-path-26)"><g id="bar-26" data-name="bar"><polygon points="0.64 480.26 0.64 387.16 25.22 367.05 88.74 367.05 88.74 460.15 64.16 480.26 0.64 480.26" style="fill:#fff"/><path d="M110.77,175.54v92.15L86.61,287.46H24V195.3l24.16-19.76h62.65m1.28-1.29H47.66l-25,20.45v94H87.06l25-20.44V174.25Z" transform="translate(-22.67 192.16)" style="fill:#231f20"/><polyline points="89.38 366.41 64.39 386.86 0 386.86" style="fill:#fff;stroke:#231f20;stroke-miterlimit:10;stroke-width:0.6418989297017441px"/><line x1="64.39" y1="386.85" x2="64.39" y2="480.9" style="fill:#fff;stroke:#231f20;stroke-miterlimit:10;stroke-width:0.6418989297017441px"/></g><polyline id="bottom-line-26" data-name="bottom-line" points="89.38 460.46 64.39 480.9 0 480.9" style="fill:none;stroke:#231f20;stroke-miterlimit:10;stroke-width:1.2837978594034882px"/></g></g><g id="bar-clip-27" data-name="bar-clip"><g style="clip-path:url(#clip-path-27)"><g id="bar-27" data-name="bar"><polygon points="651.89 421.8 651.89 328.7 676.47 308.6 739.99 308.6 739.99 401.7 715.41 421.8 651.89 421.8" style="fill:#fff"/><path d="M762,117.08v92.16L737.85,229H675.21V136.85l24.16-19.77H762m1.28-1.28H698.91l-25,20.44v94h64.39l25-20.45v-94Z" transform="translate(-22.67 192.16)" style="fill:#231f20"/><polyline points="740.63 307.95 715.64 328.4 651.25 328.4" style="fill:#fff;stroke:#231f20;stroke-miterlimit:10;stroke-width:0.6418989297017441px"/><line x1="715.64" y1="328.4" x2="715.64" y2="422.45" style="fill:#fff;stroke:#231f20;stroke-miterlimit:10;stroke-width:0.6418989297017441px"/></g><polyline id="bottom-line-27" data-name="bottom-line" points="740.63 402 715.64 422.44 651.25 422.44" style="fill:none;stroke:#231f20;stroke-miterlimit:10;stroke-width:1.2837978594034882px"/></g></g><g id="bar-clip-28" data-name="bar-clip"><g style="clip-path:url(#clip-path-28)"><g id="bar-28" data-name="bar"><polygon points="550.75 432.48 550.75 339.38 575.33 319.27 638.85 319.27 638.85 412.37 614.27 432.48 550.75 432.48" style="fill:#fff"/><path d="M660.88,127.76v92.15l-24.17,19.77H574.06V147.52l24.17-19.76h62.65m1.28-1.29H597.77l-25,20.44V241h64.39l25-20.44V126.47Z" transform="translate(-22.67 192.16)" style="fill:#231f20"/><polyline points="639.49 318.63 614.5 339.07 550.11 339.07" style="fill:#fff;stroke:#231f20;stroke-miterlimit:10;stroke-width:0.6418989297017441px"/><line x1="614.5" y1="339.07" x2="614.5" y2="433.12" style="fill:#fff;stroke:#231f20;stroke-miterlimit:10;stroke-width:0.6418989297017441px"/></g><polyline id="bottom-line-28" data-name="bottom-line" points="639.49 412.68 614.5 433.12 550.11 433.12" style="fill:none;stroke:#231f20;stroke-miterlimit:10;stroke-width:1.2837978594034882px"/></g></g><g id="bar-clip-29" data-name="bar-clip"><g style="clip-path:url(#clip-path-29)"><g id="bar-29" data-name="bar"><polygon points="650.46 453.47 650.46 360.37 675.03 340.26 738.55 340.26 738.55 433.37 713.98 453.47 650.46 453.47" style="fill:#fff"/><path d="M760.59,148.75V240.9l-24.17,19.77H673.77V168.52l24.17-19.77h62.65m1.28-1.29H697.48l-25,20.45v94h64.39l25-20.44v-94Z" transform="translate(-22.67 192.16)" style="fill:#231f20"/><polyline points="739.2 339.62 714.21 360.07 649.82 360.07" style="fill:#fff;stroke:#231f20;stroke-miterlimit:10;stroke-width:0.6418989297017441px"/><line x1="714.21" y1="360.07" x2="714.21" y2="454.11" style="fill:#fff;stroke:#231f20;stroke-miterlimit:10;stroke-width:0.6418989297017441px"/></g><polyline id="bottom-line-29" data-name="bottom-line" points="739.2 433.67 714.21 454.11 649.82 454.11" style="fill:none;stroke:#231f20;stroke-miterlimit:10;stroke-width:1.2837978594034882px"/></g></g><g id="bar-clip-30" data-name="bar-clip"><g style="clip-path:url(#clip-path-30)"><g id="bar-30" data-name="bar"><polygon points="571.71 482.65 571.71 389.55 596.28 369.44 659.8 369.44 659.8 462.55 635.23 482.65 571.71 482.65" style="fill:#fff"/><path d="M681.83,177.93v92.15l-24.16,19.77H595V197.69l24.16-19.76h62.65m1.29-1.29H618.73l-25,20.45v94h64.39l25-20.44V176.64Z" transform="translate(-22.67 192.16)" style="fill:#231f20"/><polyline points="660.45 368.8 635.46 389.25 571.06 389.25" style="fill:#fff;stroke:#231f20;stroke-miterlimit:10;stroke-width:0.6418989297017441px"/><line x1="635.45" y1="389.25" x2="635.45" y2="483.29" style="fill:#fff;stroke:#231f20;stroke-miterlimit:10;stroke-width:0.6418989297017441px"/></g><polyline id="bottom-line-30" data-name="bottom-line" points="660.45 462.85 635.46 483.29 571.06 483.29" style="fill:none;stroke:#231f20;stroke-miterlimit:10;stroke-width:1.2837978594034882px"/></g></g><g id="bar-clip-31" data-name="bar-clip"><g style="clip-path:url(#clip-path-31)"><g id="bar-31" data-name="bar"><polygon points="472.18 468.43 472.18 375.33 496.75 355.23 560.27 355.23 560.27 448.33 535.7 468.43 472.18 468.43" style="fill:#fff"/><path d="M582.3,163.71v92.15l-24.16,19.77H495.49V183.48l24.17-19.77H582.3m1.29-1.28H519.2l-25,20.44v94.05H558.6l25-20.45v-94Z" transform="translate(-22.67 192.16)" style="fill:#231f20"/><polyline points="560.91 354.58 535.92 375.03 471.53 375.03" style="fill:#fff;stroke:#231f20;stroke-miterlimit:10;stroke-width:0.6418989297017441px"/><line x1="535.92" y1="375.03" x2="535.92" y2="469.07" style="fill:#fff;stroke:#231f20;stroke-miterlimit:10;stroke-width:0.6418989297017441px"/></g><polyline id="bottom-line-31" data-name="bottom-line" points="560.91 448.63 535.92 469.07 471.53 469.07" style="fill:none;stroke:#231f20;stroke-miterlimit:10;stroke-width:1.2837978594034882px"/></g></g></svg>