<?xml version="1.0" encoding="utf-8"?>
<!-- Generator: Adobe Illustrator 25.0.1, SVG Export Plug-In . SVG Version: 6.00 Build 0)  -->
<svg version="1.1" id="Layer_1" xmlns="http://www.w3.org/2000/svg" xmlns:xlink="http://www.w3.org/1999/xlink" x="0px" y="0px"
	 viewBox="0 0 571 130" style="enable-background:new 0 0 571 130;" xml:space="preserve">
<style type="text/css">
	.st0{fill:none;stroke:#000000;stroke-miterlimit:10;}
</style>
<g id="horizontals">
	<line class="st0" x1="-160.4" y1="151" x2="571" y2="136"/>
	<line class="st0" x1="-155.2" y1="146.1" x2="571" y2="115.4"/>
	<line class="st0" x1="-150" y1="141.2" x2="571" y2="96.1"/>
	<line class="st0" x1="-144.8" y1="136.4" x2="571" y2="77.8"/>
	<line class="st0" x1="-139.8" y1="131.6" x2="571" y2="60.5"/>
	<line class="st0" x1="-134.8" y1="127" x2="571" y2="44.2"/>
	<line class="st0" x1="-129.9" y1="122.4" x2="571" y2="28.8"/>
	<line class="st0" x1="-125.1" y1="117.8" x2="571" y2="14.2"/>
	<line class="st0" x1="-120.3" y1="113.3" x2="571" y2="0.3"/>
	<line class="st0" x1="-115.7" y1="108.9" x2="571" y2="-12.9"/>
	<line class="st0" x1="-111" y1="104.5" x2="571" y2="-25.5"/>
	<line class="st0" x1="-106.4" y1="100.2" x2="571" y2="-37.5"/>
	<line class="st0" x1="-101.9" y1="95.9" x2="571" y2="-48.9"/>
	<line class="st0" x1="-97.5" y1="91.8" x2="571" y2="-59.9"/>
	<line class="st0" x1="-93" y1="87.6" x2="571" y2="-70.3"/>
	<line class="st0" x1="-88.7" y1="83.6" x2="571" y2="-80.3"/>
	<line class="st0" x1="-84.4" y1="79.5" x2="571" y2="-89.9"/>
	<line class="st0" x1="-80.2" y1="75.5" x2="571" y2="-99.1"/>
	<line class="st0" x1="-76.1" y1="71.6" x2="571" y2="-107.9"/>
	<line class="st0" x1="-71.9" y1="67.7" x2="571" y2="-116.4"/>
	<line class="st0" x1="-67.8" y1="63.9" x2="571" y2="-124.5"/>
	<line class="st0" x1="-63.8" y1="60.1" x2="571" y2="-132.4"/>
	<line class="st0" x1="-59.9" y1="56.3" x2="571" y2="-139.9"/>
	<line class="st0" x1="-56" y1="52.7" x2="571" y2="-147.2"/>
	<line class="st0" x1="-52.1" y1="49" x2="571" y2="-154.2"/>
	<line class="st0" x1="-48.3" y1="45.5" x2="571" y2="-160.9"/>
	<line class="st0" x1="-44.5" y1="41.9" x2="571" y2="-167.5"/>
	<line class="st0" x1="-40.8" y1="38.4" x2="571" y2="-173.8"/>
	<line class="st0" x1="-37.1" y1="34.9" x2="571" y2="-179.9"/>
	<line class="st0" x1="-33.4" y1="31.5" x2="571" y2="-185.8"/>
	<line class="st0" x1="-29.8" y1="28.1" x2="571" y2="-191.5"/>
	<line class="st0" x1="-26.3" y1="24.7" x2="571" y2="-197"/>
	<line class="st0" x1="-22.8" y1="21.4" x2="571" y2="-202.3"/>
	<line class="st0" x1="-19.3" y1="18.2" x2="571" y2="-207.5"/>
	<line class="st0" x1="-15.9" y1="15" x2="571" y2="-212.6"/>
	<line class="st0" x1="-12.5" y1="11.7" x2="571" y2="-217.4"/>
	<line class="st0" x1="-9.1" y1="8.6" x2="571" y2="-222.2"/>
	<line class="st0" x1="-5.8" y1="5.5" x2="571" y2="-226.7"/>
	<line class="st0" x1="-2.5" y1="2.3" x2="571" y2="-231.2"/>
	<line class="st0" x1="0.7" y1="-0.7" x2="571" y2="-235.5"/>
	<line class="st0" x1="3.9" y1="-3.7" x2="571" y2="-239.7"/>
	<line class="st0" x1="7.1" y1="-6.7" x2="571" y2="-243.9"/>
	<line class="st0" x1="10.2" y1="-9.6" x2="571" y2="-247.9"/>
	<line class="st0" x1="13.3" y1="-12.6" x2="571" y2="-251.7"/>
	<line class="st0" x1="16.4" y1="-15.4" x2="571" y2="-255.5"/>
	<line class="st0" x1="19.4" y1="-18.3" x2="571" y2="-259.2"/>
	<line class="st0" x1="22.4" y1="-21.1" x2="571" y2="-262.8"/>
	<line class="st0" x1="25.4" y1="-23.9" x2="571" y2="-266.3"/>
</g>
<g id="verticals">
	<line class="st0" x1="551.9" y1="-261.1" x2="523" y2="157.8"/>
	<line class="st0" x1="533.6" y1="-252.9" x2="479.6" y2="157.7"/>
	<line class="st0" x1="515.9" y1="-245" x2="440.2" y2="157.6"/>
	<line class="st0" x1="499" y1="-237.4" x2="404.3" y2="157.5"/>
	<line class="st0" x1="482.6" y1="-230.1" x2="371.3" y2="157.5"/>
	<line class="st0" x1="466.9" y1="-223.1" x2="341.1" y2="157.3"/>
	<line class="st0" x1="451.7" y1="-216.3" x2="313.1" y2="157.3"/>
	<line class="st0" x1="437.1" y1="-209.7" x2="287.3" y2="157.2"/>
	<line class="st0" x1="423" y1="-203.4" x2="263.4" y2="157.2"/>
	<line class="st0" x1="409.3" y1="-197.3" x2="241" y2="157.1"/>
	<line class="st0" x1="396.1" y1="-191.4" x2="220.2" y2="157.1"/>
	<line class="st0" x1="383.4" y1="-185.6" x2="200.8" y2="157"/>
	<line class="st0" x1="371" y1="-180.1" x2="182.5" y2="156.9"/>
	<line class="st0" x1="359.1" y1="-174.8" x2="165.4" y2="156.9"/>
	<line class="st0" x1="347.5" y1="-169.6" x2="149.3" y2="156.9"/>
	<line class="st0" x1="336.3" y1="-164.6" x2="134.1" y2="156.8"/>
	<line class="st0" x1="325.4" y1="-159.7" x2="119.8" y2="156.8"/>
	<line class="st0" x1="314.9" y1="-155" x2="106.3" y2="156.8"/>
	<line class="st0" x1="304.6" y1="-150.4" x2="93.4" y2="156.7"/>
	<line class="st0" x1="294.7" y1="-145.9" x2="81.2" y2="156.7"/>
	<line class="st0" x1="285.1" y1="-141.6" x2="69.7" y2="156.7"/>
	<line class="st0" x1="275.7" y1="-137.4" x2="58.7" y2="156.7"/>
	<line class="st0" x1="266.5" y1="-133.3" x2="48.3" y2="156.6"/>
	<line class="st0" x1="257.7" y1="-129.3" x2="38.2" y2="156.6"/>
	<line class="st0" x1="249" y1="-125.5" x2="28.7" y2="156.5"/>
	<line class="st0" x1="240.6" y1="-121.7" x2="19.7" y2="156.5"/>
	<line class="st0" x1="232.4" y1="-118.1" x2="11" y2="156.5"/>
	<line class="st0" x1="224.5" y1="-114.5" x2="2.6" y2="156.5"/>
	<line class="st0" x1="216.7" y1="-111" x2="-5.4" y2="156.5"/>
	<line class="st0" x1="209.2" y1="-107.6" x2="-13" y2="156.5"/>
	<line class="st0" x1="201.8" y1="-104.4" x2="-20.3" y2="156.4"/>
	<line class="st0" x1="194.6" y1="-101.1" x2="-27.4" y2="156.4"/>
	<line class="st0" x1="187.6" y1="-98" x2="-34.2" y2="156.4"/>
	<line class="st0" x1="180.8" y1="-94.9" x2="-40.7" y2="156.4"/>
	<line class="st0" x1="174.1" y1="-91.9" x2="-47" y2="156.4"/>
	<line class="st0" x1="167.6" y1="-89" x2="-53" y2="156.4"/>
	<line class="st0" x1="161.2" y1="-86.2" x2="-58.9" y2="156.3"/>
	<line class="st0" x1="155" y1="-83.4" x2="-64.5" y2="156.3"/>
	<line class="st0" x1="148.9" y1="-80.7" x2="-70" y2="156.3"/>
	<line class="st0" x1="142.9" y1="-78" x2="-75.2" y2="156.3"/>
	<line class="st0" x1="137.1" y1="-75.4" x2="-80.3" y2="156.3"/>
	<line class="st0" x1="131.4" y1="-72.8" x2="-85.2" y2="156.3"/>
	<line class="st0" x1="125.9" y1="-70.3" x2="-89.9" y2="156.3"/>
	<line class="st0" x1="120.4" y1="-67.9" x2="-94.5" y2="156.3"/>
	<line class="st0" x1="115.1" y1="-65.5" x2="-99" y2="156.3"/>
	<line class="st0" x1="109.9" y1="-63.2" x2="-103.3" y2="156.3"/>
	<line class="st0" x1="104.8" y1="-60.9" x2="-107.5" y2="156.2"/>
	<line class="st0" x1="99.8" y1="-58.7" x2="-111.6" y2="156.2"/>
	<line class="st0" x1="94.9" y1="-56.5" x2="-115.5" y2="156.2"/>
	<line class="st0" x1="90.1" y1="-54.3" x2="-119.3" y2="156.2"/>
	<line class="st0" x1="85.4" y1="-52.2" x2="-123" y2="156.2"/>
	<line class="st0" x1="80.8" y1="-50.2" x2="-126.7" y2="156.2"/>
	<line class="st0" x1="76.3" y1="-48.1" x2="-130.2" y2="156.1"/>
	<line class="st0" x1="71.9" y1="-46.2" x2="-133.6" y2="156.1"/>
	<line class="st0" x1="67.5" y1="-44.2" x2="-136.9" y2="156.1"/>
	<line class="st0" x1="63.3" y1="-42.3" x2="-140.1" y2="156.1"/>
	<line class="st0" x1="59.1" y1="-40.5" x2="-143.3" y2="156.1"/>
	<line class="st0" x1="55" y1="-38.6" x2="-146.3" y2="156.1"/>
	<line class="st0" x1="51" y1="-36.8" x2="-149.3" y2="156.1"/>
	<line class="st0" x1="47" y1="-35.1" x2="-152.2" y2="156.1"/>
	<line class="st0" x1="43.1" y1="-33.3" x2="-155.1" y2="156.1"/>
	<line class="st0" x1="39.3" y1="-31.6" x2="-157.9" y2="156.1"/>
	<line class="st0" x1="35.6" y1="-29.9" x2="-160.6" y2="156.1"/>
	<line class="st0" x1="31.9" y1="-28.3" x2="-163.2" y2="156.1"/>
</g>
</svg>
