<?xml version="1.0" encoding="utf-8"?>
<!-- Generator: Adobe Illustrator 25.0.1, SVG Export Plug-In . SVG Version: 6.00 Build 0)  -->
<svg version="1.1" id="Layer_1" xmlns="http://www.w3.org/2000/svg" xmlns:xlink="http://www.w3.org/1999/xlink" x="0px" y="0px"
	 viewBox="0 0 571 130" style="enable-background:new 0 0 571 130;" xml:space="preserve">
<style type="text/css">
	.st0{fill:none;stroke:#231F20;stroke-width:0.4485;stroke-miterlimit:10;}
	.st1{fill:#FFFFFF;stroke:#231F20;stroke-width:0.4364;stroke-miterlimit:10;}
	.st2{clip-path:url(#mask_1_);}
	.st3{fill:none;stroke:#231F20;stroke-width:0.4364;stroke-miterlimit:10;}
	.st4{fill:#231F20;stroke:#231F20;stroke-width:0.4364;stroke-miterlimit:10;}
	.st5{fill:none;}
</style>
<g>
	<path class="st0" d="M161.4-6.6c2.7,0,2.6,5.4,5.3,5.4c2.7,0,2.7-5.4,5.3-5.4c2.7,0,2.6,5.4,5.3,5.4c2.7,0,2.7-5.4,5.3-5.4
		c2.7,0,2.6,5.4,5.3,5.4c2.7,0,2.7-5.4,5.3-5.4c2.7,0,2.6,5.4,5.3,5.4c2.7,0,2.7-5.4,5.3-5.4c2.7,0,2.6,5.4,5.3,5.4
		c2.7,0,2.7-5.4,5.3-5.4c2.7,0,2.6,5.4,5.3,5.4c2.7,0,2.7-5.4,5.3-5.4c2.7,0,2.6,5.4,5.3,5.4c2.7,0,2.7-5.4,5.3-5.4
		c2.7,0,2.6,5.4,5.3,5.4c2.7,0,2.7-5.4,5.3-5.4c2.7,0,2.6,5.4,5.3,5.4c2.7,0,2.7-5.4,5.3-5.4c2.7,0,2.6,5.4,5.3,5.4
		c2.7,0,2.7-5.4,5.3-5.4c2.7,0,2.6,5.4,5.3,5.4c2.7,0,2.7-5.4,5.3-5.4c2.7,0,2.6,5.4,5.3,5.4c2.7,0,2.7-5.4,5.3-5.4
		c2.7,0,2.6,5.4,5.3,5.4c2.7,0,2.7-5.4,5.3-5.4c2.7,0,2.6,5.4,5.3,5.4c2.7,0,2.7-5.4,5.3-5.4c2.7,0,2.6,5.4,5.3,5.4
		c2.7,0,2.7-5.4,5.3-5.4c2.7,0,2.6,5.4,5.3,5.4c2.7,0,2.7-5.4,5.3-5.4c2.7,0,2.6,5.4,5.3,5.4c2.7,0,2.7-5.4,5.3-5.4
		c2.7,0,2.6,5.4,5.3,5.4c2.7,0,2.7-5.4,5.3-5.4c2.7,0,2.6,5.4,5.3,5.4c2.7,0,2.7-5.4,5.3-5.4c2.7,0,2.6,5.4,5.3,5.4
		c2.7,0,2.7-5.4,5.3-5.4c2.7,0,2.6,5.4,5.3,5.4c2.7,0,2.7-5.4,5.3-5.4c2.7,0,2.6,5.4,5.3,5.4c2.7,0,2.7-5.4,5.3-5.4
		c2.7,0,2.6,5.4,5.3,5.4c2.7,0,2.7-5.4,5.3-5.4c2.7,0,2.6,5.4,5.3,5.4c2.7,0,2.7-5.4,5.3-5.4c2.7,0,2.6,5.4,5.3,5.4
		c2.7,0,2.7-5.4,5.3-5.4c2.7,0,2.6,5.4,5.3,5.4c2.7,0,2.7-5.4,5.3-5.4c2.7,0,2.6,5.4,5.3,5.4c2.7,0,2.7-5.4,5.3-5.4
		c2.7,0,2.6,5.4,5.3,5.4c2.7,0,2.7-5.4,5.3-5.4c2.7,0,2.6,5.4,5.3,5.4c2.7,0,2.7-5.4,5.3-5.4c2.7,0,2.6,5.4,5.3,5.4
		c2.7,0,2.7-5.4,5.3-5.4c2.7,0,2.6,5.4,5.3,5.4c2.7,0,2.7-5.4,5.3-5.4c2.7,0,2.6,5.4,5.3,5.4c2.7,0,2.7-5.4,5.3-5.4
		c2.7,0,2.6,5.4,5.3,5.4c2.7,0,2.7-5.4,5.3-5.4c2.7,0,2.6,5.4,5.3,5.4c2.7,0,2.7-5.4,5.3-5.4c2.7,0,2.6,5.4,5.3,5.4
		c2.7,0,2.7-5.4,5.3-5.4c2.7,0,2.6,5.4,5.3,5.4c2.7,0,2.7-5.4,5.3-5.4c2.7,0,2.6,5.4,5.3,5.4c2.7,0,2.7-5.4,5.3-5.4
		c2.7,0,2.6,5.4,5.3,5.4c2.7,0,2.7-5.4,5.3-5.4c2.7,0,2.6,5.4,5.3,5.4"/>
	<path class="st0" d="M150.1,2.3c2.7,0,2.7,5.4,5.4,5.4c2.7,0,2.8-5.4,5.5-5.4c2.7,0,2.7,5.4,5.4,5.4c2.7,0,2.8-5.4,5.5-5.4
		c2.7,0,2.7,5.4,5.4,5.4c2.7,0,2.8-5.4,5.5-5.4c2.7,0,2.7,5.4,5.4,5.4c2.7,0,2.8-5.4,5.5-5.4c2.7,0,2.7,5.4,5.4,5.4
		c2.7,0,2.8-5.4,5.5-5.4c2.7,0,2.7,5.4,5.4,5.4c2.7,0,2.8-5.4,5.5-5.4c2.7,0,2.7,5.4,5.4,5.4c2.7,0,2.8-5.4,5.5-5.4
		c2.7,0,2.7,5.4,5.4,5.4c2.7,0,2.8-5.4,5.5-5.4c2.7,0,2.7,5.4,5.4,5.4c2.7,0,2.8-5.4,5.5-5.4c2.7,0,2.7,5.4,5.4,5.4
		c2.7,0,2.8-5.4,5.5-5.4c2.7,0,2.7,5.4,5.4,5.4c2.7,0,2.8-5.4,5.5-5.4c2.7,0,2.7,5.4,5.4,5.4c2.7,0,2.8-5.4,5.5-5.4
		c2.7,0,2.7,5.4,5.4,5.4c2.7,0,2.8-5.4,5.5-5.4c2.7,0,2.7,5.4,5.4,5.4c2.7,0,2.8-5.4,5.5-5.4c2.7,0,2.7,5.4,5.4,5.4
		c2.7,0,2.8-5.4,5.5-5.4c2.7,0,2.7,5.4,5.4,5.4c2.7,0,2.8-5.4,5.5-5.4c2.7,0,2.7,5.4,5.4,5.4c2.7,0,2.8-5.4,5.5-5.4
		c2.7,0,2.7,5.4,5.4,5.4c2.7,0,2.8-5.4,5.5-5.4c2.7,0,2.7,5.4,5.4,5.4c2.7,0,2.8-5.4,5.5-5.4c2.7,0,2.7,5.4,5.4,5.4
		c2.7,0,2.8-5.4,5.5-5.4c2.7,0,2.7,5.4,5.4,5.4c2.7,0,2.8-5.4,5.5-5.4c2.7,0,2.7,5.4,5.4,5.4c2.7,0,2.8-5.4,5.5-5.4
		c2.7,0,2.7,5.4,5.4,5.4c2.7,0,2.8-5.4,5.5-5.4c2.7,0,2.7,5.4,5.4,5.4c2.7,0,2.8-5.4,5.5-5.4c2.7,0,2.7,5.4,5.4,5.4
		c2.7,0,2.8-5.4,5.5-5.4c2.7,0,2.7,5.4,5.4,5.4c2.7,0,2.8-5.4,5.5-5.4c2.7,0,2.7,5.4,5.4,5.4c2.7,0,2.8-5.4,5.5-5.4
		c2.7,0,2.7,5.4,5.4,5.4c2.7,0,2.8-5.4,5.5-5.4c2.7,0,2.7,5.4,5.4,5.4c2.7,0,2.8-5.4,5.5-5.4c2.7,0,2.7,5.4,5.4,5.4
		c2.7,0,2.8-5.4,5.5-5.4c2.7,0,2.7,5.4,5.4,5.4c2.7,0,2.8-5.4,5.5-5.4c2.7,0,2.7,5.4,5.4,5.4c2.7,0,2.8-5.4,5.5-5.4
		c2.7,0,2.7,5.4,5.4,5.4c2.7,0,2.8-5.4,5.5-5.4c2.7,0,2.7,5.4,5.4,5.4c2.7,0,2.8-5.4,5.5-5.4c2.7,0,2.7,5.4,5.4,5.4
		c2.7,0,2.8-5.4,5.5-5.4c2.7,0,2.7,5.4,5.4,5.4c2.7,0,2.8-5.4,5.5-5.4c2.7,0,2.7,5.4,5.4,5.4c2.7,0,2.8-5.4,5.5-5.4
		c2.7,0,2.7,5.4,5.4,5.4c2.7,0,2.8-5.4,5.5-5.4c2.7,0,2.7,5.4,5.5,5.4"/>
	<path class="st0" d="M138.8,11.1c2.8,0,2.8,5.4,5.6,5.4c2.8,0,2.8-5.4,5.6-5.4c2.8,0,2.8,5.4,5.6,5.4c2.8,0,2.8-5.4,5.6-5.4
		c2.8,0,2.8,5.4,5.6,5.4c2.8,0,2.8-5.4,5.6-5.4c2.8,0,2.8,5.4,5.6,5.4c2.8,0,2.8-5.4,5.6-5.4c2.8,0,2.8,5.4,5.6,5.4
		c2.8,0,2.8-5.4,5.6-5.4c2.8,0,2.8,5.4,5.6,5.4c2.8,0,2.8-5.4,5.6-5.4c2.8,0,2.8,5.4,5.6,5.4c2.8,0,2.8-5.4,5.6-5.4
		c2.8,0,2.8,5.4,5.6,5.4c2.8,0,2.8-5.4,5.6-5.4c2.8,0,2.8,5.4,5.6,5.4c2.8,0,2.8-5.4,5.6-5.4c2.8,0,2.8,5.4,5.6,5.4
		c2.8,0,2.8-5.4,5.6-5.4c2.8,0,2.8,5.4,5.6,5.4c2.8,0,2.8-5.4,5.6-5.4c2.8,0,2.8,5.4,5.6,5.4c2.8,0,2.8-5.4,5.6-5.4
		c2.8,0,2.8,5.4,5.6,5.4c2.8,0,2.8-5.4,5.6-5.4c2.8,0,2.8,5.4,5.6,5.4c2.8,0,2.8-5.4,5.6-5.4c2.8,0,2.8,5.4,5.6,5.4
		c2.8,0,2.8-5.4,5.6-5.4c2.8,0,2.8,5.4,5.6,5.4c2.8,0,2.8-5.4,5.6-5.4c2.8,0,2.8,5.4,5.6,5.4c2.8,0,2.8-5.4,5.6-5.4
		c2.8,0,2.8,5.4,5.6,5.4c2.8,0,2.8-5.4,5.6-5.4c2.8,0,2.8,5.4,5.6,5.4c2.8,0,2.8-5.4,5.6-5.4c2.8,0,2.8,5.4,5.6,5.4
		c2.8,0,2.8-5.4,5.6-5.4c2.8,0,2.8,5.4,5.6,5.4c2.8,0,2.8-5.4,5.6-5.4c2.8,0,2.8,5.4,5.6,5.4c2.8,0,2.8-5.4,5.6-5.4
		c2.8,0,2.8,5.4,5.6,5.4c2.8,0,2.8-5.4,5.6-5.4c2.8,0,2.8,5.4,5.6,5.4c2.8,0,2.8-5.4,5.6-5.4c2.8,0,2.8,5.4,5.6,5.4
		c2.8,0,2.8-5.4,5.6-5.4c2.8,0,2.8,5.4,5.6,5.4c2.8,0,2.8-5.4,5.6-5.4c2.8,0,2.8,5.4,5.6,5.4c2.8,0,2.8-5.4,5.6-5.4
		c2.8,0,2.8,5.4,5.6,5.4c2.8,0,2.8-5.4,5.6-5.4c2.8,0,2.8,5.4,5.6,5.4c2.8,0,2.8-5.4,5.6-5.4c2.8,0,2.8,5.4,5.6,5.4
		c2.8,0,2.8-5.4,5.6-5.4c2.8,0,2.8,5.4,5.6,5.4c2.8,0,2.8-5.4,5.6-5.4c2.8,0,2.8,5.4,5.6,5.4c2.8,0,2.8-5.4,5.6-5.4
		c2.8,0,2.8,5.4,5.6,5.4c2.8,0,2.8-5.4,5.6-5.4c2.8,0,2.8,5.4,5.6,5.4c2.8,0,2.8-5.4,5.6-5.4c2.8,0,2.8,5.4,5.6,5.4
		c2.8,0,2.8-5.4,5.6-5.4c2.8,0,2.8,5.4,5.6,5.4c2.8,0,2.8-5.4,5.6-5.4c2.8,0,2.8,5.4,5.6,5.4c2.8,0,2.8-5.4,5.6-5.4
		c2.8,0,2.8,5.4,5.6,5.4c2.8,0,2.8-5.4,5.6-5.4c2.8,0,2.8,5.4,5.6,5.4"/>
	<path class="st0" d="M127.5,20c2.9,0,2.9,5.4,5.7,5.4c2.9,0,2.9-5.4,5.8-5.4c2.9,0,2.9,5.4,5.7,5.4c2.9,0,2.9-5.4,5.8-5.4
		c2.9,0,2.9,5.4,5.7,5.4c2.9,0,2.9-5.4,5.8-5.4c2.9,0,2.9,5.4,5.7,5.4c2.9,0,2.9-5.4,5.8-5.4c2.9,0,2.9,5.4,5.7,5.4
		c2.9,0,2.9-5.4,5.8-5.4c2.9,0,2.9,5.4,5.7,5.4c2.9,0,2.9-5.4,5.8-5.4c2.9,0,2.9,5.4,5.7,5.4c2.9,0,2.9-5.4,5.8-5.4
		c2.9,0,2.9,5.4,5.7,5.4c2.9,0,2.9-5.4,5.8-5.4c2.9,0,2.9,5.4,5.7,5.4c2.9,0,2.9-5.4,5.8-5.4c2.9,0,2.9,5.4,5.7,5.4
		c2.9,0,2.9-5.4,5.8-5.4c2.9,0,2.9,5.4,5.7,5.4c2.9,0,2.9-5.4,5.8-5.4c2.9,0,2.9,5.4,5.7,5.4c2.9,0,2.9-5.4,5.8-5.4
		c2.9,0,2.9,5.4,5.7,5.4c2.9,0,2.9-5.4,5.8-5.4c2.9,0,2.9,5.4,5.7,5.4c2.9,0,2.9-5.4,5.8-5.4c2.9,0,2.9,5.4,5.7,5.4
		c2.9,0,2.9-5.4,5.8-5.4c2.9,0,2.9,5.4,5.7,5.4c2.9,0,2.9-5.4,5.8-5.4c2.9,0,2.9,5.4,5.7,5.4c2.9,0,2.9-5.4,5.8-5.4
		c2.9,0,2.9,5.4,5.7,5.4c2.9,0,2.9-5.4,5.8-5.4c2.9,0,2.9,5.4,5.7,5.4c2.9,0,2.9-5.4,5.8-5.4c2.9,0,2.9,5.4,5.7,5.4
		c2.9,0,2.9-5.4,5.8-5.4c2.9,0,2.9,5.4,5.7,5.4c2.9,0,2.9-5.4,5.8-5.4c2.9,0,2.9,5.4,5.7,5.4c2.9,0,2.9-5.4,5.8-5.4
		c2.9,0,2.9,5.4,5.7,5.4c2.9,0,2.9-5.4,5.8-5.4c2.9,0,2.9,5.4,5.7,5.4c2.9,0,2.9-5.4,5.8-5.4c2.9,0,2.9,5.4,5.7,5.4
		c2.9,0,2.9-5.4,5.8-5.4c2.9,0,2.9,5.4,5.7,5.4c2.9,0,2.9-5.4,5.8-5.4c2.9,0,2.9,5.4,5.7,5.4c2.9,0,2.9-5.4,5.8-5.4
		c2.9,0,2.9,5.4,5.7,5.4c2.9,0,2.9-5.4,5.8-5.4c2.9,0,2.9,5.4,5.7,5.4c2.9,0,2.9-5.4,5.8-5.4s2.9,5.4,5.7,5.4c2.9,0,2.9-5.4,5.8-5.4
		c2.9,0,2.9,5.4,5.7,5.4c2.9,0,2.9-5.4,5.8-5.4c2.9,0,2.9,5.4,5.7,5.4c2.9,0,2.9-5.4,5.8-5.4c2.9,0,2.9,5.4,5.7,5.4
		c2.9,0,2.9-5.4,5.8-5.4c2.9,0,2.9,5.4,5.7,5.4c2.9,0,2.9-5.4,5.8-5.4c2.9,0,2.9,5.4,5.7,5.4c2.9,0,2.9-5.4,5.8-5.4
		c2.9,0,2.9,5.4,5.7,5.4c2.9,0,2.9-5.4,5.8-5.4c2.9,0,2.9,5.4,5.7,5.4c2.9,0,2.9-5.4,5.8-5.4c2.9,0,2.9,5.4,5.7,5.4
		c2.9,0,2.9-5.4,5.8-5.4s2.9,5.4,5.7,5.4"/>
	<path class="st0" d="M116.2,28.9c3,0,2.9,5.4,5.9,5.4c3,0,3-5.4,5.9-5.4c3,0,2.9,5.4,5.9,5.4c3,0,3-5.4,5.9-5.4
		c3,0,2.9,5.4,5.9,5.4c3,0,3-5.4,5.9-5.4c3,0,2.9,5.4,5.9,5.4c3,0,3-5.4,5.9-5.4c3,0,2.9,5.4,5.9,5.4c3,0,3-5.4,5.9-5.4
		c3,0,2.9,5.4,5.9,5.4c3,0,3-5.4,5.9-5.4c3,0,2.9,5.4,5.9,5.4c3,0,3-5.4,5.9-5.4c3,0,2.9,5.4,5.9,5.4c3,0,3-5.4,5.9-5.4
		c3,0,2.9,5.4,5.9,5.4c3,0,3-5.4,5.9-5.4c3,0,2.9,5.4,5.9,5.4c3,0,3-5.4,5.9-5.4c3,0,2.9,5.4,5.9,5.4c3,0,3-5.4,5.9-5.4
		c3,0,2.9,5.4,5.9,5.4c3,0,3-5.4,5.9-5.4c3,0,2.9,5.4,5.9,5.4c3,0,3-5.4,5.9-5.4c3,0,2.9,5.4,5.9,5.4c3,0,3-5.4,5.9-5.4
		c3,0,2.9,5.4,5.9,5.4c3,0,3-5.4,5.9-5.4c3,0,2.9,5.4,5.9,5.4c3,0,3-5.4,5.9-5.4c3,0,2.9,5.4,5.9,5.4c3,0,3-5.4,5.9-5.4
		c3,0,2.9,5.4,5.9,5.4c3,0,3-5.4,5.9-5.4c3,0,2.9,5.4,5.9,5.4c3,0,3-5.4,5.9-5.4c3,0,2.9,5.4,5.9,5.4c3,0,3-5.4,5.9-5.4
		c3,0,2.9,5.4,5.9,5.4c3,0,3-5.4,5.9-5.4c3,0,2.9,5.4,5.9,5.4c3,0,3-5.4,5.9-5.4c3,0,2.9,5.4,5.9,5.4c3,0,3-5.4,5.9-5.4
		c3,0,2.9,5.4,5.9,5.4c3,0,3-5.4,5.9-5.4c3,0,2.9,5.4,5.9,5.4c3,0,3-5.4,5.9-5.4c3,0,2.9,5.4,5.9,5.4c3,0,3-5.4,5.9-5.4
		c3,0,2.9,5.4,5.9,5.4c3,0,3-5.4,5.9-5.4c3,0,2.9,5.4,5.9,5.4c3,0,3-5.4,5.9-5.4c3,0,2.9,5.4,5.9,5.4c3,0,3-5.4,5.9-5.4
		c3,0,2.9,5.4,5.9,5.4c3,0,3-5.4,5.9-5.4c3,0,2.9,5.4,5.9,5.4c3,0,3-5.4,5.9-5.4c3,0,2.9,5.4,5.9,5.4c3,0,3-5.4,5.9-5.4
		c3,0,2.9,5.4,5.9,5.4c3,0,3-5.4,5.9-5.4c3,0,2.9,5.4,5.9,5.4c3,0,3-5.4,5.9-5.4c3,0,2.9,5.4,5.9,5.4c3,0,3-5.4,5.9-5.4
		c3,0,2.9,5.4,5.9,5.4c3,0,3-5.4,5.9-5.4c3,0,2.9,5.4,5.9,5.4c3,0,3-5.4,5.9-5.4c3,0,2.9,5.4,5.9,5.4c3,0,3-5.4,5.9-5.4
		c3,0,2.9,5.4,5.9,5.4"/>
	<path class="st0" d="M104.9,37.7c3,0,3,5.4,6,5.4c3,0,3-5.4,6.1-5.4c3,0,3,5.4,6,5.4c3,0,3-5.4,6.1-5.4c3,0,3,5.4,6,5.4
		c3,0,3-5.4,6.1-5.4c3,0,3,5.4,6,5.4c3,0,3-5.4,6.1-5.4c3,0,3,5.4,6,5.4c3,0,3-5.4,6.1-5.4c3,0,3,5.4,6,5.4c3,0,3-5.4,6.1-5.4
		c3,0,3,5.4,6,5.4c3,0,3-5.4,6.1-5.4c3,0,3,5.4,6,5.4c3,0,3-5.4,6.1-5.4c3,0,3,5.4,6,5.4c3,0,3-5.4,6.1-5.4c3,0,3,5.4,6,5.4
		c3,0,3-5.4,6.1-5.4c3,0,3,5.4,6,5.4c3,0,3-5.4,6.1-5.4c3,0,3,5.4,6,5.4c3,0,3-5.4,6.1-5.4c3,0,3,5.4,6,5.4c3,0,3-5.4,6.1-5.4
		c3,0,3,5.4,6,5.4c3,0,3-5.4,6.1-5.4c3,0,3,5.4,6,5.4c3,0,3-5.4,6.1-5.4c3,0,3,5.4,6,5.4c3,0,3-5.4,6.1-5.4c3,0,3,5.4,6,5.4
		c3,0,3-5.4,6.1-5.4c3,0,3,5.4,6,5.4c3,0,3-5.4,6.1-5.4c3,0,3,5.4,6,5.4c3,0,3-5.4,6.1-5.4c3,0,3,5.4,6,5.4c3,0,3-5.4,6.1-5.4
		c3,0,3,5.4,6,5.4c3,0,3-5.4,6.1-5.4c3,0,3,5.4,6,5.4c3,0,3-5.4,6.1-5.4c3,0,3,5.4,6,5.4c3,0,3-5.4,6.1-5.4c3,0,3,5.4,6,5.4
		c3,0,3-5.4,6.1-5.4c3,0,3,5.4,6,5.4c3,0,3-5.4,6.1-5.4c3,0,3,5.4,6,5.4c3,0,3-5.4,6.1-5.4c3,0,3,5.4,6,5.4c3,0,3-5.4,6.1-5.4
		c3,0,3,5.4,6,5.4c3,0,3-5.4,6.1-5.4c3,0,3,5.4,6,5.4c3,0,3-5.4,6.1-5.4c3,0,3,5.4,6,5.4c3,0,3-5.4,6.1-5.4c3,0,3,5.4,6,5.4
		c3,0,3-5.4,6.1-5.4c3,0,3,5.4,6,5.4c3,0,3-5.4,6.1-5.4c3,0,3,5.4,6,5.4c3,0,3-5.4,6.1-5.4c3,0,3,5.4,6,5.4c3,0,3-5.4,6.1-5.4
		c3,0,3,5.4,6,5.4c3,0,3-5.4,6.1-5.4c3,0,3,5.4,6,5.4c3,0,3-5.4,6.1-5.4c3,0,3,5.4,6,5.4c3,0,3-5.4,6.1-5.4c3,0,3,5.4,6,5.4
		c3,0,3-5.4,6.1-5.4s3,5.4,6,5.4"/>
	<path class="st0" d="M93.5,46.6c3.1,0,3.1,5.4,6.2,5.4c3.1,0,3.1-5.4,6.2-5.4c3.1,0,3.1,5.4,6.2,5.4c3.1,0,3.1-5.4,6.2-5.4
		c3.1,0,3.1,5.4,6.2,5.4c3.1,0,3.1-5.4,6.2-5.4c3.1,0,3.1,5.4,6.2,5.4c3.1,0,3.1-5.4,6.2-5.4c3.1,0,3.1,5.4,6.2,5.4
		c3.1,0,3.1-5.4,6.2-5.4c3.1,0,3.1,5.4,6.2,5.4c3.1,0,3.1-5.4,6.2-5.4c3.1,0,3.1,5.4,6.2,5.4c3.1,0,3.1-5.4,6.2-5.4
		c3.1,0,3.1,5.4,6.2,5.4c3.1,0,3.1-5.4,6.2-5.4c3.1,0,3.1,5.4,6.2,5.4c3.1,0,3.1-5.4,6.2-5.4c3.1,0,3.1,5.4,6.2,5.4
		c3.1,0,3.1-5.4,6.2-5.4c3.1,0,3.1,5.4,6.2,5.4c3.1,0,3.1-5.4,6.2-5.4c3.1,0,3.1,5.4,6.2,5.4c3.1,0,3.1-5.4,6.2-5.4
		c3.1,0,3.1,5.4,6.2,5.4c3.1,0,3.1-5.4,6.2-5.4c3.1,0,3.1,5.4,6.2,5.4c3.1,0,3.1-5.4,6.2-5.4c3.1,0,3.1,5.4,6.2,5.4
		c3.1,0,3.1-5.4,6.2-5.4c3.1,0,3.1,5.4,6.2,5.4c3.1,0,3.1-5.4,6.2-5.4c3.1,0,3.1,5.4,6.2,5.4c3.1,0,3.1-5.4,6.2-5.4
		c3.1,0,3.1,5.4,6.2,5.4c3.1,0,3.1-5.4,6.2-5.4c3.1,0,3.1,5.4,6.2,5.4c3.1,0,3.1-5.4,6.2-5.4c3.1,0,3.1,5.4,6.2,5.4
		c3.1,0,3.1-5.4,6.2-5.4c3.1,0,3.1,5.4,6.2,5.4c3.1,0,3.1-5.4,6.2-5.4c3.1,0,3.1,5.4,6.2,5.4c3.1,0,3.1-5.4,6.2-5.4
		c3.1,0,3.1,5.4,6.2,5.4c3.1,0,3.1-5.4,6.2-5.4c3.1,0,3.1,5.4,6.2,5.4c3.1,0,3.1-5.4,6.2-5.4c3.1,0,3.1,5.4,6.2,5.4
		c3.1,0,3.1-5.4,6.2-5.4c3.1,0,3.1,5.4,6.2,5.4c3.1,0,3.1-5.4,6.2-5.4c3.1,0,3.1,5.4,6.2,5.4c3.1,0,3.1-5.4,6.2-5.4
		c3.1,0,3.1,5.4,6.2,5.4c3.1,0,3.1-5.4,6.2-5.4c3.1,0,3.1,5.4,6.2,5.4c3.1,0,3.1-5.4,6.2-5.4c3.1,0,3.1,5.4,6.2,5.4
		c3.1,0,3.1-5.4,6.2-5.4c3.1,0,3.1,5.4,6.2,5.4c3.1,0,3.1-5.4,6.2-5.4c3.1,0,3.1,5.4,6.2,5.4c3.1,0,3.1-5.4,6.2-5.4
		c3.1,0,3.1,5.4,6.2,5.4c3.1,0,3.1-5.4,6.2-5.4c3.1,0,3.1,5.4,6.2,5.4c3.1,0,3.1-5.4,6.2-5.4c3.1,0,3.1,5.4,6.2,5.4
		c3.1,0,3.1-5.4,6.2-5.4c3.1,0,3.1,5.4,6.2,5.4c3.1,0,3.1-5.4,6.2-5.4c3.1,0,3.1,5.4,6.2,5.4c3.1,0,3.1-5.4,6.2-5.4
		c3.1,0,3.1,5.4,6.2,5.4c3.1,0,3.1-5.4,6.2-5.4c3.1,0,3.1,5.4,6.2,5.4"/>
	<path class="st0" d="M82.2,55.5c3.2,0,3.2,5.4,6.3,5.4c3.2,0,3.2-5.4,6.4-5.4c3.2,0,3.2,5.4,6.3,5.4c3.2,0,3.2-5.4,6.4-5.4
		c3.2,0,3.2,5.4,6.3,5.4c3.2,0,3.2-5.4,6.4-5.4c3.2,0,3.2,5.4,6.3,5.4c3.2,0,3.2-5.4,6.4-5.4c3.2,0,3.2,5.4,6.3,5.4
		c3.2,0,3.2-5.4,6.4-5.4c3.2,0,3.2,5.4,6.3,5.4c3.2,0,3.2-5.4,6.4-5.4c3.2,0,3.2,5.4,6.3,5.4c3.2,0,3.2-5.4,6.4-5.4
		c3.2,0,3.2,5.4,6.3,5.4c3.2,0,3.2-5.4,6.4-5.4c3.2,0,3.2,5.4,6.3,5.4c3.2,0,3.2-5.4,6.4-5.4c3.2,0,3.2,5.4,6.3,5.4
		c3.2,0,3.2-5.4,6.4-5.4c3.2,0,3.2,5.4,6.3,5.4c3.2,0,3.2-5.4,6.4-5.4c3.2,0,3.2,5.4,6.3,5.4c3.2,0,3.2-5.4,6.4-5.4
		c3.2,0,3.2,5.4,6.3,5.4c3.2,0,3.2-5.4,6.4-5.4c3.2,0,3.2,5.4,6.3,5.4c3.2,0,3.2-5.4,6.4-5.4c3.2,0,3.2,5.4,6.3,5.4
		c3.2,0,3.2-5.4,6.4-5.4c3.2,0,3.2,5.4,6.3,5.4c3.2,0,3.2-5.4,6.4-5.4c3.2,0,3.2,5.4,6.3,5.4c3.2,0,3.2-5.4,6.4-5.4
		c3.2,0,3.2,5.4,6.3,5.4c3.2,0,3.2-5.4,6.4-5.4c3.2,0,3.2,5.4,6.3,5.4c3.2,0,3.2-5.4,6.4-5.4c3.2,0,3.2,5.4,6.3,5.4
		c3.2,0,3.2-5.4,6.4-5.4c3.2,0,3.2,5.4,6.3,5.4c3.2,0,3.2-5.4,6.4-5.4c3.2,0,3.2,5.4,6.3,5.4c3.2,0,3.2-5.4,6.4-5.4
		c3.2,0,3.2,5.4,6.3,5.4c3.2,0,3.2-5.4,6.4-5.4c3.2,0,3.2,5.4,6.3,5.4c3.2,0,3.2-5.4,6.4-5.4c3.2,0,3.2,5.4,6.3,5.4
		c3.2,0,3.2-5.4,6.4-5.4c3.2,0,3.2,5.4,6.3,5.4c3.2,0,3.2-5.4,6.4-5.4c3.2,0,3.2,5.4,6.3,5.4c3.2,0,3.2-5.4,6.4-5.4
		c3.2,0,3.2,5.4,6.3,5.4c3.2,0,3.2-5.4,6.4-5.4c3.2,0,3.2,5.4,6.3,5.4c3.2,0,3.2-5.4,6.4-5.4c3.2,0,3.2,5.4,6.3,5.4
		c3.2,0,3.2-5.4,6.4-5.4c3.2,0,3.2,5.4,6.3,5.4c3.2,0,3.2-5.4,6.4-5.4c3.2,0,3.2,5.4,6.3,5.4c3.2,0,3.2-5.4,6.4-5.4
		c3.2,0,3.2,5.4,6.3,5.4c3.2,0,3.2-5.4,6.4-5.4c3.2,0,3.2,5.4,6.3,5.4c3.2,0,3.2-5.4,6.4-5.4c3.2,0,3.2,5.4,6.3,5.4
		c3.2,0,3.2-5.4,6.4-5.4c3.2,0,3.2,5.4,6.3,5.4c3.2,0,3.2-5.4,6.4-5.4c3.2,0,3.2,5.4,6.3,5.4c3.2,0,3.2-5.4,6.4-5.4
		c3.2,0,3.2,5.4,6.3,5.4c3.2,0,3.2-5.4,6.4-5.4s3.2,5.4,6.3,5.4"/>
	<path class="st0" d="M70.9,64.4c3.2,0,3.2,5.4,6.5,5.4c3.2,0,3.3-5.4,6.5-5.4c3.2,0,3.2,5.4,6.5,5.4c3.2,0,3.3-5.4,6.5-5.4
		c3.2,0,3.2,5.4,6.5,5.4c3.2,0,3.3-5.4,6.5-5.4c3.2,0,3.2,5.4,6.5,5.4c3.2,0,3.3-5.4,6.5-5.4c3.2,0,3.2,5.4,6.5,5.4
		c3.2,0,3.3-5.4,6.5-5.4c3.2,0,3.2,5.4,6.5,5.4c3.2,0,3.3-5.4,6.5-5.4c3.2,0,3.2,5.4,6.5,5.4c3.2,0,3.3-5.4,6.5-5.4
		c3.2,0,3.2,5.4,6.5,5.4c3.2,0,3.3-5.4,6.5-5.4c3.2,0,3.2,5.4,6.5,5.4c3.2,0,3.3-5.4,6.5-5.4c3.2,0,3.2,5.4,6.5,5.4
		c3.2,0,3.3-5.4,6.5-5.4c3.2,0,3.2,5.4,6.5,5.4c3.2,0,3.3-5.4,6.5-5.4c3.2,0,3.2,5.4,6.5,5.4c3.2,0,3.3-5.4,6.5-5.4
		c3.2,0,3.2,5.4,6.5,5.4c3.2,0,3.3-5.4,6.5-5.4c3.2,0,3.2,5.4,6.5,5.4c3.2,0,3.3-5.4,6.5-5.4c3.2,0,3.2,5.4,6.5,5.4
		c3.2,0,3.3-5.4,6.5-5.4c3.2,0,3.2,5.4,6.5,5.4c3.2,0,3.3-5.4,6.5-5.4c3.2,0,3.2,5.4,6.5,5.4c3.2,0,3.3-5.4,6.5-5.4
		c3.2,0,3.2,5.4,6.5,5.4c3.2,0,3.3-5.4,6.5-5.4c3.2,0,3.2,5.4,6.5,5.4c3.2,0,3.3-5.4,6.5-5.4c3.2,0,3.2,5.4,6.5,5.4
		c3.2,0,3.3-5.4,6.5-5.4c3.2,0,3.2,5.4,6.5,5.4c3.2,0,3.3-5.4,6.5-5.4c3.2,0,3.2,5.4,6.5,5.4c3.2,0,3.3-5.4,6.5-5.4
		c3.2,0,3.2,5.4,6.5,5.4c3.2,0,3.3-5.4,6.5-5.4c3.2,0,3.2,5.4,6.5,5.4c3.2,0,3.3-5.4,6.5-5.4c3.2,0,3.2,5.4,6.5,5.4
		c3.2,0,3.3-5.4,6.5-5.4c3.2,0,3.2,5.4,6.5,5.4c3.2,0,3.3-5.4,6.5-5.4c3.2,0,3.2,5.4,6.5,5.4c3.2,0,3.3-5.4,6.5-5.4
		c3.2,0,3.2,5.4,6.5,5.4c3.2,0,3.3-5.4,6.5-5.4c3.2,0,3.2,5.4,6.5,5.4c3.2,0,3.3-5.4,6.5-5.4c3.2,0,3.2,5.4,6.5,5.4
		c3.2,0,3.3-5.4,6.5-5.4c3.2,0,3.2,5.4,6.5,5.4c3.2,0,3.3-5.4,6.5-5.4c3.2,0,3.2,5.4,6.5,5.4c3.2,0,3.3-5.4,6.5-5.4
		c3.2,0,3.2,5.4,6.5,5.4c3.2,0,3.3-5.4,6.5-5.4c3.2,0,3.2,5.4,6.5,5.4c3.2,0,3.3-5.4,6.5-5.4c3.2,0,3.2,5.4,6.5,5.4
		c3.2,0,3.3-5.4,6.5-5.4c3.2,0,3.2,5.4,6.5,5.4c3.2,0,3.3-5.4,6.5-5.4c3.2,0,3.2,5.4,6.5,5.4c3.2,0,3.3-5.4,6.5-5.4
		c3.2,0,3.2,5.4,6.5,5.4c3.3,0,3.3-5.4,6.5-5.4c3.2,0,3.2,5.4,6.5,5.4"/>
	<path class="st0" d="M59.6,73.2c3.3,0,3.3,5.4,6.6,5.4c3.3,0,3.3-5.4,6.7-5.4c3.3,0,3.3,5.4,6.6,5.4c3.3,0,3.3-5.4,6.7-5.4
		c3.3,0,3.3,5.4,6.6,5.4c3.3,0,3.3-5.4,6.7-5.4c3.3,0,3.3,5.4,6.6,5.4c3.3,0,3.3-5.4,6.7-5.4c3.3,0,3.3,5.4,6.6,5.4
		c3.3,0,3.3-5.4,6.7-5.4c3.3,0,3.3,5.4,6.6,5.4c3.3,0,3.3-5.4,6.7-5.4c3.3,0,3.3,5.4,6.6,5.4c3.3,0,3.3-5.4,6.7-5.4
		c3.3,0,3.3,5.4,6.6,5.4c3.3,0,3.3-5.4,6.7-5.4c3.3,0,3.3,5.4,6.6,5.4c3.3,0,3.3-5.4,6.7-5.4c3.3,0,3.3,5.4,6.6,5.4
		c3.3,0,3.3-5.4,6.7-5.4c3.3,0,3.3,5.4,6.6,5.4c3.3,0,3.3-5.4,6.7-5.4c3.3,0,3.3,5.4,6.6,5.4c3.3,0,3.3-5.4,6.7-5.4
		c3.3,0,3.3,5.4,6.6,5.4c3.3,0,3.3-5.4,6.7-5.4c3.3,0,3.3,5.4,6.6,5.4c3.3,0,3.3-5.4,6.7-5.4c3.3,0,3.3,5.4,6.6,5.4
		c3.3,0,3.3-5.4,6.7-5.4c3.3,0,3.3,5.4,6.6,5.4c3.3,0,3.3-5.4,6.7-5.4c3.3,0,3.3,5.4,6.6,5.4c3.3,0,3.3-5.4,6.7-5.4
		c3.3,0,3.3,5.4,6.6,5.4c3.3,0,3.3-5.4,6.7-5.4c3.3,0,3.3,5.4,6.6,5.4c3.3,0,3.3-5.4,6.7-5.4c3.3,0,3.3,5.4,6.6,5.4
		c3.3,0,3.3-5.4,6.7-5.4c3.3,0,3.3,5.4,6.6,5.4c3.3,0,3.3-5.4,6.7-5.4c3.3,0,3.3,5.4,6.6,5.4c3.3,0,3.3-5.4,6.7-5.4
		c3.3,0,3.3,5.4,6.6,5.4c3.3,0,3.3-5.4,6.7-5.4c3.3,0,3.3,5.4,6.6,5.4c3.3,0,3.3-5.4,6.7-5.4c3.3,0,3.3,5.4,6.6,5.4
		c3.3,0,3.3-5.4,6.7-5.4c3.3,0,3.3,5.4,6.6,5.4c3.3,0,3.3-5.4,6.7-5.4c3.3,0,3.3,5.4,6.6,5.4c3.3,0,3.3-5.4,6.7-5.4
		c3.3,0,3.3,5.4,6.6,5.4c3.3,0,3.3-5.4,6.7-5.4c3.3,0,3.3,5.4,6.6,5.4c3.3,0,3.3-5.4,6.7-5.4c3.3,0,3.3,5.4,6.6,5.4
		c3.3,0,3.3-5.4,6.7-5.4c3.3,0,3.3,5.4,6.6,5.4c3.3,0,3.3-5.4,6.7-5.4c3.3,0,3.3,5.4,6.6,5.4c3.3,0,3.3-5.4,6.7-5.4
		c3.3,0,3.3,5.4,6.6,5.4c3.3,0,3.3-5.4,6.7-5.4c3.3,0,3.3,5.4,6.6,5.4c3.3,0,3.3-5.4,6.7-5.4c3.3,0,3.3,5.4,6.6,5.4
		c3.3,0,3.3-5.4,6.7-5.4c3.3,0,3.3,5.4,6.6,5.4c3.3,0,3.3-5.4,6.7-5.4c3.3,0,3.3,5.4,6.6,5.4c3.3,0,3.3-5.4,6.7-5.4
		c3.3,0,3.3,5.4,6.6,5.4c3.3,0,3.3-5.4,6.7-5.4c3.3,0,3.3,5.4,6.6,5.4"/>
	<path class="st0" d="M48.3,82.1c3.4,0,3.4,5.4,6.8,5.4c3.4,0,3.4-5.4,6.8-5.4c3.4,0,3.4,5.4,6.8,5.4c3.4,0,3.4-5.4,6.8-5.4
		c3.4,0,3.4,5.4,6.8,5.4c3.4,0,3.4-5.4,6.8-5.4c3.4,0,3.4,5.4,6.8,5.4c3.4,0,3.4-5.4,6.8-5.4c3.4,0,3.4,5.4,6.8,5.4
		c3.4,0,3.4-5.4,6.8-5.4c3.4,0,3.4,5.4,6.8,5.4c3.4,0,3.4-5.4,6.8-5.4c3.4,0,3.4,5.4,6.8,5.4c3.4,0,3.4-5.4,6.8-5.4
		c3.4,0,3.4,5.4,6.8,5.4c3.4,0,3.4-5.4,6.8-5.4c3.4,0,3.4,5.4,6.8,5.4c3.4,0,3.4-5.4,6.8-5.4c3.4,0,3.4,5.4,6.8,5.4
		c3.4,0,3.4-5.4,6.8-5.4c3.4,0,3.4,5.4,6.8,5.4c3.4,0,3.4-5.4,6.8-5.4c3.4,0,3.4,5.4,6.8,5.4c3.4,0,3.4-5.4,6.8-5.4
		c3.4,0,3.4,5.4,6.8,5.4c3.4,0,3.4-5.4,6.8-5.4c3.4,0,3.4,5.4,6.8,5.4c3.4,0,3.4-5.4,6.8-5.4c3.4,0,3.4,5.4,6.8,5.4
		c3.4,0,3.4-5.4,6.8-5.4c3.4,0,3.4,5.4,6.8,5.4c3.4,0,3.4-5.4,6.8-5.4c3.4,0,3.4,5.4,6.8,5.4c3.4,0,3.4-5.4,6.8-5.4
		c3.4,0,3.4,5.4,6.8,5.4c3.4,0,3.4-5.4,6.8-5.4c3.4,0,3.4,5.4,6.8,5.4c3.4,0,3.4-5.4,6.8-5.4c3.4,0,3.4,5.4,6.8,5.4
		c3.4,0,3.4-5.4,6.8-5.4c3.4,0,3.4,5.4,6.8,5.4c3.4,0,3.4-5.4,6.8-5.4c3.4,0,3.4,5.4,6.8,5.4c3.4,0,3.4-5.4,6.8-5.4
		c3.4,0,3.4,5.4,6.8,5.4c3.4,0,3.4-5.4,6.8-5.4c3.4,0,3.4,5.4,6.8,5.4c3.4,0,3.4-5.4,6.8-5.4c3.4,0,3.4,5.4,6.8,5.4
		c3.4,0,3.4-5.4,6.8-5.4c3.4,0,3.4,5.4,6.8,5.4c3.4,0,3.4-5.4,6.8-5.4c3.4,0,3.4,5.4,6.8,5.4c3.4,0,3.4-5.4,6.8-5.4
		c3.4,0,3.4,5.4,6.8,5.4c3.4,0,3.4-5.4,6.8-5.4c3.4,0,3.4,5.4,6.8,5.4c3.4,0,3.4-5.4,6.8-5.4c3.4,0,3.4,5.4,6.8,5.4
		c3.4,0,3.4-5.4,6.8-5.4c3.4,0,3.4,5.4,6.8,5.4c3.4,0,3.4-5.4,6.8-5.4c3.4,0,3.4,5.4,6.8,5.4c3.4,0,3.4-5.4,6.8-5.4
		c3.4,0,3.4,5.4,6.8,5.4c3.4,0,3.4-5.4,6.8-5.4c3.4,0,3.4,5.4,6.8,5.4c3.4,0,3.4-5.4,6.8-5.4c3.4,0,3.4,5.4,6.8,5.4
		c3.4,0,3.4-5.4,6.8-5.4c3.4,0,3.4,5.4,6.8,5.4c3.4,0,3.4-5.4,6.8-5.4c3.4,0,3.4,5.4,6.8,5.4c3.4,0,3.4-5.4,6.8-5.4
		c3.4,0,3.4,5.4,6.8,5.4c3.4,0,3.4-5.4,6.8-5.4c3.4,0,3.4,5.4,6.8,5.4"/>
	<path class="st0" d="M37,91c3.5,0,3.5,5.4,6.9,5.4c3.5,0,3.5-5.4,6.9-5.4c3.5,0,3.5,5.4,6.9,5.4c3.5,0,3.5-5.4,6.9-5.4
		c3.5,0,3.5,5.4,6.9,5.4c3.5,0,3.5-5.4,6.9-5.4c3.5,0,3.5,5.4,6.9,5.4c3.5,0,3.5-5.4,6.9-5.4c3.5,0,3.5,5.4,6.9,5.4
		c3.5,0,3.5-5.4,6.9-5.4c3.5,0,3.5,5.4,6.9,5.4c3.5,0,3.5-5.4,6.9-5.4c3.5,0,3.5,5.4,6.9,5.4c3.5,0,3.5-5.4,6.9-5.4
		c3.5,0,3.5,5.4,6.9,5.4c3.5,0,3.5-5.4,6.9-5.4c3.5,0,3.5,5.4,6.9,5.4c3.5,0,3.5-5.4,6.9-5.4c3.5,0,3.5,5.4,6.9,5.4
		c3.5,0,3.5-5.4,6.9-5.4c3.5,0,3.5,5.4,6.9,5.4c3.5,0,3.5-5.4,6.9-5.4c3.5,0,3.5,5.4,6.9,5.4c3.5,0,3.5-5.4,6.9-5.4
		c3.5,0,3.5,5.4,6.9,5.4c3.5,0,3.5-5.4,6.9-5.4c3.5,0,3.5,5.4,6.9,5.4c3.5,0,3.5-5.4,6.9-5.4c3.5,0,3.5,5.4,6.9,5.4
		c3.5,0,3.5-5.4,6.9-5.4c3.5,0,3.5,5.4,6.9,5.4c3.5,0,3.5-5.4,6.9-5.4c3.5,0,3.5,5.4,6.9,5.4c3.5,0,3.5-5.4,6.9-5.4
		c3.5,0,3.5,5.4,6.9,5.4c3.5,0,3.5-5.4,6.9-5.4c3.5,0,3.5,5.4,6.9,5.4c3.5,0,3.5-5.4,6.9-5.4c3.5,0,3.5,5.4,6.9,5.4
		c3.5,0,3.5-5.4,6.9-5.4c3.5,0,3.5,5.4,6.9,5.4c3.5,0,3.5-5.4,6.9-5.4c3.5,0,3.5,5.4,6.9,5.4c3.5,0,3.5-5.4,6.9-5.4
		c3.5,0,3.5,5.4,6.9,5.4c3.5,0,3.5-5.4,6.9-5.4c3.5,0,3.5,5.4,6.9,5.4c3.5,0,3.5-5.4,6.9-5.4c3.5,0,3.5,5.4,6.9,5.4
		c3.5,0,3.5-5.4,6.9-5.4c3.5,0,3.5,5.4,6.9,5.4c3.5,0,3.5-5.4,6.9-5.4c3.5,0,3.5,5.4,6.9,5.4c3.5,0,3.5-5.4,6.9-5.4
		c3.5,0,3.5,5.4,6.9,5.4c3.5,0,3.5-5.4,6.9-5.4c3.5,0,3.5,5.4,6.9,5.4c3.5,0,3.5-5.4,6.9-5.4c3.5,0,3.5,5.4,6.9,5.4
		c3.5,0,3.5-5.4,6.9-5.4c3.5,0,3.5,5.4,6.9,5.4c3.5,0,3.5-5.4,6.9-5.4c3.5,0,3.5,5.4,6.9,5.4c3.5,0,3.5-5.4,6.9-5.4
		c3.5,0,3.5,5.4,6.9,5.4c3.5,0,3.5-5.4,6.9-5.4c3.5,0,3.5,5.4,6.9,5.4c3.5,0,3.5-5.4,7-5.4c3.5,0,3.5,5.4,6.9,5.4
		c3.5,0,3.5-5.4,7-5.4c3.5,0,3.5,5.4,6.9,5.4c3.5,0,3.5-5.4,6.9-5.4c3.5,0,3.5,5.4,6.9,5.4c3.5,0,3.5-5.4,7-5.4
		c3.5,0,3.5,5.4,6.9,5.4c3.5,0,3.5-5.4,7-5.4c3.5,0,3.5,5.4,6.9,5.4"/>
	<path class="st0" d="M25.6,99.8c3.5,0,3.5,5.4,7.1,5.4c3.5,0,3.6-5.4,7.1-5.4c3.5,0,3.5,5.4,7.1,5.4c3.5,0,3.6-5.4,7.1-5.4
		c3.5,0,3.5,5.4,7.1,5.4c3.5,0,3.6-5.4,7.1-5.4c3.5,0,3.5,5.4,7.1,5.4c3.5,0,3.6-5.4,7.1-5.4c3.5,0,3.5,5.4,7.1,5.4
		c3.5,0,3.6-5.4,7.1-5.4c3.5,0,3.5,5.4,7.1,5.4c3.5,0,3.6-5.4,7.1-5.4c3.5,0,3.5,5.4,7.1,5.4c3.5,0,3.6-5.4,7.1-5.4
		c3.5,0,3.5,5.4,7.1,5.4c3.5,0,3.6-5.4,7.1-5.4c3.5,0,3.5,5.4,7.1,5.4c3.5,0,3.6-5.4,7.1-5.4c3.5,0,3.5,5.4,7.1,5.4
		c3.5,0,3.6-5.4,7.1-5.4c3.5,0,3.5,5.4,7.1,5.4c3.5,0,3.6-5.4,7.1-5.4c3.5,0,3.5,5.4,7.1,5.4c3.5,0,3.6-5.4,7.1-5.4
		c3.5,0,3.5,5.4,7.1,5.4c3.5,0,3.6-5.4,7.1-5.4c3.5,0,3.5,5.4,7.1,5.4c3.5,0,3.6-5.4,7.1-5.4s3.5,5.4,7.1,5.4c3.5,0,3.6-5.4,7.1-5.4
		c3.5,0,3.5,5.4,7.1,5.4c3.5,0,3.6-5.4,7.1-5.4c3.5,0,3.5,5.4,7.1,5.4c3.5,0,3.6-5.4,7.1-5.4c3.5,0,3.5,5.4,7.1,5.4
		c3.5,0,3.6-5.4,7.1-5.4c3.5,0,3.5,5.4,7.1,5.4c3.5,0,3.6-5.4,7.1-5.4c3.5,0,3.5,5.4,7.1,5.4c3.5,0,3.6-5.4,7.1-5.4
		c3.5,0,3.5,5.4,7.1,5.4c3.5,0,3.6-5.4,7.1-5.4c3.5,0,3.5,5.4,7.1,5.4c3.5,0,3.6-5.4,7.1-5.4c3.5,0,3.5,5.4,7.1,5.4
		c3.5,0,3.6-5.4,7.1-5.4c3.5,0,3.5,5.4,7.1,5.4c3.5,0,3.6-5.4,7.1-5.4c3.5,0,3.5,5.4,7.1,5.4c3.5,0,3.6-5.4,7.1-5.4
		c3.5,0,3.5,5.4,7.1,5.4c3.5,0,3.6-5.4,7.1-5.4c3.5,0,3.5,5.4,7.1,5.4c3.5,0,3.6-5.4,7.1-5.4c3.5,0,3.5,5.4,7.1,5.4
		c3.5,0,3.6-5.4,7.1-5.4c3.5,0,3.5,5.4,7.1,5.4c3.5,0,3.6-5.4,7.1-5.4c3.5,0,3.5,5.4,7.1,5.4c3.5,0,3.6-5.4,7.1-5.4
		c3.5,0,3.5,5.4,7.1,5.4c3.5,0,3.6-5.4,7.1-5.4c3.5,0,3.5,5.4,7.1,5.4c3.5,0,3.6-5.4,7.1-5.4c3.5,0,3.5,5.4,7.1,5.4
		c3.5,0,3.6-5.4,7.1-5.4c3.5,0,3.5,5.4,7.1,5.4c3.5,0,3.6-5.4,7.1-5.4c3.5,0,3.5,5.4,7.1,5.4c3.5,0,3.6-5.4,7.1-5.4
		c3.5,0,3.5,5.4,7.1,5.4c3.5,0,3.6-5.4,7.1-5.4c3.5,0,3.5,5.4,7.1,5.4c3.5,0,3.6-5.4,7.1-5.4c3.5,0,3.5,5.4,7.1,5.4
		c3.5,0,3.6-5.4,7.1-5.4c3.5,0,3.5,5.4,7.1,5.4"/>
	<path class="st0" d="M14.3,108.7c3.6,0,3.6,5.4,7.2,5.4c3.6,0,3.6-5.4,7.2-5.4c3.6,0,3.6,5.4,7.2,5.4c3.6,0,3.6-5.4,7.2-5.4
		c3.6,0,3.6,5.4,7.2,5.4c3.6,0,3.6-5.4,7.2-5.4c3.6,0,3.6,5.4,7.2,5.4c3.6,0,3.6-5.4,7.2-5.4c3.6,0,3.6,5.4,7.2,5.4
		c3.6,0,3.6-5.4,7.2-5.4c3.6,0,3.6,5.4,7.2,5.4c3.6,0,3.6-5.4,7.2-5.4c3.6,0,3.6,5.4,7.2,5.4c3.6,0,3.6-5.4,7.2-5.4
		c3.6,0,3.6,5.4,7.2,5.4c3.6,0,3.6-5.4,7.2-5.4c3.6,0,3.6,5.4,7.2,5.4c3.6,0,3.6-5.4,7.2-5.4c3.6,0,3.6,5.4,7.2,5.4
		c3.6,0,3.6-5.4,7.2-5.4c3.6,0,3.6,5.4,7.2,5.4c3.6,0,3.6-5.4,7.2-5.4c3.6,0,3.6,5.4,7.2,5.4c3.6,0,3.6-5.4,7.2-5.4
		c3.6,0,3.6,5.4,7.2,5.4c3.6,0,3.6-5.4,7.2-5.4c3.6,0,3.6,5.4,7.2,5.4c3.6,0,3.6-5.4,7.2-5.4c3.6,0,3.6,5.4,7.2,5.4
		c3.6,0,3.6-5.4,7.2-5.4c3.6,0,3.6,5.4,7.2,5.4c3.6,0,3.6-5.4,7.2-5.4s3.6,5.4,7.2,5.4c3.6,0,3.6-5.4,7.2-5.4c3.6,0,3.6,5.4,7.2,5.4
		c3.6,0,3.6-5.4,7.2-5.4c3.6,0,3.6,5.4,7.2,5.4c3.6,0,3.6-5.4,7.2-5.4c3.6,0,3.6,5.4,7.2,5.4c3.6,0,3.6-5.4,7.2-5.4
		c3.6,0,3.6,5.4,7.2,5.4c3.6,0,3.6-5.4,7.2-5.4c3.6,0,3.6,5.4,7.2,5.4c3.6,0,3.6-5.4,7.2-5.4c3.6,0,3.6,5.4,7.2,5.4
		c3.6,0,3.6-5.4,7.2-5.4c3.6,0,3.6,5.4,7.2,5.4c3.6,0,3.6-5.4,7.2-5.4c3.6,0,3.6,5.4,7.2,5.4c3.6,0,3.6-5.4,7.2-5.4
		c3.6,0,3.6,5.4,7.2,5.4c3.6,0,3.6-5.4,7.2-5.4c3.6,0,3.6,5.4,7.2,5.4c3.6,0,3.6-5.4,7.2-5.4c3.6,0,3.6,5.4,7.2,5.4
		c3.6,0,3.6-5.4,7.2-5.4c3.6,0,3.6,5.4,7.2,5.4c3.6,0,3.6-5.4,7.2-5.4c3.6,0,3.6,5.4,7.2,5.4c3.6,0,3.6-5.4,7.2-5.4
		c3.6,0,3.6,5.4,7.2,5.4c3.6,0,3.6-5.4,7.2-5.4c3.6,0,3.6,5.4,7.2,5.4c3.6,0,3.6-5.4,7.2-5.4c3.6,0,3.6,5.4,7.2,5.4
		c3.6,0,3.6-5.4,7.2-5.4c3.6,0,3.6,5.4,7.2,5.4c3.6,0,3.6-5.4,7.2-5.4c3.6,0,3.6,5.4,7.2,5.4c3.6,0,3.6-5.4,7.2-5.4
		c3.6,0,3.6,5.4,7.2,5.4c3.6,0,3.6-5.4,7.2-5.4c3.6,0,3.6,5.4,7.2,5.4c3.6,0,3.6-5.4,7.2-5.4c3.6,0,3.6,5.4,7.2,5.4
		c3.6,0,3.6-5.4,7.2-5.4s3.6,5.4,7.2,5.4"/>
	<path class="st0" d="M3,117.6c3.7,0,3.7,5.4,7.4,5.4c3.7,0,3.7-5.4,7.4-5.4c3.7,0,3.7,5.4,7.4,5.4c3.7,0,3.7-5.4,7.4-5.4
		c3.7,0,3.7,5.4,7.4,5.4c3.7,0,3.7-5.4,7.4-5.4c3.7,0,3.7,5.4,7.4,5.4c3.7,0,3.7-5.4,7.4-5.4c3.7,0,3.7,5.4,7.4,5.4
		c3.7,0,3.7-5.4,7.4-5.4c3.7,0,3.7,5.4,7.4,5.4c3.7,0,3.7-5.4,7.4-5.4c3.7,0,3.7,5.4,7.4,5.4c3.7,0,3.7-5.4,7.4-5.4
		c3.7,0,3.7,5.4,7.4,5.4c3.7,0,3.7-5.4,7.4-5.4c3.7,0,3.7,5.4,7.4,5.4c3.7,0,3.7-5.4,7.4-5.4c3.7,0,3.7,5.4,7.4,5.4
		c3.7,0,3.7-5.4,7.4-5.4c3.7,0,3.7,5.4,7.4,5.4c3.7,0,3.7-5.4,7.4-5.4c3.7,0,3.7,5.4,7.4,5.4c3.7,0,3.7-5.4,7.4-5.4
		c3.7,0,3.7,5.4,7.4,5.4c3.7,0,3.7-5.4,7.4-5.4c3.7,0,3.7,5.4,7.4,5.4c3.7,0,3.7-5.4,7.4-5.4c3.7,0,3.7,5.4,7.4,5.4
		c3.7,0,3.7-5.4,7.4-5.4c3.7,0,3.7,5.4,7.4,5.4c3.7,0,3.7-5.4,7.4-5.4s3.7,5.4,7.4,5.4c3.7,0,3.7-5.4,7.4-5.4c3.7,0,3.7,5.4,7.4,5.4
		c3.7,0,3.7-5.4,7.4-5.4c3.7,0,3.7,5.4,7.4,5.4c3.7,0,3.7-5.4,7.4-5.4c3.7,0,3.7,5.4,7.4,5.4c3.7,0,3.7-5.4,7.4-5.4
		c3.7,0,3.7,5.4,7.4,5.4c3.7,0,3.7-5.4,7.4-5.4c3.7,0,3.7,5.4,7.4,5.4c3.7,0,3.7-5.4,7.4-5.4c3.7,0,3.7,5.4,7.4,5.4
		c3.7,0,3.7-5.4,7.4-5.4c3.7,0,3.7,5.4,7.4,5.4c3.7,0,3.7-5.4,7.4-5.4c3.7,0,3.7,5.4,7.4,5.4c3.7,0,3.7-5.4,7.4-5.4
		c3.7,0,3.7,5.4,7.4,5.4c3.7,0,3.7-5.4,7.4-5.4c3.7,0,3.7,5.4,7.4,5.4c3.7,0,3.7-5.4,7.4-5.4c3.7,0,3.7,5.4,7.4,5.4
		c3.7,0,3.7-5.4,7.4-5.4c3.7,0,3.7,5.4,7.4,5.4c3.7,0,3.7-5.4,7.4-5.4c3.7,0,3.7,5.4,7.4,5.4c3.7,0,3.7-5.4,7.4-5.4
		c3.7,0,3.7,5.4,7.4,5.4c3.7,0,3.7-5.4,7.4-5.4c3.7,0,3.7,5.4,7.4,5.4c3.7,0,3.7-5.4,7.4-5.4c3.7,0,3.7,5.4,7.4,5.4
		c3.7,0,3.7-5.4,7.4-5.4c3.7,0,3.7,5.4,7.4,5.4c3.7,0,3.7-5.4,7.4-5.4c3.7,0,3.7,5.4,7.4,5.4c3.7,0,3.7-5.4,7.4-5.4
		c3.7,0,3.7,5.4,7.4,5.4c3.7,0,3.7-5.4,7.4-5.4c3.7,0,3.7,5.4,7.4,5.4c3.7,0,3.7-5.4,7.4-5.4c3.7,0,3.7,5.4,7.4,5.4
		c3.7,0,3.7-5.4,7.4-5.4c3.7,0,3.7,5.4,7.4,5.4"/>
	<path class="st0" d="M-8.3,126.4c3.8,0,3.8,5.4,7.5,5.4c3.8,0,3.8-5.4,7.5-5.4c3.8,0,3.8,5.4,7.5,5.4c3.8,0,3.8-5.4,7.5-5.4
		c3.8,0,3.8,5.4,7.5,5.4c3.8,0,3.8-5.4,7.5-5.4c3.8,0,3.8,5.4,7.5,5.4c3.8,0,3.8-5.4,7.5-5.4c3.8,0,3.8,5.4,7.5,5.4
		c3.8,0,3.8-5.4,7.5-5.4c3.8,0,3.8,5.4,7.5,5.4c3.8,0,3.8-5.4,7.5-5.4c3.8,0,3.8,5.4,7.5,5.4c3.8,0,3.8-5.4,7.5-5.4
		c3.8,0,3.8,5.4,7.5,5.4c3.8,0,3.8-5.4,7.5-5.4c3.8,0,3.8,5.4,7.5,5.4c3.8,0,3.8-5.4,7.5-5.4c3.8,0,3.8,5.4,7.5,5.4
		c3.8,0,3.8-5.4,7.5-5.4c3.8,0,3.8,5.4,7.5,5.4c3.8,0,3.8-5.4,7.5-5.4c3.8,0,3.8,5.4,7.5,5.4c3.8,0,3.8-5.4,7.5-5.4
		c3.8,0,3.8,5.4,7.5,5.4c3.8,0,3.8-5.4,7.5-5.4c3.8,0,3.8,5.4,7.5,5.4c3.8,0,3.8-5.4,7.5-5.4c3.8,0,3.8,5.4,7.5,5.4
		c3.8,0,3.8-5.4,7.5-5.4c3.8,0,3.8,5.4,7.5,5.4c3.8,0,3.8-5.4,7.5-5.4c3.8,0,3.8,5.4,7.5,5.4c3.8,0,3.8-5.4,7.5-5.4
		c3.8,0,3.8,5.4,7.5,5.4c3.8,0,3.8-5.4,7.5-5.4c3.8,0,3.8,5.4,7.5,5.4c3.8,0,3.8-5.4,7.5-5.4c3.8,0,3.8,5.4,7.5,5.4
		c3.8,0,3.8-5.4,7.5-5.4c3.8,0,3.8,5.4,7.5,5.4c3.8,0,3.8-5.4,7.5-5.4c3.8,0,3.8,5.4,7.5,5.4c3.8,0,3.8-5.4,7.5-5.4
		c3.8,0,3.8,5.4,7.5,5.4c3.8,0,3.8-5.4,7.5-5.4c3.8,0,3.8,5.4,7.5,5.4c3.8,0,3.8-5.4,7.5-5.4c3.8,0,3.8,5.4,7.5,5.4
		c3.8,0,3.8-5.4,7.5-5.4c3.8,0,3.8,5.4,7.5,5.4c3.8,0,3.8-5.4,7.5-5.4c3.8,0,3.8,5.4,7.5,5.4c3.8,0,3.8-5.4,7.5-5.4
		c3.8,0,3.8,5.4,7.5,5.4c3.8,0,3.8-5.4,7.5-5.4c3.8,0,3.8,5.4,7.5,5.4c3.8,0,3.8-5.4,7.5-5.4c3.8,0,3.8,5.4,7.5,5.4
		c3.8,0,3.8-5.4,7.5-5.4c3.8,0,3.8,5.4,7.5,5.4c3.8,0,3.8-5.4,7.5-5.4c3.8,0,3.8,5.4,7.5,5.4c3.8,0,3.8-5.4,7.5-5.4
		c3.8,0,3.8,5.4,7.5,5.4c3.8,0,3.8-5.4,7.5-5.4c3.8,0,3.8,5.4,7.5,5.4c3.8,0,3.8-5.4,7.5-5.4c3.8,0,3.8,5.4,7.5,5.4
		c3.8,0,3.8-5.4,7.5-5.4c3.8,0,3.8,5.4,7.5,5.4c3.8,0,3.8-5.4,7.5-5.4c3.8,0,3.8,5.4,7.5,5.4c3.8,0,3.8-5.4,7.5-5.4
		c3.8,0,3.8,5.4,7.5,5.4c3.8,0,3.8-5.4,7.5-5.4c3.8,0,3.8,5.4,7.5,5.4"/>
	<path class="st0" d="M-19.6,135.3c3.8,0,3.8,5.4,7.7,5.4c3.8,0,3.8-5.4,7.7-5.4c3.8,0,3.8,5.4,7.7,5.4c3.8,0,3.8-5.4,7.7-5.4
		c3.8,0,3.8,5.4,7.7,5.4c3.8,0,3.8-5.4,7.7-5.4c3.8,0,3.8,5.4,7.7,5.4c3.8,0,3.8-5.4,7.7-5.4c3.8,0,3.8,5.4,7.7,5.4
		c3.8,0,3.8-5.4,7.7-5.4c3.8,0,3.8,5.4,7.7,5.4c3.8,0,3.8-5.4,7.7-5.4c3.8,0,3.8,5.4,7.7,5.4c3.8,0,3.8-5.4,7.7-5.4
		c3.8,0,3.8,5.4,7.7,5.4c3.8,0,3.8-5.4,7.7-5.4c3.8,0,3.8,5.4,7.7,5.4c3.8,0,3.8-5.4,7.7-5.4c3.8,0,3.8,5.4,7.7,5.4
		c3.8,0,3.8-5.4,7.7-5.4c3.8,0,3.8,5.4,7.7,5.4c3.8,0,3.8-5.4,7.7-5.4c3.8,0,3.8,5.4,7.7,5.4c3.8,0,3.8-5.4,7.7-5.4
		c3.8,0,3.8,5.4,7.7,5.4c3.8,0,3.8-5.4,7.7-5.4c3.8,0,3.8,5.4,7.7,5.4c3.8,0,3.8-5.4,7.7-5.4c3.8,0,3.8,5.4,7.7,5.4
		c3.8,0,3.8-5.4,7.7-5.4c3.8,0,3.8,5.4,7.7,5.4s3.8-5.4,7.7-5.4c3.8,0,3.8,5.4,7.7,5.4c3.8,0,3.8-5.4,7.7-5.4c3.8,0,3.8,5.4,7.7,5.4
		c3.8,0,3.8-5.4,7.7-5.4c3.8,0,3.8,5.4,7.7,5.4c3.8,0,3.8-5.4,7.7-5.4c3.8,0,3.8,5.4,7.7,5.4c3.8,0,3.8-5.4,7.7-5.4
		c3.8,0,3.8,5.4,7.7,5.4c3.8,0,3.8-5.4,7.7-5.4c3.8,0,3.8,5.4,7.7,5.4c3.8,0,3.8-5.4,7.7-5.4c3.8,0,3.8,5.4,7.7,5.4
		c3.8,0,3.8-5.4,7.7-5.4c3.8,0,3.8,5.4,7.7,5.4c3.8,0,3.8-5.4,7.7-5.4c3.8,0,3.8,5.4,7.7,5.4c3.8,0,3.8-5.4,7.7-5.4
		c3.8,0,3.8,5.4,7.7,5.4c3.8,0,3.8-5.4,7.7-5.4c3.8,0,3.8,5.4,7.7,5.4c3.8,0,3.8-5.4,7.7-5.4c3.8,0,3.8,5.4,7.7,5.4
		c3.8,0,3.8-5.4,7.7-5.4c3.8,0,3.8,5.4,7.7,5.4c3.8,0,3.8-5.4,7.7-5.4c3.8,0,3.8,5.4,7.7,5.4c3.8,0,3.8-5.4,7.7-5.4
		c3.8,0,3.8,5.4,7.7,5.4c3.8,0,3.8-5.4,7.7-5.4c3.8,0,3.8,5.4,7.7,5.4c3.8,0,3.8-5.4,7.7-5.4c3.8,0,3.8,5.4,7.7,5.4
		c3.8,0,3.8-5.4,7.7-5.4c3.8,0,3.8,5.4,7.7,5.4c3.8,0,3.8-5.4,7.7-5.4c3.8,0,3.8,5.4,7.7,5.4c3.8,0,3.8-5.4,7.7-5.4
		c3.8,0,3.8,5.4,7.7,5.4c3.8,0,3.8-5.4,7.7-5.4c3.8,0,3.8,5.4,7.7,5.4c3.8,0,3.8-5.4,7.7-5.4c3.8,0,3.8,5.4,7.7,5.4
		c3.8,0,3.8-5.4,7.7-5.4c3.8,0,3.8,5.4,7.7,5.4"/>
	<path class="st0" d="M-30.9,144.2c3.9,0,3.9,5.4,7.8,5.4c3.9,0,3.9-5.4,7.8-5.4c3.9,0,3.9,5.4,7.8,5.4c3.9,0,3.9-5.4,7.8-5.4
		c3.9,0,3.9,5.4,7.8,5.4c3.9,0,3.9-5.4,7.8-5.4c3.9,0,3.9,5.4,7.8,5.4c3.9,0,3.9-5.4,7.8-5.4c3.9,0,3.9,5.4,7.8,5.4
		c3.9,0,3.9-5.4,7.8-5.4c3.9,0,3.9,5.4,7.8,5.4c3.9,0,3.9-5.4,7.8-5.4c3.9,0,3.9,5.4,7.8,5.4c3.9,0,3.9-5.4,7.8-5.4
		c3.9,0,3.9,5.4,7.8,5.4c3.9,0,3.9-5.4,7.8-5.4c3.9,0,3.9,5.4,7.8,5.4c3.9,0,3.9-5.4,7.8-5.4c3.9,0,3.9,5.4,7.8,5.4
		c3.9,0,3.9-5.4,7.8-5.4c3.9,0,3.9,5.4,7.8,5.4c3.9,0,3.9-5.4,7.8-5.4c3.9,0,3.9,5.4,7.8,5.4c3.9,0,3.9-5.4,7.8-5.4
		c3.9,0,3.9,5.4,7.8,5.4c3.9,0,3.9-5.4,7.8-5.4c3.9,0,3.9,5.4,7.8,5.4c3.9,0,3.9-5.4,7.8-5.4c3.9,0,3.9,5.4,7.8,5.4
		c3.9,0,3.9-5.4,7.8-5.4c3.9,0,3.9,5.4,7.8,5.4c3.9,0,3.9-5.4,7.8-5.4c3.9,0,3.9,5.4,7.8,5.4c3.9,0,3.9-5.4,7.8-5.4
		c3.9,0,3.9,5.4,7.8,5.4c3.9,0,3.9-5.4,7.8-5.4c3.9,0,3.9,5.4,7.8,5.4c3.9,0,3.9-5.4,7.8-5.4c3.9,0,3.9,5.4,7.8,5.4
		c3.9,0,3.9-5.4,7.8-5.4c3.9,0,3.9,5.4,7.8,5.4c3.9,0,3.9-5.4,7.8-5.4c3.9,0,3.9,5.4,7.8,5.4c3.9,0,3.9-5.4,7.8-5.4
		c3.9,0,3.9,5.4,7.8,5.4c3.9,0,3.9-5.4,7.8-5.4c3.9,0,3.9,5.4,7.8,5.4c3.9,0,3.9-5.4,7.8-5.4c3.9,0,3.9,5.4,7.8,5.4
		c3.9,0,3.9-5.4,7.8-5.4c3.9,0,3.9,5.4,7.8,5.4c3.9,0,3.9-5.4,7.8-5.4c3.9,0,3.9,5.4,7.8,5.4c3.9,0,3.9-5.4,7.8-5.4
		c3.9,0,3.9,5.4,7.8,5.4c3.9,0,3.9-5.4,7.8-5.4c3.9,0,3.9,5.4,7.8,5.4c3.9,0,3.9-5.4,7.8-5.4c3.9,0,3.9,5.4,7.8,5.4
		c3.9,0,3.9-5.4,7.8-5.4c3.9,0,3.9,5.4,7.8,5.4c3.9,0,3.9-5.4,7.8-5.4c3.9,0,3.9,5.4,7.8,5.4c3.9,0,3.9-5.4,7.8-5.4
		c3.9,0,3.9,5.4,7.8,5.4c3.9,0,3.9-5.4,7.8-5.4c3.9,0,3.9,5.4,7.8,5.4c3.9,0,3.9-5.4,7.8-5.4c3.9,0,3.9,5.4,7.8,5.4
		c3.9,0,3.9-5.4,7.8-5.4c3.9,0,3.9,5.4,7.8,5.4c3.9,0,3.9-5.4,7.8-5.4c3.9,0,3.9,5.4,7.8,5.4c3.9,0,3.9-5.4,7.8-5.4
		c3.9,0,3.9,5.4,7.8,5.4c3.9,0,3.9-5.4,7.8-5.4c3.9,0,3.9,5.4,7.8,5.4"/>
	<path class="st0" d="M-42.2,153c4,0,4,5.4,8,5.4c4,0,4-5.4,8-5.4c4,0,4,5.4,8,5.4c4,0,4-5.4,8-5.4c4,0,4,5.4,8,5.4c4,0,4-5.4,8-5.4
		c4,0,4,5.4,8,5.4c4,0,4-5.4,8-5.4c4,0,4,5.4,8,5.4c4,0,4-5.4,8-5.4c4,0,4,5.4,8,5.4c4,0,4-5.4,8-5.4c4,0,4,5.4,8,5.4
		c4,0,4-5.4,8-5.4c4,0,4,5.4,8,5.4c4,0,4-5.4,8-5.4c4,0,4,5.4,8,5.4c4,0,4-5.4,8-5.4c4,0,4,5.4,8,5.4c4,0,4-5.4,8-5.4
		c4,0,4,5.4,8,5.4c4,0,4-5.4,8-5.4c4,0,4,5.4,8,5.4c4,0,4-5.4,8-5.4c4,0,4,5.4,8,5.4c4,0,4-5.4,8-5.4c4,0,4,5.4,8,5.4
		c4,0,4-5.4,8-5.4c4,0,4,5.4,8,5.4c4,0,4-5.4,8-5.4c4,0,4,5.4,8,5.4c4,0,4-5.4,8-5.4c4,0,4,5.4,8,5.4c4,0,4-5.4,8-5.4
		c4,0,4,5.4,8,5.4c4,0,4-5.4,8-5.4c4,0,4,5.4,8,5.4c4,0,4-5.4,8-5.4c4,0,4,5.4,8,5.4c4,0,4-5.4,8-5.4c4,0,4,5.4,8,5.4
		c4,0,4-5.4,8-5.4c4,0,4,5.4,8,5.4c4,0,4-5.4,8-5.4c4,0,4,5.4,8,5.4c4,0,4-5.4,8-5.4c4,0,4,5.4,8,5.4c4,0,4-5.4,8-5.4
		c4,0,4,5.4,8,5.4c4,0,4-5.4,8-5.4c4,0,4,5.4,8,5.4c4,0,4-5.4,8-5.4c4,0,4,5.4,8,5.4c4,0,4-5.4,8-5.4c4,0,4,5.4,8,5.4
		c4,0,4-5.4,8-5.4c4,0,4,5.4,8,5.4c4,0,4-5.4,8-5.4c4,0,4,5.4,8,5.4c4,0,4-5.4,8-5.4c4,0,4,5.4,8,5.4s4-5.4,8-5.4c4,0,4,5.4,8,5.4
		c4,0,4-5.4,8-5.4c4,0,4,5.4,8,5.4c4,0,4-5.4,8-5.4c4,0,4,5.4,8,5.4c4,0,4-5.4,8-5.4c4,0,4,5.4,8,5.4c4,0,4-5.4,8-5.4
		c4,0,4,5.4,8,5.4c4,0,4-5.4,8-5.4c4,0,4,5.4,8,5.4c4,0,4-5.4,8-5.4c4,0,4,5.4,8,5.4c4,0,4-5.4,8-5.4c4,0,4,5.4,8,5.4"/>
	<path class="st0" d="M-53.6,161.9c4.1,0,4,5.4,8.1,5.4c4.1,0,4.1-5.4,8.1-5.4c4.1,0,4,5.4,8.1,5.4c4.1,0,4.1-5.4,8.1-5.4
		c4.1,0,4,5.4,8.1,5.4c4.1,0,4.1-5.4,8.1-5.4c4.1,0,4,5.4,8.1,5.4c4.1,0,4.1-5.4,8.1-5.4c4.1,0,4,5.4,8.1,5.4c4.1,0,4.1-5.4,8.1-5.4
		c4.1,0,4,5.4,8.1,5.4c4.1,0,4.1-5.4,8.1-5.4c4.1,0,4,5.4,8.1,5.4c4.1,0,4.1-5.4,8.1-5.4c4.1,0,4,5.4,8.1,5.4c4.1,0,4.1-5.4,8.1-5.4
		c4.1,0,4,5.4,8.1,5.4c4.1,0,4.1-5.4,8.1-5.4c4.1,0,4,5.4,8.1,5.4c4.1,0,4.1-5.4,8.1-5.4c4.1,0,4,5.4,8.1,5.4c4.1,0,4.1-5.4,8.1-5.4
		c4.1,0,4,5.4,8.1,5.4c4.1,0,4.1-5.4,8.1-5.4c4.1,0,4,5.4,8.1,5.4c4.1,0,4.1-5.4,8.1-5.4c4.1,0,4,5.4,8.1,5.4c4.1,0,4.1-5.4,8.1-5.4
		c4.1,0,4,5.4,8.1,5.4c4.1,0,4.1-5.4,8.1-5.4c4.1,0,4,5.4,8.1,5.4c4.1,0,4.1-5.4,8.1-5.4c4.1,0,4,5.4,8.1,5.4c4.1,0,4.1-5.4,8.1-5.4
		c4.1,0,4,5.4,8.1,5.4c4.1,0,4.1-5.4,8.1-5.4c4.1,0,4,5.4,8.1,5.4c4.1,0,4.1-5.4,8.1-5.4c4.1,0,4,5.4,8.1,5.4c4.1,0,4.1-5.4,8.1-5.4
		c4.1,0,4,5.4,8.1,5.4c4.1,0,4.1-5.4,8.1-5.4c4.1,0,4,5.4,8.1,5.4c4.1,0,4.1-5.4,8.1-5.4c4.1,0,4,5.4,8.1,5.4c4.1,0,4.1-5.4,8.1-5.4
		c4.1,0,4,5.4,8.1,5.4c4.1,0,4.1-5.4,8.1-5.4c4.1,0,4,5.4,8.1,5.4c4.1,0,4.1-5.4,8.1-5.4c4.1,0,4,5.4,8.1,5.4c4.1,0,4.1-5.4,8.1-5.4
		c4.1,0,4,5.4,8.1,5.4c4.1,0,4.1-5.4,8.1-5.4c4.1,0,4,5.4,8.1,5.4c4.1,0,4.1-5.4,8.1-5.4c4.1,0,4,5.4,8.1,5.4c4.1,0,4.1-5.4,8.1-5.4
		c4.1,0,4,5.4,8.1,5.4c4.1,0,4.1-5.4,8.1-5.4c4.1,0,4,5.4,8.1,5.4c4.1,0,4.1-5.4,8.1-5.4c4.1,0,4,5.4,8.1,5.4c4.1,0,4.1-5.4,8.1-5.4
		c4.1,0,4,5.4,8.1,5.4c4.1,0,4.1-5.4,8.1-5.4c4.1,0,4,5.4,8.1,5.4c4.1,0,4.1-5.4,8.1-5.4c4.1,0,4,5.4,8.1,5.4c4.1,0,4.1-5.4,8.1-5.4
		c4.1,0,4,5.4,8.1,5.4c4.1,0,4.1-5.4,8.1-5.4c4.1,0,4,5.4,8.1,5.4c4.1,0,4.1-5.4,8.1-5.4c4.1,0,4,5.4,8.1,5.4c4.1,0,4.1-5.4,8.1-5.4
		c4.1,0,4,5.4,8.1,5.4"/>
	<path class="st0" d="M-64.9,170.8c4.1,0,4.1,5.4,8.2,5.4c4.1,0,4.1-5.4,8.3-5.4c4.1,0,4.1,5.4,8.3,5.4c4.1,0,4.1-5.4,8.3-5.4
		c4.1,0,4.1,5.4,8.2,5.4c4.1,0,4.1-5.4,8.3-5.4c4.1,0,4.1,5.4,8.3,5.4c4.1,0,4.1-5.4,8.3-5.4c4.1,0,4.1,5.4,8.2,5.4
		c4.1,0,4.1-5.4,8.3-5.4c4.1,0,4.1,5.4,8.3,5.4c4.1,0,4.1-5.4,8.3-5.4c4.1,0,4.1,5.4,8.2,5.4c4.1,0,4.1-5.4,8.3-5.4
		c4.1,0,4.1,5.4,8.2,5.4c4.1,0,4.1-5.4,8.3-5.4c4.1,0,4.1,5.4,8.2,5.4c4.1,0,4.1-5.4,8.3-5.4c4.1,0,4.1,5.4,8.2,5.4
		c4.1,0,4.1-5.4,8.3-5.4c4.1,0,4.1,5.4,8.2,5.4c4.1,0,4.1-5.4,8.3-5.4c4.1,0,4.1,5.4,8.2,5.4c4.1,0,4.1-5.4,8.3-5.4
		c4.1,0,4.1,5.4,8.2,5.4c4.1,0,4.1-5.4,8.3-5.4c4.1,0,4.1,5.4,8.2,5.4c4.1,0,4.1-5.4,8.3-5.4c4.1,0,4.1,5.4,8.2,5.4
		c4.1,0,4.1-5.4,8.3-5.4c4.1,0,4.1,5.4,8.2,5.4c4.1,0,4.1-5.4,8.3-5.4c4.1,0,4.1,5.4,8.2,5.4c4.1,0,4.1-5.4,8.3-5.4
		c4.1,0,4.1,5.4,8.2,5.4c4.1,0,4.1-5.4,8.3-5.4c4.1,0,4.1,5.4,8.3,5.4c4.1,0,4.1-5.4,8.3-5.4c4.1,0,4.1,5.4,8.3,5.4
		c4.1,0,4.1-5.4,8.3-5.4c4.1,0,4.1,5.4,8.3,5.4c4.1,0,4.1-5.4,8.3-5.4c4.1,0,4.1,5.4,8.3,5.4c4.1,0,4.1-5.4,8.3-5.4
		c4.1,0,4.1,5.4,8.2,5.4c4.1,0,4.1-5.4,8.3-5.4c4.1,0,4.1,5.4,8.2,5.4c4.1,0,4.1-5.4,8.3-5.4c4.1,0,4.1,5.4,8.2,5.4
		c4.1,0,4.1-5.4,8.3-5.4c4.1,0,4.1,5.4,8.2,5.4c4.1,0,4.1-5.4,8.3-5.4c4.1,0,4.1,5.4,8.3,5.4c4.1,0,4.1-5.4,8.3-5.4
		c4.1,0,4.1,5.4,8.3,5.4c4.1,0,4.1-5.4,8.3-5.4c4.1,0,4.1,5.4,8.3,5.4c4.1,0,4.1-5.4,8.3-5.4c4.1,0,4.1,5.4,8.3,5.4
		c4.1,0,4.1-5.4,8.3-5.4c4.1,0,4.1,5.4,8.3,5.4c4.1,0,4.1-5.4,8.3-5.4c4.1,0,4.1,5.4,8.3,5.4c4.1,0,4.1-5.4,8.3-5.4
		c4.1,0,4.1,5.4,8.3,5.4c4.1,0,4.1-5.4,8.3-5.4c4.1,0,4.1,5.4,8.3,5.4c4.1,0,4.1-5.4,8.3-5.4c4.1,0,4.1,5.4,8.3,5.4
		c4.1,0,4.1-5.4,8.3-5.4c4.1,0,4.1,5.4,8.3,5.4c4.1,0,4.1-5.4,8.3-5.4c4.1,0,4.1,5.4,8.3,5.4c4.1,0,4.1-5.4,8.3-5.4
		c4.1,0,4.1,5.4,8.3,5.4c4.1,0,4.1-5.4,8.3-5.4c4.1,0,4.1,5.4,8.3,5.4"/>
	<path class="st0" d="M-76.2,179.6c4.2,0,4.2,5.4,8.4,5.4c4.2,0,4.2-5.4,8.4-5.4c4.2,0,4.2,5.4,8.4,5.4c4.2,0,4.2-5.4,8.4-5.4
		c4.2,0,4.2,5.4,8.4,5.4c4.2,0,4.2-5.4,8.4-5.4c4.2,0,4.2,5.4,8.4,5.4c4.2,0,4.2-5.4,8.4-5.4c4.2,0,4.2,5.4,8.4,5.4
		c4.2,0,4.2-5.4,8.4-5.4c4.2,0,4.2,5.4,8.4,5.4c4.2,0,4.2-5.4,8.4-5.4c4.2,0,4.2,5.4,8.4,5.4c4.2,0,4.2-5.4,8.4-5.4
		c4.2,0,4.2,5.4,8.4,5.4c4.2,0,4.2-5.4,8.4-5.4c4.2,0,4.2,5.4,8.4,5.4c4.2,0,4.2-5.4,8.4-5.4c4.2,0,4.2,5.4,8.4,5.4
		c4.2,0,4.2-5.4,8.4-5.4c4.2,0,4.2,5.4,8.4,5.4c4.2,0,4.2-5.4,8.4-5.4c4.2,0,4.2,5.4,8.4,5.4c4.2,0,4.2-5.4,8.4-5.4
		c4.2,0,4.2,5.4,8.4,5.4c4.2,0,4.2-5.4,8.4-5.4c4.2,0,4.2,5.4,8.4,5.4c4.2,0,4.2-5.4,8.4-5.4c4.2,0,4.2,5.4,8.4,5.4
		c4.2,0,4.2-5.4,8.4-5.4c4.2,0,4.2,5.4,8.4,5.4c4.2,0,4.2-5.4,8.4-5.4c4.2,0,4.2,5.4,8.4,5.4c4.2,0,4.2-5.4,8.4-5.4
		c4.2,0,4.2,5.4,8.4,5.4c4.2,0,4.2-5.4,8.4-5.4c4.2,0,4.2,5.4,8.4,5.4c4.2,0,4.2-5.4,8.4-5.4s4.2,5.4,8.4,5.4c4.2,0,4.2-5.4,8.4-5.4
		c4.2,0,4.2,5.4,8.4,5.4c4.2,0,4.2-5.4,8.4-5.4c4.2,0,4.2,5.4,8.4,5.4c4.2,0,4.2-5.4,8.4-5.4c4.2,0,4.2,5.4,8.4,5.4
		c4.2,0,4.2-5.4,8.4-5.4c4.2,0,4.2,5.4,8.4,5.4c4.2,0,4.2-5.4,8.4-5.4c4.2,0,4.2,5.4,8.4,5.4c4.2,0,4.2-5.4,8.4-5.4
		c4.2,0,4.2,5.4,8.4,5.4c4.2,0,4.2-5.4,8.4-5.4c4.2,0,4.2,5.4,8.4,5.4c4.2,0,4.2-5.4,8.4-5.4c4.2,0,4.2,5.4,8.4,5.4
		c4.2,0,4.2-5.4,8.4-5.4c4.2,0,4.2,5.4,8.4,5.4c4.2,0,4.2-5.4,8.4-5.4c4.2,0,4.2,5.4,8.4,5.4c4.2,0,4.2-5.4,8.4-5.4
		c4.2,0,4.2,5.4,8.4,5.4c4.2,0,4.2-5.4,8.4-5.4c4.2,0,4.2,5.4,8.4,5.4c4.2,0,4.2-5.4,8.4-5.4c4.2,0,4.2,5.4,8.4,5.4
		c4.2,0,4.2-5.4,8.4-5.4c4.2,0,4.2,5.4,8.4,5.4c4.2,0,4.2-5.4,8.4-5.4c4.2,0,4.2,5.4,8.4,5.4c4.2,0,4.2-5.4,8.4-5.4
		c4.2,0,4.2,5.4,8.4,5.4c4.2,0,4.2-5.4,8.4-5.4c4.2,0,4.2,5.4,8.4,5.4c4.2,0,4.2-5.4,8.4-5.4c4.2,0,4.2,5.4,8.4,5.4
		c4.2,0,4.2-5.4,8.4-5.4s4.2,5.4,8.4,5.4"/>
	<path class="st0" d="M-87.5,188.5c4.3,0,4.3,5.4,8.5,5.4c4.3,0,4.3-5.4,8.6-5.4c4.3,0,4.3,5.4,8.5,5.4c4.3,0,4.3-5.4,8.6-5.4
		c4.3,0,4.3,5.4,8.5,5.4c4.3,0,4.3-5.4,8.6-5.4c4.3,0,4.3,5.4,8.5,5.4c4.3,0,4.3-5.4,8.6-5.4c4.3,0,4.3,5.4,8.5,5.4
		c4.3,0,4.3-5.4,8.6-5.4c4.3,0,4.3,5.4,8.5,5.4c4.3,0,4.3-5.4,8.6-5.4c4.3,0,4.3,5.4,8.5,5.4c4.3,0,4.3-5.4,8.6-5.4
		c4.3,0,4.3,5.4,8.5,5.4c4.3,0,4.3-5.4,8.6-5.4c4.3,0,4.3,5.4,8.5,5.4c4.3,0,4.3-5.4,8.6-5.4c4.3,0,4.3,5.4,8.5,5.4
		c4.3,0,4.3-5.4,8.6-5.4c4.3,0,4.3,5.4,8.5,5.4c4.3,0,4.3-5.4,8.6-5.4c4.3,0,4.3,5.4,8.5,5.4c4.3,0,4.3-5.4,8.6-5.4
		c4.3,0,4.3,5.4,8.5,5.4c4.3,0,4.3-5.4,8.6-5.4c4.3,0,4.3,5.4,8.5,5.4c4.3,0,4.3-5.4,8.6-5.4c4.3,0,4.3,5.4,8.5,5.4
		c4.3,0,4.3-5.4,8.6-5.4c4.3,0,4.3,5.4,8.5,5.4c4.3,0,4.3-5.4,8.6-5.4c4.3,0,4.3,5.4,8.5,5.4c4.3,0,4.3-5.4,8.6-5.4
		c4.3,0,4.3,5.4,8.5,5.4c4.3,0,4.3-5.4,8.6-5.4c4.3,0,4.3,5.4,8.5,5.4c4.3,0,4.3-5.4,8.6-5.4c4.3,0,4.3,5.4,8.5,5.4
		c4.3,0,4.3-5.4,8.6-5.4c4.3,0,4.3,5.4,8.5,5.4c4.3,0,4.3-5.4,8.6-5.4c4.3,0,4.3,5.4,8.5,5.4c4.3,0,4.3-5.4,8.6-5.4
		c4.3,0,4.3,5.4,8.5,5.4c4.3,0,4.3-5.4,8.6-5.4c4.3,0,4.3,5.4,8.5,5.4c4.3,0,4.3-5.4,8.6-5.4c4.3,0,4.3,5.4,8.5,5.4
		c4.3,0,4.3-5.4,8.6-5.4c4.3,0,4.3,5.4,8.5,5.4c4.3,0,4.3-5.4,8.6-5.4c4.3,0,4.3,5.4,8.5,5.4c4.3,0,4.3-5.4,8.6-5.4
		c4.3,0,4.3,5.4,8.5,5.4c4.3,0,4.3-5.4,8.6-5.4c4.3,0,4.3,5.4,8.5,5.4c4.3,0,4.3-5.4,8.6-5.4c4.3,0,4.3,5.4,8.5,5.4
		c4.3,0,4.3-5.4,8.6-5.4c4.3,0,4.3,5.4,8.5,5.4c4.3,0,4.3-5.4,8.6-5.4c4.3,0,4.3,5.4,8.5,5.4c4.3,0,4.3-5.4,8.6-5.4
		c4.3,0,4.3,5.4,8.5,5.4c4.3,0,4.3-5.4,8.6-5.4c4.3,0,4.3,5.4,8.5,5.4c4.3,0,4.3-5.4,8.6-5.4c4.3,0,4.3,5.4,8.5,5.4
		c4.3,0,4.3-5.4,8.6-5.4c4.3,0,4.3,5.4,8.5,5.4c4.3,0,4.3-5.4,8.6-5.4c4.3,0,4.3,5.4,8.5,5.4c4.3,0,4.3-5.4,8.6-5.4
		c4.3,0,4.3,5.4,8.5,5.4c4.3,0,4.3-5.4,8.6-5.4s4.3,5.4,8.6,5.4"/>
	<path class="st0" d="M-98.8,197.4c4.3,0,4.3,5.4,8.7,5.4c4.3,0,4.4-5.4,8.7-5.4c4.3,0,4.3,5.4,8.7,5.4c4.3,0,4.4-5.4,8.7-5.4
		c4.3,0,4.3,5.4,8.7,5.4c4.3,0,4.4-5.4,8.7-5.4c4.3,0,4.3,5.4,8.7,5.4c4.3,0,4.4-5.4,8.7-5.4c4.3,0,4.3,5.4,8.7,5.4
		c4.3,0,4.4-5.4,8.7-5.4c4.3,0,4.3,5.4,8.7,5.4c4.3,0,4.4-5.4,8.7-5.4c4.3,0,4.3,5.4,8.7,5.4c4.3,0,4.4-5.4,8.7-5.4
		c4.3,0,4.3,5.4,8.7,5.4c4.3,0,4.4-5.4,8.7-5.4c4.3,0,4.3,5.4,8.7,5.4s4.4-5.4,8.7-5.4c4.3,0,4.3,5.4,8.7,5.4c4.3,0,4.4-5.4,8.7-5.4
		c4.3,0,4.3,5.4,8.7,5.4c4.3,0,4.4-5.4,8.7-5.4c4.3,0,4.3,5.4,8.7,5.4c4.3,0,4.4-5.4,8.7-5.4c4.3,0,4.3,5.4,8.7,5.4
		c4.3,0,4.4-5.4,8.7-5.4c4.3,0,4.3,5.4,8.7,5.4c4.3,0,4.4-5.4,8.7-5.4c4.3,0,4.3,5.4,8.7,5.4c4.3,0,4.4-5.4,8.7-5.4
		c4.3,0,4.3,5.4,8.7,5.4c4.3,0,4.4-5.4,8.7-5.4c4.3,0,4.3,5.4,8.7,5.4c4.3,0,4.4-5.4,8.7-5.4c4.3,0,4.3,5.4,8.7,5.4
		c4.3,0,4.4-5.4,8.7-5.4c4.3,0,4.3,5.4,8.7,5.4c4.3,0,4.4-5.4,8.7-5.4c4.3,0,4.3,5.4,8.7,5.4c4.3,0,4.4-5.4,8.7-5.4
		c4.3,0,4.3,5.4,8.7,5.4c4.3,0,4.4-5.4,8.7-5.4c4.3,0,4.3,5.4,8.7,5.4c4.3,0,4.4-5.4,8.7-5.4c4.3,0,4.3,5.4,8.7,5.4
		c4.3,0,4.4-5.4,8.7-5.4c4.3,0,4.3,5.4,8.7,5.4c4.3,0,4.4-5.4,8.7-5.4c4.3,0,4.3,5.4,8.7,5.4c4.3,0,4.4-5.4,8.7-5.4
		c4.3,0,4.3,5.4,8.7,5.4c4.3,0,4.4-5.4,8.7-5.4c4.3,0,4.3,5.4,8.7,5.4c4.3,0,4.4-5.4,8.7-5.4c4.3,0,4.3,5.4,8.7,5.4
		c4.4,0,4.4-5.4,8.7-5.4c4.3,0,4.3,5.4,8.7,5.4c4.3,0,4.4-5.4,8.7-5.4c4.3,0,4.3,5.4,8.7,5.4c4.3,0,4.4-5.4,8.7-5.4
		c4.3,0,4.3,5.4,8.7,5.4c4.4,0,4.4-5.4,8.7-5.4c4.3,0,4.3,5.4,8.7,5.4c4.4,0,4.4-5.4,8.7-5.4c4.3,0,4.3,5.4,8.7,5.4
		c4.4,0,4.4-5.4,8.7-5.4c4.3,0,4.3,5.4,8.7,5.4c4.4,0,4.4-5.4,8.7-5.4c4.3,0,4.3,5.4,8.7,5.4c4.4,0,4.4-5.4,8.7-5.4
		c4.4,0,4.3,5.4,8.7,5.4c4.4,0,4.4-5.4,8.7-5.4c4.4,0,4.3,5.4,8.7,5.4c4.4,0,4.4-5.4,8.7-5.4c4.4,0,4.3,5.4,8.7,5.4
		c4.4,0,4.4-5.4,8.7-5.4c4.4,0,4.3,5.4,8.7,5.4"/>
	<path class="st0" d="M-110.1,206.3c4.4,0,4.4,5.4,8.8,5.4c4.4,0,4.4-5.4,8.8-5.4c4.4,0,4.4,5.4,8.8,5.4c4.4,0,4.4-5.4,8.9-5.4
		c4.4,0,4.4,5.4,8.8,5.4c4.4,0,4.4-5.4,8.8-5.4c4.4,0,4.4,5.4,8.8,5.4c4.4,0,4.4-5.4,8.9-5.4c4.4,0,4.4,5.4,8.8,5.4
		c4.4,0,4.4-5.4,8.9-5.4c4.4,0,4.4,5.4,8.8,5.4c4.4,0,4.4-5.4,8.9-5.4c4.4,0,4.4,5.4,8.8,5.4c4.4,0,4.4-5.4,8.9-5.4
		c4.4,0,4.4,5.4,8.8,5.4c4.4,0,4.4-5.4,8.8-5.4c4.4,0,4.4,5.4,8.8,5.4s4.4-5.4,8.8-5.4c4.4,0,4.4,5.4,8.8,5.4c4.4,0,4.4-5.4,8.9-5.4
		c4.4,0,4.4,5.4,8.8,5.4c4.4,0,4.4-5.4,8.8-5.4c4.4,0,4.4,5.4,8.8,5.4c4.4,0,4.4-5.4,8.8-5.4c4.4,0,4.4,5.4,8.8,5.4
		c4.4,0,4.4-5.4,8.9-5.4c4.4,0,4.4,5.4,8.8,5.4c4.4,0,4.4-5.4,8.9-5.4c4.4,0,4.4,5.4,8.8,5.4c4.4,0,4.4-5.4,8.9-5.4
		c4.4,0,4.4,5.4,8.8,5.4c4.4,0,4.4-5.4,8.9-5.4c4.4,0,4.4,5.4,8.8,5.4c4.4,0,4.4-5.4,8.9-5.4c4.4,0,4.4,5.4,8.8,5.4
		c4.4,0,4.4-5.4,8.9-5.4c4.4,0,4.4,5.4,8.8,5.4c4.4,0,4.4-5.4,8.9-5.4c4.4,0,4.4,5.4,8.8,5.4c4.4,0,4.4-5.4,8.9-5.4
		c4.4,0,4.4,5.4,8.8,5.4c4.4,0,4.4-5.4,8.8-5.4c4.4,0,4.4,5.4,8.8,5.4c4.4,0,4.4-5.4,8.8-5.4c4.4,0,4.4,5.4,8.8,5.4
		c4.4,0,4.4-5.4,8.9-5.4c4.4,0,4.4,5.4,8.8,5.4c4.4,0,4.4-5.4,8.9-5.4c4.4,0,4.4,5.4,8.8,5.4c4.4,0,4.4-5.4,8.9-5.4
		c4.4,0,4.4,5.4,8.8,5.4c4.4,0,4.4-5.4,8.9-5.4c4.4,0,4.4,5.4,8.8,5.4c4.4,0,4.4-5.4,8.9-5.4c4.4,0,4.4,5.4,8.8,5.4
		c4.4,0,4.4-5.4,8.9-5.4c4.4,0,4.4,5.4,8.8,5.4c4.4,0,4.4-5.4,8.9-5.4s4.4,5.4,8.8,5.4c4.4,0,4.4-5.4,8.9-5.4c4.4,0,4.4,5.4,8.8,5.4
		c4.4,0,4.4-5.4,8.9-5.4c4.4,0,4.4,5.4,8.8,5.4c4.4,0,4.4-5.4,8.9-5.4c4.4,0,4.4,5.4,8.8,5.4c4.4,0,4.4-5.4,8.9-5.4
		c4.4,0,4.4,5.4,8.8,5.4c4.4,0,4.4-5.4,8.9-5.4c4.4,0,4.4,5.4,8.8,5.4c4.4,0,4.4-5.4,8.9-5.4c4.4,0,4.4,5.4,8.8,5.4
		c4.4,0,4.4-5.4,8.9-5.4c4.4,0,4.4,5.4,8.8,5.4c4.4,0,4.4-5.4,8.9-5.4c4.4,0,4.4,5.4,8.8,5.4c4.4,0,4.4-5.4,8.9-5.4
		c4.4,0,4.4,5.4,8.8,5.4"/>
	<path class="st0" d="M-121.4,215.1c4.5,0,4.5,5.4,9,5.4c4.5,0,4.5-5.4,9-5.4c4.5,0,4.5,5.4,9,5.4c4.5,0,4.5-5.4,9-5.4
		c4.5,0,4.5,5.4,9,5.4c4.5,0,4.5-5.4,9-5.4c4.5,0,4.5,5.4,9,5.4c4.5,0,4.5-5.4,9-5.4c4.5,0,4.5,5.4,9,5.4c4.5,0,4.5-5.4,9-5.4
		c4.5,0,4.5,5.4,9,5.4c4.5,0,4.5-5.4,9-5.4c4.5,0,4.5,5.4,9,5.4c4.5,0,4.5-5.4,9-5.4c4.5,0,4.5,5.4,9,5.4c4.5,0,4.5-5.4,9-5.4
		c4.5,0,4.5,5.4,9,5.4c4.5,0,4.5-5.4,9-5.4c4.5,0,4.5,5.4,9,5.4c4.5,0,4.5-5.4,9-5.4c4.5,0,4.5,5.4,9,5.4c4.5,0,4.5-5.4,9-5.4
		c4.5,0,4.5,5.4,9,5.4c4.5,0,4.5-5.4,9-5.4c4.5,0,4.5,5.4,9,5.4c4.5,0,4.5-5.4,9-5.4c4.5,0,4.5,5.4,9,5.4c4.5,0,4.5-5.4,9-5.4
		c4.5,0,4.5,5.4,9,5.4c4.5,0,4.5-5.4,9-5.4c4.5,0,4.5,5.4,9,5.4c4.5,0,4.5-5.4,9-5.4c4.5,0,4.5,5.4,9,5.4c4.5,0,4.5-5.4,9-5.4
		c4.5,0,4.5,5.4,9,5.4c4.5,0,4.5-5.4,9-5.4c4.5,0,4.5,5.4,9,5.4c4.5,0,4.5-5.4,9-5.4c4.5,0,4.5,5.4,9,5.4c4.5,0,4.5-5.4,9-5.4
		c4.5,0,4.5,5.4,9,5.4c4.5,0,4.5-5.4,9-5.4c4.5,0,4.5,5.4,9,5.4c4.5,0,4.5-5.4,9-5.4c4.5,0,4.5,5.4,9,5.4c4.5,0,4.5-5.4,9-5.4
		c4.5,0,4.5,5.4,9,5.4c4.5,0,4.5-5.4,9-5.4c4.5,0,4.5,5.4,9,5.4c4.5,0,4.5-5.4,9-5.4c4.5,0,4.5,5.4,9,5.4c4.5,0,4.5-5.4,9-5.4
		c4.5,0,4.5,5.4,9,5.4c4.5,0,4.5-5.4,9-5.4c4.5,0,4.5,5.4,9,5.4c4.5,0,4.5-5.4,9-5.4c4.5,0,4.5,5.4,9,5.4c4.5,0,4.5-5.4,9-5.4
		c4.5,0,4.5,5.4,9,5.4c4.5,0,4.5-5.4,9-5.4c4.5,0,4.5,5.4,9,5.4c4.5,0,4.5-5.4,9-5.4c4.5,0,4.5,5.4,9,5.4c4.5,0,4.5-5.4,9-5.4
		c4.5,0,4.5,5.4,9,5.4c4.5,0,4.5-5.4,9-5.4c4.5,0,4.5,5.4,9,5.4c4.5,0,4.5-5.4,9-5.4c4.5,0,4.5,5.4,9,5.4c4.5,0,4.5-5.4,9-5.4
		c4.5,0,4.5,5.4,9,5.4c4.5,0,4.5-5.4,9-5.4c4.5,0,4.5,5.4,9,5.4c4.5,0,4.5-5.4,9-5.4c4.5,0,4.5,5.4,9,5.4c4.5,0,4.5-5.4,9-5.4
		c4.5,0,4.5,5.4,9,5.4"/>
	<path class="st0" d="M-132.8,224c4.6,0,4.6,5.4,9.1,5.4c4.6,0,4.6-5.4,9.1-5.4c4.6,0,4.6,5.4,9.1,5.4c4.6,0,4.6-5.4,9.1-5.4
		c4.6,0,4.6,5.4,9.1,5.4c4.6,0,4.6-5.4,9.1-5.4c4.6,0,4.6,5.4,9.1,5.4c4.6,0,4.6-5.4,9.1-5.4c4.6,0,4.6,5.4,9.1,5.4
		c4.6,0,4.6-5.4,9.1-5.4c4.6,0,4.6,5.4,9.1,5.4c4.6,0,4.6-5.4,9.1-5.4c4.6,0,4.6,5.4,9.1,5.4c4.6,0,4.6-5.4,9.1-5.4
		c4.6,0,4.6,5.4,9.1,5.4c4.6,0,4.6-5.4,9.1-5.4c4.6,0,4.6,5.4,9.1,5.4c4.6,0,4.6-5.4,9.1-5.4c4.6,0,4.6,5.4,9.1,5.4
		c4.6,0,4.6-5.4,9.1-5.4c4.6,0,4.6,5.4,9.1,5.4c4.6,0,4.6-5.4,9.1-5.4c4.6,0,4.6,5.4,9.1,5.4c4.6,0,4.6-5.4,9.1-5.4
		c4.6,0,4.6,5.4,9.1,5.4c4.6,0,4.6-5.4,9.1-5.4c4.6,0,4.6,5.4,9.1,5.4c4.6,0,4.6-5.4,9.1-5.4c4.6,0,4.6,5.4,9.1,5.4
		c4.6,0,4.6-5.4,9.1-5.4c4.6,0,4.6,5.4,9.1,5.4c4.6,0,4.6-5.4,9.1-5.4c4.6,0,4.6,5.4,9.1,5.4c4.6,0,4.6-5.4,9.1-5.4
		c4.6,0,4.6,5.4,9.1,5.4c4.6,0,4.6-5.4,9.1-5.4c4.6,0,4.6,5.4,9.1,5.4c4.6,0,4.6-5.4,9.1-5.4c4.6,0,4.6,5.4,9.1,5.4
		c4.6,0,4.6-5.4,9.1-5.4c4.6,0,4.6,5.4,9.1,5.4c4.6,0,4.6-5.4,9.1-5.4c4.6,0,4.6,5.4,9.1,5.4c4.6,0,4.6-5.4,9.1-5.4
		c4.6,0,4.6,5.4,9.1,5.4c4.6,0,4.6-5.4,9.1-5.4c4.6,0,4.6,5.4,9.1,5.4c4.6,0,4.6-5.4,9.1-5.4c4.6,0,4.6,5.4,9.1,5.4
		c4.6,0,4.6-5.4,9.1-5.4c4.6,0,4.6,5.4,9.1,5.4c4.6,0,4.6-5.4,9.1-5.4c4.6,0,4.6,5.4,9.1,5.4c4.6,0,4.6-5.4,9.1-5.4
		c4.6,0,4.6,5.4,9.1,5.4c4.6,0,4.6-5.4,9.1-5.4c4.6,0,4.6,5.4,9.1,5.4c4.6,0,4.6-5.4,9.1-5.4c4.6,0,4.6,5.4,9.1,5.4
		c4.6,0,4.6-5.4,9.1-5.4c4.6,0,4.6,5.4,9.1,5.4c4.6,0,4.6-5.4,9.1-5.4c4.6,0,4.6,5.4,9.1,5.4c4.6,0,4.6-5.4,9.1-5.4
		c4.6,0,4.6,5.4,9.1,5.4c4.6,0,4.6-5.4,9.1-5.4c4.6,0,4.6,5.4,9.1,5.4c4.6,0,4.6-5.4,9.1-5.4c4.6,0,4.6,5.4,9.1,5.4
		c4.6,0,4.6-5.4,9.1-5.4c4.6,0,4.6,5.4,9.1,5.4c4.6,0,4.6-5.4,9.1-5.4c4.6,0,4.6,5.4,9.1,5.4c4.6,0,4.6-5.4,9.1-5.4
		c4.6,0,4.6,5.4,9.1,5.4c4.6,0,4.6-5.4,9.1-5.4s4.6,5.4,9.1,5.4"/>
	<path class="st0" d="M-144.1,232.9c4.6,0,4.6,5.4,9.3,5.4c4.6,0,4.6-5.4,9.3-5.4c4.6,0,4.6,5.4,9.3,5.4c4.6,0,4.6-5.4,9.3-5.4
		c4.6,0,4.6,5.4,9.3,5.4c4.6,0,4.6-5.4,9.3-5.4c4.6,0,4.6,5.4,9.3,5.4c4.6,0,4.6-5.4,9.3-5.4c4.6,0,4.6,5.4,9.3,5.4
		c4.6,0,4.6-5.4,9.3-5.4c4.6,0,4.6,5.4,9.3,5.4c4.6,0,4.6-5.4,9.3-5.4c4.6,0,4.6,5.4,9.3,5.4c4.6,0,4.6-5.4,9.3-5.4
		c4.6,0,4.6,5.4,9.3,5.4c4.6,0,4.6-5.4,9.3-5.4c4.6,0,4.6,5.4,9.3,5.4c4.6,0,4.6-5.4,9.3-5.4c4.6,0,4.6,5.4,9.3,5.4
		c4.6,0,4.6-5.4,9.3-5.4c4.6,0,4.6,5.4,9.3,5.4c4.6,0,4.6-5.4,9.3-5.4c4.6,0,4.6,5.4,9.3,5.4c4.6,0,4.6-5.4,9.3-5.4
		c4.6,0,4.6,5.4,9.3,5.4c4.6,0,4.6-5.4,9.3-5.4c4.6,0,4.6,5.4,9.3,5.4c4.6,0,4.6-5.4,9.3-5.4c4.6,0,4.6,5.4,9.3,5.4
		c4.6,0,4.6-5.4,9.3-5.4c4.6,0,4.6,5.4,9.3,5.4c4.6,0,4.6-5.4,9.3-5.4c4.6,0,4.6,5.4,9.3,5.4c4.6,0,4.6-5.4,9.3-5.4
		c4.6,0,4.6,5.4,9.3,5.4c4.6,0,4.6-5.4,9.3-5.4c4.6,0,4.6,5.4,9.3,5.4c4.6,0,4.6-5.4,9.3-5.4c4.6,0,4.6,5.4,9.3,5.4
		c4.6,0,4.6-5.4,9.3-5.4c4.6,0,4.6,5.4,9.3,5.4c4.6,0,4.6-5.4,9.3-5.4c4.6,0,4.6,5.4,9.3,5.4c4.6,0,4.6-5.4,9.3-5.4
		c4.6,0,4.6,5.4,9.3,5.4c4.6,0,4.6-5.4,9.3-5.4c4.6,0,4.6,5.4,9.3,5.4c4.6,0,4.6-5.4,9.3-5.4c4.6,0,4.6,5.4,9.3,5.4
		c4.6,0,4.6-5.4,9.3-5.4c4.6,0,4.6,5.4,9.3,5.4c4.6,0,4.6-5.4,9.3-5.4c4.6,0,4.6,5.4,9.3,5.4c4.6,0,4.6-5.4,9.3-5.4
		c4.6,0,4.6,5.4,9.3,5.4c4.6,0,4.6-5.4,9.3-5.4c4.6,0,4.6,5.4,9.3,5.4c4.6,0,4.6-5.4,9.3-5.4c4.6,0,4.6,5.4,9.3,5.4
		c4.6,0,4.6-5.4,9.3-5.4c4.6,0,4.6,5.4,9.3,5.4c4.6,0,4.6-5.4,9.3-5.4c4.6,0,4.6,5.4,9.3,5.4c4.6,0,4.6-5.4,9.3-5.4
		c4.6,0,4.6,5.4,9.3,5.4c4.6,0,4.6-5.4,9.3-5.4c4.6,0,4.6,5.4,9.3,5.4c4.6,0,4.6-5.4,9.3-5.4c4.6,0,4.6,5.4,9.3,5.4
		c4.6,0,4.6-5.4,9.3-5.4c4.6,0,4.6,5.4,9.3,5.4c4.6,0,4.6-5.4,9.3-5.4c4.6,0,4.6,5.4,9.3,5.4c4.6,0,4.6-5.4,9.3-5.4
		c4.6,0,4.6,5.4,9.3,5.4c4.6,0,4.6-5.4,9.3-5.4s4.6,5.4,9.3,5.4"/>
	<path class="st0" d="M-155.4,241.7c4.7,0,4.7,5.4,9.4,5.4c4.7,0,4.7-5.4,9.4-5.4c4.7,0,4.7,5.4,9.4,5.4c4.7,0,4.7-5.4,9.4-5.4
		c4.7,0,4.7,5.4,9.4,5.4c4.7,0,4.7-5.4,9.4-5.4c4.7,0,4.7,5.4,9.4,5.4c4.7,0,4.7-5.4,9.4-5.4c4.7,0,4.7,5.4,9.4,5.4
		c4.7,0,4.7-5.4,9.4-5.4c4.7,0,4.7,5.4,9.4,5.4c4.7,0,4.7-5.4,9.4-5.4c4.7,0,4.7,5.4,9.4,5.4c4.7,0,4.7-5.4,9.4-5.4
		c4.7,0,4.7,5.4,9.4,5.4c4.7,0,4.7-5.4,9.4-5.4c4.7,0,4.7,5.4,9.4,5.4s4.7-5.4,9.4-5.4c4.7,0,4.7,5.4,9.4,5.4c4.7,0,4.7-5.4,9.4-5.4
		c4.7,0,4.7,5.4,9.4,5.4c4.7,0,4.7-5.4,9.4-5.4c4.7,0,4.7,5.4,9.4,5.4c4.7,0,4.7-5.4,9.4-5.4c4.7,0,4.7,5.4,9.4,5.4
		c4.7,0,4.7-5.4,9.4-5.4c4.7,0,4.7,5.4,9.4,5.4c4.7,0,4.7-5.4,9.4-5.4c4.7,0,4.7,5.4,9.4,5.4c4.7,0,4.7-5.4,9.4-5.4
		c4.7,0,4.7,5.4,9.4,5.4c4.7,0,4.7-5.4,9.4-5.4c4.7,0,4.7,5.4,9.4,5.4c4.7,0,4.7-5.4,9.4-5.4c4.7,0,4.7,5.4,9.4,5.4
		c4.7,0,4.7-5.4,9.4-5.4c4.7,0,4.7,5.4,9.4,5.4c4.7,0,4.7-5.4,9.4-5.4c4.7,0,4.7,5.4,9.4,5.4c4.7,0,4.7-5.4,9.4-5.4
		c4.7,0,4.7,5.4,9.4,5.4c4.7,0,4.7-5.4,9.4-5.4c4.7,0,4.7,5.4,9.4,5.4c4.7,0,4.7-5.4,9.4-5.4c4.7,0,4.7,5.4,9.4,5.4
		c4.7,0,4.7-5.4,9.4-5.4c4.7,0,4.7,5.4,9.4,5.4c4.7,0,4.7-5.4,9.4-5.4c4.7,0,4.7,5.4,9.4,5.4c4.7,0,4.7-5.4,9.4-5.4
		c4.7,0,4.7,5.4,9.4,5.4c4.7,0,4.7-5.4,9.4-5.4c4.7,0,4.7,5.4,9.4,5.4c4.7,0,4.7-5.4,9.4-5.4c4.7,0,4.7,5.4,9.4,5.4
		c4.7,0,4.7-5.4,9.4-5.4c4.7,0,4.7,5.4,9.4,5.4c4.7,0,4.7-5.4,9.4-5.4c4.7,0,4.7,5.4,9.4,5.4c4.7,0,4.7-5.4,9.4-5.4
		c4.7,0,4.7,5.4,9.4,5.4c4.7,0,4.7-5.4,9.4-5.4c4.7,0,4.7,5.4,9.4,5.4c4.7,0,4.7-5.4,9.4-5.4c4.7,0,4.7,5.4,9.4,5.4
		c4.7,0,4.7-5.4,9.4-5.4c4.7,0,4.7,5.4,9.4,5.4c4.7,0,4.7-5.4,9.4-5.4c4.7,0,4.7,5.4,9.4,5.4c4.7,0,4.7-5.4,9.4-5.4
		c4.7,0,4.7,5.4,9.4,5.4c4.7,0,4.7-5.4,9.4-5.4c4.7,0,4.7,5.4,9.4,5.4c4.7,0,4.7-5.4,9.4-5.4c4.7,0,4.7,5.4,9.4,5.4
		c4.7,0,4.7-5.4,9.4-5.4c4.7,0,4.7,5.4,9.4,5.4"/>
	<path class="st0" d="M-166.7,250.6c4.8,0,4.8,5.4,9.6,5.4c4.8,0,4.8-5.4,9.6-5.4c4.8,0,4.8,5.4,9.6,5.4c4.8,0,4.8-5.4,9.6-5.4
		c4.8,0,4.8,5.4,9.6,5.4c4.8,0,4.8-5.4,9.6-5.4c4.8,0,4.8,5.4,9.6,5.4c4.8,0,4.8-5.4,9.6-5.4c4.8,0,4.8,5.4,9.6,5.4
		c4.8,0,4.8-5.4,9.6-5.4c4.8,0,4.8,5.4,9.6,5.4c4.8,0,4.8-5.4,9.6-5.4c4.8,0,4.8,5.4,9.6,5.4c4.8,0,4.8-5.4,9.6-5.4
		c4.8,0,4.8,5.4,9.6,5.4c4.8,0,4.8-5.4,9.6-5.4c4.8,0,4.8,5.4,9.6,5.4c4.8,0,4.8-5.4,9.6-5.4c4.8,0,4.8,5.4,9.6,5.4
		c4.8,0,4.8-5.4,9.6-5.4c4.8,0,4.8,5.4,9.6,5.4c4.8,0,4.8-5.4,9.6-5.4c4.8,0,4.8,5.4,9.6,5.4c4.8,0,4.8-5.4,9.6-5.4
		c4.8,0,4.8,5.4,9.6,5.4c4.8,0,4.8-5.4,9.6-5.4c4.8,0,4.8,5.4,9.6,5.4c4.8,0,4.8-5.4,9.6-5.4c4.8,0,4.8,5.4,9.6,5.4
		c4.8,0,4.8-5.4,9.6-5.4c4.8,0,4.8,5.4,9.6,5.4c4.8,0,4.8-5.4,9.6-5.4c4.8,0,4.8,5.4,9.6,5.4c4.8,0,4.8-5.4,9.6-5.4
		c4.8,0,4.8,5.4,9.6,5.4c4.8,0,4.8-5.4,9.6-5.4c4.8,0,4.8,5.4,9.6,5.4c4.8,0,4.8-5.4,9.6-5.4c4.8,0,4.8,5.4,9.6,5.4
		c4.8,0,4.8-5.4,9.6-5.4c4.8,0,4.8,5.4,9.6,5.4c4.8,0,4.8-5.4,9.6-5.4c4.8,0,4.8,5.4,9.6,5.4c4.8,0,4.8-5.4,9.6-5.4
		c4.8,0,4.8,5.4,9.6,5.4c4.8,0,4.8-5.4,9.6-5.4c4.8,0,4.8,5.4,9.6,5.4c4.8,0,4.8-5.4,9.6-5.4c4.8,0,4.8,5.4,9.6,5.4
		c4.8,0,4.8-5.4,9.6-5.4c4.8,0,4.8,5.4,9.6,5.4c4.8,0,4.8-5.4,9.6-5.4c4.8,0,4.8,5.4,9.6,5.4c4.8,0,4.8-5.4,9.6-5.4
		c4.8,0,4.8,5.4,9.6,5.4c4.8,0,4.8-5.4,9.6-5.4c4.8,0,4.8,5.4,9.6,5.4c4.8,0,4.8-5.4,9.6-5.4c4.8,0,4.8,5.4,9.6,5.4
		c4.8,0,4.8-5.4,9.6-5.4c4.8,0,4.8,5.4,9.6,5.4c4.8,0,4.8-5.4,9.6-5.4c4.8,0,4.8,5.4,9.6,5.4c4.8,0,4.8-5.4,9.6-5.4
		c4.8,0,4.8,5.4,9.6,5.4c4.8,0,4.8-5.4,9.6-5.4c4.8,0,4.8,5.4,9.6,5.4c4.8,0,4.8-5.4,9.6-5.4c4.8,0,4.8,5.4,9.6,5.4
		c4.8,0,4.8-5.4,9.6-5.4c4.8,0,4.8,5.4,9.6,5.4c4.8,0,4.8-5.4,9.6-5.4c4.8,0,4.8,5.4,9.6,5.4c4.8,0,4.8-5.4,9.6-5.4
		c4.8,0,4.8,5.4,9.6,5.4c4.8,0,4.8-5.4,9.6-5.4c4.8,0,4.8,5.4,9.6,5.4"/>
	<path class="st0" d="M-178,259.5c4.9,0,4.9,5.4,9.7,5.4c4.9,0,4.9-5.4,9.7-5.4c4.9,0,4.9,5.4,9.7,5.4c4.9,0,4.9-5.4,9.7-5.4
		c4.9,0,4.9,5.4,9.7,5.4c4.9,0,4.9-5.4,9.7-5.4c4.9,0,4.9,5.4,9.7,5.4c4.9,0,4.9-5.4,9.7-5.4c4.9,0,4.9,5.4,9.7,5.4
		c4.9,0,4.9-5.4,9.7-5.4c4.9,0,4.9,5.4,9.7,5.4c4.9,0,4.9-5.4,9.7-5.4c4.9,0,4.9,5.4,9.7,5.4c4.9,0,4.9-5.4,9.7-5.4
		c4.9,0,4.9,5.4,9.7,5.4c4.9,0,4.9-5.4,9.7-5.4c4.9,0,4.9,5.4,9.7,5.4c4.9,0,4.9-5.4,9.7-5.4c4.9,0,4.9,5.4,9.7,5.4
		c4.9,0,4.9-5.4,9.7-5.4c4.9,0,4.9,5.4,9.7,5.4c4.9,0,4.9-5.4,9.7-5.4c4.9,0,4.9,5.4,9.7,5.4c4.9,0,4.9-5.4,9.7-5.4
		c4.9,0,4.9,5.4,9.7,5.4c4.9,0,4.9-5.4,9.7-5.4c4.9,0,4.9,5.4,9.7,5.4c4.9,0,4.9-5.4,9.7-5.4c4.9,0,4.9,5.4,9.7,5.4
		c4.9,0,4.9-5.4,9.7-5.4c4.9,0,4.9,5.4,9.7,5.4c4.9,0,4.9-5.4,9.7-5.4c4.9,0,4.9,5.4,9.7,5.4c4.9,0,4.9-5.4,9.7-5.4
		c4.9,0,4.9,5.4,9.7,5.4c4.9,0,4.9-5.4,9.7-5.4c4.9,0,4.9,5.4,9.7,5.4c4.9,0,4.9-5.4,9.7-5.4c4.9,0,4.9,5.4,9.7,5.4
		c4.9,0,4.9-5.4,9.7-5.4c4.9,0,4.9,5.4,9.7,5.4c4.9,0,4.9-5.4,9.7-5.4c4.9,0,4.9,5.4,9.7,5.4c4.9,0,4.9-5.4,9.7-5.4
		c4.9,0,4.9,5.4,9.7,5.4c4.9,0,4.9-5.4,9.7-5.4c4.9,0,4.9,5.4,9.7,5.4c4.9,0,4.9-5.4,9.7-5.4c4.9,0,4.9,5.4,9.7,5.4
		c4.9,0,4.9-5.4,9.7-5.4c4.9,0,4.9,5.4,9.7,5.4c4.9,0,4.9-5.4,9.7-5.4c4.9,0,4.9,5.4,9.7,5.4c4.9,0,4.9-5.4,9.7-5.4
		c4.9,0,4.9,5.4,9.7,5.4c4.9,0,4.9-5.4,9.7-5.4c4.9,0,4.9,5.4,9.7,5.4c4.9,0,4.9-5.4,9.7-5.4c4.9,0,4.9,5.4,9.7,5.4
		c4.9,0,4.9-5.4,9.7-5.4c4.9,0,4.9,5.4,9.7,5.4c4.9,0,4.9-5.4,9.7-5.4c4.9,0,4.9,5.4,9.7,5.4c4.9,0,4.9-5.4,9.7-5.4
		c4.9,0,4.9,5.4,9.7,5.4c4.9,0,4.9-5.4,9.7-5.4c4.9,0,4.9,5.4,9.7,5.4c4.9,0,4.9-5.4,9.7-5.4c4.9,0,4.9,5.4,9.7,5.4
		c4.9,0,4.9-5.4,9.7-5.4c4.9,0,4.9,5.4,9.7,5.4c4.9,0,4.9-5.4,9.7-5.4c4.9,0,4.9,5.4,9.7,5.4c4.9,0,4.9-5.4,9.7-5.4
		c4.9,0,4.9,5.4,9.7,5.4c4.9,0,4.9-5.4,9.7-5.4s4.9,5.4,9.7,5.4"/>
	<path class="st0" d="M-189.3,268.3c4.9,0,4.9,5.4,9.9,5.4c4.9,0,4.9-5.4,9.9-5.4c4.9,0,4.9,5.4,9.9,5.4c4.9,0,4.9-5.4,9.9-5.4
		c4.9,0,4.9,5.4,9.9,5.4c4.9,0,4.9-5.4,9.9-5.4c4.9,0,4.9,5.4,9.9,5.4c4.9,0,4.9-5.4,9.9-5.4c4.9,0,4.9,5.4,9.9,5.4
		c4.9,0,4.9-5.4,9.9-5.4c4.9,0,4.9,5.4,9.9,5.4c4.9,0,4.9-5.4,9.9-5.4c4.9,0,4.9,5.4,9.9,5.4c4.9,0,4.9-5.4,9.9-5.4
		c4.9,0,4.9,5.4,9.9,5.4c4.9,0,4.9-5.4,9.9-5.4c4.9,0,4.9,5.4,9.9,5.4c4.9,0,4.9-5.4,9.9-5.4c4.9,0,4.9,5.4,9.9,5.4
		c4.9,0,4.9-5.4,9.9-5.4c4.9,0,4.9,5.4,9.9,5.4c4.9,0,4.9-5.4,9.9-5.4c4.9,0,4.9,5.4,9.9,5.4c4.9,0,4.9-5.4,9.9-5.4
		c4.9,0,4.9,5.4,9.9,5.4c4.9,0,4.9-5.4,9.9-5.4c4.9,0,4.9,5.4,9.9,5.4c4.9,0,4.9-5.4,9.9-5.4c4.9,0,4.9,5.4,9.9,5.4
		c4.9,0,4.9-5.4,9.9-5.4c4.9,0,4.9,5.4,9.9,5.4c4.9,0,4.9-5.4,9.9-5.4c4.9,0,4.9,5.4,9.9,5.4c4.9,0,4.9-5.4,9.9-5.4
		c4.9,0,4.9,5.4,9.9,5.4c4.9,0,4.9-5.4,9.9-5.4c4.9,0,4.9,5.4,9.9,5.4c4.9,0,4.9-5.4,9.9-5.4c4.9,0,4.9,5.4,9.9,5.4
		c4.9,0,4.9-5.4,9.9-5.4c4.9,0,4.9,5.4,9.9,5.4c4.9,0,4.9-5.4,9.9-5.4c4.9,0,4.9,5.4,9.9,5.4c4.9,0,4.9-5.4,9.9-5.4
		c4.9,0,4.9,5.4,9.9,5.4c4.9,0,4.9-5.4,9.9-5.4c4.9,0,4.9,5.4,9.9,5.4c4.9,0,4.9-5.4,9.9-5.4c4.9,0,4.9,5.4,9.9,5.4
		c4.9,0,4.9-5.4,9.9-5.4c4.9,0,4.9,5.4,9.9,5.4c4.9,0,4.9-5.4,9.9-5.4c4.9,0,4.9,5.4,9.9,5.4c4.9,0,4.9-5.4,9.9-5.4
		c4.9,0,4.9,5.4,9.9,5.4c4.9,0,4.9-5.4,9.9-5.4c4.9,0,4.9,5.4,9.9,5.4c4.9,0,4.9-5.4,9.9-5.4c4.9,0,4.9,5.4,9.9,5.4
		c4.9,0,4.9-5.4,9.9-5.4c4.9,0,4.9,5.4,9.9,5.4c4.9,0,4.9-5.4,9.9-5.4c4.9,0,4.9,5.4,9.9,5.4c4.9,0,4.9-5.4,9.9-5.4
		c4.9,0,4.9,5.4,9.9,5.4c4.9,0,4.9-5.4,9.9-5.4c4.9,0,4.9,5.4,9.9,5.4c4.9,0,4.9-5.4,9.9-5.4c4.9,0,4.9,5.4,9.9,5.4
		c4.9,0,4.9-5.4,9.9-5.4c4.9,0,4.9,5.4,9.9,5.4c4.9,0,4.9-5.4,9.9-5.4c4.9,0,4.9,5.4,9.9,5.4c4.9,0,4.9-5.4,9.9-5.4
		c4.9,0,4.9,5.4,9.9,5.4c4.9,0,4.9-5.4,9.9-5.4c4.9,0,4.9,5.4,9.9,5.4"/>
	<path class="st0" d="M-200.6,277.2c5,0,5,5.4,10,5.4c5,0,5-5.4,10-5.4c5,0,5,5.4,10,5.4c5,0,5-5.4,10-5.4c5,0,5,5.4,10,5.4
		c5,0,5-5.4,10-5.4c5,0,5,5.4,10,5.4c5,0,5-5.4,10-5.4c5,0,5,5.4,10,5.4c5,0,5-5.4,10-5.4c5,0,5,5.4,10,5.4c5,0,5-5.4,10-5.4
		c5,0,5,5.4,10,5.4c5,0,5-5.4,10-5.4c5,0,5,5.4,10,5.4c5,0,5-5.4,10-5.4c5,0,5,5.4,10,5.4c5,0,5-5.4,10-5.4c5,0,5,5.4,10,5.4
		c5,0,5-5.4,10-5.4c5,0,5,5.4,10,5.4c5,0,5-5.4,10-5.4c5,0,5,5.4,10,5.4c5,0,5-5.4,10-5.4c5,0,5,5.4,10,5.4c5,0,5-5.4,10-5.4
		c5,0,5,5.4,10,5.4c5,0,5-5.4,10-5.4c5,0,5,5.4,10,5.4c5,0,5-5.4,10-5.4c5,0,5,5.4,10,5.4c5,0,5-5.4,10-5.4c5,0,5,5.4,10,5.4
		c5,0,5-5.4,10-5.4c5,0,5,5.4,10,5.4c5,0,5-5.4,10-5.4c5,0,5,5.4,10,5.4c5,0,5-5.4,10-5.4c5,0,5,5.4,10,5.4c5,0,5-5.4,10-5.4
		c5,0,5,5.4,10,5.4c5,0,5-5.4,10-5.4c5,0,5,5.4,10,5.4c5,0,5-5.4,10-5.4c5,0,5,5.4,10,5.4c5,0,5-5.4,10-5.4c5,0,5,5.4,10,5.4
		c5,0,5-5.4,10-5.4c5,0,5,5.4,10,5.4c5,0,5-5.4,10-5.4c5,0,5,5.4,10,5.4c5,0,5-5.4,10-5.4c5,0,5,5.4,10,5.4c5,0,5-5.4,10-5.4
		c5,0,5,5.4,10,5.4c5,0,5-5.4,10-5.4c5,0,5,5.4,10,5.4c5,0,5-5.4,10-5.4c5,0,5,5.4,10,5.4c5,0,5-5.4,10-5.4c5,0,5,5.4,10,5.4
		c5,0,5-5.4,10-5.4c5,0,5,5.4,10,5.4c5,0,5-5.4,10-5.4c5,0,5,5.4,10,5.4c5,0,5-5.4,10-5.4c5,0,5,5.4,10,5.4c5,0,5-5.4,10-5.4
		c5,0,5,5.4,10,5.4c5,0,5-5.4,10-5.4c5,0,5,5.4,10,5.4c5,0,5-5.4,10-5.4c5,0,5,5.4,10,5.4c5,0,5-5.4,10-5.4c5,0,5,5.4,10,5.4
		c5,0,5-5.4,10-5.4c5,0,5,5.4,10,5.4"/>
	<path class="st0" d="M-212,286.1c5.1,0,5.1,5.4,10.2,5.4c5.1,0,5.1-5.4,10.2-5.4c5.1,0,5.1,5.4,10.2,5.4c5.1,0,5.1-5.4,10.2-5.4
		c5.1,0,5.1,5.4,10.2,5.4c5.1,0,5.1-5.4,10.2-5.4c5.1,0,5.1,5.4,10.2,5.4c5.1,0,5.1-5.4,10.2-5.4c5.1,0,5.1,5.4,10.2,5.4
		c5.1,0,5.1-5.4,10.2-5.4c5.1,0,5.1,5.4,10.2,5.4c5.1,0,5.1-5.4,10.2-5.4c5.1,0,5.1,5.4,10.2,5.4c5.1,0,5.1-5.4,10.2-5.4
		c5.1,0,5.1,5.4,10.2,5.4c5.1,0,5.1-5.4,10.2-5.4c5.1,0,5.1,5.4,10.2,5.4c5.1,0,5.1-5.4,10.2-5.4c5.1,0,5.1,5.4,10.2,5.4
		c5.1,0,5.1-5.4,10.2-5.4c5.1,0,5.1,5.4,10.2,5.4c5.1,0,5.1-5.4,10.2-5.4c5.1,0,5.1,5.4,10.2,5.4c5.1,0,5.1-5.4,10.2-5.4
		c5.1,0,5.1,5.4,10.2,5.4c5.1,0,5.1-5.4,10.2-5.4c5.1,0,5.1,5.4,10.2,5.4c5.1,0,5.1-5.4,10.2-5.4c5.1,0,5.1,5.4,10.2,5.4
		c5.1,0,5.1-5.4,10.2-5.4c5.1,0,5.1,5.4,10.2,5.4c5.1,0,5.1-5.4,10.2-5.4c5.1,0,5.1,5.4,10.2,5.4c5.1,0,5.1-5.4,10.2-5.4
		c5.1,0,5.1,5.4,10.2,5.4c5.1,0,5.1-5.4,10.2-5.4c5.1,0,5.1,5.4,10.2,5.4c5.1,0,5.1-5.4,10.2-5.4c5.1,0,5.1,5.4,10.2,5.4
		c5.1,0,5.1-5.4,10.2-5.4c5.1,0,5.1,5.4,10.2,5.4c5.1,0,5.1-5.4,10.2-5.4c5.1,0,5.1,5.4,10.2,5.4c5.1,0,5.1-5.4,10.2-5.4
		c5.1,0,5.1,5.4,10.2,5.4c5.1,0,5.1-5.4,10.2-5.4c5.1,0,5.1,5.4,10.2,5.4c5.1,0,5.1-5.4,10.2-5.4c5.1,0,5.1,5.4,10.2,5.4
		c5.1,0,5.1-5.4,10.2-5.4c5.1,0,5.1,5.4,10.2,5.4c5.1,0,5.1-5.4,10.2-5.4c5.1,0,5.1,5.4,10.2,5.4c5.1,0,5.1-5.4,10.2-5.4
		c5.1,0,5.1,5.4,10.2,5.4c5.1,0,5.1-5.4,10.2-5.4c5.1,0,5.1,5.4,10.2,5.4c5.1,0,5.1-5.4,10.2-5.4c5.1,0,5.1,5.4,10.2,5.4
		c5.1,0,5.1-5.4,10.2-5.4c5.1,0,5.1,5.4,10.2,5.4c5.1,0,5.1-5.4,10.2-5.4c5.1,0,5.1,5.4,10.2,5.4c5.1,0,5.1-5.4,10.2-5.4
		c5.1,0,5.1,5.4,10.2,5.4c5.1,0,5.1-5.4,10.2-5.4c5.1,0,5.1,5.4,10.2,5.4c5.1,0,5.1-5.4,10.2-5.4c5.1,0,5.1,5.4,10.2,5.4
		c5.1,0,5.1-5.4,10.2-5.4c5.1,0,5.1,5.4,10.2,5.4c5.1,0,5.1-5.4,10.2-5.4c5.1,0,5.1,5.4,10.2,5.4c5.1,0,5.1-5.4,10.2-5.4
		c5.1,0,5.1,5.4,10.2,5.4c5.1,0,5.1-5.4,10.2-5.4c5.1,0,5.1,5.4,10.2,5.4"/>
</g>
<g>
	<circle id="eye-outer-rim" class="st1" cx="294.1" cy="72.2" r="140.8"/>
	<g>
		<defs>
			<circle id="mask" cx="294.1" cy="72.2" r="140.8"/>
		</defs>
		<clipPath id="mask_1_">
			<use xlink:href="#mask"  style="overflow:visible;"/>
		</clipPath>
		<g id="retinagroup" class="st2">
			<g id="eye-retina">
				<g id="eye-retina-rays">
					<line class="st3" x1="294.1" y1="104.6" x2="294.1" y2="160.5"/>
					<line class="st3" x1="293" y1="104.6" x2="291" y2="160.4"/>
					<line class="st3" x1="291.8" y1="104.5" x2="288" y2="160.3"/>
					<line class="st3" x1="290.7" y1="104.4" x2="284.9" y2="160"/>
					<line class="st3" x1="289.6" y1="104.3" x2="281.9" y2="159.6"/>
					<line class="st3" x1="288.5" y1="104.1" x2="278.8" y2="159.2"/>
					<line class="st3" x1="287.4" y1="103.9" x2="275.8" y2="158.6"/>
					<line class="st3" x1="286.3" y1="103.7" x2="272.9" y2="157.9"/>
					<line class="st3" x1="285.2" y1="103.4" x2="269.9" y2="157.1"/>
					<line class="st3" x1="284.1" y1="103" x2="267" y2="156.2"/>
					<line class="st3" x1="283.1" y1="102.7" x2="264.1" y2="155.2"/>
					<line class="st3" x1="282" y1="102.3" x2="261.2" y2="154.1"/>
					<line class="st3" x1="281" y1="101.8" x2="258.4" y2="152.9"/>
					<line class="st3" x1="280" y1="101.4" x2="255.6" y2="151.6"/>
					<line class="st3" x1="279" y1="100.9" x2="252.9" y2="150.3"/>
					<line class="st3" x1="278" y1="100.3" x2="250.2" y2="148.8"/>
					<line class="st3" x1="277" y1="99.7" x2="247.5" y2="147.2"/>
					<line class="st3" x1="276.1" y1="99.1" x2="245" y2="145.6"/>
					<line class="st3" x1="275.1" y1="98.5" x2="242.5" y2="143.8"/>
					<line class="st3" x1="274.2" y1="97.8" x2="240" y2="142"/>
					<line class="st3" x1="273.4" y1="97.1" x2="237.6" y2="140.1"/>
					<line class="st3" x1="272.5" y1="96.4" x2="235.3" y2="138.1"/>
					<line class="st3" x1="271.7" y1="95.6" x2="233" y2="136"/>
					<line class="st3" x1="270.9" y1="94.8" x2="230.9" y2="133.8"/>
					<line class="st3" x1="270.1" y1="94" x2="228.8" y2="131.6"/>
					<line class="st3" x1="269.4" y1="93.2" x2="226.7" y2="129.3"/>
					<line class="st3" x1="268.7" y1="92.3" x2="224.8" y2="126.9"/>
					<line class="st3" x1="268" y1="91.4" x2="223" y2="124.5"/>
					<line class="st3" x1="267.3" y1="90.5" x2="221.2" y2="122"/>
					<line class="st3" x1="266.7" y1="89.5" x2="219.5" y2="119.4"/>
					<line class="st3" x1="266.1" y1="88.6" x2="217.9" y2="116.8"/>
					<line class="st3" x1="265.6" y1="87.6" x2="216.4" y2="114.1"/>
					<line class="st3" x1="265.1" y1="86.6" x2="215" y2="111.4"/>
					<line class="st3" x1="264.6" y1="85.6" x2="213.7" y2="108.6"/>
					<line class="st3" x1="264.1" y1="84.5" x2="212.5" y2="105.8"/>
					<line class="st3" x1="263.7" y1="83.5" x2="211.3" y2="103"/>
					<line class="st3" x1="263.3" y1="82.4" x2="210.3" y2="100.1"/>
					<line class="st3" x1="263" y1="81.4" x2="209.4" y2="97.2"/>
					<line class="st3" x1="262.7" y1="80.3" x2="208.6" y2="94.2"/>
					<line class="st3" x1="262.4" y1="79.2" x2="207.9" y2="91.2"/>
					<line class="st3" x1="262.2" y1="78.1" x2="207.3" y2="88.2"/>
					<line class="st3" x1="262" y1="77" x2="206.8" y2="85.2"/>
					<line class="st3" x1="261.9" y1="75.9" x2="206.4" y2="82.2"/>
					<line class="st3" x1="261.8" y1="74.7" x2="206.1" y2="79.1"/>
					<line class="st3" x1="261.7" y1="73.6" x2="205.9" y2="76.1"/>
					<line class="st3" x1="261.7" y1="72.5" x2="205.8" y2="73"/>
					<line class="st3" x1="261.7" y1="71.4" x2="205.8" y2="69.9"/>
					<line class="st3" x1="261.7" y1="70.2" x2="206" y2="66.9"/>
					<line class="st3" x1="261.8" y1="69.1" x2="206.2" y2="63.8"/>
					<line class="st3" x1="262" y1="68" x2="206.5" y2="60.8"/>
					<line class="st3" x1="262.1" y1="66.9" x2="207" y2="57.7"/>
					<line class="st3" x1="262.3" y1="65.8" x2="207.6" y2="54.7"/>
					<line class="st3" x1="262.6" y1="64.7" x2="208.2" y2="51.7"/>
					<line class="st3" x1="262.8" y1="63.6" x2="209" y2="48.8"/>
					<line class="st3" x1="263.2" y1="62.5" x2="209.8" y2="45.8"/>
					<line class="st3" x1="263.5" y1="61.4" x2="210.8" y2="42.9"/>
					<line class="st3" x1="263.9" y1="60.4" x2="211.9" y2="40.1"/>
					<line class="st3" x1="264.3" y1="59.4" x2="213" y2="37.2"/>
					<line class="st3" x1="264.8" y1="58.3" x2="214.3" y2="34.4"/>
					<line class="st3" x1="265.3" y1="57.3" x2="215.7" y2="31.7"/>
					<line class="st3" x1="265.8" y1="56.3" x2="217.1" y2="29"/>
					<line class="st3" x1="266.4" y1="55.4" x2="218.7" y2="26.3"/>
					<line class="st3" x1="267" y1="54.4" x2="220.3" y2="23.7"/>
					<line class="st3" x1="267.6" y1="53.5" x2="222" y2="21.2"/>
					<line class="st3" x1="268.3" y1="52.6" x2="223.8" y2="18.7"/>
					<line class="st3" x1="269" y1="51.7" x2="225.7" y2="16.3"/>
					<line class="st3" x1="269.7" y1="50.8" x2="227.7" y2="14"/>
					<line class="st3" x1="270.5" y1="50" x2="229.8" y2="11.7"/>
					<line class="st3" x1="271.3" y1="49.2" x2="231.9" y2="9.5"/>
					<line class="st3" x1="272.1" y1="48.4" x2="234.1" y2="7.4"/>
					<line class="st3" x1="272.9" y1="47.7" x2="236.4" y2="5.4"/>
					<line class="st3" x1="273.8" y1="46.9" x2="238.7" y2="3.4"/>
					<line class="st3" x1="274.7" y1="46.3" x2="241.2" y2="1.5"/>
					<line class="st3" x1="275.6" y1="45.6" x2="243.6" y2="-0.3"/>
					<line class="st3" x1="276.5" y1="45" x2="246.2" y2="-2"/>
					<line class="st3" x1="277.5" y1="44.4" x2="248.8" y2="-3.6"/>
					<line class="st3" x1="278.4" y1="43.8" x2="251.4" y2="-5.1"/>
					<line class="st3" x1="279.4" y1="43.3" x2="254.2" y2="-6.5"/>
					<line class="st3" x1="280.4" y1="42.8" x2="256.9" y2="-7.9"/>
					<line class="st3" x1="281.5" y1="42.3" x2="259.7" y2="-9.1"/>
					<line class="st3" x1="282.5" y1="41.9" x2="262.6" y2="-10.3"/>
					<line class="st3" x1="283.6" y1="41.5" x2="265.4" y2="-11.3"/>
					<line class="st3" x1="284.6" y1="41.2" x2="268.4" y2="-12.3"/>
					<line class="st3" x1="285.7" y1="40.9" x2="271.3" y2="-13.1"/>
					<line class="st3" x1="286.8" y1="40.6" x2="274.3" y2="-13.8"/>
					<line class="st3" x1="287.9" y1="40.4" x2="277.3" y2="-14.5"/>
					<line class="st3" x1="289" y1="40.2" x2="280.3" y2="-15"/>
					<line class="st3" x1="290.1" y1="40" x2="283.3" y2="-15.4"/>
					<line class="st3" x1="291.3" y1="39.9" x2="286.4" y2="-15.7"/>
					<line class="st3" x1="292.4" y1="39.8" x2="289.4" y2="-16"/>
					<line class="st3" x1="293.5" y1="39.8" x2="292.5" y2="-16.1"/>
					<line class="st3" x1="294.6" y1="39.8" x2="295.5" y2="-16.1"/>
					<line class="st3" x1="295.7" y1="39.8" x2="298.6" y2="-16"/>
					<line class="st3" x1="296.9" y1="39.9" x2="301.7" y2="-15.8"/>
					<line class="st3" x1="298" y1="40" x2="304.7" y2="-15.4"/>
					<line class="st3" x1="299.1" y1="40.2" x2="307.7" y2="-15"/>
					<line class="st3" x1="300.2" y1="40.4" x2="310.8" y2="-14.5"/>
					<line class="st3" x1="301.3" y1="40.6" x2="313.8" y2="-13.9"/>
					<line class="st3" x1="302.4" y1="40.9" x2="316.7" y2="-13.1"/>
					<line class="st3" x1="303.5" y1="41.2" x2="319.7" y2="-12.3"/>
					<line class="st3" x1="304.6" y1="41.5" x2="322.6" y2="-11.4"/>
					<line class="st3" x1="305.6" y1="41.9" x2="325.5" y2="-10.3"/>
					<line class="st3" x1="306.7" y1="42.3" x2="328.3" y2="-9.2"/>
					<line class="st3" x1="307.7" y1="42.8" x2="331.1" y2="-7.9"/>
					<line class="st3" x1="308.7" y1="43.3" x2="333.9" y2="-6.6"/>
					<line class="st3" x1="309.7" y1="43.8" x2="336.6" y2="-5.2"/>
					<line class="st3" x1="310.7" y1="44.3" x2="339.3" y2="-3.7"/>
					<line class="st3" x1="311.6" y1="44.9" x2="341.9" y2="-2"/>
					<line class="st3" x1="312.6" y1="45.6" x2="344.4" y2="-0.3"/>
					<line class="st3" x1="313.5" y1="46.2" x2="346.9" y2="1.4"/>
					<line class="st3" x1="314.4" y1="46.9" x2="349.3" y2="3.3"/>
					<line class="st3" x1="315.2" y1="47.6" x2="351.7" y2="5.3"/>
					<line class="st3" x1="316.1" y1="48.4" x2="354" y2="7.3"/>
					<line class="st3" x1="316.9" y1="49.2" x2="356.2" y2="9.4"/>
					<line class="st3" x1="317.7" y1="50" x2="358.3" y2="11.6"/>
					<line class="st3" x1="318.4" y1="50.8" x2="360.4" y2="13.9"/>
					<line class="st3" x1="319.2" y1="51.6" x2="362.4" y2="16.2"/>
					<line class="st3" x1="319.9" y1="52.5" x2="364.3" y2="18.6"/>
					<line class="st3" x1="320.5" y1="53.4" x2="366.1" y2="21.1"/>
					<line class="st3" x1="321.2" y1="54.4" x2="367.8" y2="23.6"/>
					<line class="st3" x1="321.8" y1="55.3" x2="369.4" y2="26.2"/>
					<line class="st3" x1="322.3" y1="56.3" x2="371" y2="28.9"/>
					<line class="st3" x1="322.9" y1="57.3" x2="372.5" y2="31.5"/>
					<line class="st3" x1="323.4" y1="58.3" x2="373.8" y2="34.3"/>
					<line class="st3" x1="323.8" y1="59.3" x2="375.1" y2="37.1"/>
					<line class="st3" x1="324.3" y1="60.3" x2="376.3" y2="39.9"/>
					<line class="st3" x1="324.6" y1="61.4" x2="377.3" y2="42.8"/>
					<line class="st3" x1="325" y1="62.5" x2="378.3" y2="45.7"/>
					<line class="st3" x1="325.3" y1="63.5" x2="379.2" y2="48.6"/>
					<line class="st3" x1="325.6" y1="64.6" x2="379.9" y2="51.6"/>
					<line class="st3" x1="325.8" y1="65.7" x2="380.6" y2="54.6"/>
					<line class="st3" x1="326.1" y1="66.8" x2="381.2" y2="57.6"/>
					<line class="st3" x1="326.2" y1="67.9" x2="381.6" y2="60.6"/>
					<line class="st3" x1="326.3" y1="69.1" x2="382" y2="63.7"/>
					<line class="st3" x1="326.4" y1="70.2" x2="382.2" y2="66.7"/>
					<line class="st3" x1="326.5" y1="71.3" x2="382.3" y2="69.8"/>
					<line class="st3" x1="326.5" y1="72.4" x2="382.4" y2="72.8"/>
					<line class="st3" x1="326.5" y1="73.6" x2="382.3" y2="75.9"/>
					<line class="st3" x1="326.4" y1="74.7" x2="382.1" y2="79"/>
					<line class="st3" x1="326.3" y1="75.8" x2="381.8" y2="82"/>
					<line class="st3" x1="326.2" y1="76.9" x2="381.4" y2="85.1"/>
					<line class="st3" x1="326" y1="78" x2="380.9" y2="88.1"/>
					<line class="st3" x1="325.7" y1="79.1" x2="380.3" y2="91.1"/>
					<line class="st3" x1="325.5" y1="80.2" x2="379.6" y2="94.1"/>
					<line class="st3" x1="325.2" y1="81.3" x2="378.8" y2="97"/>
					<line class="st3" x1="324.9" y1="82.4" x2="377.9" y2="99.9"/>
					<line class="st3" x1="324.5" y1="83.4" x2="376.9" y2="102.8"/>
					<line class="st3" x1="324.1" y1="84.5" x2="375.8" y2="105.7"/>
					<line class="st3" x1="323.6" y1="85.5" x2="374.6" y2="108.5"/>
					<line class="st3" x1="323.2" y1="86.5" x2="373.3" y2="111.3"/>
					<line class="st3" x1="322.6" y1="87.5" x2="371.8" y2="114"/>
					<line class="st3" x1="322.1" y1="88.5" x2="370.3" y2="116.7"/>
					<line class="st3" x1="321.5" y1="89.5" x2="368.8" y2="119.3"/>
					<line class="st3" x1="320.9" y1="90.4" x2="367.1" y2="121.9"/>
					<line class="st3" x1="320.2" y1="91.3" x2="365.3" y2="124.4"/>
					<line class="st3" x1="319.6" y1="92.2" x2="363.5" y2="126.8"/>
					<line class="st3" x1="318.8" y1="93.1" x2="361.5" y2="129.2"/>
					<line class="st3" x1="318.1" y1="94" x2="359.5" y2="131.5"/>
					<line class="st3" x1="317.3" y1="94.8" x2="357.4" y2="133.7"/>
					<line class="st3" x1="316.5" y1="95.6" x2="355.2" y2="135.9"/>
					<line class="st3" x1="315.7" y1="96.3" x2="353" y2="138"/>
					<line class="st3" x1="314.9" y1="97.1" x2="350.7" y2="140"/>
					<line class="st3" x1="314" y1="97.8" x2="348.3" y2="141.9"/>
					<line class="st3" x1="313.1" y1="98.5" x2="345.8" y2="143.7"/>
					<line class="st3" x1="312.2" y1="99.1" x2="343.3" y2="145.5"/>
					<line class="st3" x1="311.2" y1="99.7" x2="340.8" y2="147.1"/>
					<line class="st3" x1="310.3" y1="100.3" x2="338.1" y2="148.7"/>
					<line class="st3" x1="309.3" y1="100.8" x2="335.4" y2="150.2"/>
					<line class="st3" x1="308.3" y1="101.3" x2="332.7" y2="151.6"/>
					<line class="st3" x1="307.2" y1="101.8" x2="329.9" y2="152.9"/>
					<line class="st3" x1="306.2" y1="102.3" x2="327.1" y2="154.1"/>
					<line class="st3" x1="305.2" y1="102.7" x2="324.3" y2="155.2"/>
					<line class="st3" x1="304.1" y1="103" x2="321.4" y2="156.2"/>
					<line class="st3" x1="303" y1="103.3" x2="318.4" y2="157.1"/>
					<line class="st3" x1="301.9" y1="103.6" x2="315.5" y2="157.8"/>
					<line class="st3" x1="300.8" y1="103.9" x2="312.5" y2="158.5"/>
					<line class="st3" x1="299.7" y1="104.1" x2="309.5" y2="159.1"/>
					<line class="st3" x1="298.6" y1="104.3" x2="306.5" y2="159.6"/>
					<line class="st3" x1="297.5" y1="104.4" x2="303.4" y2="160"/>
					<line class="st3" x1="296.4" y1="104.5" x2="300.4" y2="160.3"/>
					<line class="st3" x1="295.3" y1="104.6" x2="297.3" y2="160.4"/>
				</g>
				<circle id="eye-retina-hole" class="st4" cx="294.1" cy="72.2" r="32.4"/>
			</g>
			<ellipse class="st5" cx="294.1" cy="72.2" rx="199.5" ry="195.5"/>
		</g>
	</g>
</g>
</svg>
