<svg id="Layer_1" data-name="Layer 1" xmlns="http://www.w3.org/2000/svg" viewBox="0 0 571 130"><circle cx="285.5" cy="130" r="6.75" style="fill:none;stroke:#000;stroke-miterlimit:10"/><circle cx="285.5" cy="130" r="5.04" style="fill:none;stroke:#000;stroke-miterlimit:10"/><circle cx="285.5" cy="130" r="3.76" style="fill:none;stroke:#000;stroke-miterlimit:10"/><circle cx="285.5" cy="130" r="2.81" style="fill:none;stroke:#000;stroke-miterlimit:10"/><circle cx="285.5" cy="130" r="2.1"/><circle cx="285.5" cy="130" r="8.43" style="fill:none;stroke:#000;stroke-miterlimit:10"/><circle cx="285.5" cy="130" r="10.53" style="fill:none;stroke:#000;stroke-miterlimit:10"/><circle cx="285.5" cy="130" r="13.15" style="fill:none;stroke:#000;stroke-miterlimit:10"/><circle cx="285.5" cy="130" r="16.42" style="fill:none;stroke:#000;stroke-miterlimit:10"/><circle cx="285.5" cy="130" r="20.5" style="fill:none;stroke:#000;stroke-miterlimit:10"/><circle cx="285.5" cy="130" r="25.6" style="fill:none;stroke:#000;stroke-miterlimit:10"/><circle cx="285.5" cy="130" r="31.97" style="fill:none;stroke:#000;stroke-miterlimit:10"/><circle cx="285.5" cy="130" r="39.92" style="fill:none;stroke:#000;stroke-miterlimit:10"/><circle cx="285.5" cy="130" r="49.85" style="fill:none;stroke:#000;stroke-miterlimit:10"/><circle cx="285.5" cy="130" r="62.25" style="fill:none;stroke:#000;stroke-miterlimit:10"/><circle cx="285.5" cy="130" r="77.74" style="fill:none;stroke:#000;stroke-miterlimit:10"/><circle cx="285.5" cy="130" r="97.08" style="fill:none;stroke:#000;stroke-miterlimit:10"/><circle cx="285.5" cy="130" r="121.23" style="fill:none;stroke:#000;stroke-miterlimit:10"/><circle cx="285.5" cy="130" r="151.39" style="fill:none;stroke:#000;stroke-miterlimit:10"/><circle cx="285.5" cy="130" r="189.05" style="fill:none;stroke:#000;stroke-miterlimit:10"/><circle cx="285.5" cy="130" r="236.09" style="fill:none;stroke:#000;stroke-miterlimit:10"/><circle cx="285.5" cy="130" r="294.82" style="fill:none;stroke:#000;stroke-miterlimit:10"/></svg>