<svg id="Layer_1" data-name="Layer 1" xmlns="http://www.w3.org/2000/svg" viewBox="0 0 1034.67 1034.67"><polygon points="447.91 495.92 620.02 1033.57 414.65 1033.57 447.91 495.92" style="fill:#fff;stroke:#000;stroke-linecap:round;stroke-miterlimit:10;stroke-width:1.5249237647441873px"/><polygon points="461.4 470.98 414.65 1033.57 224.91 954.98 461.4 470.98" style="fill:#fff;stroke:#000;stroke-linecap:round;stroke-miterlimit:10;stroke-width:1.5249237647441873px"/><polygon points="483.39 453.1 224.91 954.98 79.7 809.76 483.39 453.1" style="fill:#fff;stroke:#000;stroke-linecap:round;stroke-miterlimit:10;stroke-width:1.5249237647441873px"/><polygon points="510.56 445 79.7 809.76 1.1 620.02 510.56 445" style="fill:#fff;stroke:#000;stroke-linecap:round;stroke-miterlimit:10;stroke-width:1.5249237647441873px"/><polygon points="538.76 447.91 1.1 620.02 1.1 414.65 538.76 447.91" style="fill:#fff;stroke:#000;stroke-linecap:round;stroke-miterlimit:10;stroke-width:1.5249237647441873px"/><polygon points="563.7 461.4 1.1 414.65 79.7 224.91 563.7 461.4" style="fill:#fff;stroke:#000;stroke-linecap:round;stroke-miterlimit:10;stroke-width:1.5249237647441873px"/><polygon points="581.57 483.39 79.7 224.91 224.91 79.7 581.57 483.39" style="fill:#fff;stroke:#000;stroke-linecap:round;stroke-miterlimit:10;stroke-width:1.5249237647441873px"/><polygon points="589.67 510.56 224.91 79.7 414.65 1.1 589.67 510.56" style="fill:#fff;stroke:#000;stroke-linecap:round;stroke-miterlimit:10;stroke-width:1.5249237647441873px"/><polygon points="586.76 538.76 414.65 1.1 620.02 1.1 586.76 538.76" style="fill:#fff;stroke:#000;stroke-linecap:round;stroke-miterlimit:10;stroke-width:1.5249237647441873px"/><polygon points="573.28 563.7 620.02 1.1 809.76 79.7 573.28 563.7" style="fill:#fff;stroke:#000;stroke-linecap:round;stroke-miterlimit:10;stroke-width:1.5249237647441873px"/><polygon points="551.28 581.57 809.76 79.7 954.98 224.91 551.28 581.57" style="fill:#fff;stroke:#000;stroke-linecap:round;stroke-miterlimit:10;stroke-width:1.5249237647441873px"/><polygon points="524.11 589.67 954.98 224.91 1033.57 414.65 524.11 589.67" style="fill:#fff;stroke:#000;stroke-linecap:round;stroke-miterlimit:10;stroke-width:1.5249237647441873px"/><polygon points="495.92 586.76 1033.57 414.65 1033.57 620.02 495.92 586.76" style="fill:#fff;stroke:#000;stroke-linecap:round;stroke-miterlimit:10;stroke-width:1.5249237647441873px"/><polygon points="464.2 546.79 620.02 1033.57 809.76 954.98 464.2 546.79" style="fill:#fff;stroke:#000;stroke-linecap:round;stroke-miterlimit:10;stroke-width:1.5249237647441873px"/><polygon points="468.11 559.01 472.76 573.53 809.76 954.98 954.98 809.76 468.11 559.01" style="fill:#fff;stroke:#000;stroke-linecap:round;stroke-miterlimit:10;stroke-width:1.5249237647441873px"/><polygon points="464.2 546.79 620.02 1033.57 809.76 954.98 464.2 546.79" style="fill:#fff;stroke:#000;stroke-linecap:round;stroke-miterlimit:10;stroke-width:1.5249237647441873px"/><polygon points="500.59 575.74 954.98 809.76 1033.57 620.02 500.59 575.74" style="fill:#fff;stroke:#000;stroke-linecap:round;stroke-miterlimit:10;stroke-width:1.5249237647441873px"/></svg>