<?xml version="1.0" standalone="no"?>
<!DOCTYPE svg PUBLIC "-//W3C//DTD SVG 20010904//EN"
 "http://www.w3.org/TR/2001/REC-SVG-20010904/DTD/svg10.dtd">
<svg version="1.0" xmlns="http://www.w3.org/2000/svg"
 width="700.000000pt" height="700.000000pt" viewBox="0 0 700.000000 700.000000"
 preserveAspectRatio="xMidYMid meet">
<metadata>
Created by potrace 1.14, written by Peter Selinger 2001-2017
</metadata>
<g transform="translate(0.000000,700.000000) scale(0.100000,-0.100000)"
fill="#000000" stroke="none">
<path d="M19 6983 c-1 -13 0 -1626 1 -1648 0 -12 19 -31 48 -50 63 -39 321
-208 872 -570 343 -225 390 -255 400 -255 5 0 146 89 312 197 197 129 322 217
358 253 101 102 151 229 150 380 0 148 -47 272 -142 375 -49 54 -223 174 -688
477 -47 30 -224 146 -395 258 -171 112 -362 237 -425 278 -120 79 -273 178
-306 200 -10 7 -39 25 -63 40 -24 15 -49 32 -55 37 -14 12 -54 35 -61 35 -3 0
-5 -3 -6 -7z"/>
<path d="M4430 5523 c-198 -21 -344 -55 -520 -120 -320 -119 -606 -334 -810
-608 -25 -33 -47 -62 -50 -65 -16 -14 -127 -211 -164 -292 -79 -168 -148 -400
-172 -578 -3 -25 -8 -54 -10 -65 -21 -110 -20 -567 1 -628 2 -7 7 -30 9 -52 8
-61 15 -92 41 -190 105 -386 316 -720 628 -993 54 -47 214 -162 227 -162 5 0
10 -4 10 -9 0 -15 300 -158 400 -191 93 -31 261 -74 330 -84 140 -22 390 -28
545 -13 230 22 478 94 710 207 120 59 334 189 379 232 8 7 41 35 74 61 32 27
103 94 157 149 l97 100 -89 92 c-50 50 -116 118 -147 151 -125 130 -210 215
-217 215 -3 0 -14 -12 -24 -26 -23 -35 -138 -150 -200 -199 -27 -22 -52 -42
-55 -45 -14 -15 -152 -101 -207 -129 -370 -185 -772 -213 -1149 -80 -232 82
-443 231 -602 426 -127 156 -224 377 -247 564 l-7 55 1562 -1 c859 0 1564 3
1566 7 6 9 5 299 -1 407 -4 83 -6 101 -26 241 -67 473 -320 945 -648 1208 -25
20 -48 40 -51 43 -3 3 -41 31 -85 61 -186 129 -475 249 -685 283 -19 3 -46 8
-60 10 -14 3 -43 8 -65 11 -49 7 -397 12 -445 7z m380 -657 c334 -48 615 -216
801 -478 105 -150 182 -343 203 -514 l5 -41 -1210 0 -1211 0 7 56 c10 82 51
214 94 307 174 371 555 636 965 671 39 3 72 6 73 7 5 4 236 -2 273 -8z"/>
<path d="M19 5188 c-3 -129 0 -3370 4 -3374 3 -3 72 39 153 92 711 465 1079
707 1082 709 3 2 -74 53 -123 81 -11 6 -97 60 -191 120 -94 60 -178 114 -187
119 -218 136 -365 236 -403 273 -66 65 -115 173 -119 263 -7 136 39 248 140
344 28 28 162 121 296 208 134 87 320 208 413 269 l168 110 -193 127 c-305
200 -565 372 -808 533 -123 81 -225 148 -227 148 -2 0 -4 -10 -5 -22z"/>
<path d="M900 4058 c-239 -159 -446 -299 -459 -311 -34 -32 -76 -97 -89 -137
-36 -111 -6 -251 71 -330 18 -18 231 -165 475 -326 l442 -294 248 161 c136 89
270 177 299 196 78 51 146 122 190 199 63 107 78 162 78 289 0 128 -15 188
-72 283 -54 91 -120 155 -251 240 -65 41 -194 126 -289 188 -94 62 -180 117
-190 122 -15 7 -99 -45 -453 -280z"/>
<path d="M1115 2416 c-121 -80 -227 -150 -235 -156 -8 -6 -205 -136 -437 -290
-288 -190 -423 -285 -424 -297 -2 -78 -1 -1655 2 -1657 2 -2 60 34 129 79 144
95 554 363 1085 710 776 508 760 496 826 592 108 156 128 371 52 548 -22 52
-92 151 -135 192 -35 33 -597 405 -632 419 -6 2 -110 -61 -231 -140z"/>
</g>
</svg>
