<svg id="etosis-logo-text-svg"  xmlns="http://www.w3.org/2000/svg"  xmlns:xlink="http://www.w3.org/1999/xlink" x="0px" y="0px"
     viewBox="0 0 118.14 80" style="enable-background:new 0 0 118.14 80;" xml:space="preserve">
<path id="s2" d="M102.01,46.37c1.61,2.28,4.2,3.66,6.99,3.75c2.35,0,4.99-1,4.99-2.85c0-2-1.7-3-5.24-3.7
    c-4.95-1-8.44-2.95-8.44-7.29c0-3.35,3.35-6.64,8.49-6.64c3.2-0.02,6.27,1.24,8.54,3.5l-2.75,2.85c-1.53-1.57-3.61-2.48-5.79-2.55
    c-2.95,0-4.4,1.45-4.4,2.95c0,1.75,1.8,2.7,5.6,3.5c4.4,0.95,8.14,2.6,8.14,7.29c0,4.44-4.7,6.74-9.14,6.74
    c-3.86-0.02-7.51-1.8-9.89-4.85L102.01,46.37z"/>
<path id="i" d="M92.87,20c1.57,0,2.85,1.28,2.84,2.85s-1.28,2.85-2.85,2.84c-1.57,0-2.84-1.28-2.84-2.85
    C90.03,21.28,91.3,20.02,92.87,20 M90.77,30.24h4.2v23.08h-4.2V30.24z"/>
<path id="s1" d="M70.19,46.37c1.61,2.28,4.2,3.66,6.99,3.75c2.35,0,4.99-1,4.99-2.85c0-2-1.7-3-5.24-3.7
    c-4.95-1-8.44-2.95-8.44-7.29c0-3.35,3.35-6.64,8.49-6.64c3.2-0.02,6.27,1.24,8.54,3.5l-2.75,2.85c-1.53-1.57-3.61-2.48-5.79-2.55
    c-2.95,0-4.4,1.45-4.4,2.95c0,1.75,1.8,2.7,5.6,3.5c4.4,0.95,8.14,2.6,8.14,7.29c0,4.44-4.7,6.74-9.14,6.74
    c-3.86-0.02-7.51-1.8-9.89-4.85L70.19,46.37z"/>
<path id="o" d="M65.49,41.78c0.15,6.57-5.06,12.01-11.62,12.16c-6.57,0.15-12.01-5.06-12.16-11.62c0-0.18,0-0.36,0-0.53
    c-0.15-6.57,5.06-12.01,11.62-12.16c6.57-0.15,12.01,5.06,12.16,11.62C65.5,41.42,65.5,41.6,65.49,41.78 M61.29,41.78
    c0-4.55-3.05-8.24-7.69-8.24s-7.69,3.7-7.69,8.24s3.05,8.24,7.69,8.24S61.29,46.32,61.29,41.78"/>
<path id="t" d="M24.03,30.24h4.5V23.2h4.2v7.04h7.19v3.8h-7.19v12.43c0,2.25,1.1,3.55,3.35,3.55c0.95-0.08,1.86-0.41,2.65-0.95
    l1.55,3.45c-1.45,0.89-3.1,1.37-4.8,1.4c-3.3,0-6.94-2.15-6.94-7.24V34.04h-4.5V30.24z"/>
<path id="e" d="M22.78,41.93c0.01,0.45-0.01,0.9-0.05,1.35H4.1c0.25,3.5,3.6,6.74,7.94,6.74c2.71-0.02,5.27-1.27,6.94-3.4l2.65,2.75
    c-2.39,2.82-5.89,4.48-9.59,4.54C5.53,54.05,0.14,48.89,0,42.38c0-0.2,0-0.4,0-0.6c0-6.74,4.6-12.14,11.54-12.14
    C17.99,29.64,22.78,34.49,22.78,41.93 M18.68,39.78c-0.37-3.64-3.49-6.36-7.14-6.24c-3.69-0.13-6.87,2.58-7.34,6.24H18.68z"/>
</svg>
