<svg id="illu-cgi" xmlns="http://www.w3.org/2000/svg" xmlns:xlink="http://www.w3.org/1999/xlink" viewBox="0 0 972.58 822.41"><defs><clipPath id="clip-path" transform="translate(-275.53 63.04)"><path id="eye-clip-clippath" d="M439.83,510.48c70.87,44.8,184,97.89,322,97.89,153.11,0,263.38-59.48,324.53-110.84,0,0,5.41-25.82,7-46.09s1.84-47.09-3.71-73.32C1016.05,304.89,899.68,218,761.82,218c-191.39,0-297,134.2-331.11,187.07,0,0-1.22,20.11,0,44.41C432,474.62,439.83,510.48,439.83,510.48Z" style="fill:none"/></clipPath></defs><circle id="ball" cx="486.29" cy="489.2" r="332.22" style="fill:none;stroke:#231f20;stroke-linecap:round;stroke-linejoin:round;stroke-width:2px"/><path id="upperlid" d="M298.88,463.4l119.37-37.24S523.48,218,761.82,218s412.43,259.57,412.43,259.57" transform="translate(-275.53 63.04)" style="fill:none;stroke:#231f20;stroke-linecap:round;stroke-linejoin:round;stroke-width:5px"/><path id="upperlid-closed" d="M287.51,449.52h886.74" transform="translate(-275.53 63.04)" style="fill:none"/><path id="lowerlid" d="M1133.19,454.88S1000.56,608.37,761.82,608.37s-391.44-148.6-391.44-148.6" transform="translate(-275.53 63.04)" style="fill:none;stroke:#231f20;stroke-linecap:round;stroke-linejoin:round;stroke-width:5px"/><path id="lowerlid-closed" d="M1141,449.52H358.89" transform="translate(-275.53 63.04)" style="fill:none"/><g id="eye-clip"><g style="clip-path:url(#clip-path)"><g id="retina"><g id="rays"><line x1="486.29" y1="489.2" x2="486.29" y2="318.35" style="fill:none;stroke:#231f20;stroke-linecap:round;stroke-linejoin:round"/><line x1="486.29" y1="489.2" x2="607.1" y2="368.39" style="fill:none;stroke:#231f20;stroke-linecap:round;stroke-linejoin:round"/><line x1="486.29" y1="489.2" x2="657.14" y2="489.2" style="fill:none;stroke:#231f20;stroke-linecap:round;stroke-linejoin:round"/><line x1="486.29" y1="489.2" x2="607.1" y2="610.01" style="fill:none;stroke:#231f20;stroke-linecap:round;stroke-linejoin:round"/><line x1="486.29" y1="489.2" x2="486.29" y2="660.05" style="fill:none;stroke:#231f20;stroke-linecap:round;stroke-linejoin:round"/><line x1="486.29" y1="489.2" x2="365.48" y2="610.01" style="fill:none;stroke:#231f20;stroke-linecap:round;stroke-linejoin:round"/><line x1="486.29" y1="489.2" x2="315.44" y2="489.2" style="fill:none;stroke:#231f20;stroke-linecap:round;stroke-linejoin:round"/><line x1="486.29" y1="489.2" x2="365.48" y2="368.39" style="fill:none;stroke:#231f20;stroke-linecap:round;stroke-linejoin:round"/><line x1="486.29" y1="489.2" x2="551.67" y2="331.35" style="fill:none;stroke:#231f20;stroke-linecap:round;stroke-linejoin:round"/><line x1="486.29" y1="489.2" x2="644.14" y2="423.82" style="fill:none;stroke:#231f20;stroke-linecap:round;stroke-linejoin:round"/><line x1="486.29" y1="489.2" x2="644.14" y2="554.58" style="fill:none;stroke:#231f20;stroke-linecap:round;stroke-linejoin:round"/><line x1="486.29" y1="489.2" x2="551.67" y2="647.04" style="fill:none;stroke:#231f20;stroke-linecap:round;stroke-linejoin:round"/><line x1="486.29" y1="489.2" x2="420.91" y2="647.04" style="fill:none;stroke:#231f20;stroke-linecap:round;stroke-linejoin:round"/><line x1="486.29" y1="489.2" x2="328.44" y2="554.58" style="fill:none;stroke:#231f20;stroke-linecap:round;stroke-linejoin:round"/><line x1="486.29" y1="489.2" x2="328.44" y2="423.82" style="fill:none;stroke:#231f20;stroke-linecap:round;stroke-linejoin:round"/><line x1="486.29" y1="489.2" x2="420.91" y2="331.35" style="fill:none;stroke:#231f20;stroke-linecap:round;stroke-linejoin:round"/><line x1="486.29" y1="489.2" x2="519.62" y2="321.63" style="fill:none;stroke:#231f20;stroke-linecap:round;stroke-linejoin:round"/><line x1="486.29" y1="489.2" x2="628.35" y2="394.28" style="fill:none;stroke:#231f20;stroke-linecap:round;stroke-linejoin:round"/><line x1="486.29" y1="489.2" x2="653.86" y2="522.53" style="fill:none;stroke:#231f20;stroke-linecap:round;stroke-linejoin:round"/><line x1="486.29" y1="489.2" x2="581.21" y2="631.26" style="fill:none;stroke:#231f20;stroke-linecap:round;stroke-linejoin:round"/><line x1="486.29" y1="489.2" x2="452.96" y2="656.77" style="fill:none;stroke:#231f20;stroke-linecap:round;stroke-linejoin:round"/><line x1="486.29" y1="489.2" x2="344.23" y2="584.12" style="fill:none;stroke:#231f20;stroke-linecap:round;stroke-linejoin:round"/><line x1="486.29" y1="489.2" x2="318.72" y2="455.87" style="fill:none;stroke:#231f20;stroke-linecap:round;stroke-linejoin:round"/><line x1="486.29" y1="489.2" x2="391.37" y2="347.14" style="fill:none;stroke:#231f20;stroke-linecap:round;stroke-linejoin:round"/><line x1="486.29" y1="489.2" x2="581.21" y2="347.14" style="fill:none;stroke:#231f20;stroke-linecap:round;stroke-linejoin:round"/><line x1="486.29" y1="489.2" x2="653.86" y2="455.87" style="fill:none;stroke:#231f20;stroke-linecap:round;stroke-linejoin:round"/><line x1="486.29" y1="489.2" x2="628.35" y2="584.12" style="fill:none;stroke:#231f20;stroke-linecap:round;stroke-linejoin:round"/><line x1="486.29" y1="489.2" x2="519.62" y2="656.77" style="fill:none;stroke:#231f20;stroke-linecap:round;stroke-linejoin:round"/><line x1="486.29" y1="489.2" x2="391.37" y2="631.26" style="fill:none;stroke:#231f20;stroke-linecap:round;stroke-linejoin:round"/><line x1="486.29" y1="489.2" x2="318.72" y2="522.53" style="fill:none;stroke:#231f20;stroke-linecap:round;stroke-linejoin:round"/><line x1="486.29" y1="489.2" x2="344.23" y2="394.28" style="fill:none;stroke:#231f20;stroke-linecap:round;stroke-linejoin:round"/><line x1="486.29" y1="489.2" x2="452.96" y2="321.63" style="fill:none;stroke:#231f20;stroke-linecap:round;stroke-linejoin:round"/><line x1="486.29" y1="489.2" x2="503.03" y2="319.17" style="fill:none;stroke:#231f20;stroke-linecap:round;stroke-linejoin:round"/><line x1="486.29" y1="489.2" x2="618.36" y2="380.81" style="fill:none;stroke:#231f20;stroke-linecap:round;stroke-linejoin:round"/><line x1="486.29" y1="489.2" x2="656.32" y2="505.94" style="fill:none;stroke:#231f20;stroke-linecap:round;stroke-linejoin:round"/><line x1="486.29" y1="489.2" x2="594.68" y2="621.27" style="fill:none;stroke:#231f20;stroke-linecap:round;stroke-linejoin:round"/><line x1="486.29" y1="489.2" x2="469.54" y2="659.23" style="fill:none;stroke:#231f20;stroke-linecap:round;stroke-linejoin:round"/><line x1="486.29" y1="489.2" x2="354.22" y2="597.59" style="fill:none;stroke:#231f20;stroke-linecap:round;stroke-linejoin:round"/><line x1="486.29" y1="489.2" x2="316.26" y2="472.45" style="fill:none;stroke:#231f20;stroke-linecap:round;stroke-linejoin:round"/><line x1="486.29" y1="489.2" x2="377.9" y2="357.13" style="fill:none;stroke:#231f20;stroke-linecap:round;stroke-linejoin:round"/><line x1="486.29" y1="489.2" x2="566.83" y2="338.52" style="fill:none;stroke:#231f20;stroke-linecap:round;stroke-linejoin:round"/><line x1="486.29" y1="489.2" x2="649.78" y2="439.6" style="fill:none;stroke:#231f20;stroke-linecap:round;stroke-linejoin:round"/><line x1="486.29" y1="489.2" x2="636.97" y2="569.74" style="fill:none;stroke:#231f20;stroke-linecap:round;stroke-linejoin:round"/><line x1="486.29" y1="489.2" x2="535.88" y2="652.69" style="fill:none;stroke:#231f20;stroke-linecap:round;stroke-linejoin:round"/><line x1="486.29" y1="489.2" x2="405.75" y2="639.88" style="fill:none;stroke:#231f20;stroke-linecap:round;stroke-linejoin:round"/><line x1="486.29" y1="489.2" x2="322.79" y2="538.79" style="fill:none;stroke:#231f20;stroke-linecap:round;stroke-linejoin:round"/><line x1="486.29" y1="489.2" x2="335.61" y2="408.66" style="fill:none;stroke:#231f20;stroke-linecap:round;stroke-linejoin:round"/><line x1="486.29" y1="489.2" x2="436.69" y2="325.7" style="fill:none;stroke:#231f20;stroke-linecap:round;stroke-linejoin:round"/><line x1="486.29" y1="489.2" x2="535.88" y2="325.7" style="fill:none;stroke:#231f20;stroke-linecap:round;stroke-linejoin:round"/><line x1="486.29" y1="489.2" x2="636.97" y2="408.66" style="fill:none;stroke:#231f20;stroke-linecap:round;stroke-linejoin:round"/><line x1="486.29" y1="489.2" x2="649.78" y2="538.79" style="fill:none;stroke:#231f20;stroke-linecap:round;stroke-linejoin:round"/><line x1="486.29" y1="489.2" x2="566.83" y2="639.88" style="fill:none;stroke:#231f20;stroke-linecap:round;stroke-linejoin:round"/><line x1="486.29" y1="489.2" x2="436.69" y2="652.69" style="fill:none;stroke:#231f20;stroke-linecap:round;stroke-linejoin:round"/><line x1="486.29" y1="489.2" x2="335.61" y2="569.74" style="fill:none;stroke:#231f20;stroke-linecap:round;stroke-linejoin:round"/><line x1="486.29" y1="489.2" x2="322.79" y2="439.6" style="fill:none;stroke:#231f20;stroke-linecap:round;stroke-linejoin:round"/><line x1="486.29" y1="489.2" x2="405.75" y2="338.52" style="fill:none;stroke:#231f20;stroke-linecap:round;stroke-linejoin:round"/><line x1="486.29" y1="489.2" x2="594.68" y2="357.13" style="fill:none;stroke:#231f20;stroke-linecap:round;stroke-linejoin:round"/><line x1="486.29" y1="489.2" x2="656.32" y2="472.45" style="fill:none;stroke:#231f20;stroke-linecap:round;stroke-linejoin:round"/><line x1="486.29" y1="489.2" x2="618.36" y2="597.59" style="fill:none;stroke:#231f20;stroke-linecap:round;stroke-linejoin:round"/><line x1="486.29" y1="489.2" x2="503.03" y2="659.23" style="fill:none;stroke:#231f20;stroke-linecap:round;stroke-linejoin:round"/><line x1="486.29" y1="489.2" x2="377.9" y2="621.27" style="fill:none;stroke:#231f20;stroke-linecap:round;stroke-linejoin:round"/><line x1="486.29" y1="489.2" x2="316.26" y2="505.94" style="fill:none;stroke:#231f20;stroke-linecap:round;stroke-linejoin:round"/><line x1="486.29" y1="489.2" x2="354.22" y2="380.81" style="fill:none;stroke:#231f20;stroke-linecap:round;stroke-linejoin:round"/><line x1="486.29" y1="489.2" x2="469.54" y2="319.17" style="fill:none;stroke:#231f20;stroke-linecap:round;stroke-linejoin:round"/></g><circle id="hole" cx="486.29" cy="489.2" r="108.39" style="fill:#231f20"/></g><circle cx="345.51" cy="381.7" r="53.88" style="fill:#fff;stroke:#231f20;stroke-miterlimit:10"/><circle cx="436.97" cy="440.56" r="21.52" style="fill:#fff;stroke:#231f20;stroke-miterlimit:10"/><path id="eye-clip-clippath-closed" d="M430.71,449.52s0-1.92,331.11,0l331.55,1.92h0s-193.69-1.92-331.55-1.92Z" transform="translate(-275.53 63.04)" style="fill:none"/></g></g><path d="M1245.61,324.36S677.19,11.1,278,145L310.88,38,1212.77,63.3Z" transform="translate(-275.53 63.04)" style="fill:#fff"/><path d="M1245.61,324.36S677.19,11.1,278,145" transform="translate(-275.53 63.04)" style="fill:none;stroke:#231f20;stroke-linecap:round;stroke-linejoin:round;stroke-width:5px"/><line x1="2.5" y1="150.34" x2="129.92" y2="63.04" style="fill:none;stroke:#231f20;stroke-linecap:round;stroke-linejoin:round;stroke-width:5px"/><line x1="54.49" y1="129.42" x2="184.26" y2="45.65" style="fill:none;stroke:#231f20;stroke-linecap:round;stroke-linejoin:round;stroke-width:5px"/><line x1="107.03" y1="109.93" x2="239.05" y2="29.75" style="fill:none;stroke:#231f20;stroke-linecap:round;stroke-linejoin:round;stroke-width:5px"/><line x1="160.09" y1="91.89" x2="294.26" y2="15.37" style="fill:none;stroke:#231f20;stroke-linecap:round;stroke-linejoin:round;stroke-width:5px"/><line x1="213.63" y1="75.31" x2="349.85" y2="2.5" style="fill:none;stroke:#231f20;stroke-linecap:round;stroke-linejoin:round;stroke-width:5px"/><line x1="247.62" y1="74.1" x2="385.19" y2="3.89" style="fill:none;stroke:#231f20;stroke-linecap:round;stroke-linejoin:round;stroke-width:5px"/><line x1="281.62" y1="73.54" x2="420.5" y2="5.95" style="fill:none;stroke:#231f20;stroke-linecap:round;stroke-linejoin:round;stroke-width:5px"/><line x1="315.63" y1="73.62" x2="455.77" y2="8.68" style="fill:none;stroke:#231f20;stroke-linecap:round;stroke-linejoin:round;stroke-width:5px"/><line x1="349.64" y1="74.35" x2="490.98" y2="12.07" style="fill:none;stroke:#231f20;stroke-linecap:round;stroke-linejoin:round;stroke-width:5px"/><line x1="383.62" y1="75.72" x2="526.12" y2="16.13" style="fill:none;stroke:#231f20;stroke-linecap:round;stroke-linejoin:round;stroke-width:5px"/><line x1="417.57" y1="77.74" x2="561.17" y2="20.86" style="fill:none;stroke:#231f20;stroke-linecap:round;stroke-linejoin:round;stroke-width:5px"/><line x1="451.48" y1="80.4" x2="596.13" y2="26.26" style="fill:none;stroke:#231f20;stroke-linecap:round;stroke-linejoin:round;stroke-width:5px"/><line x1="485.33" y1="83.7" x2="630.98" y2="32.31" style="fill:none;stroke:#231f20;stroke-linecap:round;stroke-linejoin:round;stroke-width:5px"/><line x1="519.11" y1="87.64" x2="659.31" y2="41.15" style="fill:none;stroke:#231f20;stroke-linecap:round;stroke-linejoin:round;stroke-width:5px"/><line x1="552.81" y1="92.23" x2="686.56" y2="50.67" style="fill:none;stroke:#231f20;stroke-linecap:round;stroke-linejoin:round;stroke-width:5px"/><line x1="586.42" y1="97.45" x2="712.26" y2="60.95" style="fill:none;stroke:#231f20;stroke-linecap:round;stroke-linejoin:round;stroke-width:5px"/><line x1="619.92" y1="103.3" x2="744.05" y2="69.84" style="fill:none;stroke:#231f20;stroke-linecap:round;stroke-linejoin:round;stroke-width:5px"/><line x1="653.3" y1="109.8" x2="771.21" y2="80.4" style="fill:none;stroke:#231f20;stroke-linecap:round;stroke-linejoin:round;stroke-width:5px"/><line x1="686.56" y1="116.92" x2="799.11" y2="91.11" style="fill:none;stroke:#231f20;stroke-linecap:round;stroke-linejoin:round;stroke-width:5px"/><line x1="719.67" y1="124.67" x2="818.84" y2="103.91" style="fill:none;stroke:#231f20;stroke-linecap:round;stroke-linejoin:round;stroke-width:5px"/></svg>