<svg id="industrial-automation" xmlns="http://www.w3.org/2000/svg" viewBox="0 0 1280.26 976.27">
  <g id="floor">
    <line x1="0.26" y1="975.78" x2="924.69" y2="488.13" style="fill: none;stroke: #231f20;stroke-miterlimit: 10;stroke-width: 1.1080453395843506px"/>
    <line x1="170.05" y1="886.21" x2="1280.26" y2="886.21" style="fill: none;stroke: #231f20;stroke-miterlimit: 10;stroke-width: 1.1080453395843506px"/>
    <line x1="300.07" y1="817.63" x2="1280.26" y2="817.63" style="fill: none;stroke: #231f20;stroke-miterlimit: 10;stroke-width: 1.1080453395843506px"/>
    <line x1="402.83" y1="763.42" x2="1280.26" y2="763.42" style="fill: none;stroke: #231f20;stroke-miterlimit: 10;stroke-width: 1.1080453395843506px"/>
    <line x1="486.09" y1="719.5" x2="1280.26" y2="719.5" style="fill: none;stroke: #231f20;stroke-miterlimit: 10;stroke-width: 1.1080453395843506px"/>
    <line x1="554.91" y1="683.2" x2="1280.26" y2="683.2" style="fill: none;stroke: #231f20;stroke-miterlimit: 10;stroke-width: 1.1080453395843506px"/>
    <line x1="612.76" y1="652.68" x2="1280.26" y2="652.68" style="fill: none;stroke: #231f20;stroke-miterlimit: 10;stroke-width: 1.1080453395843506px"/>
    <line x1="662.06" y1="626.67" x2="1280.26" y2="626.67" style="fill: none;stroke: #231f20;stroke-miterlimit: 10;stroke-width: 1.1080453395843506px"/>
    <line x1="704.59" y1="604.24" x2="1280.26" y2="604.24" style="fill: none;stroke: #231f20;stroke-miterlimit: 10;stroke-width: 1.1080453395843506px"/>
    <line x1="741.63" y1="584.7" x2="1280.26" y2="584.7" style="fill: none;stroke: #231f20;stroke-miterlimit: 10;stroke-width: 1.1080453395843506px"/>
    <line x1="774.2" y1="567.52" x2="1280.26" y2="567.52" style="fill: none;stroke: #231f20;stroke-miterlimit: 10;stroke-width: 1.1080453395843506px"/>
    <line x1="803.05" y1="552.3" x2="1280.26" y2="552.3" style="fill: none;stroke: #231f20;stroke-miterlimit: 10;stroke-width: 1.1080453395843506px"/>
    <line x1="828.8" y1="538.72" x2="1280.26" y2="538.72" style="fill: none;stroke: #231f20;stroke-miterlimit: 10;stroke-width: 1.1080453395843506px"/>
    <line x1="851.9" y1="526.53" x2="1280.26" y2="526.53" style="fill: none;stroke: #231f20;stroke-miterlimit: 10;stroke-width: 1.1080453395843506px"/>
    <line x1="872.76" y1="515.53" x2="1280.26" y2="515.53" style="fill: none;stroke: #231f20;stroke-miterlimit: 10;stroke-width: 1.1080453395843506px"/>
    <line x1="891.68" y1="505.55" x2="1280.26" y2="505.55" style="fill: none;stroke: #231f20;stroke-miterlimit: 10;stroke-width: 1.1080453395843506px"/>
    <line x1="908.92" y1="496.46" x2="1280.26" y2="496.46" style="fill: none;stroke: #231f20;stroke-miterlimit: 10;stroke-width: 1.1080453395843506px"/>
    <line x1="1259.34" y1="488.13" x2="1204.96" y2="975.78" style="fill: none;stroke: #231f20;stroke-miterlimit: 10;stroke-width: 1.1080453395843506px"/>
    <line x1="1238.43" y1="488.13" x2="1129.67" y2="975.78" style="fill: none;stroke: #231f20;stroke-miterlimit: 10;stroke-width: 1.1080453395843506px"/>
    <line x1="1217.51" y1="488.13" x2="1054.38" y2="975.78" style="fill: none;stroke: #231f20;stroke-miterlimit: 10;stroke-width: 1.1080453395843506px"/>
    <line x1="1196.6" y1="488.13" x2="979.08" y2="975.78" style="fill: none;stroke: #231f20;stroke-miterlimit: 10;stroke-width: 1.1080453395843506px"/>
    <line x1="1175.68" y1="488.13" x2="903.79" y2="975.78" style="fill: none;stroke: #231f20;stroke-miterlimit: 10;stroke-width: 1.1080453395843506px"/>
    <line x1="1154.76" y1="488.13" x2="828.49" y2="975.78" style="fill: none;stroke: #231f20;stroke-miterlimit: 10;stroke-width: 1.1080453395843506px"/>
    <line x1="1133.85" y1="488.13" x2="753.2" y2="975.78" style="fill: none;stroke: #231f20;stroke-miterlimit: 10;stroke-width: 1.1080453395843506px"/>
    <line x1="1112.93" y1="488.13" x2="677.91" y2="975.78" style="fill: none;stroke: #231f20;stroke-miterlimit: 10;stroke-width: 1.1080453395843506px"/>
    <line x1="1092.02" y1="488.13" x2="602.61" y2="975.78" style="fill: none;stroke: #231f20;stroke-miterlimit: 10;stroke-width: 1.1080453395843506px"/>
    <line x1="1071.1" y1="488.13" x2="527.32" y2="975.78" style="fill: none;stroke: #231f20;stroke-miterlimit: 10;stroke-width: 1.1080453395843506px"/>
    <line x1="1050.19" y1="488.13" x2="452.02" y2="975.78" style="fill: none;stroke: #231f20;stroke-miterlimit: 10;stroke-width: 1.1080453395843506px"/>
    <line x1="1029.27" y1="488.13" x2="376.73" y2="975.78" style="fill: none;stroke: #231f20;stroke-miterlimit: 10;stroke-width: 1.1080453395843506px"/>
    <line x1="1008.36" y1="488.13" x2="301.43" y2="975.78" style="fill: none;stroke: #231f20;stroke-miterlimit: 10;stroke-width: 1.1080453395843506px"/>
    <line x1="987.44" y1="488.13" x2="226.14" y2="975.78" style="fill: none;stroke: #231f20;stroke-miterlimit: 10;stroke-width: 1.1080453395843506px"/>
    <line x1="966.52" y1="488.13" x2="150.85" y2="975.78" style="fill: none;stroke: #231f20;stroke-miterlimit: 10;stroke-width: 1.1080453395843506px"/>
    <line x1="945.61" y1="488.13" x2="75.55" y2="975.78" style="fill: none;stroke: #231f20;stroke-miterlimit: 10;stroke-width: 1.1080453395843506px"/>
  </g>
  <g id="roof">
    <line x1="924.69" y1="488.13" x2="1280.26" y2="488.13" style="fill: none;stroke: #231f20;stroke-miterlimit: 10;stroke-width: 1.1080453395843506px"/>
    <line x1="0.26" y1="0.49" x2="924.69" y2="488.13" style="fill: none;stroke: #231f20;stroke-miterlimit: 10;stroke-width: 1.1080453395843506px"/>
    <line x1="170.05" y1="90.06" x2="1280.26" y2="90.06" style="fill: none;stroke: #231f20;stroke-miterlimit: 10;stroke-width: 1.1080453395843506px"/>
    <line x1="300.07" y1="158.64" x2="1280.26" y2="158.64" style="fill: none;stroke: #231f20;stroke-miterlimit: 10;stroke-width: 1.1080453395843506px"/>
    <line x1="402.83" y1="212.85" x2="1280.26" y2="212.85" style="fill: none;stroke: #231f20;stroke-miterlimit: 10;stroke-width: 1.1080453395843506px"/>
    <line x1="486.09" y1="256.77" x2="1280.26" y2="256.77" style="fill: none;stroke: #231f20;stroke-miterlimit: 10;stroke-width: 1.1080453395843506px"/>
    <line x1="554.91" y1="293.07" x2="1280.26" y2="293.07" style="fill: none;stroke: #231f20;stroke-miterlimit: 10;stroke-width: 1.1080453395843506px"/>
    <line x1="612.76" y1="323.59" x2="1280.26" y2="323.59" style="fill: none;stroke: #231f20;stroke-miterlimit: 10;stroke-width: 1.1080453395843506px"/>
    <line x1="662.06" y1="349.6" x2="1280.26" y2="349.6" style="fill: none;stroke: #231f20;stroke-miterlimit: 10;stroke-width: 1.1080453395843506px"/>
    <line x1="704.59" y1="372.03" x2="1280.26" y2="372.03" style="fill: none;stroke: #231f20;stroke-miterlimit: 10;stroke-width: 1.1080453395843506px"/>
    <line x1="741.63" y1="391.57" x2="1280.26" y2="391.57" style="fill: none;stroke: #231f20;stroke-miterlimit: 10;stroke-width: 1.1080453395843506px"/>
    <line x1="774.2" y1="408.75" x2="1280.26" y2="408.75" style="fill: none;stroke: #231f20;stroke-miterlimit: 10;stroke-width: 1.1080453395843506px"/>
    <line x1="803.05" y1="423.97" x2="1280.26" y2="423.97" style="fill: none;stroke: #231f20;stroke-miterlimit: 10;stroke-width: 1.1080453395843506px"/>
    <line x1="828.8" y1="437.55" x2="1280.26" y2="437.55" style="fill: none;stroke: #231f20;stroke-miterlimit: 10;stroke-width: 1.1080453395843506px"/>
    <line x1="851.9" y1="449.74" x2="1280.26" y2="449.74" style="fill: none;stroke: #231f20;stroke-miterlimit: 10;stroke-width: 1.1080453395843506px"/>
    <line x1="872.76" y1="460.74" x2="1280.26" y2="460.74" style="fill: none;stroke: #231f20;stroke-miterlimit: 10;stroke-width: 1.1080453395843506px"/>
    <line x1="891.68" y1="470.72" x2="1280.26" y2="470.72" style="fill: none;stroke: #231f20;stroke-miterlimit: 10;stroke-width: 1.1080453395843506px"/>
    <line x1="908.92" y1="479.81" x2="1280.26" y2="479.81" style="fill: none;stroke: #231f20;stroke-miterlimit: 10;stroke-width: 1.1080453395843506px"/>
    <line x1="1259.34" y1="488.13" x2="1204.96" y2="0.49" style="fill: none;stroke: #231f20;stroke-miterlimit: 10;stroke-width: 1.1080453395843506px"/>
    <line x1="1238.43" y1="488.13" x2="1129.67" y2="0.49" style="fill: none;stroke: #231f20;stroke-miterlimit: 10;stroke-width: 1.1080453395843506px"/>
    <line x1="1217.51" y1="488.13" x2="1054.38" y2="0.49" style="fill: none;stroke: #231f20;stroke-miterlimit: 10;stroke-width: 1.1080453395843506px"/>
    <line x1="1196.6" y1="488.13" x2="979.08" y2="0.49" style="fill: none;stroke: #231f20;stroke-miterlimit: 10;stroke-width: 1.1080453395843506px"/>
    <line x1="1175.68" y1="488.13" x2="903.79" y2="0.49" style="fill: none;stroke: #231f20;stroke-miterlimit: 10;stroke-width: 1.1080453395843506px"/>
    <line x1="1154.76" y1="488.13" x2="828.49" y2="0.49" style="fill: none;stroke: #231f20;stroke-miterlimit: 10;stroke-width: 1.1080453395843506px"/>
    <line x1="1133.85" y1="488.13" x2="753.2" y2="0.49" style="fill: none;stroke: #231f20;stroke-miterlimit: 10;stroke-width: 1.1080453395843506px"/>
    <line x1="1112.93" y1="488.13" x2="677.91" y2="0.49" style="fill: none;stroke: #231f20;stroke-miterlimit: 10;stroke-width: 1.1080453395843506px"/>
    <line x1="1092.02" y1="488.13" x2="602.61" y2="0.49" style="fill: none;stroke: #231f20;stroke-miterlimit: 10;stroke-width: 1.1080453395843506px"/>
    <line x1="1071.1" y1="488.13" x2="527.32" y2="0.49" style="fill: none;stroke: #231f20;stroke-miterlimit: 10;stroke-width: 1.1080453395843506px"/>
    <line x1="1050.19" y1="488.13" x2="452.02" y2="0.49" style="fill: none;stroke: #231f20;stroke-miterlimit: 10;stroke-width: 1.1080453395843506px"/>
    <line x1="1029.27" y1="488.13" x2="376.73" y2="0.49" style="fill: none;stroke: #231f20;stroke-miterlimit: 10;stroke-width: 1.1080453395843506px"/>
    <line x1="1008.36" y1="488.13" x2="301.43" y2="0.49" style="fill: none;stroke: #231f20;stroke-miterlimit: 10;stroke-width: 1.1080453395843506px"/>
    <line x1="987.44" y1="488.13" x2="226.14" y2="0.49" style="fill: none;stroke: #231f20;stroke-miterlimit: 10;stroke-width: 1.1080453395843506px"/>
    <line x1="966.52" y1="488.13" x2="150.85" y2="0.49" style="fill: none;stroke: #231f20;stroke-miterlimit: 10;stroke-width: 1.1080453395843506px"/>
    <line x1="945.61" y1="488.13" x2="75.55" y2="0.49" style="fill: none;stroke: #231f20;stroke-miterlimit: 10;stroke-width: 1.1080453395843506px"/>
  </g>
  <g id="ballnshadow">
    <ellipse id="ball-shadow" cx="689.97" cy="925.46" rx="162.65" ry="48.14" style="fill: #231f20;stroke: #fff;stroke-miterlimit: 10;stroke-width: 0.6441860608712718px"/>
    <circle id="ball" cx="689.97" cy="766.89" r="162.65" style="fill: #fff;stroke: #231f20;stroke-miterlimit: 10;stroke-width: 1.1840450763702393px"/>
  </g>
</svg>
