<svg id="financial-services" xmlns="http://www.w3.org/2000/svg" viewBox="0 0 2561.26 997.62">
  <g>
    <polyline points="640.08 800.28 671.32 768.66 690.58 730.94 721.39 682.9 745.13 668.35 754.01 671.67 788.31 654.69 805.83 701.86 904.72 615.48 1123.61 487.61 1151.99 487.74 1215.13 442.76 1292.68 366.12 1305.51 406.3 1334.43 404.45 1376.59 352.42 1365.81 439.73 1442.16 281.94 1471.06 244.44 1483.86 329.36 1509.56 323.11 1546.85 239.79 1565.44 215.69 1578.77 211.33 1596.38 179.37 1612.55 226.2 1639.9 207.99 1647.54 180.71 1652.57 188.26 1699.48 299.93 1697.27 134.58 1733.98 186.21 1744.31 149.5 1751.23 118.02 1763.23 146.65 1773.62 169.32 1796.68 203.74 1802.36 103.42 1819.05 125.59 1863.19 78.83 1876.53 55.63 1884.2 71.34 1893.56 85.02 1903.86 26.4 1920.08 0.28" style="fill: none;stroke: #000;stroke-miterlimit: 10;stroke-width: 1.0675145436822988px"/>
    <polyline points="627.02 802.98 660.69 771.26 679.88 734.9 711.43 688.24 737.36 672.76 748.17 675.75 781.92 659.61 800.03 705.87 897.4 621.71 1112.04 497.24 1140.22 498.14 1202.66 453.8 1284.87 376.08 1296.89 416.77 1325.83 415.43 1370.03 363.58 1360.54 449.31 1438.35 293.49 1468.39 256.94 1482.32 342.34 1507.92 336.58 1544.87 252.47 1564.28 228.95 1578.4 224.39 1597.21 192.35 1614.05 239.96 1642.03 222.22 1649.42 193 1657.04 203.47 1703 311.84 1700.94 147.74 1737.71 199.37 1748.49 164.27 1758.11 132.74 1772.54 162.48 1782.85 183.08 1805.88 215.28 1813.11 119.2 1830.46 141.89 1873.61 93.99 1887.84 71.42 1896.31 87.85 1905.45 98.93 1917.25 42.76 1932.35 15.91" style="fill: none;stroke: #000;stroke-miterlimit: 10;stroke-width: 1.0592292525155074px"/>
    <polyline points="613.95 805.67 650.06 773.87 669.17 738.86 701.48 693.58 729.58 677.17 742.34 679.84 775.53 664.53 794.23 709.88 890.09 627.93 1100.47 506.87 1128.45 508.54 1190.19 464.85 1277.05 386.05 1288.27 427.25 1317.24 426.41 1363.47 374.74 1355.28 458.88 1434.55 305.05 1465.72 269.44 1480.78 355.31 1506.28 350.06 1542.89 265.15 1563.12 242.21 1578.04 237.45 1598.04 205.33 1615.54 253.72 1644.17 236.46 1651.29 205.29 1661.51 218.68 1706.52 323.76 1704.61 160.9 1741.44 212.53 1752.68 179.05 1764.98 147.46 1781.85 178.31 1792.08 196.84 1815.07 226.83 1823.86 134.99 1841.87 158.19 1884.03 109.16 1899.15 87.21 1908.42 104.36 1917.35 112.84 1930.64 59.11 1944.63 31.54" style="fill: none;stroke: #000;stroke-miterlimit: 10;stroke-width: 1.0509439611717342px"/>
    <polyline points="600.89 808.36 639.43 776.48 658.47 742.82 691.52 698.91 721.81 681.59 736.51 683.92 769.15 669.45 788.43 713.9 882.77 634.15 1088.91 516.49 1116.69 518.93 1177.73 475.9 1269.24 396.02 1279.65 437.72 1308.64 437.39 1356.91 385.89 1350.02 468.46 1430.74 316.61 1463.05 281.94 1479.24 368.29 1504.65 363.53 1540.9 277.83 1561.95 255.46 1577.67 250.52 1598.87 218.31 1617.04 267.48 1646.3 250.7 1653.17 217.59 1665.99 233.89 1710.05 335.67 1708.29 174.06 1745.17 225.68 1756.87 193.82 1771.86 162.18 1791.16 194.13 1801.31 210.59 1824.26 238.37 1834.6 150.77 1853.28 174.48 1894.45 124.32 1910.45 103 1920.53 120.88 1929.24 126.75 1944.03 75.47 1956.9 47.16" style="fill: none;stroke: #000;stroke-miterlimit: 10;stroke-width: 1.042658669827961px"/>
    <polyline points="587.83 811.06 628.8 779.08 647.77 746.78 681.57 704.25 714.04 686.01 730.67 688 762.76 674.37 782.63 717.91 875.46 640.38 1077.34 526.12 1104.92 529.33 1165.26 486.95 1261.42 405.98 1271.03 448.19 1300.05 448.37 1350.35 397.05 1344.75 478.03 1426.93 328.17 1460.39 294.44 1477.7 381.27 1503.01 377.01 1538.92 290.51 1560.79 268.72 1577.3 263.58 1599.7 231.28 1618.53 281.24 1648.43 264.94 1655.05 229.88 1670.46 249.1 1713.57 347.58 1711.96 187.22 1748.89 238.84 1761.06 208.59 1778.74 176.9 1800.47 209.96 1810.53 224.35 1833.45 249.92 1845.35 166.55 1864.69 190.78 1904.87 139.48 1921.76 118.79 1932.64 137.39 1941.14 140.66 1957.43 91.83 1969.18 62.79" style="fill: none;stroke: #000;stroke-miterlimit: 9.999999999999998;stroke-width: 1.034373378484188px"/>
    <polyline points="574.77 813.75 618.17 781.69 637.06 750.74 671.61 709.59 706.27 690.42 724.84 692.08 756.38 679.29 776.83 721.92 868.14 646.61 1065.77 535.75 1093.15 539.73 1152.8 498 1253.61 415.95 1262.42 458.66 1291.46 459.34 1343.79 408.21 1339.49 487.61 1423.13 339.73 1457.72 306.95 1476.16 394.25 1501.37 390.48 1536.94 303.19 1559.62 281.98 1576.94 276.64 1600.53 244.26 1620.03 295 1650.57 279.18 1656.92 242.18 1674.93 264.31 1717.09 359.5 1715.64 200.38 1752.62 252 1765.25 223.37 1785.62 191.62 1809.78 225.79 1819.76 238.1 1842.65 261.46 1856.1 182.34 1876.09 207.08 1915.29 154.64 1933.07 134.58 1944.75 153.9 1953.03 154.57 1970.82 108.18 1981.45 78.42" style="fill: none;stroke: #000;stroke-miterlimit: 10;stroke-width: 1.0260880871404148px"/>
    <polyline points="561.71 816.45 607.54 784.3 626.36 754.7 661.65 714.93 698.5 694.84 719.01 696.17 749.99 684.21 771.02 725.93 860.83 652.83 1054.2 545.38 1081.38 550.13 1140.33 509.04 1245.79 425.91 1253.8 469.14 1282.86 470.32 1337.23 419.36 1334.23 497.19 1419.32 351.28 1455.05 319.45 1474.62 407.23 1499.74 403.96 1534.96 315.87 1558.46 295.23 1576.57 289.7 1601.36 257.24 1621.52 308.76 1652.7 293.41 1658.8 254.47 1679.4 279.51 1720.61 371.41 1719.31 213.54 1756.35 265.15 1769.44 238.14 1792.49 206.34 1819.09 241.62 1828.99 251.86 1851.84 273.01 1866.84 198.12 1887.5 223.37 1925.7 169.81 1944.38 150.37 1956.86 170.41 1964.92 168.48 1984.21 124.54 1993.73 94.04" style="fill: none;stroke: #000;stroke-miterlimit: 10;stroke-width: 1.0178027957966418px"/>
    <polyline points="548.65 819.14 596.91 786.9 615.66 758.66 651.7 720.26 690.72 699.25 713.17 700.25 743.61 689.13 765.22 729.95 853.51 659.05 1042.64 555 1069.61 560.52 1127.87 520.09 1237.98 435.88 1245.18 479.61 1274.27 481.3 1330.67 430.52 1328.96 506.76 1415.51 362.84 1452.38 331.95 1473.09 420.2 1498.1 417.43 1532.97 328.55 1557.3 308.49 1576.2 302.76 1602.18 270.21 1623.02 322.52 1654.84 307.65 1660.68 266.76 1683.87 294.72 1724.13 383.32 1722.98 226.7 1760.08 278.31 1773.63 252.91 1799.37 221.06 1828.4 257.45 1838.22 265.61 1861.04 284.56 1877.59 213.91 1898.91 239.67 1936.12 184.97 1955.69 166.16 1968.96 186.93 1976.82 182.39 1997.6 140.89 2006 109.67" style="fill: none;stroke: #000;stroke-miterlimit: 10;stroke-width: 1.0095175044528688px"/>
    <polyline points="535.59 821.84 586.28 789.51 604.95 762.62 641.74 725.6 682.95 703.67 707.34 704.33 737.22 694.05 759.42 733.96 846.2 665.28 1031.07 564.63 1057.85 570.92 1115.4 531.14 1230.17 445.85 1236.56 490.08 1265.67 492.28 1324.12 441.68 1323.7 516.34 1411.7 374.4 1449.71 344.45 1471.55 433.18 1496.46 430.9 1530.99 341.23 1556.13 321.75 1575.84 315.82 1603.02 283.19 1624.51 336.28 1656.97 321.89 1662.55 279.06 1688.35 309.93 1727.65 395.23 1726.66 239.86 1763.81 291.47 1777.82 267.68 1806.25 235.78 1837.71 273.27 1847.44 279.37 1870.23 296.1 1888.34 229.69 1910.32 255.96 1946.54 200.13 1966.99 181.95 1981.07 203.44 1988.71 196.3 2010.99 157.25 2018.28 125.3" style="fill: none;stroke: #000;stroke-miterlimit: 10;stroke-width: 1.0012322131090956px"/>
    <polyline points="522.53 824.53 575.65 792.12 594.25 766.58 631.78 730.94 675.18 708.08 701.5 708.41 730.83 698.97 753.62 737.97 838.88 671.5 1019.5 574.26 1046.08 581.32 1102.94 542.19 1222.35 455.81 1227.94 500.56 1257.08 503.26 1317.56 452.84 1318.43 525.91 1407.9 385.96 1447.05 356.95 1470.01 446.16 1494.83 444.38 1529.01 353.9 1554.97 335 1575.47 328.89 1603.84 296.17 1626.01 350.04 1659.11 336.13 1664.43 291.35 1692.82 325.14 1731.17 407.15 1730.33 253.02 1767.54 304.63 1782.01 282.46 1813.12 250.5 1847.02 289.1 1856.67 293.12 1879.42 307.65 1899.08 245.47 1921.73 272.26 1956.96 215.29 1978.3 197.75 1993.18 219.95 2000.61 210.21 2024.39 173.6 2030.55 140.93" style="fill: none;stroke: #000;stroke-miterlimit: 10;stroke-width: 0.9929469217653225px"/>
    <polyline points="509.46 827.22 565.02 794.72 583.54 770.53 621.83 736.28 667.41 712.5 695.67 712.5 724.45 703.89 747.82 741.98 831.57 677.73 1007.93 583.88 1034.31 591.71 1090.47 553.24 1214.54 465.78 1219.33 511.03 1248.48 514.24 1311 463.99 1313.17 535.49 1404.09 397.52 1444.38 369.45 1468.47 459.14 1493.19 457.85 1527.03 366.58 1553.8 348.26 1575.11 341.95 1604.67 309.15 1627.5 363.8 1661.24 350.36 1666.31 303.65 1697.29 340.35 1734.69 419.06 1734.01 266.18 1771.27 317.79 1786.2 297.23 1820 265.22 1856.33 304.93 1865.9 306.88 1888.62 319.19 1909.83 261.26 1933.13 288.56 1967.38 230.46 1989.61 213.54 2005.29 236.46 2012.5 224.12 2037.78 189.96 2042.83 156.55" style="fill: none;stroke: #000;stroke-miterlimit: 10;stroke-width: 0.9846616304215495px"/>
    <polyline points="496.4 829.92 554.39 797.33 572.84 774.49 611.87 741.61 659.64 716.91 689.84 716.58 718.06 708.8 742.02 745.99 824.25 683.96 996.37 593.51 1022.54 602.11 1078.01 564.28 1206.72 475.74 1210.71 521.5 1239.89 525.22 1304.44 475.15 1307.91 545.07 1400.28 409.07 1441.71 381.96 1466.93 472.11 1491.55 471.33 1525.04 379.26 1552.64 361.52 1574.74 355.01 1605.5 322.12 1629 377.56 1663.38 364.6 1668.18 315.94 1701.76 355.56 1738.22 430.97 1737.68 279.34 1774.99 330.94 1790.39 312 1826.88 279.94 1865.64 320.76 1875.13 320.63 1897.81 330.74 1920.58 277.04 1944.54 304.85 1977.8 245.62 2000.92 229.33 2017.4 252.97 2024.39 238.03 2051.17 206.32 2055.1 172.18" style="fill: none;stroke: #000;stroke-miterlimit: 10;stroke-width: 0.9763763390777764px"/>
    <polyline points="483.34 832.61 543.76 799.93 562.14 778.45 601.91 746.95 651.86 721.33 684 720.66 711.68 713.73 736.22 750.01 816.94 690.18 984.8 603.14 1010.77 612.51 1065.54 575.33 1198.91 485.71 1202.09 531.97 1231.3 536.19 1297.88 486.31 1302.64 554.64 1396.47 420.63 1439.04 394.46 1465.39 485.09 1489.92 484.8 1523.06 391.94 1551.48 374.77 1574.37 368.07 1606.33 335.1 1630.49 391.31 1665.51 378.84 1670.06 328.24 1706.23 370.77 1741.74 442.88 1741.36 292.5 1778.72 344.1 1794.58 326.78 1833.76 294.66 1874.95 336.58 1884.36 334.39 1907 342.28 1931.32 292.83 1955.95 321.15 1988.22 260.78 2012.23 245.12 2029.51 269.49 2036.29 251.94 2064.56 222.67 2067.38 187.81" style="fill: none;stroke: #000;stroke-miterlimit: 10;stroke-width: 0.9680910477340032px"/>
    <polyline points="470.28 835.31 533.13 802.54 551.43 782.41 591.96 752.29 644.09 725.74 678.17 724.74 705.29 718.64 730.41 754.02 809.63 696.4 973.23 612.77 999.01 622.9 1053.08 586.38 1191.09 495.67 1193.47 542.45 1222.7 547.17 1291.32 497.46 1297.38 564.22 1392.67 432.19 1436.38 406.96 1463.85 498.07 1488.28 498.28 1521.08 404.62 1550.31 388.03 1574.01 381.13 1607.16 348.08 1631.99 405.07 1667.64 393.08 1671.94 340.53 1710.71 385.98 1745.26 454.8 1745.03 305.66 1782.45 357.26 1798.77 341.55 1840.63 309.38 1884.26 352.41 1893.58 348.14 1916.19 353.83 1942.07 308.61 1967.36 337.45 1998.64 275.95 2023.54 260.91 2041.62 286 2048.18 265.85 2077.96 239.03 2079.65 203.43" style="fill: none;stroke: #000;stroke-miterlimit: 10;stroke-width: 0.9598057563902302px"/>
    <polyline points="457.22 838 522.5 805.15 540.73 786.37 582 757.63 636.32 730.16 672.34 728.83 698.91 723.56 724.61 758.03 802.31 702.63 961.67 622.39 987.24 633.3 1040.61 597.43 1183.28 505.64 1184.86 552.92 1214.11 558.15 1284.76 508.62 1292.12 573.79 1388.86 443.75 1433.71 419.46 1462.31 511.05 1486.64 511.75 1519.09 417.3 1549.15 401.29 1573.64 394.19 1607.99 361.06 1633.48 418.83 1669.78 407.31 1673.81 352.82 1715.18 401.19 1748.78 466.71 1748.7 318.82 1786.18 370.41 1802.95 356.32 1847.51 324.1 1893.57 368.24 1902.81 361.9 1925.39 365.38 1952.82 324.39 1978.77 353.74 2009.06 291.11 2034.85 276.7 2053.73 302.51 2060.08 279.76 2091.35 255.38 2091.93 219.06" style="fill: none;stroke: #000;stroke-miterlimit: 10;stroke-width: 0.9515204650464573px"/>
    <polyline points="444.16 840.7 511.88 807.75 530.03 790.33 572.04 762.97 628.55 734.57 666.5 732.91 692.52 728.48 718.81 762.04 795 708.86 950.1 632.02 975.47 643.7 1028.14 608.48 1175.46 515.6 1176.24 563.39 1205.52 569.13 1278.2 519.78 1286.85 583.37 1385.05 455.31 1431.04 431.96 1460.77 524.02 1485.01 525.23 1517.11 429.98 1547.98 414.54 1573.28 407.26 1608.82 374.03 1634.98 432.59 1671.91 421.55 1675.69 365.12 1719.65 416.4 1752.3 478.62 1752.38 331.98 1789.91 383.57 1807.14 371.1 1854.39 338.82 1902.88 384.07 1912.04 375.65 1934.58 376.92 1963.56 340.18 1990.17 370.04 2019.48 306.27 2046.15 292.49 2065.84 319.02 2071.97 293.67 2104.74 271.74 2104.2 234.69" style="fill: none;stroke: #000;stroke-miterlimit: 10;stroke-width: 0.9432351737026842px"/>
    <polyline points="431.1 843.39 501.25 810.36 519.32 794.29 562.09 768.3 620.77 738.99 660.67 736.99 686.13 733.4 713.01 766.05 787.68 715.08 938.53 641.65 963.7 654.09 1015.68 619.52 1167.65 525.57 1167.62 573.87 1196.92 580.11 1271.64 530.94 1281.59 592.95 1381.25 466.86 1428.37 444.47 1459.23 537 1483.37 538.7 1515.13 442.66 1546.82 427.8 1572.91 420.32 1609.65 387.01 1636.47 446.35 1674.05 435.79 1677.57 377.41 1724.12 431.61 1755.82 490.54 1756.05 345.14 1793.63 396.73 1811.33 385.87 1861.27 353.54 1912.19 399.9 1921.27 389.41 1943.77 388.47 1974.31 355.96 2001.58 386.33 2029.9 321.44 2057.46 308.28 2077.94 335.54 2083.86 307.58 2118.13 288.1 2116.48 250.31" style="fill: none;stroke: #000;stroke-miterlimit: 10;stroke-width: 0.934949882358911px"/>
    <polyline points="418.04 846.08 490.62 812.97 508.62 798.25 552.13 773.64 613 743.4 654.84 741.07 679.75 738.32 707.21 770.07 780.37 721.3 926.97 651.28 951.94 664.49 1003.21 630.57 1159.84 535.53 1159 584.34 1188.33 591.09 1265.09 542.09 1276.33 602.52 1377.44 478.42 1425.7 456.97 1457.7 549.98 1481.73 552.17 1513.15 455.34 1545.65 441.06 1572.54 433.38 1610.48 399.99 1637.97 460.11 1676.18 450.03 1679.44 389.71 1728.6 446.82 1759.35 502.45 1759.73 358.3 1797.36 409.89 1815.52 400.64 1868.14 368.25 1921.5 415.72 1930.49 403.16 1952.97 400.01 1985.06 371.75 2012.99 402.63 2040.32 336.6 2068.77 324.07 2090.05 352.05 2095.76 321.5 2131.53 304.45 2128.75 265.94" style="fill: none;stroke: #000;stroke-miterlimit: 10;stroke-width: 0.9266645910151379px"/>
    <polyline points="404.98 848.78 479.99 815.57 497.92 802.21 542.18 778.98 605.23 747.82 649 745.15 673.36 743.24 701.4 774.08 773.05 727.53 915.4 660.9 940.17 674.89 990.75 641.62 1152.02 545.5 1150.38 594.81 1179.73 602.06 1258.53 553.25 1271.06 612.1 1373.63 489.98 1423.04 469.47 1456.16 562.96 1480.1 565.65 1511.16 468.02 1544.49 454.31 1572.18 446.44 1611.31 412.96 1639.47 473.87 1678.32 464.26 1681.32 402 1733.07 462.02 1762.87 514.36 1763.4 371.46 1801.09 423.04 1819.71 415.41 1875.02 382.98 1930.81 431.55 1939.72 416.92 1962.16 411.56 1995.81 387.53 2024.4 418.93 2050.74 351.76 2080.08 339.87 2102.16 368.56 2107.65 335.4 2144.92 320.81 2141.03 281.57" style="fill: none;stroke: #000;stroke-miterlimit: 10;stroke-width: 0.918379299671365px"/>
    <polyline points="391.91 851.47 469.36 818.18 487.21 806.17 532.22 784.32 597.46 752.24 643.17 749.24 666.98 748.16 695.6 778.09 765.74 733.75 903.83 670.53 928.4 685.28 978.28 652.67 1144.21 555.47 1141.77 605.28 1171.14 613.04 1251.97 564.41 1265.8 621.67 1369.83 501.54 1420.37 481.97 1454.62 575.94 1478.46 579.12 1509.18 480.7 1543.33 467.57 1571.81 459.5 1612.14 425.94 1640.96 487.63 1680.45 478.5 1683.2 414.3 1737.54 477.23 1766.39 526.28 1767.08 384.62 1804.82 436.2 1823.9 430.19 1881.9 397.69 1940.12 447.38 1948.95 430.67 1971.35 423.1 2006.55 403.31 2035.81 435.22 2061.16 366.93 2091.39 355.66 2114.27 385.07 2119.55 349.31 2158.31 337.17 2153.3 297.2" style="fill: none;stroke: #000;stroke-miterlimit: 10;stroke-width: 0.9100940083275919px"/>
    <polyline points="378.85 854.17 458.73 820.78 476.51 810.13 522.26 789.65 589.69 756.65 637.33 753.32 660.59 753.08 689.8 782.1 758.42 739.98 892.26 680.16 916.63 695.68 965.82 663.72 1136.39 565.43 1133.15 615.76 1162.54 624.02 1245.41 575.57 1260.54 631.25 1366.02 513.1 1417.7 494.47 1453.08 588.91 1476.82 592.6 1507.2 493.38 1542.16 480.83 1571.44 472.56 1612.97 438.92 1642.46 501.39 1682.58 492.74 1685.07 426.59 1742.01 492.44 1769.91 538.19 1770.75 397.78 1808.55 449.36 1828.09 444.96 1888.77 412.41 1949.43 463.21 1958.18 444.43 1980.55 434.65 2017.3 419.1 2047.22 451.52 2071.57 382.09 2102.7 371.45 2126.38 401.59 2131.44 363.23 2171.7 353.52 2165.57 312.82" style="fill: none;stroke: #000;stroke-miterlimit: 10;stroke-width: 0.9018087169838187px"/>
    <polyline points="365.79 856.86 448.1 823.39 465.8 814.08 512.31 794.99 581.91 761.07 631.5 757.4 654.21 758 684 786.12 751.11 746.21 880.7 689.79 904.87 706.08 953.35 674.76 1128.58 575.4 1124.53 626.23 1153.95 635 1238.85 586.72 1255.27 640.83 1362.21 524.65 1415.03 506.98 1451.54 601.89 1475.19 606.07 1505.21 506.06 1541 494.08 1571.08 485.63 1613.8 451.9 1643.95 515.15 1684.72 506.98 1686.95 438.88 1746.48 507.65 1773.43 550.1 1774.42 410.94 1812.28 462.51 1832.28 459.73 1895.65 427.13 1958.74 479.04 1967.4 458.18 1989.74 446.19 2028.05 434.88 2058.62 467.82 2081.99 397.25 2114 387.24 2138.49 418.1 2143.34 377.14 2185.09 369.88 2177.85 328.45" style="fill: none;stroke: #000;stroke-miterlimit: 10;stroke-width: 0.8935234256400456px"/>
    <polyline points="352.73 859.55 437.47 826 455.1 818.04 502.35 800.33 574.14 765.48 625.67 761.49 647.82 762.92 678.2 790.13 743.79 752.43 869.13 699.41 893.1 716.47 940.89 685.81 1120.77 585.36 1115.91 636.7 1145.36 645.98 1232.29 597.88 1250.01 650.4 1358.4 536.21 1412.37 519.48 1450 614.87 1473.55 619.55 1503.23 518.74 1539.84 507.34 1570.71 498.69 1614.63 464.87 1645.45 528.91 1686.85 521.22 1688.83 451.18 1750.95 522.86 1776.95 562.01 1778.1 424.1 1816.01 475.67 1836.47 474.51 1902.53 441.85 1968.05 494.86 1976.63 471.94 1998.93 457.74 2038.79 450.67 2070.03 484.11 2092.41 412.41 2125.31 403.03 2150.6 434.61 2155.23 391.05 2198.49 386.23 2190.13 344.08" style="fill: none;stroke: #000;stroke-miterlimit: 10;stroke-width: 0.8852381342962727px"/>
    <polyline points="339.67 862.25 426.84 828.61 444.4 822 492.39 805.67 566.37 769.9 619.83 765.57 641.43 767.84 672.4 794.14 736.48 758.65 857.56 709.04 881.33 726.87 928.42 696.86 1112.95 595.33 1107.29 647.17 1136.76 656.96 1225.73 609.04 1244.74 659.98 1354.6 547.77 1409.7 531.98 1448.46 627.85 1471.91 633.02 1501.25 531.42 1538.67 520.6 1570.35 511.75 1615.46 477.85 1646.94 542.67 1688.99 535.45 1690.7 463.47 1755.43 538.07 1780.47 573.93 1781.77 437.26 1819.73 488.83 1840.66 489.28 1909.4 456.57 1977.36 510.69 1985.86 485.69 2008.13 469.29 2049.54 466.45 2081.44 500.41 2102.83 427.58 2136.62 418.82 2162.71 451.12 2167.12 404.96 2211.88 402.59 2202.4 359.7" style="fill: none;stroke: #000;stroke-miterlimit: 10;stroke-width: 0.8769528429524995px"/>
    <polyline points="326.61 864.94 416.21 831.21 433.69 825.96 482.44 811 558.6 774.31 614 769.65 635.05 772.76 666.6 798.15 729.16 764.88 846 718.67 869.56 737.27 915.96 707.91 1105.14 605.29 1098.68 657.65 1128.17 667.93 1219.17 620.19 1239.48 669.55 1350.79 559.33 1407.03 544.48 1446.92 640.83 1470.28 646.5 1499.27 544.1 1537.51 533.86 1569.98 524.81 1616.29 490.83 1648.44 556.43 1691.12 549.69 1692.58 475.76 1759.9 553.28 1784 585.84 1785.44 450.42 1823.46 501.99 1844.85 504.05 1916.28 471.29 1986.67 526.52 1995.09 499.45 2017.32 480.83 2060.28 482.23 2092.85 516.71 2113.25 442.74 2147.93 434.61 2174.81 467.64 2179.02 418.87 2225.27 418.94 2214.68 375.33" style="fill: none;stroke: #000;stroke-miterlimit: 10;stroke-width: 0.8686675516087263px"/>
    <polyline points="313.55 867.64 405.58 833.82 422.99 829.92 472.48 816.34 550.83 778.73 608.16 773.73 628.66 777.68 660.79 802.16 721.85 771.11 834.43 728.3 857.79 747.66 903.49 718.96 1097.32 615.26 1090.06 668.12 1119.57 678.91 1212.62 631.35 1234.22 679.13 1346.98 570.89 1404.36 556.98 1445.38 653.8 1468.64 659.97 1497.28 556.78 1536.34 547.11 1569.61 537.87 1617.12 503.81 1649.93 570.19 1693.26 563.93 1694.46 488.06 1764.37 568.49 1787.52 597.75 1789.12 463.58 1827.19 515.14 1849.04 518.82 1923.16 486.01 1995.98 542.35 2004.32 513.21 2026.51 492.38 2071.03 498.02 2104.26 533 2123.67 457.9 2159.24 450.4 2186.92 484.15 2190.91 432.78 2238.66 435.3 2226.95 390.96" style="fill: none;stroke: #000;stroke-miterlimit: 10;stroke-width: 0.8603822602649533px"/>
    <polyline points="300.49 870.33 394.95 836.42 412.29 833.88 462.52 821.68 543.05 783.14 602.33 777.82 622.28 782.6 654.99 806.18 714.54 777.33 822.86 737.92 846.03 758.06 891.02 730 1089.51 625.23 1081.44 678.59 1110.98 689.89 1206.06 642.51 1228.95 688.7 1343.18 582.45 1401.69 569.48 1443.85 666.78 1467 673.45 1495.3 569.46 1535.18 560.37 1569.25 550.93 1617.95 516.78 1651.43 583.95 1695.39 578.17 1696.33 500.35 1768.84 583.7 1791.04 609.67 1792.79 476.74 1830.92 528.3 1853.22 533.6 1930.04 500.73 2005.29 558.17 2013.54 526.96 2035.71 503.92 2081.78 513.8 2115.66 549.3 2134.09 473.07 2170.55 466.2 2199.03 500.66 2202.81 446.69 2252.05 451.66 2239.22 406.59" style="fill: none;stroke: #000;stroke-miterlimit: 10;stroke-width: 0.8520969689211804px"/>
    <polyline points="287.42 873.02 384.32 839.03 401.58 837.84 452.57 827.02 535.28 787.56 596.5 781.9 615.89 787.51 649.19 810.19 707.22 783.55 811.29 747.55 834.26 768.46 878.56 741.05 1081.69 635.19 1072.82 689.07 1102.38 700.87 1199.5 653.66 1223.69 698.28 1339.37 594 1399.03 581.99 1442.31 679.76 1465.37 686.92 1493.32 582.14 1534.01 573.63 1568.88 564 1618.78 529.76 1652.92 597.71 1697.53 592.4 1698.21 512.65 1773.32 598.91 1794.56 621.58 1796.47 489.9 1834.65 541.46 1857.41 548.37 1936.91 515.45 2014.6 574 2022.77 540.72 2044.9 515.47 2092.53 529.59 2127.07 565.59 2144.51 488.23 2181.85 481.99 2211.14 517.17 2214.7 460.6 2265.45 468.01 2251.5 422.21" style="fill: none;stroke: #000;stroke-miterlimit: 10;stroke-width: 0.8438116775774073px"/>
    <polyline points="274.36 875.72 373.69 841.64 390.88 841.8 442.61 832.35 527.51 791.97 590.66 785.98 609.51 792.43 643.39 814.2 699.91 789.78 799.73 757.18 822.49 778.86 866.1 752.1 1073.88 645.16 1064.2 699.54 1093.79 711.85 1192.94 664.82 1218.42 707.86 1335.56 605.56 1396.36 594.49 1440.77 692.74 1463.73 700.39 1491.34 594.82 1532.85 586.88 1568.52 577.06 1619.61 542.74 1654.42 611.47 1699.66 606.64 1700.09 524.94 1777.79 614.12 1798.08 633.49 1800.14 503.06 1838.38 554.62 1861.6 563.14 1943.79 530.17 2023.91 589.83 2032 554.47 2054.09 527.01 2103.27 545.37 2138.48 581.89 2154.93 503.39 2193.16 497.78 2223.25 533.69 2226.59 474.51 2278.84 484.37 2263.78 437.84" style="fill: none;stroke: #000;stroke-miterlimit: 10;stroke-width: 0.8355263862336342px"/>
    <polyline points="261.3 878.41 363.06 844.24 380.17 845.76 432.65 837.69 519.74 796.39 584.83 790.06 603.12 797.35 637.59 818.21 692.59 796 788.16 766.81 810.72 789.25 853.63 763.15 1066.07 655.12 1055.59 710.01 1085.2 722.83 1186.38 675.98 1213.16 717.43 1331.76 617.12 1393.69 606.99 1439.23 705.71 1462.09 713.87 1489.35 607.5 1531.69 600.14 1568.15 590.12 1620.44 555.72 1655.91 625.23 1701.79 620.88 1701.96 537.24 1782.26 629.33 1801.6 645.41 1803.82 516.22 1842.1 567.77 1865.79 577.92 1950.67 544.89 2033.22 605.66 2041.23 568.23 2063.28 538.56 2114.02 561.15 2149.89 598.19 2165.35 518.55 2204.47 513.57 2235.36 550.2 2238.49 488.42 2292.23 500.73 2276.05 453.47" style="fill: none;stroke: #000;stroke-miterlimit: 10;stroke-width: 0.8272410948898612px"/>
    <polyline points="248.24 881.11 352.43 846.85 369.47 849.72 422.7 843.03 511.97 800.8 579 794.14 596.73 802.27 631.79 822.23 685.28 802.23 776.59 776.43 798.95 799.65 841.16 774.19 1058.25 665.09 1046.97 720.48 1076.6 733.81 1179.82 687.14 1207.9 727.01 1327.95 628.68 1391.02 619.49 1437.69 718.69 1460.46 727.34 1487.37 620.18 1530.52 613.39 1567.78 603.18 1621.27 568.69 1657.41 638.99 1703.93 635.12 1703.84 549.53 1786.73 644.53 1805.13 657.32 1807.49 529.38 1845.83 580.93 1869.98 592.69 1957.55 559.61 2042.53 621.49 2050.45 581.98 2072.48 550.11 2124.77 576.94 2161.3 614.48 2175.77 533.72 2215.78 529.36 2247.47 566.71 2250.38 502.33 2305.62 517.08 2288.32 469.09" style="fill: none;stroke: #000;stroke-miterlimit: 10;stroke-width: 0.8189558035460881px"/>
    <polyline points="235.18 883.8 341.8 849.46 358.77 853.67 412.74 848.37 504.19 805.22 573.16 798.23 590.35 807.19 625.98 826.24 677.96 808.46 765.02 786.06 787.19 810.04 828.7 785.24 1050.44 675.05 1038.35 730.96 1068.01 744.78 1173.26 698.29 1202.63 736.58 1324.14 640.24 1388.36 631.99 1436.15 731.67 1458.82 740.82 1485.39 632.86 1529.36 626.65 1567.42 616.24 1622.1 581.67 1658.9 652.75 1706.06 649.35 1705.72 561.83 1791.2 659.74 1808.65 669.23 1811.16 542.54 1849.56 594.09 1874.17 607.46 1964.42 574.33 2051.84 637.31 2059.68 595.74 2081.67 561.65 2135.51 592.72 2172.7 630.78 2186.19 548.88 2227.09 545.15 2259.58 583.22 2262.28 516.24 2319.02 533.44 2300.6 484.72" style="fill: none;stroke: #000;stroke-miterlimit: 10;stroke-width: 0.810670512202315px"/>
    <polyline points="222.12 886.5 331.17 852.06 348.06 857.63 402.79 853.7 496.42 809.63 567.33 802.31 583.96 812.11 620.18 830.25 670.65 814.68 753.46 795.69 775.42 820.44 816.23 796.29 1042.62 685.02 1029.73 741.43 1059.41 755.76 1166.7 709.45 1197.37 746.16 1320.33 651.79 1385.69 644.5 1434.61 744.65 1457.18 754.29 1483.4 645.54 1528.19 639.91 1567.05 629.3 1622.93 594.65 1660.4 666.5 1708.2 663.59 1707.59 574.12 1795.67 674.95 1812.17 681.14 1814.84 555.7 1853.29 607.25 1878.36 622.24 1971.3 589.05 2061.15 653.14 2068.91 609.49 2090.86 573.2 2146.26 608.5 2184.11 647.08 2196.61 564.04 2238.39 560.94 2271.68 599.74 2274.17 530.15 2332.41 549.79 2312.87 500.35" style="fill: none;stroke: #000;stroke-miterlimit: 10;stroke-width: 0.802385220858542px"/>
    <polyline points="209.06 889.19 320.54 854.67 337.36 861.59 392.83 859.04 488.65 814.05 561.5 806.39 577.58 817.03 614.38 834.26 663.33 820.9 741.89 805.32 763.65 830.84 803.77 807.34 1034.81 694.99 1021.12 751.9 1050.82 766.74 1160.15 720.61 1192.11 755.74 1316.53 663.35 1383.02 657 1433.07 757.63 1455.55 767.77 1481.42 658.22 1527.03 653.16 1566.69 642.37 1623.76 607.63 1661.9 680.26 1710.33 677.83 1709.47 586.41 1800.15 690.16 1815.69 693.06 1818.51 568.86 1857.02 620.4 1882.55 637.01 1978.18 603.77 2070.46 668.97 2078.14 623.25 2100.06 584.74 2157.01 624.29 2195.52 663.37 2207.02 579.21 2249.7 576.73 2283.79 616.25 2286.07 544.06 2345.8 566.15 2325.15 515.98" style="fill: none;stroke: #000;stroke-miterlimit: 10;stroke-width: 0.794099929514769px"/>
    <polyline points="196 891.88 309.91 857.27 326.65 865.55 382.87 864.38 480.88 818.46 555.66 810.48 571.19 821.95 608.58 838.27 656.02 827.13 730.32 814.94 751.88 841.24 791.3 818.39 1026.99 704.95 1012.5 762.38 1042.23 777.72 1153.59 731.76 1186.84 765.31 1312.72 674.91 1380.35 669.5 1431.53 770.6 1453.91 781.24 1479.44 670.9 1525.87 666.42 1566.32 655.43 1624.59 620.6 1663.39 694.02 1712.47 692.07 1711.35 598.71 1804.62 705.37 1819.21 704.97 1822.19 582.02 1860.74 633.56 1886.74 651.78 1985.05 618.49 2079.77 684.8 2087.36 637 2109.25 596.29 2167.75 640.07 2206.93 679.67 2217.44 594.37 2261.01 592.53 2295.9 632.76 2297.96 557.97 2359.19 582.5 2337.42 531.6" style="fill: none;stroke: #000;stroke-miterlimit: 10;stroke-width: 0.7858146381709958px"/>
    <polyline points="182.93 894.58 299.28 859.88 315.95 869.51 372.92 869.72 473.11 822.88 549.83 814.56 564.81 826.87 602.78 842.29 648.7 833.36 718.76 824.57 740.12 851.63 778.84 829.43 1019.18 714.92 1003.88 772.85 1033.63 788.7 1147.03 742.92 1181.58 774.89 1308.91 686.47 1377.68 682 1429.99 783.58 1452.27 794.72 1477.45 683.58 1524.7 679.68 1565.95 668.49 1625.41 633.58 1664.89 707.78 1714.6 706.3 1713.22 611 1809.09 720.58 1822.73 716.88 1825.86 595.18 1864.47 646.72 1890.93 666.55 1991.93 633.21 2089.08 700.63 2096.59 650.76 2118.44 607.83 2178.5 655.86 2218.34 695.96 2227.86 609.53 2272.32 608.32 2308.01 649.27 2309.85 571.88 2372.59 598.86 2349.7 547.23" style="fill: none;stroke: #000;stroke-miterlimit: 10;stroke-width: 0.7775293468272229px"/>
    <polyline points="169.87 897.27 288.65 862.49 305.25 873.47 362.96 875.05 465.33 827.29 543.99 818.64 558.42 831.79 596.98 846.3 641.39 839.58 707.19 834.2 728.35 862.03 766.37 840.48 1011.36 724.88 995.26 783.32 1025.04 799.68 1140.47 754.08 1176.32 784.46 1305.11 698.03 1375.02 694.5 1428.46 796.56 1450.64 808.19 1475.47 696.26 1523.54 692.93 1565.59 681.55 1626.24 646.56 1666.38 721.54 1716.73 720.54 1715.1 623.3 1813.56 735.79 1826.25 728.8 1829.54 608.34 1868.2 659.88 1895.12 681.33 1998.81 647.92 2098.39 716.45 2105.82 664.51 2127.64 619.38 2189.25 671.64 2229.75 712.26 2238.28 624.7 2283.63 624.11 2320.12 665.78 2321.75 585.79 2385.98 615.22 2361.97 562.86" style="fill: none;stroke: #000;stroke-miterlimit: 10;stroke-width: 0.7692440554834498px"/>
    <polyline points="156.81 899.97 278.02 865.09 294.54 877.43 353 880.39 457.56 831.71 538.16 822.72 552.03 836.71 591.17 850.31 634.08 845.8 695.62 843.83 716.58 872.43 753.91 851.53 1003.55 734.85 986.64 793.79 1016.44 810.66 1133.91 765.24 1171.05 794.04 1301.3 709.58 1372.35 707 1426.92 809.54 1449 821.66 1473.49 708.94 1522.37 706.19 1565.22 694.61 1627.08 659.53 1667.88 735.3 1718.87 734.78 1716.98 635.59 1818.04 751 1829.78 740.71 1833.21 621.5 1871.93 673.03 1899.31 696.1 2005.69 662.64 2107.7 732.28 2115.05 678.27 2136.83 630.92 2199.99 687.42 2241.15 728.56 2248.7 639.86 2294.94 639.9 2332.23 682.3 2333.64 599.7 2399.37 631.57 2374.25 578.48" style="fill: none;stroke: #000;stroke-miterlimit: 10;stroke-width: 0.7609587641396767px"/>
    <polyline points="143.75 902.66 267.39 867.7 283.84 881.39 343.05 885.73 449.79 836.13 532.33 826.8 545.65 841.63 585.37 854.32 626.76 852.03 684.05 853.45 704.81 882.82 741.44 862.58 995.74 744.81 978.03 804.27 1007.85 821.63 1127.35 776.39 1165.79 803.62 1297.49 721.14 1369.68 719.51 1425.38 822.51 1447.37 835.14 1471.51 721.62 1521.21 719.45 1564.86 707.67 1627.9 672.51 1669.37 749.06 1721 749.02 1718.86 647.88 1822.51 766.21 1833.3 752.62 1836.88 634.65 1875.66 686.19 1903.49 710.87 2012.56 677.36 2117.01 748.11 2124.28 692.02 2146.02 642.47 2210.74 703.21 2252.56 744.85 2259.12 655.02 2306.24 655.69 2344.34 698.81 2345.54 613.61 2412.76 647.93 2386.52 594.11" style="fill: none;stroke: #000;stroke-miterlimit: 10;stroke-width: 0.7526734727959037px"/>
    <polyline points="130.69 905.36 256.76 870.31 273.14 885.35 333.09 891.07 442.02 840.54 526.49 830.89 539.26 846.55 579.57 858.34 619.45 858.25 672.49 863.08 693.04 893.22 728.98 873.63 987.92 754.78 969.41 814.74 999.25 832.61 1120.79 787.55 1160.53 813.19 1293.68 732.7 1367.01 732.01 1423.84 835.49 1445.73 848.61 1469.52 734.3 1520.05 732.71 1564.49 720.74 1628.73 685.49 1670.87 762.82 1723.14 763.26 1720.73 660.18 1826.98 781.42 1836.82 764.54 1840.56 647.82 1879.39 699.35 1907.68 725.65 2019.44 692.08 2126.32 763.94 2133.5 705.78 2155.22 654.02 2221.49 718.99 2263.97 761.15 2269.54 670.18 2317.55 671.48 2356.45 715.32 2357.43 627.52 2426.15 664.28 2398.8 609.74" style="fill: none;stroke: #000;stroke-miterlimit: 10;stroke-width: 0.7443881814521307px"/>
    <polyline points="117.63 908.05 246.13 872.91 262.43 889.31 323.13 896.4 434.25 844.96 520.66 834.97 532.88 851.47 573.77 862.35 612.13 864.48 660.92 872.71 681.28 903.62 716.51 884.67 980.11 764.74 960.79 825.21 990.66 843.59 1114.23 798.71 1155.26 822.77 1289.88 744.26 1364.35 744.51 1422.3 848.47 1444.09 862.09 1467.54 746.98 1518.88 745.96 1564.12 733.8 1629.56 698.47 1672.36 776.58 1725.27 777.49 1722.61 672.47 1831.45 796.63 1840.34 776.45 1844.23 660.98 1883.12 712.5 1911.87 740.42 2026.32 706.8 2135.63 779.76 2142.73 719.53 2164.41 665.56 2232.24 734.78 2275.38 777.45 2279.96 685.35 2328.86 687.27 2368.55 731.84 2369.32 641.43 2439.55 680.64 2411.07 625.37" style="fill: none;stroke: #000;stroke-miterlimit: 10;stroke-width: 0.7361028901083576px"/>
    <polyline points="104.57 910.74 235.5 875.52 251.73 893.27 313.18 901.74 426.47 849.37 514.83 839.05 526.49 856.38 567.97 866.36 604.82 870.71 649.35 882.34 669.51 914.01 704.04 895.72 972.29 774.71 952.17 835.68 982.07 854.57 1107.67 809.87 1150 832.34 1286.07 755.82 1361.68 757.01 1420.76 861.45 1442.45 875.56 1465.56 759.65 1517.72 759.22 1563.76 746.86 1630.39 711.44 1673.86 790.34 1727.41 791.73 1724.48 684.77 1835.92 811.84 1843.86 788.36 1847.91 674.13 1886.84 725.66 1916.06 755.19 2033.19 721.52 2144.94 795.59 2151.96 733.29 2173.6 677.11 2242.98 750.56 2286.79 793.74 2290.38 700.51 2340.17 703.06 2380.66 748.35 2381.22 655.34 2452.94 697 2423.35 640.99" style="fill: none;stroke: #000;stroke-miterlimit: 10;stroke-width: 0.7278175987645845px"/>
    <polyline points="91.5 913.44 224.87 878.13 241.03 897.23 303.22 907.08 418.7 853.79 508.99 843.13 520.11 861.3 562.17 870.37 597.5 876.93 637.78 891.96 657.74 924.41 691.58 906.77 964.48 784.67 943.55 846.16 973.47 865.55 1101.12 821.02 1144.73 841.92 1282.26 767.38 1359.01 769.51 1419.22 874.43 1440.82 889.04 1463.58 772.34 1516.55 772.48 1563.39 759.92 1631.22 724.42 1675.35 804.1 1729.54 805.97 1726.36 697.06 1840.39 827.04 1847.38 800.27 1851.58 687.29 1890.57 738.82 1920.25 769.97 2040.07 736.24 2154.25 811.42 2161.18 747.04 2182.8 688.65 2253.73 766.34 2298.19 810.04 2300.8 715.67 2351.48 718.86 2392.77 764.86 2393.11 669.25 2466.33 713.35 2435.62 656.62" style="fill: none;stroke: #000;stroke-miterlimit: 10;stroke-width: 0.7195323074208115px"/>
    <polyline points="78.44 916.13 214.24 880.73 230.32 901.18 293.26 912.42 410.93 858.2 503.16 847.22 513.72 866.22 556.37 874.38 590.19 883.15 626.22 901.59 645.97 934.81 679.11 917.82 956.66 794.64 934.94 856.63 964.88 876.53 1094.56 832.18 1139.47 851.5 1278.46 778.93 1356.34 782.01 1417.68 887.4 1439.18 902.51 1461.59 785.01 1515.39 785.73 1563.02 772.98 1632.05 737.4 1676.85 817.86 1731.67 820.21 1728.24 709.36 1844.87 842.25 1850.9 812.19 1855.25 700.46 1894.3 751.98 1924.44 784.74 2046.95 750.96 2163.56 827.25 2170.41 760.8 2191.99 700.2 2264.47 782.13 2309.6 826.34 2311.22 730.84 2362.79 734.65 2404.88 781.37 2405.01 683.16 2479.72 729.71 2447.9 672.25" style="fill: none;stroke: #000;stroke-miterlimit: 10;stroke-width: 0.7112470160770384px"/>
    <polyline points="65.38 918.83 203.61 883.34 219.62 905.14 283.31 917.76 403.16 862.62 497.32 851.3 507.33 871.14 550.56 878.4 582.87 889.38 614.65 911.22 634.21 945.2 666.65 928.87 948.85 804.61 926.32 867.1 956.28 887.51 1088 843.34 1134.21 861.07 1274.65 790.49 1353.67 794.52 1416.14 900.38 1437.55 915.99 1459.61 797.69 1514.22 798.99 1562.66 786.04 1632.88 750.38 1678.34 831.62 1733.81 834.44 1730.12 721.65 1849.34 857.46 1854.43 824.1 1858.93 713.61 1898.03 765.13 1928.63 799.51 2053.83 765.68 2172.86 843.08 2179.64 774.55 2201.18 711.74 2275.22 797.91 2321.01 842.63 2321.64 746 2374.09 750.44 2416.99 797.88 2416.9 697.07 2493.12 746.06 2460.17 687.87" style="fill: none;stroke: #000;stroke-miterlimit: 10;stroke-width: 0.7029617247332653px"/>
    <polyline points="52.32 921.52 192.98 885.95 208.91 909.1 273.35 923.09 395.38 867.03 491.49 855.38 500.95 876.06 544.76 882.41 575.56 895.61 603.08 920.85 622.44 955.6 654.18 939.91 941.03 814.57 917.7 877.58 947.69 898.48 1081.44 854.49 1128.94 870.65 1270.84 802.05 1351.01 807.02 1414.61 913.36 1435.91 929.46 1457.63 810.37 1513.06 812.25 1562.29 799.11 1633.71 763.35 1679.84 845.38 1735.94 848.68 1731.99 733.94 1853.81 872.67 1857.95 836.01 1862.6 726.77 1901.76 778.29 1932.82 814.28 2060.7 780.4 2182.18 858.9 2188.87 788.31 2210.38 723.29 2285.97 813.7 2332.42 858.93 2332.05 761.16 2385.4 766.23 2429.1 814.4 2428.79 710.98 2506.51 762.42 2472.45 703.5" style="fill: none;stroke: #000;stroke-miterlimit: 10;stroke-width: 0.6946764333894923px"/>
    <polyline points="39.26 924.22 182.35 888.55 198.21 913.06 263.4 928.43 387.61 871.45 485.66 859.47 494.56 880.98 538.96 886.42 568.24 901.83 591.52 930.47 610.67 966 641.72 950.96 933.22 824.54 909.08 888.05 939.1 909.46 1074.88 865.65 1123.68 880.22 1267.04 813.61 1348.34 819.52 1413.07 926.34 1434.27 942.93 1455.64 823.05 1511.9 825.5 1561.93 812.17 1634.54 776.33 1681.34 859.14 1738.08 862.92 1733.87 746.24 1858.28 887.88 1861.47 847.93 1866.28 739.93 1905.48 791.45 1937.01 829.06 2067.58 795.12 2191.49 874.73 2198.1 802.06 2219.57 734.84 2296.72 829.48 2343.83 875.22 2342.47 776.33 2396.71 782.02 2441.21 830.91 2440.69 724.89 2519.9 778.78 2484.72 719.13" style="fill: none;stroke: #000;stroke-miterlimit: 10;stroke-width: 0.6863911420457193px"/>
    <polyline points="26.2 926.91 171.72 891.16 187.51 917.02 253.44 933.77 379.84 875.86 479.82 863.55 488.18 885.9 533.16 890.43 560.93 908.05 579.95 940.1 598.9 976.39 629.25 962.01 925.41 834.5 900.47 898.52 930.5 920.44 1068.32 876.81 1118.42 889.8 1263.23 825.16 1345.67 832.02 1411.53 939.32 1432.63 956.41 1453.66 835.73 1510.73 838.76 1561.56 825.23 1635.37 789.31 1682.83 872.9 1740.21 877.16 1735.74 758.53 1862.76 903.09 1864.99 859.84 1869.95 753.09 1909.21 804.61 1941.2 843.83 2074.46 809.84 2200.8 890.56 2207.32 815.82 2228.76 746.38 2307.46 845.26 2355.24 891.52 2352.89 791.49 2408.02 797.81 2453.32 847.42 2452.58 738.8 2533.29 795.13 2497 734.75" style="fill: none;stroke: #000;stroke-miterlimit: 10;stroke-width: 0.6781058507019462px"/>
    <polyline points="13.14 929.6 161.09 893.76 176.8 920.98 243.48 939.11 372.07 880.28 473.99 867.63 481.79 890.82 527.36 894.45 553.62 914.28 568.38 949.73 587.13 986.79 616.79 973.06 917.59 844.47 891.85 908.99 921.91 931.42 1061.76 887.97 1113.15 899.37 1259.42 836.72 1343 844.52 1409.99 952.29 1431 969.88 1451.68 848.41 1509.57 852.02 1561.19 838.29 1636.2 802.28 1684.33 886.65 1742.35 891.39 1737.62 770.83 1867.23 918.3 1868.51 871.75 1873.63 766.25 1912.94 817.76 1945.39 858.6 2081.34 824.56 2210.11 906.39 2216.55 829.57 2237.96 757.93 2318.21 861.05 2366.64 907.82 2363.31 806.65 2419.33 813.6 2465.43 863.93 2464.48 752.71 2546.68 811.49 2509.27 750.38" style="fill: none;stroke: #000;stroke-miterlimit: 10;stroke-width: 0.6698205593581731px"/>
    <polyline points="0.08 932.3 150.46 896.37 166.1 924.94 233.53 944.44 364.3 884.69 468.15 871.71 475.41 895.74 521.56 898.46 546.3 920.5 556.82 959.36 575.37 997.19 604.32 984.11 909.78 854.43 883.23 919.47 913.31 942.4 1055.2 899.12 1107.89 908.95 1255.61 848.28 1340.33 857.03 1408.45 965.27 1429.36 983.36 1449.7 861.09 1508.4 865.27 1560.83 851.35 1637.03 815.26 1685.82 900.41 1744.48 905.63 1739.5 783.12 1871.7 933.51 1872.03 883.67 1877.3 779.41 1916.67 830.92 1949.58 873.38 2088.21 839.28 2219.41 922.21 2225.78 843.33 2247.15 769.47 2328.96 876.83 2378.05 924.11 2373.73 821.81 2430.64 829.39 2477.53 880.45 2476.37 766.62 2560.08 827.84 2521.55 766.01" style="fill: none;stroke: #000;stroke-miterlimit: 10;stroke-width: 0.661535268191382px"/>
  </g>
</svg>
