<?xml version="1.0" encoding="utf-8"?>
<!-- Generator: Adobe Illustrator 25.0.1, SVG Export Plug-In . SVG Version: 6.00 Build 0)  -->
<svg version="1.1" id="illu_serious-gaming" xmlns="http://www.w3.org/2000/svg" xmlns:xlink="http://www.w3.org/1999/xlink"
	 x="0px" y="0px" viewBox="0 0 1280 729.9" style="enable-background:new 0 0 1280 729.9;" xml:space="preserve">
<g id="horizontals">
	<path id="Path_764" style="fill:none;stroke:#000000;stroke-miterlimit:10;" d="M3.7,720.6c271.4,0,542.9,0,814.3,0
		c93.4,0,186.8,0,280.2,0c34.1,0,68.5,0,102.6,0c26.8,0.1,53.8-0.3,80.5,0.7"/>
	<path id="Path_765" style="fill:none;stroke:#000000;stroke-miterlimit:10;" d="M4.8,710.9c279-0.6,558,0.2,837-0.7
		c35,0.3,70.3-0.6,105.3-1.3c50.5-1,101-2,151.5-3c29.5-0.8,59.2-0.7,88.7-0.7c31.3,0,62.7-0.3,94,0.9"/>
	<path id="Path_766" style="fill:none;stroke:#000000;stroke-miterlimit:10;" d="M6.4,701.6c56.8-1,113.8-0.1,170.7-0.4
		c68.5,1.1,137.1,2.6,205.6,3.8c79.2,0.7,158.4,0.1,237.6,0.3c23,0,46.5,0,69.5,0c26.6-0.5,53.4-1.1,80-0.9
		c64.8,0.3,129.7-1.7,194.5-2.8c105.4-1.5,210.9-6.3,316.3-3.3"/>
	<path id="Path_767" style="fill:none;stroke:#000000;stroke-miterlimit:10;" d="M8.3,692.7c83.4-1.8,167,0,250.4,1.7
		c105.6,1.9,211.2,4.6,316.8,3.9c57,0,114.1,0.3,171-1.2c75.2,0.3,150.6-2.2,225.8-3.4c45.9-0.9,91.8-2,137.7-2.9
		c57.4-1.3,114.9-2.9,172.3-0.9"/>
	<path id="Path_768" style="fill:none;stroke:#000000;stroke-miterlimit:10;" d="M10.7,684c82.3-2,164.8,0.7,247.1,2.1
		c82.1,1.5,164.3,3,246.4,4.5c49,0.3,98.1,0,147.1,0.1c53-0.2,106-1.4,159-2.1c49.9-0.8,99.9-1.9,149.7-4.2
		c107.1-3.5,214.3-11.6,321.5-8.1"/>
	<path id="Path_769" style="fill:none;stroke:#000000;stroke-miterlimit:10;" d="M13.5,675.7c79.9-2.3,159.8,0.9,239.7,2.1
		c68.2,1.3,136.6,2.5,204.8,3.7c58.7,1.3,117.5,1.7,176.2,1.5c65.5,0.4,131-1.8,196.4-2.8c59-1.5,118.1-4.5,177.1-6.7
		c91.5-2.9,183.1-10.5,274.7-7.4"/>
	<path id="Path_770" style="fill:none;stroke:#000000;stroke-miterlimit:10;" d="M16.6,667.6c80.6-2.3,161.3,1.3,241.9,2.3
		c66.8,1.2,133.6,2.4,200.4,3.6c64.4,1.3,128.9,2.3,193.3,1.9c113.4-0.5,226.8-3.3,339.9-10.9c96.6-5.3,193.3-15.2,290.1-12"/>
	<path id="Path_771" style="fill:none;stroke:#000000;stroke-miterlimit:10;" d="M20.2,659.8c49.5-1.6,99.1-0.3,148.6,0.7
		c60.1,0.8,120.3,3.7,180.3,5.7c45.4,1.9,91.1,2.7,136.5,3.4c122.2,2.7,244.4,2.8,366.5-2.3c60.5-2.7,121-6.3,181.3-11.3
		c19.9-1.6,40.1-3.7,60.1-4.8c62.9-4,125.9-9.7,189-7.2"/>
	<path id="Path_772" style="fill:none;stroke:#000000;stroke-miterlimit:10;" d="M24.1,652.3c84.7-2.3,169.5,1.4,254.1,4.4
		c62.5,2.1,125.2,4.6,187.7,6.5c121.7,2.5,243.5,4.3,365.1-1.2c82-3.4,163.7-11.1,245.4-18.2c68.1-6,136.4-13.3,204.8-10.9"/>
	<path id="Path_773" style="fill:none;stroke:#000000;stroke-miterlimit:10;" d="M28.4,645.1c87.7-2.6,175.5,2.2,263.2,5.1
		c71.3,2.5,142.7,4.9,214,7.4c142.1,3.1,284.5,4.2,426.2-8.6c53.8-4.2,107.5-10.8,161.2-16.7c62.8-6.8,125.9-13.9,189.1-11.9"/>
	<path id="Path_774" style="fill:none;stroke:#000000;stroke-miterlimit:10;" d="M33,638.2c71.8-2.5,143.8,1.2,215.6,3.6
		c54.1,1.9,108.4,3.8,162.5,5.6c157.7,5.4,315.9,11.1,473.4-1.1c66.4-5.2,132.6-12.9,198.6-21.5c66.2-7.4,132.6-17.6,199.4-15.5"/>
	<path id="Path_775" style="fill:none;stroke:#000000;stroke-miterlimit:10;" d="M38,631.4c69.1-2.5,138.2,1.2,207.3,3.5
		c48.7,1.4,97.5,4.6,146.1,6.7c186.6,6.2,374.2,15.6,560-7.1c43.1-5.1,86.2-11.3,129.2-17.2c66.6-9.2,133.3-20.8,200.7-19"/>
	<path id="Path_776" style="fill:none;stroke:#000000;stroke-miterlimit:10;" d="M43.3,625c79.6-3,159.4,1.7,238.9,5.1
		c75.7,3.7,151.5,8.3,227.2,10.4c104.4,3.7,209,6,313.3,1.1c75-4.2,149.6-13.9,223.6-26.3c78.1-12.1,156.3-29.7,235.7-28.3"/>
	<path id="Path_777" style="fill:none;stroke:#000000;stroke-miterlimit:10;" d="M49,618.7c74.9-2.9,150,1.4,224.8,4.8
		c54.2,2.8,108.6,5.4,162.8,8.1c124.4,5.9,249.1,10.4,373.6,5.7c82.2-3.5,163.9-15.6,244.7-30.8c75.1-13.7,150.4-32.1,227.1-31.1"/>
	<path id="Path_778" style="fill:none;stroke:#000000;stroke-miterlimit:10;" d="M54.9,612.7c75.8-3.3,151.9,1.6,227.7,5.1
		c50.6,2.5,101.3,5,151.9,7.5c68.3,3.5,136.7,6.5,205,7.8c99.6,1.9,199.8,2.2,298.5-13.1c56.6-8.4,112.8-19.8,168.9-31.1
		c57.5-11.6,115.3-25,174.2-24.2"/>
	<path id="Path_779" style="fill:none;stroke:#000000;stroke-miterlimit:10;" d="M61.2,606.9c80.8-3.7,161.8,2.1,242.5,5.8
		c70,3.4,140.2,6.8,210.2,10.2c115.4,4.8,231.3,9.5,346.6,1.3c71.1-6.5,141.2-19.8,210.7-36c69.6-15.1,139-36.3,210.8-36"/>
	<path id="Path_780" style="fill:none;stroke:#000000;stroke-miterlimit:10;" d="M67.8,601.3c77.7-3.8,155.6,1.8,233.2,5.3
		c52,2.5,104.1,5.3,156.1,7.7c77.3,3.8,154.7,7.6,232.1,8.6c108.2,2.6,216.9-2.2,322.4-27.8c89.9-18.4,177.4-54.4,270.1-55.4"/>
	<path id="Path_781" style="fill:none;stroke:#000000;stroke-miterlimit:10;" d="M74.7,595.9c72.8-4.2,145.7,1,218.4,4.3
		c46.2,2.1,92.6,5.6,138.8,8.3c38,2.4,76.3,3.8,114.3,5.7c107.6,4.9,215.6,8.4,323.1,1.2c68.5-7,136-21.1,202.1-40.2
		c69.4-19.3,138.6-45.1,211.4-45.7"/>
	<path id="Path_782" style="fill:none;stroke:#000000;stroke-miterlimit:10;" d="M81.9,590.7c67.2-4.4,134.8,0,202,3.1
		c57.1,2.7,114.3,6.9,171.4,10.3c61,3.7,122.2,6.6,183.3,8.5c102.3,2.2,206.1,6.9,307.1-12.5c56.4-10.5,111.7-26.3,166.1-44.5
		c55.4-17,111.3-37.2,169.9-37.3"/>
	<path id="Path_783" style="fill:none;stroke:#000000;stroke-miterlimit:10;" d="M89.4,585.7c78.4-5.3,157.1,0.8,235.4,4.5
		c66.7,4,133.6,8.7,200.4,12.1c77.9,3.8,156,7.3,234,7c75,0.1,150.4-3.2,223.4-21.8c48.7-11.3,96.1-27.7,143.4-43.8
		c50.5-17.5,101.8-36.2,155.8-36.8"/>
	<path id="Path_784" style="fill:none;stroke:#000000;stroke-miterlimit:10;" d="M97.1,580.8c90.3-6.4,181,1.4,271.3,6.2
		c69.8,4.1,139.7,9,209.6,12c106.8,4.6,214.1,8.7,320.7-0.8c63.1-8.2,124.8-24.8,184.3-46.9c65-22.5,128.8-55.3,198.9-56.3"/>
	<path id="Path_785" style="fill:none;stroke:#000000;stroke-miterlimit:10;" d="M105.2,576.1c86.6-6.8,173.6,0.5,260.2,4.9
		c72.4,4.2,144.8,9.4,217.2,12.5c110.5,4.4,221.8,10,331.9-2.4c66.5-9.8,131-30.3,192.8-56.3c56.3-22.7,113.2-50.6,175.1-51.8"/>
	<path id="Path_786" style="fill:none;stroke:#000000;stroke-miterlimit:10;" d="M113.4,571.6c83-7.2,166.6-0.7,249.7,3.4
		c75.5,4.4,151.1,9.6,226.6,12.9c70.3,3.3,140.8,5.6,211.2,4.2c75.5-0.6,151.4-7.6,223.1-32.8c39.4-12.8,77.3-29.6,115-46.7
		c45.2-20,92-40.7,142.3-41.5"/>
	<path id="Path_787" style="fill:none;stroke:#000000;stroke-miterlimit:10;" d="M121.9,567.2c92.4-9,185.6-0.5,278.1,4
		c73.4,4.4,146.9,9.1,220.3,12c101,3.6,202.7,6.9,303.2-5c58.4-9.2,114.9-27.7,168.6-52.3c61.1-26.1,120.2-64.7,188.6-66"/>
	<path id="Path_788" style="fill:none;stroke:#000000;stroke-miterlimit:10;" d="M130.7,562.9c91-10.2,183-1.8,274.2,2.2
		c80.8,4.8,161.8,9.8,242.7,12.6c99.3,2.3,199.9,6.5,298.2-9.7c62.7-11.6,122.2-35.8,178.6-65.1c49.8-25.1,100.9-54.5,158.2-55.3"/>
	<path id="Path_789" style="fill:none;stroke:#000000;stroke-miterlimit:10;" d="M139.6,558.7c86.8-10.9,174.6-2.8,261.7,0.2
		c78.9,4.5,157.9,9.4,236.9,12c71.6,2.4,143.3,3.8,214.8,0c72.6-2.5,144.7-16.4,210.9-46.8c72-29.7,136.4-86.6,217.4-88.2"/>
	<path id="Path_790" style="fill:none;stroke:#000000;stroke-miterlimit:10;" d="M148.8,554.7c91.7-12.5,184.9-3.7,277-0.7
		c64,2.8,128.2,5.7,192.2,8.5c75.2,2.4,150.5,4.5,225.7,0.6c79-2.8,158.2-16.5,229.4-52c68.8-30.9,130.8-86.5,209.4-88.1"/>
	<path id="Path_791" style="fill:none;stroke:#000000;stroke-miterlimit:10;" d="M158.2,550.8c87.5-13.8,176.9-5.8,265.1-3.2
		c59.7,2.6,119.5,5.2,179.2,7.8c78.4,2.7,156.9,4.8,235.3,0.9c73.4-3.3,147.7-13,215.1-43.7c32.1-14.2,62.4-32,92.3-50.3
		c41.4-25.3,85.9-51.1,135.8-50.7"/>
	<path id="Path_792" style="fill:none;stroke:#000000;stroke-miterlimit:10;" d="M167.9,546.9c82.8-13.7,167.4-6.8,250.9-5.4
		c71,2.8,142.1,6.6,213.1,8.2c71.2,2,142.6,2.5,213.8-1.5c79.1-4.1,158.9-17.4,229.5-54.9c67.9-32.2,127.5-92,206.5-92.6"/>
	<path id="Path_793" style="fill:none;stroke:#000000;stroke-miterlimit:10;" d="M178.1,543c85.2-13.8,172.3-8,258.2-6.5
		c61.9,1.7,123.9,3.9,185.8,5.2c75.8,1.3,151.7,2,227.4-3.2c81.6-4.3,163.6-20.3,235.4-60.8c63.9-32.5,121.7-87.8,197-88.9"/>
	<path id="Path_794" style="fill:none;stroke:#000000;stroke-miterlimit:10;" d="M188.7,538.9c85.2-14,172.3-8.6,258.3-8.3
		c52.7,0.8,105.6,1.5,158.3,2.3c76.7,1,153.6,1.1,230.2-3.9c69.2-4.5,139.4-12.8,203.3-41.1c36.5-15.4,70.6-35.8,103.7-57.4
		c42.1-26.8,87.2-55.2,138.8-55.7"/>
	<path id="Path_795" style="fill:none;stroke:#000000;stroke-miterlimit:10;" d="M199.8,534.8c78.4-13.4,158.5-10,237.7-10.7
		c77.3,0.6,154.8,2.1,232.1,1.3c66.1-0.8,132.2-2.5,198-8.8c67.4-5.9,134.8-19.3,195.2-50.8c28.6-14,55.4-31.1,82.2-48.2
		c41.4-26.7,86-54.5,136.8-55"/>
	<path id="Path_796" style="fill:none;stroke:#000000;stroke-miterlimit:10;" d="M211.2,530.6c80.4-14,162.8-11.3,244.1-12.6
		c70.2,0,140.5,0.4,210.7-1.1c68.1-1.4,136.2-3.9,203.9-11.2c67.5-6.2,134.3-21.3,194.6-53c28.4-14.5,55.3-31.6,82.2-48.7
		c41.2-25.9,85.3-52.9,135.5-53.8"/>
	<path id="Path_797" style="fill:none;stroke:#000000;stroke-miterlimit:10;" d="M223,526.4c77.9-13.8,157.6-12.7,236.5-14.8
		c67.6-1.2,135.4-1.5,203-3.8c68.3-2,136.5-5.4,204.4-13.1c66.5-6.9,132.7-21,192.3-52.3c28.7-14.5,56.1-31.5,83.3-48.7
		c42.3-27.1,87.6-55.1,139.3-56.2"/>
	<path id="Path_798" style="fill:none;stroke:#000000;stroke-miterlimit:10;" d="M235.2,522.1c73.1-13.5,148.1-14,222.2-16.9
		c69.5-2.3,139.2-3.5,208.7-6.8c66.1-2.9,132.2-7.1,197.9-15.2c60.1-7.3,120.5-18.3,175.4-44.7c34.6-15.6,66.9-35.7,99.1-55.6
		c43.5-27.9,89.9-57.2,143.2-58.5"/>
	<path id="Path_799" style="fill:none;stroke:#000000;stroke-miterlimit:10;" d="M247.6,517.7c72.6-14.4,147.1-15.6,220.9-19.5
		c64.5-3.1,129.2-5.2,193.7-9.1c69.8-4.1,139.7-9.2,209-19.1c68.9-8.6,136.7-26.5,197.7-60.4c26.3-14.3,51.7-30.1,77.2-45.9
		c41.2-26.1,85.8-51.9,135.9-53.3"/>
	<path id="Path_800" style="fill:none;stroke:#000000;stroke-miterlimit:10;" d="M260.2,513.3c76.4-15.5,154.8-17.5,232.4-22.9
		c68.4-4.3,137-7.6,205.3-13.3c128.7-12.1,264.5-19.2,378.6-86.1c66.2-35.2,126.8-91.6,205.2-94.6"/>
	<path id="Path_801" style="fill:none;stroke:#000000;stroke-miterlimit:10;" d="M273.1,508.8c69.4-15,140.7-18.6,211.3-24.5
		c61.3-4.9,122.8-8.8,184-14.5c65.2-5.8,130.3-12.6,194.9-23.4c58.6-9.7,117.1-22.8,170.9-48.6c34.2-16.1,66.7-35.4,98.5-55.7
		c45.5-28.1,93.6-58.1,148.7-59.5"/>
	<path id="Path_802" style="fill:none;stroke:#000000;stroke-miterlimit:10;" d="M286.2,504.3c70.7-16.1,143.5-20.5,215.5-27.8
		c77.5-7.1,155.1-14,232.3-23.3c79.2-10.3,159-21,235.6-44.4c42.4-13.8,82.7-33.5,121.1-56c59.7-34.7,118.6-81.3,190.4-83.5"/>
	<path id="Path_803" style="fill:none;stroke:#000000;stroke-miterlimit:10;" d="M299.4,499.8c67.9-16.4,138-22.2,207.3-30.3
		c58.1-6.4,116.3-12.2,174.2-19.8c122.6-17.1,249.7-30,362-85.6c79-36.6,148.1-104.8,239-108.3"/>
	<path id="Path_804" style="fill:none;stroke:#000000;stroke-miterlimit:10;" d="M312.7,495.2c56.6-14.6,114.9-21.3,172.7-29.1
		c31.4-4.1,63.1-8.1,94.5-12c72.6-9.3,145.1-19.5,217.1-32.3c73.6-14,147.9-28.8,216.7-59.2c38.2-16.8,74.3-37.6,109.8-59.4
		c48.9-28.7,100.4-59.5,158.7-60.5"/>
	<path id="Path_805" style="fill:none;stroke:#000000;stroke-miterlimit:10;" d="M326.1,490.7c68.1-18.3,138.4-26.5,208-37.1
		c56.5-7.8,112.9-17.1,169.2-26.2c106.5-19.1,215.2-37.3,314.5-81.9c39.4-17.6,76.2-39.9,113.3-61.8c46.2-27.1,96-53.8,150.9-54.4"
		/>
	<path id="Path_806" style="fill:none;stroke:#000000;stroke-miterlimit:10;" d="M339.5,486.1c83.3-24,170-33.1,255-49.2
		c138.8-25.3,280.5-46.6,411.3-101.7c39-17.1,76.1-38.1,112.6-59.8c50.6-28.8,104-59.5,163.9-60.2"/>
	<path id="Path_807" style="fill:none;stroke:#000000;stroke-miterlimit:10;" d="M352.9,481.5c50.6-15,102.7-24.1,154.5-34.1
		c28-5.7,56.4-11.3,84.5-16.8c136.7-27.2,275.4-52.7,404.5-106.7c39.8-17.1,77.6-38.1,115-59.8c52.4-29.8,107.7-61.5,169.6-62.1"/>
	<path id="Path_808" style="fill:none;stroke:#000000;stroke-miterlimit:10;" d="M366.3,476.9c51.8-17,105.7-26.6,158.7-39
		c21.7-4.8,43.8-9.6,65.5-14.3c136.1-29.7,273.5-59,402.1-113.8c40.1-17.2,78.4-38.3,116.2-60c53.5-29.9,110-61.4,172.9-61.8"/>
	<path id="Path_809" style="fill:none;stroke:#000000;stroke-miterlimit:10;" d="M379.6,472.3c68.4-22.6,139.2-37.4,209.1-54.7
		c132.4-31.7,265.6-63.9,391.1-117.5c44.8-18.6,87.3-42.3,129.6-65.9c53.7-29.1,110.3-59.1,172.9-59.4"/>
	<path id="Path_810" style="fill:none;stroke:#000000;stroke-miterlimit:10;" d="M392.8,467.7c68.7-24.3,140-41,210.4-59.8
		c123.4-33.4,247.7-66.1,364.7-118.3c44.3-17.8,86.4-40.4,128.1-63.5c57.4-31.5,118.1-64.4,185.3-64.5"/>
	<path id="Path_811" style="fill:none;stroke:#000000;stroke-miterlimit:10;" d="M405.8,463.2c66-24.5,134.4-41.9,201.8-62.2
		c120.6-35.4,242.1-70.7,356.3-124c45.9-18.6,89.5-42.3,133-65.9c57.6-30.5,118.6-62.4,185.5-62.1"/>
	<path id="Path_812" style="fill:none;stroke:#000000;stroke-miterlimit:10;" d="M418.7,458.6c57.6-22.9,117.5-39.9,176.5-59.1
		c114.4-36.4,229.3-72.6,338.6-122.6c50.1-23.2,100.5-45.5,148.8-72.4c61.8-33.2,127.3-68.3,199.3-67.7"/>
	<path id="Path_813" style="fill:none;stroke:#000000;stroke-miterlimit:10;" d="M431.4,454.1c56.5-23.4,115.2-41.7,172.8-62.1
		c115.1-39.8,230.9-79.2,340-133.8c44.6-20.6,89.1-41.2,132.2-64.8c64.3-33.4,131.7-69.7,206.1-68.8"/>
	<path id="Path_814" style="fill:none;stroke:#000000;stroke-miterlimit:10;" d="M443.8,449.7c55.6-24.2,113.3-43.8,170-65.4
		c113.3-42.3,227.3-84.6,334.1-141.7c40.7-18.9,81.3-38.3,121-59.4c66.1-34.9,136-71.4,212.6-70.7"/>
	<path id="Path_815" style="fill:none;stroke:#000000;stroke-miterlimit:10;" d="M456,445.2c49.5-22.3,100.6-41.4,150.9-61.9
		c104.9-41.8,210-83.9,309.8-136.8c25.7-14.8,52.2-27.5,79-40.1c22.5-11,44.9-22.5,67.2-34c68.4-35.3,140.3-73,219.2-72"/>
	<path id="Path_816" style="fill:none;stroke:#000000;stroke-miterlimit:10;" d="M467.8,440.9c47.3-22.1,95.8-41.8,143.7-62.6
		c105-44.9,210.2-90.4,309.9-146.3c43.2-25.7,89.7-44.9,134-68.5c70.5-36.4,144.8-75.1,226.2-73.8"/>
	<path id="Path_817" style="fill:none;stroke:#000000;stroke-miterlimit:10;" d="M479.2,436.5c41.5-19.9,83.8-38.7,125.7-57.8
		c104-46.9,207.2-95.6,306.6-151.6c23.1-13.1,45.3-27.6,69.7-38.1c21.8-10.3,42.9-22,64.4-32.8c73.6-38.1,150.9-79,236-77.2"/>
	<path id="Path_818" style="fill:none;stroke:#000000;stroke-miterlimit:10;" d="M490.3,432.3c90.1-43.9,181.3-85.9,270.3-132.2
		c65.8-34.2,131.1-69.6,193.8-109.2c28.9-13.7,56.9-29,85.3-43.8c75.4-38.9,155-80.4,242.1-78.9"/>
	<path id="Path_819" style="fill:none;stroke:#000000;stroke-miterlimit:10;" d="M501,428.1c72.2-36,144.3-72.3,215.7-109.8
		c57.8-30.7,114.9-62.9,171.3-96c33.8-20.2,66-43,101.8-59.6c11.9-6.2,24.1-12.7,36-18.9c79.9-41.4,164-86.9,256.5-85"/>
	<path id="Path_820" style="fill:none;stroke:#000000;stroke-miterlimit:10;" d="M511.1,424c108.5-54.8,215.3-113,319.7-175.3
		c28.1-16.7,56.1-33.7,83.6-51.3c23.4-15.4,46.5-30.9,72.1-42.6c13.3-6.9,26.8-14.1,40.1-21c79.1-41.7,163-85.4,254.7-83.5"/>
	<path id="Path_821" style="fill:none;stroke:#000000;stroke-miterlimit:10;" d="M520.8,419.9c107.5-55.7,212.5-116.5,315.5-180.2
		c37.1-22.8,73.7-46.5,109.7-70.9c7.3-5.5,15.6-9.9,23.7-14.1c14.7-7.9,29.6-16.2,44.2-24.2c83.2-44.3,171.3-91.9,268.2-89.8"/>
	<path id="Path_822" style="fill:none;stroke:#000000;stroke-miterlimit:10;" d="M530,416c110-57.3,215.5-123.2,320.1-189.7
		c37.5-23.7,73.6-49.6,110.6-73.9c14.6-8,29.4-16.2,44-24.2c85.6-46.9,176.8-96.8,277.2-94.9"/>
	<path id="Path_823" style="fill:none;stroke:#000000;stroke-miterlimit:10;" d="M538.6,412.1c69.3-35.2,135.2-77.1,200.8-118.7
		c44.6-28.2,88.9-57.1,132.7-86.6c29.7-19.7,58.7-40.8,88.2-60.8c14.5-8.4,29.3-16.7,43.7-25.3c85.3-48.2,177-97.2,277.6-95.6"/>
	<path id="Path_824" style="fill:none;stroke:#000000;stroke-miterlimit:10;" d="M546.5,408.3c58.1-28.4,112.2-64.3,166.7-99
		c55.5-35.8,110.1-73,164.4-110.5c37.1-24.8,72.1-53,110.9-75.2c89.4-53,186.1-107.3,293.1-106.1"/>
	<path id="Path_825" style="fill:none;stroke:#000000;stroke-miterlimit:10;" d="M553.9,404.7c74.9-35.8,142.9-84.8,211.7-131
		c40.2-28,80.7-55.7,120.6-84.1c25.1-17.8,50.1-35.9,75.1-53.8c97.3-60.4,202-125.3,320.3-124.5"/>
	<path id="Path_826" style="fill:none;stroke:#000000;stroke-miterlimit:10;" d="M560.6,401.1c42.6-18.4,81.3-44.7,120.2-69.9
		c40.3-26.5,79.7-54.3,119.3-81.8c30.8-21.9,61.7-43.9,92.3-65.9c113.6-81.7,244.2-177.7,389.7-178"/>
</g>
<g id="verticals">
	<path id="Path_827_1_" style="fill:none;stroke:#000000;stroke-miterlimit:10;" d="M1270.4,0.7c0.2,243.4-0.9,486.9,0.4,730.3"/>
	<path id="Path_828_1_" style="fill:none;stroke:#000000;stroke-miterlimit:10;" d="M1259.2,1.3c-2.2,121.8,2.5,243.6,1.1,365.4
		c0.7,121.4-6.3,242.8-3.6,364.2"/>
	<path id="Path_829_1_" style="fill:none;stroke:#000000;stroke-miterlimit:10;" d="M1247.9,2.3c-3.1,129.6,5.8,259.3,2.4,388.9
		c1.6,113.1-10.5,226.1-6.4,339.2"/>
	<path id="Path_830_1_" style="fill:none;stroke:#000000;stroke-miterlimit:10;" d="M1236.7,3.6c-3.6,135.8,7.2,271.8,2.4,407.7
		c1.6,108.1-15.6,215.8-9.6,323.9"/>
	<path id="Path_831_1_" style="fill:none;stroke:#000000;stroke-miterlimit:10;" d="M1225.6,5.3c-4,138.3,9.6,277,3.6,415.4
		c1.1,105.1-20.8,209.2-14,314.4"/>
	<path id="Path_832_1_" style="fill:none;stroke:#000000;stroke-miterlimit:10;" d="M1214.5,7.4c-3.8,53.6,0.8,107.7,2.2,161.4
		c3.1,83.5,6.7,167.1,3,250.6c1.4,105.5-26.6,209.6-19.3,315.2"/>
	<path id="Path_833_1_" style="fill:none;stroke:#000000;stroke-miterlimit:10;" d="M1203.4,9.8c-4,43.3,0.1,87.1,1.2,130.5
		c3.1,94.5,9.3,189.2,4.6,283.7c0.4,102.8-31.7,203.3-25.7,306.2"/>
	<path id="Path_834_1_" style="fill:none;stroke:#000000;stroke-miterlimit:10;" d="M1192.4,12.6c-4.4,56.4,1.6,113.3,3.9,169.8
		c4.3,81.2,8.4,162.6,4.4,243.9c-0.5,103.9-39.5,204.4-32.1,308.6"/>
	<path id="Path_835_1_" style="fill:none;stroke:#000000;stroke-miterlimit:10;" d="M1181.4,15.6c-5.1,49.8,1.1,100.2,3,150.1
		c4.6,89.2,11.3,178.6,5.7,267.9c-1.6,100.4-45.8,195.9-40.1,296.8"/>
	<path id="Path_836_1_" style="fill:none;stroke:#000000;stroke-miterlimit:10;" d="M1170.4,19c-5.3,44.7,1,90,2.6,134.8
		c4.6,96.3,13.7,192.9,7,289.3c-4.1,97.5-52.4,188.7-47.6,287"/>
	<path id="Path_837_1_" style="fill:none;stroke:#000000;stroke-miterlimit:10;" d="M1159.5,22.7c-5.9,52.5,1.9,105.8,4.7,158.4
		c6.1,88.2,13.6,177,7.2,265.4c-4.9,98.7-63,188.6-55.8,288.6"/>
	<path id="Path_838_1_" style="fill:none;stroke:#000000;stroke-miterlimit:10;" d="M1148.6,26.7c-6.2,43.9,0.6,88.9,2.9,133
		c5.1,73.6,11.6,147.2,12.1,221c0.6,52.1-3.5,104.7-20,154.4c-21,65.2-52.6,129.9-48,200.2"/>
	<path id="Path_839_1_" style="fill:none;stroke:#000000;stroke-miterlimit:10;" d="M1137.7,30.9c-6.7,45.9,1.4,92.7,3.6,138.8
		c6.4,72,12.6,144.1,13.2,216.4c0.8,51.8-3.8,104-22.4,152.7c-23.6,63.5-58.7,126.1-54.7,195.9"/>
	<path id="Path_840_1_" style="fill:none;stroke:#000000;stroke-miterlimit:10;" d="M1126.9,35.5c-7.3,44.6,1.1,90.5,3.6,135.4
		c6.4,73,13.5,146,14.3,219.3c0.6,49.3-2.9,99.4-22,145.3c-24.8,63.7-66.2,124.4-64.6,195.2"/>
	<path id="Path_841_1_" style="fill:none;stroke:#000000;stroke-miterlimit:10;" d="M1116,40.3c-7.1,37.5-0.5,76.5,1.8,114.3
		c4.9,55.9,10.1,111.7,13.9,167.7c3.3,73.7,10,151.7-22.9,220.2c-27.2,61-71.7,118.2-70.8,187.9"/>
	<path id="Path_842_1_" style="fill:none;stroke:#000000;stroke-miterlimit:10;" d="M1105.2,45.3c-7.6,34.2-1.2,70,0.6,104.6
		c4.8,56.3,11.5,112.5,15.2,168.9c4.2,78.5,13.1,163.2-27.9,234.1c-30.7,58-77.5,113.3-75.5,182.4"/>
	<path id="Path_843_1_" style="fill:none;stroke:#000000;stroke-miterlimit:10;" d="M1094.4,50.6c-7.9,34.5-1.6,70.7,0.5,105.7
		c5,57.1,12.1,114,15.9,171.2c4.2,77.1,13.7,161.3-30.5,229.3c-32.3,55.1-82.1,105.9-83.1,173.4"/>
	<path id="Path_844_1_" style="fill:none;stroke:#000000;stroke-miterlimit:10;" d="M1083.7,56.1c-8.9,34.3-1.8,70.8,0,105.8
		c4.9,55.3,11.7,110.4,15.7,165.8c3.1,44.6,5.6,89.5,2,134.2c-1.3,34.5-14.3,67.2-33,95.9c-34.9,54.7-90.5,103.2-92.6,172.4"/>
	<path id="Path_845_1_" style="fill:none;stroke:#000000;stroke-miterlimit:10;" d="M1072.9,61.9c-9.6,34.5-2.2,71.4-0.3,106.6
		c4.8,51.9,10.8,103.8,15,155.8c3.3,40.6,5.6,81.5,4.1,122.3c0,39.9-10.6,79.2-34.4,111.5c-37.3,55.2-99.6,100.7-103,172.3"/>
	<path id="Path_846_1_" style="fill:none;stroke:#000000;stroke-miterlimit:10;" d="M1062.2,67.9c-10.8,36.5-2.2,75.9-0.3,113.3
		c5.4,54.5,11.4,109,15.5,163.6c3.3,50.7,6.3,102.1-1.9,152.4c-5.6,26.4-20,50.1-36.5,71.2C999.8,619,937.3,660.9,932.7,730"/>
	<path id="Path_847_1_" style="fill:none;stroke:#000000;stroke-miterlimit:10;" d="M1051.5,74.1c-5.8,12.5-5.5,26.8-5.7,40.4
		c0,22.6,1.9,45.2,3.9,67.7c4.9,52.9,11.1,105.9,15.3,158.9c3.7,50.4,6.8,101.3-0.3,151.5c-3.9,30-20.8,56.8-40.2,79.4
		c-41.5,49.1-108.4,88-114,158"/>
	<path id="Path_848_1_" style="fill:none;stroke:#000000;stroke-miterlimit:10;" d="M1040.8,80.4c-12.7,31.4-4.8,70.1-3.3,103.3
		c4.8,53.4,11,106.7,15.3,160.1c3.7,52.3,7.1,105.5-1.3,157.5c-4.8,30.1-23.6,56-44.2,77.6c-43.4,46.4-112.2,81.8-119,151.4"/>
	<path id="Path_849_1_" style="fill:none;stroke:#000000;stroke-miterlimit:10;" d="M1030.1,87c-12.9,28.8-6,66.3-5,97.2
		c4.2,49.1,9.6,98.3,13.9,147.4c3.7,44.1,6.5,88.4,4.1,132.6c-1.5,46.1-12,80.3-45.8,113.1c-45.7,48.5-123,80-132,153.3"/>
	<path id="Path_850_1_" style="fill:none;stroke:#000000;stroke-miterlimit:10;" d="M1019.4,93.8c-20.1,34.7,1.2,155.6,3.4,201.5
		c5.2,53.5,9.8,107.2,7.8,161c-1.2,51.4-10.6,91.7-51.1,126.6C932,628.5,853.2,657,843.1,729.8"/>
	<path id="Path_851_1_" style="fill:none;stroke:#000000;stroke-miterlimit:10;" d="M1008.7,100.7c-19.9,31.1-4.8,119.6-2.7,158.5
		c5.8,77.6,26.7,212.9-5.1,282.7C975,589.7,923.7,614,881.7,645.2c-28.8,20.7-57.2,48.4-61.3,85.4"/>
	<path id="Path_852_1_" style="fill:none;stroke:#000000;stroke-miterlimit:10;" d="M998.1,107.7c-21.6,29.7-6.6,118.9-5,157.3
		c5.7,76.6,25.5,212.7-8,280.6c-27.5,47.8-80.6,70.3-124.2,100.3c-29.4,20-59.7,46.4-64,83.8"/>
	<path id="Path_853_1_" style="fill:none;stroke:#000000;stroke-miterlimit:10;" d="M987.4,114.9c-23,27.8-9.5,112.9-8.1,149.7
		c4.6,82.3,24.6,206.7-9,282c-28,49.9-84.7,71.4-130.7,101c-30.2,18.9-61.8,44.7-66.2,82.4"/>
	<path id="Path_854_1_" style="fill:none;stroke:#000000;stroke-miterlimit:10;" d="M976.7,122.3c-25.1,26-11.8,113.2-10.8,149.5
		c4.7,81.7,22.5,202.1-11.4,276.9c-28.7,50.9-87.6,71.1-135.1,99.9c-31,18.1-64.1,43.4-68.9,81.5"/>
	<path id="Path_855_1_" style="fill:none;stroke:#000000;stroke-miterlimit:10;" d="M966,129.8c-25.8,23.7-14.7,106.9-14.3,141.6
		c3.5,84.8,20.2,198.2-13.4,276.9c-29,53.3-91.4,72.5-141,101.3c-31.7,17.4-65.5,42.1-70.6,80.5"/>
	<path id="Path_856_1_" style="fill:none;stroke:#000000;stroke-miterlimit:10;" d="M955.2,137.5c-26.5,26.3-16.7,105.3-17.2,142
		c1.2,83.4,15,192.3-18.5,269.4c-30.6,52.9-93.7,71.7-144.1,100.4c-31.9,17.5-66.8,41.4-72.7,80.1"/>
	<path id="Path_857_1_" style="fill:none;stroke:#000000;stroke-miterlimit:10;" d="M944,145.5c-26,25.3-18.7,104.2-19.8,140.2
		c-0.5,82.6,10.4,189.7-24,265.6c-32.8,51.8-95.8,69.8-146.7,98.3c-32.1,17.5-67.5,41-74.3,79.7"/>
	<path id="Path_858_1_" style="fill:none;stroke:#000000;stroke-miterlimit:10;" d="M932.5,153.7c-26.2,26-21,103.1-23.1,139.7
		c-3.1,79.5,5.2,191.3-31.6,262.3c-36.1,50.5-99.8,67.7-151.6,97.1c-31,17-64.1,40.3-71.2,77.3"/>
	<path id="Path_859_1_" style="fill:none;stroke:#000000;stroke-miterlimit:10;" d="M920.9,162.1c-26.9,27-23.6,101.2-26.6,138.9
		c-4.5,83.9,0.4,172.5-33.9,251c-37.3,54.3-105.7,71.2-160.2,102.8c-29.7,16.7-60.9,39.7-67.8,75.1"/>
	<path id="Path_860_1_" style="fill:none;stroke:#000000;stroke-miterlimit:10;" d="M909,170.7c-27.1,26.2-26.3,99.7-30.4,136.9
		c-7.1,77.9-5.3,180-42.9,249.3C796.9,606,733.3,623,680.6,652.5c-31.4,17.1-64.7,40.3-72.7,77.4"/>
	<path id="Path_861_1_" style="fill:none;stroke:#000000;stroke-miterlimit:10;" d="M896.9,179.4c-28,28.7-28.4,96.6-34.1,135.8
		c-9.7,75.3-10.9,179.5-51.1,244.5c-39.9,46.4-101.4,63.5-153.3,92.5c-31.5,17.1-65.3,40.6-73.5,77.8"/>
	<path id="Path_862_1_" style="fill:none;stroke:#000000;stroke-miterlimit:10;" d="M884.7,188.3c-27.9,26.8-31,91-37.8,128.5
		c-12.6,80.3-15.7,165.9-54.8,238.8c-40.4,48.5-104.1,66-157.5,95.8c-31.9,17.3-65.3,41.1-74.1,78.3"/>
	<path id="Path_863_1_" style="fill:none;stroke:#000000;stroke-miterlimit:10;" d="M872.3,197.3c-29.8,28.7-35.2,96.6-43.7,136.7
		c-12.9,72.6-20.8,148.6-55.2,214.9c-37.5,54.8-111.7,71.8-166.3,104.9c-30.2,17-60.8,40.9-69.2,76.2"/>
	<path id="Path_864_1_" style="fill:none;stroke:#000000;stroke-miterlimit:10;" d="M859.8,206.3c-29.7,27-37.6,89.6-47.1,128
		c-12.9,61.6-23.9,124.4-47.6,183c-10.7,28.7-27.2,50.9-53.5,67.1c-39,26.6-83.9,42.7-124.9,65.8c-31.6,17.8-64.4,42-73.2,79.1"/>
	<path id="Path_865_1_" style="fill:none;stroke:#000000;stroke-miterlimit:10;" d="M847.2,215.4c-29.6,26.5-36.7,73.9-48.1,110.5
		c-14.7,58-27.4,116.9-48.9,172.9c-9.2,21.5-17.8,44.4-33.8,61.8C672,603.3,611,621.4,559,652.6c-30.1,17.7-60.4,41.8-68.6,77.5"/>
	<path id="Path_866_1_" style="fill:none;stroke:#000000;stroke-miterlimit:10;" d="M834.6,224.6c-29.4,25.6-37.7,67.2-50.5,102.5
		c-17.3,56.5-31.7,114.1-54.9,168.6c-21.4,52.2-39.8,74.5-89.6,101.7C580.5,633,487.9,656,467.7,730"/>
	<path id="Path_867_1_" style="fill:none;stroke:#000000;stroke-miterlimit:10;" d="M821.9,233.8c-30.2,24.4-40.3,65.2-54.7,99.8
		c-19.6,54.9-36.4,111-61.3,163.8c-21.3,46.8-42.1,72.2-87.8,96.9c-60.1,37-153.6,59.6-173.9,135.7"/>
	<path id="Path_868_1_" style="fill:none;stroke:#000000;stroke-miterlimit:10;" d="M809.2,242.9c-31.8,24.6-43.9,66.3-60.5,101.5
		c-18.9,47.3-36.7,95.3-59.3,141c-22,45.1-43.3,77.8-88.4,102.6c-61.2,39.4-159.2,62.9-179.7,141.2"/>
	<path id="Path_869_1_" style="fill:none;stroke:#000000;stroke-miterlimit:10;" d="M796.5,252.1c-31.2,22.5-45.3,61-62.7,94
		c-20.5,44.4-39.5,89.7-62.7,132.8c-22,41.9-48.5,82.9-91.3,105.8c-62.4,40.7-160.7,64.4-181.3,145.1"/>
	<path id="Path_870_1_" style="fill:none;stroke:#000000;stroke-miterlimit:10;" d="M783.8,261.1c-31.6,21.8-47.9,58.9-66.8,91.2
		c-22.7,42.8-43.7,86.4-68.4,128c-23.8,40.7-52.2,79.8-94.3,102.9c-62.3,40.4-158.5,65.5-178.1,146.2"/>
	<path id="Path_871_1_" style="fill:none;stroke:#000000;stroke-miterlimit:10;" d="M771.2,270.1c-32.3,20.7-50.5,56.7-71,88
		c-24.8,41.3-47.8,83.8-74.5,124c-25.5,39.5-55.5,77.2-97.2,100.4C466.4,622.6,372.8,649,354,729.6"/>
	<path id="Path_872_1_" style="fill:none;stroke:#000000;stroke-miterlimit:10;" d="M758.6,279c-31.5,19.1-51.6,51.6-72.8,80.8
		c-23.6,34.4-46,69.7-70,103.8c-29.7,42.1-61.3,85-106.2,112c-64.1,43.1-160.1,68.7-179.2,153.4"/>
	<path id="Path_873_1_" style="fill:none;stroke:#000000;stroke-miterlimit:10;" d="M746.2,287.8c-33.4,19.1-55.5,52.6-79.3,82
		c-28.9,38.3-56.6,77.7-87,114.9c-29.4,36.5-62.4,70.8-103.3,94.4c-62.2,40-151.4,69-168.1,150.2"/>
	<path id="Path_874_1_" style="fill:none;stroke:#000000;stroke-miterlimit:10;" d="M733.9,296.4c-33.5,18.6-57.5,50.2-82.2,78.8
		C623.6,409.3,597,444.6,568,478c-32.3,37.6-67.9,73.1-110.6,98.8c-62.7,40.3-151.3,71.2-167.1,153.3"/>
	<path id="Path_875_1_" style="fill:none;stroke:#000000;stroke-miterlimit:10;" d="M721.7,304.9c-35.5,19-62.4,50.5-89.7,79.4
		c-32.9,36.2-64.5,73.6-99,108.3c-34.6,35.6-73.2,67.1-116.3,91.7c-58.4,35.3-135.2,70-147.5,144.8"/>
	<path id="Path_876_1_" style="fill:none;stroke:#000000;stroke-miterlimit:10;" d="M709.7,313.1c-34.9,17.5-62.5,46.5-90.4,73.2
		c-32.8,32.6-64.2,66.5-98,97.9c-36.8,35.6-77.4,67.4-121.1,94.1c-60.3,36.9-140.1,73.1-151.7,151"/>
	<path id="Path_877_1_" style="fill:none;stroke:#000000;stroke-miterlimit:10;" d="M697.9,321.2c-36.8,17.8-66.6,46.8-97.2,73.2
		c-30.7,27.9-61,56.3-92.1,83.7c-41.6,37.1-86.5,70.4-134.1,99.4c-59.9,36.6-136.5,74.7-147.2,151.8"/>
	<path id="Path_878_1_" style="fill:none;stroke:#000000;stroke-miterlimit:10;" d="M686.3,329c-36.1,16.7-66.4,43.3-97.5,67.7
		c-36.2,29.6-71.7,60.3-108.4,89.4c-39.8,32.3-82.6,60.6-125.8,88c-60.4,37.2-137.4,77-146.9,155.2"/>
	<path id="Path_879_1_" style="fill:none;stroke:#000000;stroke-miterlimit:10;" d="M674.9,336.5c-45.5,21.1-84.6,53.7-124.8,83.1
		c-43.2,32.5-85.7,66.2-130.6,96.4c-33.5,21.7-66.9,43.4-100.7,64.5c-56.5,34.6-123.4,76.7-130.4,149"/>
	<path id="Path_880_1_" style="fill:none;stroke:#000000;stroke-miterlimit:10;" d="M663.8,343.7c-47.9,21.8-90.3,53.8-133.7,83.2
		c-38.5,26.9-76.8,54.1-116.1,79.8c-37.8,23.8-76.2,46.3-113.6,70.7c-57.7,34.9-124.6,78.9-131.1,152.4"/>
	<path id="Path_881_1_" style="fill:none;stroke:#000000;stroke-miterlimit:10;" d="M653.1,350.7c-45.4,19.6-86.5,48-128.4,74
		c-37.4,23.7-74.7,47.9-112.4,71.2c-42.1,26-85.9,48.9-127.5,75.8c-59.1,36-127.3,81.6-133,157.2"/>
	<path id="Path_882_1_" style="fill:none;stroke:#000000;stroke-miterlimit:10;" d="M642.6,357.2c-46.2,19.8-89.1,46.7-132.6,71.7
		c-28.8,16.8-57.3,34.4-86.2,51c-36.3,21.2-72.8,42.2-110.5,60.8c-15.5,9.1-30.7,19.2-46.2,28.4c-60.3,36-128.3,83.7-133.2,160.2"/>
	<path id="Path_883_1_" style="fill:none;stroke:#000000;stroke-miterlimit:10;" d="M632.5,363.5c-74,32.6-143.3,75-214.7,112.8
		c-39.2,21.4-78.6,42.2-118.8,61.6c-20.9,10.3-40,24.3-60,36.3c-57.5,34.5-117.9,83.6-121.6,155.8"/>
	<path id="Path_884_1_" style="fill:none;stroke:#000000;stroke-miterlimit:10;" d="M622.7,369.3c-83.5,36.5-163.4,81.1-245.3,121.2
		c-36.2,18.4-73.1,35.4-109.7,52.8c-15.1,9.2-30.6,18.1-45.5,27.5c-58.8,34.7-119,85.5-122.1,158.9"/>
	<path id="Path_885_1_" style="fill:none;stroke:#000000;stroke-miterlimit:10;" d="M613.3,374.8c-79.3,34.9-156.9,73.9-235.6,110
		c-28.7,13.5-57.6,26.8-86.5,39.8c-18,8.4-37,15.2-53.9,25.7c-69.7,39.1-149.6,90.9-152.8,179.4"/>
	<path id="Path_886_1_" style="fill:none;stroke:#000000;stroke-miterlimit:10;" d="M604.3,379.8c-75.6,33.6-151.1,67.7-226.8,101
		c-45.3,19.9-90.9,39.7-136.5,59c-77.3,38.5-169.2,93.7-172.2,190.3"/>
	<path id="Path_887_1_" style="fill:none;stroke:#000000;stroke-miterlimit:10;" d="M595.8,384.4c-88.2,39.7-178.2,75.9-267.5,113.1
		c-35.9,14.6-71.9,29.6-107.9,44.1c-76.9,37.7-163.8,92.5-165.9,187.9"/>
	<path id="Path_888_1_" style="fill:none;stroke:#000000;stroke-miterlimit:10;" d="M587.7,388.5c-90,42-183.8,75.4-276.1,112.1
		c-36.2,14.1-72.5,28.1-108.5,42.6c-78,36.5-160.5,90.9-162.6,186.2"/>
	<path id="Path_889_1_" style="fill:none;stroke:#000000;stroke-miterlimit:10;" d="M580.1,392.1c-54.2,26.9-111.6,47.1-168,69.1
		c-37.6,14.4-75.7,28.2-113.4,42.3C189.5,545.1,31.9,589.3,27.4,730"/>
	<path id="Path_890_1_" style="fill:none;stroke:#000000;stroke-miterlimit:10;" d="M573.1,395.1c-61.1,31.6-127.2,52.4-191.7,76
		c-29.1,10.5-58.5,20.8-87.6,31.2c-111.9,41.3-274.6,82-279.2,227"/>
</g>
</svg>
