<svg id="illu-radar" xmlns="http://www.w3.org/2000/svg" xmlns:xlink="http://www.w3.org/1999/xlink" viewBox="0 0 2560 800"><defs><clipPath id="clip-path"><polygon id="graph" points="1920.34 719.06 1901.87 610.93 1883.74 779.99 1866.3 716.97 1848.12 647.94 1829.76 658.97 1811.51 654.14 1793.81 706.47 1775.9 638.5 1757.34 665.32 1757.29 665.4 1739.29 783.73 1721.98 787.44 1704.03 677.8 1685.37 650.99 1667.18 732.53 1649.24 738.24 1631.22 766.32 1613.83 770.69 1595.85 607.78 1595.67 606.12 1577 651.23 1576.98 651.28 1559.39 784.46 1541.77 638.82 1541.57 637.21 1522.89 681.73 1505.14 785.69 1487.37 734.93 1468.92 763.52 1451.29 781.78 1433.54 750.55 1414.93 734.37 1397.23 788.43 1379.5 694.18 1379.44 693.85 1360.7 693.11 1342.94 793.06 1325.42 729.09 1306.9 647.81 1288.56 762.49 1271.15 774.26 1253.29 720.83 1235.15 679.77 1216.58 680.26 1198.45 719.43 1180.42 751.79 1163.04 785.64 1144.74 623.77 1126.74 793.15 1108.83 615.78 1090.26 712.81 1072.26 773.12 1054.78 794.26 1037.01 739 1018.98 649.24 1000.4 623.93 982.08 676.2 964.56 791.66 946.61 620.64 928.07 703.83 910.15 706.72 892.13 732.95 874.6 734.5 856.13 696.97 838.3 797.52 820.68 695.66 802.18 598.13 784.02 723.52 766.43 677.78 747.77 685.07 730.13 794.73 712.34 686.14 694.15 715.16 675.98 672.59 657.81 735.08 640 719.06 0 719.06 0 720.06 639.84 720.06 658.25 736.62 676.13 675.13 694.01 717.01 711.87 688.52 730.14 800.07 748.54 685.69 765.94 678.89 784.4 726.89 802.29 603.33 819.84 695.82 838.29 802.48 856.51 699.69 874.09 735.4 892.61 733.77 910.65 707.51 928.78 704.58 946.3 625.94 964.4 798.39 982.91 676.41 1000.67 625.74 1018.16 649.5 1036.18 739.22 1054.45 796.02 1072.97 773.59 1073.03 773.53 1091.09 713.01 1108.57 621.71 1126.71 801.46 1144.77 631.63 1162.51 788.56 1181.17 752.19 1199.21 719.82 1217.13 681.1 1234.6 680.64 1252.49 721.14 1270.7 775.61 1289.35 762.99 1307.05 652.32 1324.59 729.29 1343.12 796.95 1361.41 694 1378.73 694.68 1397 791.87 1415.35 735.87 1432.83 751.04 1451.11 783.2 1469.58 764.05 1487.14 736.87 1505.42 789.1 1523.7 681.97 1541.11 640.52 1559.35 791.28 1577.82 651.5 1595.18 609.53 1613.03 771.27 1613.08 771.76 1631.76 767.07 1649.8 738.97 1667.91 733.2 1685.79 653.08 1703.2 678.03 1721.21 788.02 1721.29 788.47 1740.04 784.44 1758.1 665.72 1775.55 640.52 1793.71 709.45 1812.07 655.18 1829.89 659.89 1847.58 649.26 1865.47 717.2 1884.11 784.55 1902.06 617.15 1919.64 720.06 1920 720.06 1920.51 720.06 2560 720.06 2560 719.06 1920.34 719.06" style="fill:none"/></clipPath></defs><g id="clipgroup"><g style="clip-path:url(#clip-path)"><rect id="filler" x="-0.21" y="598.13" width="640.21" height="201.87" style="fill:#231f20"/></g></g></svg>