<svg id="outlook" xmlns="http://www.w3.org/2000/svg" viewBox="0 0 1319.59 797.59"><polygon points="2.76 686.79 34.28 578.36 108.92 600.06 183.55 621.75 152.02 730.18 2.76 686.79" style="fill:#fff;stroke:#f4f4f4;stroke-miterlimit:10;stroke-width:0.6879060266099434px"/><polygon points="1.12 686.02 34.75 576.17 110.35 599.32 186.17 622.68 152.54 732.52 1.12 686.02" style="fill:#fff;stroke:#f2f2f2;stroke-miterlimit:10;stroke-width:0.6907176840959538px"/><polygon points="0.44 685.38 36.17 574.13 112.73 598.71 189.74 623.74 154.01 735 0.44 685.38" style="fill:#fff;stroke:#f0f0f0;stroke-miterlimit:10;stroke-width:0.693529341512633px"/><polygon points="0.67 684.88 38.51 572.21 116.04 598.24 194.23 624.93 156.39 737.59 0.67 684.88" style="fill:#fff;stroke:#ededed;stroke-miterlimit:10;stroke-width:0.6963409989293122px"/><polygon points="1.78 684.48 41.72 570.4 120.22 597.87 199.6 626.22 159.66 740.3 1.78 684.48" style="fill:#fff;stroke:#ebebeb;stroke-miterlimit:10;stroke-width:0.6991526563459914px"/><polygon points="3.72 684.17 45.77 568.68 125.23 597.59 205.81 627.61 163.76 743.1 3.72 684.17" style="fill:#fff;stroke:#e9e9e9;stroke-miterlimit:10;stroke-width:0.7019643137626707px"/><polygon points="6.47 683.94 50.63 567.04 131.05 597.39 212.81 629.08 168.66 745.98 6.47 683.94" style="fill:#fff;stroke:#e7e7e7;stroke-miterlimit:10.000000000000002;stroke-width:0.70477597117935px"/><polygon points="9.98 683.77 56.24 565.46 137.63 597.25 220.58 630.6 174.32 748.92 9.98 683.77" style="fill:#fff;stroke:#e5e5e5;stroke-miterlimit:10;stroke-width:0.7075876285960291px"/><polygon points="14.2 683.65 62.57 563.92 144.93 597.16 229.06 632.17 180.7 751.9 14.2 683.65" style="fill:#fff;stroke:#e2e2e2;stroke-miterlimit:10;stroke-width:0.7103992860127083px"/><polygon points="19.11 683.55 69.58 562.41 152.91 597.09 238.23 633.78 187.76 754.92 19.11 683.55" style="fill:#fff;stroke:#e0e0e0;stroke-miterlimit:10;stroke-width:0.7132109434293875px"/><polygon points="24.66 683.47 77.24 560.92 161.53 597.04 248.04 635.39 195.47 757.95 24.66 683.47" style="fill:#fff;stroke:#dedede;stroke-miterlimit:10;stroke-width:0.7160226008460667px"/><polygon points="30.82 683.39 85.5 559.42 170.75 596.99 258.46 637 203.78 760.97 30.82 683.39" style="fill:#fff;stroke:#dcdcdc;stroke-miterlimit:10;stroke-width:0.7188342582627459px"/><polygon points="37.54 683.29 94.32 557.91 180.54 596.92 269.44 638.6 212.65 763.98 37.54 683.29" style="fill:#fff;stroke:#dadada;stroke-miterlimit:10;stroke-width:0.7216459156794252px"/><polygon points="44.78 683.15 103.67 556.36 190.86 596.82 280.94 640.16 222.05 766.95 44.78 683.15" style="fill:#fff;stroke:#d7d7d7;stroke-miterlimit:10;stroke-width:0.7244575730961044px"/><polygon points="52.51 682.97 113.51 554.77 201.66 596.66 292.93 641.67 231.93 769.88 52.51 682.97" style="fill:#fff;stroke:#d5d5d5;stroke-miterlimit:10;stroke-width:0.7272692305127835px"/><polygon points="60.69 682.72 123.8 553.11 212.91 596.44 305.37 643.12 242.27 772.73 60.69 682.72" style="fill:#fff;stroke:#d3d3d3;stroke-miterlimit:10;stroke-width:0.7300808879294628px"/><polygon points="69.28 682.39 134.49 551.36 224.57 596.14 318.22 644.48 253.01 775.51 69.28 682.39" style="fill:#fff;stroke:#d1d1d1;stroke-miterlimit:10;stroke-width:0.732892545346142px"/><polygon points="78.24 681.97 145.55 549.52 236.6 595.75 331.43 645.75 264.12 778.19 78.24 681.97" style="fill:#fff;stroke:#cfcfcf;stroke-miterlimit:10;stroke-width:0.7357042027628212px"/><polygon points="87.53 681.43 156.95 547.57 248.96 595.24 344.98 646.91 275.56 780.76 87.53 681.43" style="fill:#fff;stroke:#ccc;stroke-miterlimit:10;stroke-width:0.7385158601795005px"/><polygon points="97.11 680.76 168.63 545.49 261.61 594.6 358.82 647.93 287.3 783.2 97.11 680.76" style="fill:#fff;stroke:#cacaca;stroke-miterlimit:10;stroke-width:0.7413275175961797px"/><polygon points="106.94 679.95 180.57 543.27 274.51 593.82 372.91 648.82 299.28 785.5 106.94 679.95" style="fill:#fff;stroke:#c8c8c8;stroke-miterlimit:10;stroke-width:0.7441391750128589px"/><polygon points="116.98 678.97 192.72 540.88 287.63 592.88 387.21 649.54 311.48 787.63 116.98 678.97" style="fill:#fff;stroke:#c6c6c6;stroke-miterlimit:10;stroke-width:0.7469508324295381px"/><polygon points="127.2 677.83 205.04 538.32 300.92 591.76 401.69 650.09 323.85 789.59 127.2 677.83" style="fill:#fff;stroke:#c4c4c4;stroke-miterlimit:10;stroke-width:0.7497624898462174px"/><polygon points="137.56 676.49 217.5 535.57 314.35 590.45 416.31 650.44 336.36 791.36 137.56 676.49" style="fill:#fff;stroke:#c1c1c1;stroke-miterlimit:10;stroke-width:0.7525741472628965px"/><polygon points="148.01 674.94 230.06 532.61 327.87 588.93 431.02 650.59 348.97 792.92 148.01 674.94" style="fill:#fff;stroke:#bfbfbf;stroke-miterlimit:10;stroke-width:0.7553858046795758px"/><polygon points="158.51 673.17 242.67 529.43 341.45 587.19 445.78 650.51 361.63 794.26 158.51 673.17" style="fill:#fff;stroke:#bdbdbd;stroke-miterlimit:10;stroke-width:0.758197462096255px"/><polygon points="169.04 671.16 255.3 526 355.04 585.21 460.57 650.2 374.31 795.35 169.04 671.16" style="fill:#fff;stroke:#bbb;stroke-miterlimit:10;stroke-width:0.7610091195129343px"/><polygon points="179.55 668.89 267.91 522.33 368.62 582.98 475.33 649.63 386.97 796.2 179.55 668.89" style="fill:#fff;stroke:#b9b9b9;stroke-miterlimit:10;stroke-width:0.7638207769296135px"/><polygon points="189.99 666.36 280.46 518.38 382.14 580.47 490.04 648.79 399.57 796.77 189.99 666.36" style="fill:#fff;stroke:#b6b6b6;stroke-miterlimit:10;stroke-width:0.7666324343462927px"/><polygon points="200.34 663.54 292.92 514.15 395.55 577.68 504.64 647.66 412.07 797.06 200.34 663.54" style="fill:#fff;stroke:#b4b4b4;stroke-miterlimit:10;stroke-width:0.7694440917629719px"/><polygon points="210.55 660.41 305.23 509.61 408.83 574.59 519.11 646.24 424.43 797.04 210.55 660.41" style="fill:#fff;stroke:#b2b2b2;stroke-miterlimit:10;stroke-width:0.7722557491796511px"/><polygon points="220.58 656.97 317.37 504.76 421.93 571.17 533.4 644.49 436.61 796.71 220.58 656.97" style="fill:#fff;stroke:#b0b0b0;stroke-miterlimit:10;stroke-width:0.7750674065963303px"/><polygon points="230.39 653.2 329.29 499.57 434.82 567.43 547.48 642.41 448.58 796.04 230.39 653.2" style="fill:#fff;stroke:#aeaeae;stroke-miterlimit:10;stroke-width:0.7778790640130095px"/><polygon points="239.95 649.07 340.95 494.03 447.45 563.33 561.29 639.98 460.3 795.02 239.95 649.07" style="fill:#fff;stroke:#ababab;stroke-miterlimit:10;stroke-width:0.7806907214296888px"/><polygon points="249.22 644.58 352.32 488.13 459.79 558.87 574.82 637.18 471.71 793.64 249.22 644.58" style="fill:#fff;stroke:#a9a9a9;stroke-miterlimit:10;stroke-width:0.783502378846368px"/><polygon points="258.15 639.71 363.36 481.84 471.79 554.03 588.01 634.01 482.8 791.87 258.15 639.71" style="fill:#fff;stroke:#a7a7a7;stroke-miterlimit:10;stroke-width:0.7863140362630472px"/><polygon points="266.71 634.44 374.02 475.16 483.42 548.79 600.83 630.43 493.51 789.71 266.71 634.44" style="fill:#fff;stroke:#a5a5a5;stroke-miterlimit:10;stroke-width:0.7891256936797264px"/><polygon points="274.86 628.76 384.28 468.07 494.64 543.14 613.24 626.45 503.82 787.14 274.86 628.76" style="fill:#fff;stroke:#a3a3a3;stroke-miterlimit:10;stroke-width:0.7919373510964056px"/><polygon points="282.56 622.65 394.08 460.54 505.41 537.06 625.2 622.03 513.67 784.13 282.56 622.65" style="fill:#fff;stroke:#a0a0a0;stroke-miterlimit:10;stroke-width:0.7947490085130848px"/><polygon points="289.77 616.09 403.4 452.58 515.69 530.53 636.66 617.17 523.03 780.69 289.77 616.09" style="fill:#fff;stroke:#9e9e9e;stroke-miterlimit:10;stroke-width:0.797560665929764px"/><polygon points="296.45 609.08 412.18 444.15 525.44 523.55 647.6 611.85 531.87 776.78 296.45 609.08" style="fill:#fff;stroke:#9c9c9c;stroke-miterlimit:10;stroke-width:0.8003723233464433px"/><polygon points="302.56 601.59 420.4 435.25 534.63 516.09 657.98 606.06 540.13 772.4 302.56 601.59" style="fill:#fff;stroke:#9a9a9a;stroke-miterlimit:10;stroke-width:0.8031839807631224px"/><polygon points="308.07 593.6 428.01 425.85 543.21 508.14 667.74 599.77 547.8 767.52 308.07 593.6" style="fill:#fff;stroke:#989898;stroke-miterlimit:10;stroke-width:0.8059956381798017px"/><polygon points="312.93 585.11 434.98 415.95 551.14 499.68 676.86 592.98 554.81 762.14 312.93 585.11" style="fill:#fff;stroke:#959595;stroke-miterlimit:10;stroke-width:0.8088072955964809px"/><polygon points="317.1 576.1 441.26 405.52 558.38 490.69 685.3 585.66 561.14 756.24 317.1 576.1" style="fill:#fff;stroke:#939393;stroke-miterlimit:10;stroke-width:0.8116189530131601px"/><polygon points="320.56 566.55 446.82 394.56 564.91 481.17 693.01 577.8 566.75 749.79 320.56 566.55" style="fill:#fff;stroke:#919191;stroke-miterlimit:10;stroke-width:0.8144306104298392px"/><polygon points="323.25 556.44 451.62 383.04 570.67 471.09 699.96 569.39 571.59 742.79 323.25 556.44" style="fill:#fff;stroke:#8f8f8f;stroke-miterlimit:10;stroke-width:0.8172422678465185px"/><polygon points="325.14 545.76 455.61 370.95 575.63 460.44 706.11 560.4 575.63 735.22 325.14 545.76" style="fill:#fff;stroke:#8d8d8d;stroke-miterlimit:10;stroke-width:0.8200539252631978px"/><polygon points="326.18 534.5 458.76 358.27 579.75 449.21 711.41 550.83 578.84 727.06 326.18 534.5" style="fill:#fff;stroke:#8a8a8a;stroke-miterlimit:10;stroke-width:0.822865582679877px"/><polygon points="326.35 522.63 461.04 344.99 582.99 437.37 715.84 540.66 581.16 718.3 326.35 522.63" style="fill:#fff;stroke:#888;stroke-miterlimit:10;stroke-width:0.8256772400965561px"/><polygon points="325.6 510.14 462.39 331.09 585.31 424.92 719.35 529.87 582.56 708.92 325.6 510.14" style="fill:#fff;stroke:#868686;stroke-miterlimit:10;stroke-width:0.8284888975132354px"/><polygon points="323.89 497.02 462.79 316.56 586.67 411.83 721.9 518.45 583.01 698.91 323.89 497.02" style="fill:#fff;stroke:#848484;stroke-miterlimit:10;stroke-width:0.8313005549299146px"/><polygon points="321.48 481.54 462.48 299.66 587.33 396.37 723.75 504.66 582.75 686.53 321.48 481.54" style="fill:#fff;stroke:#828282;stroke-miterlimit:10;stroke-width:0.8341122123465938px"/><polygon points="319.72 465.55 462.82 282.25 588.64 380.41 726.25 490.36 583.14 673.65 319.72 465.55" style="fill:#fff;stroke:#7f7f7f;stroke-miterlimit:10;stroke-width:0.8369238697632729px"/><polygon points="318.74 450.3 463.95 265.6 590.73 365.2 729.53 476.81 584.32 661.51 318.74 450.3" style="fill:#fff;stroke:#7d7d7d;stroke-miterlimit:10;stroke-width:0.8397355271799523px"/><polygon points="318.52 435.79 465.83 249.68 593.58 350.72 733.56 464 586.25 650.11 318.52 435.79" style="fill:#fff;stroke:#7b7b7b;stroke-miterlimit:10;stroke-width:0.8425471845966315px"/><polygon points="319.02 422 468.44 234.47 597.15 336.95 738.33 451.9 588.91 639.43 319.02 422" style="fill:#fff;stroke:#797979;stroke-miterlimit:10;stroke-width:0.8453588420133107px"/><polygon points="320.23 408.9 471.76 219.96 601.43 323.89 743.79 440.5 592.27 629.44 320.23 408.9" style="fill:#fff;stroke:#777;stroke-miterlimit:10;stroke-width:0.8481704994299899px"/><polygon points="322.11 396.49 475.74 206.14 606.39 311.51 749.94 429.78 596.3 620.13 322.11 396.49" style="fill:#fff;stroke:#757575;stroke-miterlimit:10;stroke-width:0.8509821568466691px"/><polygon points="324.64 384.74 480.38 192.98 611.99 299.79 756.72 419.73 600.99 611.49 324.64 384.74" style="fill:#fff;stroke:#727272;stroke-miterlimit:10;stroke-width:0.8537938142633483px"/><polygon points="327.79 373.64 485.63 180.46 618.21 288.72 764.13 410.32 606.29 603.5 327.79 373.64" style="fill:#fff;stroke:#707070;stroke-miterlimit:10;stroke-width:0.8566054716800275px"/><polygon points="331.53 363.17 491.48 168.58 625.01 278.28 772.13 401.55 612.18 596.14 331.53 363.17" style="fill:#fff;stroke:#6e6e6e;stroke-miterlimit:10;stroke-width:0.8594171290967068px"/><polygon points="335.83 353.31 497.88 157.31 632.39 268.45 780.69 393.38 618.64 589.39 335.83 353.31" style="fill:#fff;stroke:#6c6c6c;stroke-miterlimit:10;stroke-width:0.862228786513386px"/><polygon points="340.67 344.05 504.83 146.64 640.3 259.22 789.79 385.82 625.63 583.23 340.67 344.05" style="fill:#fff;stroke:#6a6a6a;stroke-miterlimit:10;stroke-width:0.8650404439300652px"/><polygon points="346.02 335.37 512.28 136.54 648.72 250.57 799.4 378.83 633.14 577.66 346.02 335.37" style="fill:#fff;stroke:#676767;stroke-miterlimit:10;stroke-width:0.8678521013467444px"/><polygon points="351.85 327.25 520.22 127.01 657.62 242.48 809.49 372.41 641.12 572.65 351.85 327.25" style="fill:#fff;stroke:#656565;stroke-miterlimit:10;stroke-width:0.8706637587634236px"/><polygon points="358.14 319.68 528.61 118.03 666.98 234.93 820.04 366.53 649.56 568.18 358.14 319.68" style="fill:#fff;stroke:#636363;stroke-miterlimit:10;stroke-width:0.8734754161801028px"/><polygon points="364.85 312.63 537.43 109.57 676.76 227.92 831.01 361.18 658.43 564.24 364.85 312.63" style="fill:#fff;stroke:#616161;stroke-miterlimit:10;stroke-width:0.8762870735967822px"/><polygon points="371.96 306.1 546.65 101.62 686.95 221.41 842.38 356.34 667.69 560.82 371.96 306.1" style="fill:#fff;stroke:#5f5f5f;stroke-miterlimit:10;stroke-width:0.8790987310134614px"/><polygon points="379.44 300.05 556.24 94.16 697.5 215.4 854.12 351.99 677.33 557.88 379.44 300.05" style="fill:#fff;stroke:#5c5c5c;stroke-miterlimit:10;stroke-width:0.8819103884301406px"/><polygon points="387.27 294.49 566.17 87.19 708.4 209.87 866.21 348.12 687.31 555.42 387.27 294.49" style="fill:#fff;stroke:#5a5a5a;stroke-miterlimit:10;stroke-width:0.8847220458468199px"/><polygon points="395.42 289.38 576.42 80.67 719.61 204.79 878.61 344.71 697.61 553.43 395.42 289.38" style="fill:#fff;stroke:#585858;stroke-miterlimit:10;stroke-width:0.8875337032634991px"/><polygon points="403.85 284.72 586.96 74.59 731.12 200.16 891.3 341.74 708.2 551.87 403.85 284.72" style="fill:#fff;stroke:#565656;stroke-miterlimit:10;stroke-width:0.8903453606801783px"/><polygon points="412.55 280.48 597.76 68.94 742.88 195.95 904.26 339.2 719.04 550.74 412.55 280.48" style="fill:#fff;stroke:#545454;stroke-miterlimit:10;stroke-width:0.8931570180968575px"/><polygon points="421.47 276.65 608.79 63.7 754.88 192.15 917.45 337.07 730.13 550.02 421.47 276.65" style="fill:#fff;stroke:#515151;stroke-miterlimit:10;stroke-width:0.8959686755135368px"/><polygon points="430.61 273.22 620.03 58.85 767.09 188.74 930.84 335.32 741.42 549.69 430.61 273.22" style="fill:#fff;stroke:#4f4f4f;stroke-miterlimit:10;stroke-width:0.898780332930216px"/><polygon points="439.93 270.15 631.45 54.38 779.48 185.71 944.42 333.96 752.89 549.73 439.93 270.15" style="fill:#fff;stroke:#4d4d4d;stroke-miterlimit:10;stroke-width:0.9015919903468952px"/><polygon points="449.39 267.45 643.03 50.26 792.02 183.03 958.14 332.94 764.51 550.13 449.39 267.45" style="fill:#fff;stroke:#4b4b4b;stroke-miterlimit:10;stroke-width:0.9044036477635744px"/><polygon points="458.99 265.08 654.72 46.48 804.68 180.7 971.99 332.27 776.25 550.88 458.99 265.08" style="fill:#fff;stroke:#494949;stroke-miterlimit:10;stroke-width:0.9072153051802536px"/><polygon points="468.67 263.04 666.52 43.02 817.44 178.68 985.94 331.93 788.1 551.94 468.67 263.04" style="fill:#fff;stroke:#464646;stroke-miterlimit:10;stroke-width:0.9100269625969328px"/><polygon points="478.43 261.3 678.38 39.87 830.27 176.97 999.96 331.88 800.01 553.31 478.43 261.3" style="fill:#fff;stroke:#444;stroke-miterlimit:10;stroke-width:0.9128386200136122px"/><polygon points="488.23 259.85 690.29 37.01 843.14 175.56 1014.02 332.13 811.96 554.97 488.23 259.85" style="fill:#fff;stroke:#424242;stroke-miterlimit:10;stroke-width:0.9156502774302914px"/><polygon points="498.05 258.67 702.21 34.42 856.02 174.41 1028.09 332.65 823.93 556.9 498.05 258.67" style="fill:#fff;stroke:#404040;stroke-miterlimit:10;stroke-width:0.9184619348469706px"/><polygon points="507.85 257.75 714.11 32.08 868.9 173.52 1042.15 333.42 835.89 559.08 507.85 257.75" style="fill:#fff;stroke:#3e3e3e;stroke-miterlimit:10;stroke-width:0.9212735922636498px"/><polygon points="517.61 257.06 725.98 29.99 881.73 172.86 1056.17 334.43 847.8 561.51 517.61 257.06" style="fill:#fff;stroke:#3b3b3b;stroke-miterlimit:10;stroke-width:0.924085249680329px"/><polygon points="527.3 256.6 737.77 28.11 894.49 172.43 1070.12 335.66 859.65 564.15 527.3 256.6" style="fill:#fff;stroke:#393939;stroke-miterlimit:10;stroke-width:0.9268969070970082px"/><polygon points="536.89 256.34 749.48 26.44 907.16 172.19 1083.98 337.09 871.4 567 536.89 256.34" style="fill:#fff;stroke:#373737;stroke-miterlimit:10;stroke-width:0.9297085645136876px"/><polygon points="546.37 256.26 761.05 24.95 919.7 172.15 1097.71 338.71 883.02 570.03 546.37 256.26" style="fill:#fff;stroke:#353535;stroke-miterlimit:10;stroke-width:0.9325202219303668px"/><polygon points="555.69 256.36 772.48 23.63 932.1 172.28 1111.29 340.5 894.5 573.23 555.69 256.36" style="fill:#fff;stroke:#333;stroke-miterlimit:10;stroke-width:0.935331879347046px"/><polygon points="564.84 256.6 783.73 22.46 944.31 172.55 1124.7 342.44 905.8 576.58 564.84 256.6" style="fill:#fff;stroke:#303030;stroke-miterlimit:10;stroke-width:0.9381435367637252px"/><polygon points="573.77 256.99 794.78 21.43 956.32 172.96 1137.89 344.52 916.89 580.07 573.77 256.99" style="fill:#fff;stroke:#2e2e2e;stroke-miterlimit:10;stroke-width:0.9409551941804044px"/><polygon points="582.48 257.48 805.59 20.52 968.1 173.49 1150.86 346.71 927.75 583.68 582.48 257.48" style="fill:#fff;stroke:#2c2c2c;stroke-miterlimit:10;stroke-width:0.9437668515970836px"/><polygon points="590.93 258.08 816.14 19.71 979.62 174.12 1163.56 349.01 938.35 587.39 590.93 258.08" style="fill:#fff;stroke:#2a2a2a;stroke-miterlimit:10;stroke-width:0.9465785090137628px"/><polygon points="599.08 258.77 826.4 18.98 990.84 174.84 1175.98 351.39 948.66 591.18 599.08 258.77" style="fill:#fff;stroke:#282828;stroke-miterlimit:10;stroke-width:0.949390166430442px"/><polygon points="606.92 259.52 836.35 18.32 1001.76 175.62 1188.08 353.83 958.66 595.04 606.92 259.52" style="fill:#fff;stroke:#252525;stroke-miterlimit:10;stroke-width:0.9522018238471214px"/><polygon points="614.42 260.32 845.95 17.7 1012.33 176.45 1199.84 356.33 968.31 598.95 614.42 260.32" style="fill:#fff;stroke:#232323;stroke-miterlimit:10;stroke-width:0.9550134812638006px"/><polygon points="621.55 261.15 855.19 17.12 1022.52 177.31 1211.23 358.86 977.59 602.88 621.55 261.15" style="fill:#fff;stroke:#212121;stroke-miterlimit:10;stroke-width:0.9578251386804798px"/><polygon points="628.28 262 864.02 16.56 1032.33 178.19 1222.22 361.4 986.48 606.84 628.28 262" style="fill:#fff;stroke:#1f1f1f;stroke-miterlimit:10;stroke-width:0.960636796097159px"/><polygon points="634.59 262.85 872.43 15.99 1041.7 179.06 1232.78 363.94 994.93 610.79 634.59 262.85" style="fill:#fff;stroke:#1d1d1d;stroke-miterlimit:10;stroke-width:0.9634484535138382px"/><polygon points="640.44 263.67 880.39 15.41 1050.62 179.92 1242.89 366.46 1002.94 614.73 640.44 263.67" style="fill:#fff;stroke:#1a1a1a;stroke-miterlimit:10;stroke-width:0.9662601109305174px"/><polygon points="645.81 264.46 887.87 14.79 1059.07 180.74 1252.52 368.95 1010.47 618.63 645.81 264.46" style="fill:#fff;stroke:#181818;stroke-miterlimit:10;stroke-width:0.9690717683471967px"/><polygon points="650.67 265.2 894.83 14.11 1067 181.51 1261.64 371.39 1017.48 622.48 650.67 265.2" style="fill:#fff;stroke:#161616;stroke-miterlimit:10;stroke-width:0.971883425763876px"/><polygon points="655 265.87 901.27 13.37 1074.4 182.21 1270.23 373.75 1023.96 626.25 655 265.87" style="fill:#fff;stroke:#141414;stroke-miterlimit:10;stroke-width:0.9746950831805552px"/><polygon points="658.76 266.45 907.14 12.54 1081.23 182.82 1278.26 376.03 1029.88 629.94 658.76 266.45" style="fill:#fff;stroke:#121212;stroke-miterlimit:10;stroke-width:0.9775067405972344px"/><polygon points="661.94 266.93 912.42 11.6 1087.48 183.33 1285.69 378.2 1035.21 633.53 661.94 266.93" style="fill:#fff;stroke:#0f0f0f;stroke-miterlimit:10;stroke-width:0.9803183980139136px"/><polygon points="664.5 267.29 917.08 10.55 1093.11 183.72 1292.5 380.25 1039.92 636.99 664.5 267.29" style="fill:#fff;stroke:#0d0d0d;stroke-miterlimit:10;stroke-width:0.9831300554305928px"/><polygon points="666.4 267.5 921.09 9.35 1098.09 183.96 1298.67 382.16 1043.99 640.32 666.4 267.5" style="fill:#fff;stroke:#0b0b0b;stroke-miterlimit:10;stroke-width:0.9859417128472721px"/><polygon points="667.64 267.57 924.44 8 1102.4 184.06 1304.17 383.92 1047.38 643.49 667.64 267.57" style="fill:#fff;stroke:#090909;stroke-miterlimit:10;stroke-width:0.9887533702639513px"/><polygon points="668.18 267.46 927.08 6.48 1106.01 183.98 1308.97 385.51 1050.07 646.48 668.18 267.46" style="fill:#fff;stroke:#070707;stroke-miterlimit:10;stroke-width:0.9915650276806306px"/><polygon points="667.99 267.16 928.99 4.77 1108.89 183.71 1313.04 386.9 1052.03 649.29 667.99 267.16" style="fill:#fff;stroke:#040404;stroke-miterlimit:10;stroke-width:0.9943766850973098px"/><polygon points="667.04 266.65 930.15 2.85 1111.01 183.23 1316.35 388.09 1053.24 651.89 667.04 266.65" style="fill:#fff;stroke:#020202;stroke-miterlimit:10;stroke-width:0.997188342513989px"/><polygon points="1053.66 654.27 665.32 265.92 930.53 0.71 1112.35 182.53 1318.88 389.06 1053.66 654.27" style="fill:#fff;stroke:#000;stroke-miterlimit:10"/><g id="envelopelines"><path d="M888.5,32.13,925.26,355.6a29.86,29.86,0,0,0,26.14,26.27l325.45,38.61" transform="translate(42.03 -31.43)" style="fill:none;stroke:#000;stroke-miterlimit:10"/><line x1="1015.69" y1="353.09" x2="1053.66" y2="654.27" style="fill:none;stroke:#000;stroke-miterlimit:10"/><line x1="665.31" y1="265.92" x2="964.63" y2="300.73" style="fill:none;stroke:#000;stroke-miterlimit:10"/></g></svg>