<?xml version="1.0" encoding="utf-8"?>
<!-- Generator: Adobe Illustrator 25.0.1, SVG Export Plug-In . SVG Version: 6.00 Build 0)  -->
<svg version="1.1" id="illu_serious-gaming" xmlns="http://www.w3.org/2000/svg" xmlns:xlink="http://www.w3.org/1999/xlink"
	 x="0px" y="0px" viewBox="0 0 1280 739.2" style="enable-background:new 0 0 1280 739.2;" xml:space="preserve">
<g id="horizontals">
	<line style="fill:none;stroke:#000000;stroke-miterlimit:10;" x1="9.3" y1="730.9" x2="1280" y2="704.8"/>
	<line style="fill:none;stroke:#000000;stroke-miterlimit:10;" x1="18.4" y1="722.3" x2="1280" y2="669.1"/>
	<line style="fill:none;stroke:#000000;stroke-miterlimit:10;" x1="27.4" y1="713.9" x2="1280" y2="635.4"/>
	<line style="fill:none;stroke:#000000;stroke-miterlimit:10;" x1="36.3" y1="705.5" x2="1280" y2="603.7"/>
	<line style="fill:none;stroke:#000000;stroke-miterlimit:10;" x1="45.1" y1="697.2" x2="1280" y2="573.7"/>
	<line style="fill:none;stroke:#000000;stroke-miterlimit:10;" x1="53.7" y1="689.1" x2="1280" y2="545.4"/>
	<line style="fill:none;stroke:#000000;stroke-miterlimit:10;" x1="62.2" y1="681.1" x2="1280" y2="518.6"/>
	<line style="fill:none;stroke:#000000;stroke-miterlimit:10;" x1="70.6" y1="673.2" x2="1280" y2="493.2"/>
	<line style="fill:none;stroke:#000000;stroke-miterlimit:10;" x1="78.9" y1="665.4" x2="1280" y2="469.1"/>
	<line style="fill:none;stroke:#000000;stroke-miterlimit:10;" x1="87" y1="657.7" x2="1280" y2="446.1"/>
	<line style="fill:none;stroke:#000000;stroke-miterlimit:10;" x1="95.1" y1="650.1" x2="1280" y2="424.2"/>
	<line style="fill:none;stroke:#000000;stroke-miterlimit:10;" x1="103.1" y1="642.6" x2="1280" y2="403.4"/>
	<line style="fill:none;stroke:#000000;stroke-miterlimit:10;" x1="110.9" y1="635.2" x2="1280" y2="383.5"/>
	<line style="fill:none;stroke:#000000;stroke-miterlimit:10;" x1="118.6" y1="628" x2="1280" y2="364.5"/>
	<line style="fill:none;stroke:#000000;stroke-miterlimit:10;" x1="126.3" y1="620.8" x2="1280" y2="346.4"/>
	<line style="fill:none;stroke:#000000;stroke-miterlimit:10;" x1="133.8" y1="613.7" x2="1280" y2="329"/>
	<line style="fill:none;stroke:#000000;stroke-miterlimit:10;" x1="141.3" y1="606.7" x2="1280" y2="312.3"/>
	<line style="fill:none;stroke:#000000;stroke-miterlimit:10;" x1="148.6" y1="599.7" x2="1280" y2="296.4"/>
	<line style="fill:none;stroke:#000000;stroke-miterlimit:10;" x1="155.8" y1="592.9" x2="1280" y2="281"/>
	<line style="fill:none;stroke:#000000;stroke-miterlimit:10;" x1="163" y1="586.2" x2="1280" y2="266.3"/>
	<line style="fill:none;stroke:#000000;stroke-miterlimit:10;" x1="170.1" y1="579.5" x2="1280" y2="252.2"/>
	<line style="fill:none;stroke:#000000;stroke-miterlimit:10;" x1="177.1" y1="572.9" x2="1280" y2="238.5"/>
	<line style="fill:none;stroke:#000000;stroke-miterlimit:10;" x1="183.9" y1="566.4" x2="1280" y2="225.4"/>
	<line style="fill:none;stroke:#000000;stroke-miterlimit:10;" x1="190.7" y1="560" x2="1280" y2="212.8"/>
	<line style="fill:none;stroke:#000000;stroke-miterlimit:10;" x1="197.5" y1="553.7" x2="1280" y2="200.6"/>
	<line style="fill:none;stroke:#000000;stroke-miterlimit:10;" x1="204.1" y1="547.5" x2="1280" y2="188.9"/>
	<line style="fill:none;stroke:#000000;stroke-miterlimit:10;" x1="210.7" y1="541.3" x2="1280" y2="177.5"/>
	<line style="fill:none;stroke:#000000;stroke-miterlimit:10;" x1="217.1" y1="535.2" x2="1280" y2="166.6"/>
	<line style="fill:none;stroke:#000000;stroke-miterlimit:10;" x1="223.5" y1="529.1" x2="1280" y2="156"/>
	<line style="fill:none;stroke:#000000;stroke-miterlimit:10;" x1="229.9" y1="523.2" x2="1280" y2="145.7"/>
	<line style="fill:none;stroke:#000000;stroke-miterlimit:10;" x1="236.1" y1="517.3" x2="1280" y2="135.8"/>
	<line style="fill:none;stroke:#000000;stroke-miterlimit:10;" x1="242.3" y1="511.5" x2="1280" y2="126.2"/>
	<line style="fill:none;stroke:#000000;stroke-miterlimit:10;" x1="248.4" y1="505.7" x2="1280" y2="117"/>
	<line style="fill:none;stroke:#000000;stroke-miterlimit:10;" x1="254.4" y1="500.1" x2="1280" y2="108"/>
	<line style="fill:none;stroke:#000000;stroke-miterlimit:10;" x1="260.4" y1="494.5" x2="1280" y2="99.2"/>
	<line style="fill:none;stroke:#000000;stroke-miterlimit:10;" x1="266.3" y1="488.9" x2="1280" y2="90.8"/>
	<line style="fill:none;stroke:#000000;stroke-miterlimit:10;" x1="272.1" y1="483.4" x2="1280" y2="82.5"/>
	<line style="fill:none;stroke:#000000;stroke-miterlimit:10;" x1="277.9" y1="478" x2="1280" y2="74.6"/>
	<line style="fill:none;stroke:#000000;stroke-miterlimit:10;" x1="283.6" y1="472.6" x2="1280" y2="66.8"/>
	<line style="fill:none;stroke:#000000;stroke-miterlimit:10;" x1="289.2" y1="467.3" x2="1280" y2="59.3"/>
	<line style="fill:none;stroke:#000000;stroke-miterlimit:10;" x1="294.7" y1="462.1" x2="1280" y2="52"/>
	<line style="fill:none;stroke:#000000;stroke-miterlimit:10;" x1="300.3" y1="456.9" x2="1280" y2="44.8"/>
	<line style="fill:none;stroke:#000000;stroke-miterlimit:10;" x1="305.7" y1="451.8" x2="1280" y2="37.9"/>
	<line style="fill:none;stroke:#000000;stroke-miterlimit:10;" x1="311.1" y1="446.7" x2="1280" y2="31.2"/>
	<line style="fill:none;stroke:#000000;stroke-miterlimit:10;" x1="316.4" y1="441.7" x2="1280" y2="24.6"/>
	<line style="fill:none;stroke:#000000;stroke-miterlimit:10;" x1="321.7" y1="436.7" x2="1280" y2="18.2"/>
	<line style="fill:none;stroke:#000000;stroke-miterlimit:10;" x1="326.9" y1="431.8" x2="1280" y2="12"/>
	<line style="fill:none;stroke:#000000;stroke-miterlimit:10;" x1="332" y1="427" x2="1280" y2="5.9"/>
</g>
<g id="verticals">
	<line style="fill:none;stroke:#000000;stroke-miterlimit:10;" x1="1246.8" y1="14.9" x2="1196.6" y2="742.7"/>
	<line style="fill:none;stroke:#000000;stroke-miterlimit:10;" x1="1215" y1="29.1" x2="1121.2" y2="742.5"/>
	<line style="fill:none;stroke:#000000;stroke-miterlimit:10;" x1="1184.3" y1="42.8" x2="1052.7" y2="742.4"/>
	<line style="fill:none;stroke:#000000;stroke-miterlimit:10;" x1="1154.9" y1="56" x2="990.3" y2="742.2"/>
	<line style="fill:none;stroke:#000000;stroke-miterlimit:10;" x1="1126.5" y1="68.7" x2="933.1" y2="742.1"/>
	<line style="fill:none;stroke:#000000;stroke-miterlimit:10;" x1="1099.1" y1="81" x2="880.5" y2="741.9"/>
	<line style="fill:none;stroke:#000000;stroke-miterlimit:10;" x1="1072.8" y1="92.8" x2="832" y2="741.8"/>
	<line style="fill:none;stroke:#000000;stroke-miterlimit:10;" x1="1047.4" y1="104.2" x2="787.1" y2="741.7"/>
	<line style="fill:none;stroke:#000000;stroke-miterlimit:10;" x1="1022.8" y1="115.2" x2="745.5" y2="741.6"/>
	<line style="fill:none;stroke:#000000;stroke-miterlimit:10;" x1="999.1" y1="125.8" x2="706.7" y2="741.5"/>
	<line style="fill:none;stroke:#000000;stroke-miterlimit:10;" x1="976.2" y1="136" x2="670.6" y2="741.4"/>
	<line style="fill:none;stroke:#000000;stroke-miterlimit:10;" x1="954" y1="146" x2="636.8" y2="741.3"/>
	<line style="fill:none;stroke:#000000;stroke-miterlimit:10;" x1="932.6" y1="155.6" x2="605.1" y2="741.2"/>
	<line style="fill:none;stroke:#000000;stroke-miterlimit:10;" x1="911.8" y1="164.9" x2="575.4" y2="741.1"/>
	<line style="fill:none;stroke:#000000;stroke-miterlimit:10;" x1="891.7" y1="173.9" x2="547.4" y2="741.1"/>
	<line style="fill:none;stroke:#000000;stroke-miterlimit:10;" x1="872.2" y1="182.6" x2="521" y2="741"/>
	<line style="fill:none;stroke:#000000;stroke-miterlimit:10;" x1="853.3" y1="191.1" x2="496.1" y2="740.9"/>
	<line style="fill:none;stroke:#000000;stroke-miterlimit:10;" x1="835" y1="199.3" x2="472.6" y2="740.9"/>
	<line style="fill:none;stroke:#000000;stroke-miterlimit:10;" x1="817.2" y1="207.2" x2="450.3" y2="740.8"/>
	<line style="fill:none;stroke:#000000;stroke-miterlimit:10;" x1="799.9" y1="215" x2="429.1" y2="740.8"/>
	<line style="fill:none;stroke:#000000;stroke-miterlimit:10;" x1="783.2" y1="222.5" x2="409" y2="740.7"/>
	<line style="fill:none;stroke:#000000;stroke-miterlimit:10;" x1="766.9" y1="229.8" x2="389.9" y2="740.7"/>
	<line style="fill:none;stroke:#000000;stroke-miterlimit:10;" x1="751" y1="236.9" x2="371.8" y2="740.6"/>
	<line style="fill:none;stroke:#000000;stroke-miterlimit:10;" x1="735.6" y1="243.8" x2="354.4" y2="740.6"/>
	<line style="fill:none;stroke:#000000;stroke-miterlimit:10;" x1="720.6" y1="250.5" x2="337.9" y2="740.5"/>
	<line style="fill:none;stroke:#000000;stroke-miterlimit:10;" x1="706" y1="257" x2="322.1" y2="740.5"/>
	<line style="fill:none;stroke:#000000;stroke-miterlimit:10;" x1="691.8" y1="263.4" x2="307" y2="740.5"/>
	<line style="fill:none;stroke:#000000;stroke-miterlimit:10;" x1="678" y1="269.6" x2="292.5" y2="740.4"/>
	<line style="fill:none;stroke:#000000;stroke-miterlimit:10;" x1="664.5" y1="275.6" x2="278.6" y2="740.4"/>
	<line style="fill:none;stroke:#000000;stroke-miterlimit:10;" x1="651.4" y1="281.5" x2="265.3" y2="740.4"/>
	<line style="fill:none;stroke:#000000;stroke-miterlimit:10;" x1="638.6" y1="287.2" x2="252.6" y2="740.3"/>
	<line style="fill:none;stroke:#000000;stroke-miterlimit:10;" x1="626.1" y1="292.8" x2="240.3" y2="740.3"/>
	<line style="fill:none;stroke:#000000;stroke-miterlimit:10;" x1="613.9" y1="298.3" x2="228.5" y2="740.3"/>
	<line style="fill:none;stroke:#000000;stroke-miterlimit:10;" x1="602" y1="303.6" x2="217.2" y2="740.2"/>
	<line style="fill:none;stroke:#000000;stroke-miterlimit:10;" x1="590.4" y1="308.8" x2="206.3" y2="740.2"/>
	<line style="fill:none;stroke:#000000;stroke-miterlimit:10;" x1="579.1" y1="313.9" x2="195.8" y2="740.2"/>
	<line style="fill:none;stroke:#000000;stroke-miterlimit:10;" x1="568" y1="318.8" x2="185.6" y2="740.1"/>
	<line style="fill:none;stroke:#000000;stroke-miterlimit:10;" x1="557.2" y1="323.7" x2="175.9" y2="740.1"/>
	<line style="fill:none;stroke:#000000;stroke-miterlimit:10;" x1="546.6" y1="328.4" x2="166.4" y2="740.1"/>
	<line style="fill:none;stroke:#000000;stroke-miterlimit:10;" x1="536.3" y1="333" x2="157.3" y2="740.1"/>
	<line style="fill:none;stroke:#000000;stroke-miterlimit:10;" x1="526.2" y1="337.5" x2="148.5" y2="740.1"/>
	<line style="fill:none;stroke:#000000;stroke-miterlimit:10;" x1="516.3" y1="342" x2="139.9" y2="740"/>
	<line style="fill:none;stroke:#000000;stroke-miterlimit:10;" x1="506.7" y1="346.3" x2="131.7" y2="740"/>
	<line style="fill:none;stroke:#000000;stroke-miterlimit:10;" x1="497.2" y1="350.5" x2="123.7" y2="740"/>
	<line style="fill:none;stroke:#000000;stroke-miterlimit:10;" x1="488" y1="354.7" x2="116" y2="740"/>
	<line style="fill:none;stroke:#000000;stroke-miterlimit:10;" x1="478.9" y1="358.7" x2="108.5" y2="740"/>
	<line style="fill:none;stroke:#000000;stroke-miterlimit:10;" x1="470" y1="362.7" x2="101.2" y2="739.9"/>
	<line style="fill:none;stroke:#000000;stroke-miterlimit:10;" x1="461.3" y1="366.6" x2="94.1" y2="739.9"/>
	<line style="fill:none;stroke:#000000;stroke-miterlimit:10;" x1="452.8" y1="370.4" x2="87.3" y2="739.9"/>
	<line style="fill:none;stroke:#000000;stroke-miterlimit:10;" x1="444.5" y1="374.1" x2="80.7" y2="739.9"/>
	<line style="fill:none;stroke:#000000;stroke-miterlimit:10;" x1="436.3" y1="377.8" x2="74.2" y2="739.9"/>
	<line style="fill:none;stroke:#000000;stroke-miterlimit:10;" x1="428.3" y1="381.3" x2="67.9" y2="739.9"/>
	<line style="fill:none;stroke:#000000;stroke-miterlimit:10;" x1="420.5" y1="384.9" x2="61.8" y2="739.8"/>
	<line style="fill:none;stroke:#000000;stroke-miterlimit:10;" x1="412.8" y1="388.3" x2="55.9" y2="739.8"/>
	<line style="fill:none;stroke:#000000;stroke-miterlimit:10;" x1="405.3" y1="391.7" x2="50.1" y2="739.8"/>
	<line style="fill:none;stroke:#000000;stroke-miterlimit:10;" x1="397.9" y1="395" x2="44.5" y2="739.8"/>
	<line style="fill:none;stroke:#000000;stroke-miterlimit:10;" x1="390.6" y1="398.2" x2="39" y2="739.8"/>
	<line style="fill:none;stroke:#000000;stroke-miterlimit:10;" x1="383.5" y1="401.4" x2="33.7" y2="739.8"/>
	<line style="fill:none;stroke:#000000;stroke-miterlimit:10;" x1="376.5" y1="404.6" x2="28.5" y2="739.7"/>
	<line style="fill:none;stroke:#000000;stroke-miterlimit:10;" x1="369.6" y1="407.6" x2="23.5" y2="739.7"/>
	<line style="fill:none;stroke:#000000;stroke-miterlimit:10;" x1="362.9" y1="410.7" x2="18.5" y2="739.7"/>
	<line style="fill:none;stroke:#000000;stroke-miterlimit:10;" x1="356.3" y1="413.6" x2="13.7" y2="739.7"/>
	<line style="fill:none;stroke:#000000;stroke-miterlimit:10;" x1="349.8" y1="416.5" x2="9" y2="739.7"/>
	<line style="fill:none;stroke:#000000;stroke-miterlimit:10;" x1="343.4" y1="419.4" x2="4.5" y2="739.7"/>
</g>
</svg>
