<svg id="illu-medical-research" xmlns="http://www.w3.org/2000/svg" xmlns:xlink="http://www.w3.org/1999/xlink" viewBox="0 0 1505.43 1178.09"><defs><clipPath id="clip-path" transform="translate(-10 -9.72)"><polygon id="clipping" points="219.42 618.25 180.49 650.1 180.49 974.97 280.8 974.97 319.74 943.13 319.74 618.25 219.42 618.25" style="fill:none"/></clipPath><clipPath id="clip-path-2" transform="translate(-10 -9.72)"><polygon id="clipping-2" data-name="clipping" points="506.64 469.64 467.71 501.49 467.71 826.37 568.02 826.37 606.96 794.52 606.96 469.64 506.64 469.64" style="fill:none"/></clipPath><clipPath id="clip-path-3" transform="translate(-10 -9.72)"><polygon id="clipping-3" data-name="clipping" points="1412.25 10.11 1373.32 41.95 1373.32 366.83 1473.63 366.83 1512.56 334.98 1512.56 10.11 1412.25 10.11" style="fill:none"/></clipPath><clipPath id="clip-path-4" transform="translate(-10 -9.72)"><polygon id="clipping-4" data-name="clipping" points="1280.05 55.53 1241.12 87.37 1241.12 412.25 1341.43 412.25 1380.37 380.4 1380.37 55.53 1280.05 55.53" style="fill:none"/></clipPath><clipPath id="clip-path-5" transform="translate(-10 -9.72)"><polygon id="clipping-5" data-name="clipping" points="1349.67 129.03 1310.74 160.87 1310.74 485.75 1411.06 485.75 1449.99 453.9 1449.99 129.03 1349.67 129.03" style="fill:none"/></clipPath><clipPath id="clip-path-6" transform="translate(-10 -9.72)"><polygon id="clipping-6" data-name="clipping" points="1202.53 129.03 1163.59 160.87 1163.59 485.75 1263.91 485.75 1302.84 453.9 1302.84 129.03 1202.53 129.03" style="fill:none"/></clipPath><clipPath id="clip-path-7" transform="translate(-10 -9.72)"><polygon id="clipping-7" data-name="clipping" points="1034.96 145.66 996.03 177.5 996.03 502.38 1096.34 502.38 1135.27 470.54 1135.27 145.66 1034.96 145.66" style="fill:none"/></clipPath><clipPath id="clip-path-8" transform="translate(-10 -9.72)"><polygon id="clipping-8" data-name="clipping" points="1394.83 213.75 1355.9 245.6 1355.9 570.48 1456.21 570.48 1495.15 538.63 1495.15 213.75 1394.83 213.75" style="fill:none"/></clipPath><clipPath id="clip-path-9" transform="translate(-10 -9.72)"><polygon id="clipping-9" data-name="clipping" points="1219.79 201.67 1180.86 233.52 1180.86 558.39 1281.17 558.39 1320.1 526.55 1320.1 201.67 1219.79 201.67" style="fill:none"/></clipPath><clipPath id="clip-path-10" transform="translate(-10 -9.72)"><polygon id="clipping-10" data-name="clipping" points="1067.61 223.82 1028.67 255.67 1028.67 580.54 1128.99 580.54 1167.92 548.7 1167.92 223.82 1067.61 223.82" style="fill:none"/></clipPath><clipPath id="clip-path-11" transform="translate(-10 -9.72)"><polygon id="clipping-11" data-name="clipping" points="912.55 201.67 873.62 233.52 873.62 558.39 973.93 558.39 1012.86 526.55 1012.86 201.67 912.55 201.67" style="fill:none"/></clipPath><clipPath id="clip-path-12" transform="translate(-10 -9.72)"><polygon id="clipping-12" data-name="clipping" points="1159.38 275.17 1120.45 307.02 1120.45 631.89 1220.76 631.89 1259.69 600.05 1259.69 275.17 1159.38 275.17" style="fill:none"/></clipPath><clipPath id="clip-path-13" transform="translate(-10 -9.72)"><polygon id="clipping-13" data-name="clipping" points="1241.49 307.39 1202.56 339.24 1202.56 664.11 1302.87 664.11 1341.81 632.26 1341.81 307.39 1241.49 307.39" style="fill:none"/></clipPath><clipPath id="clip-path-14" transform="translate(-10 -9.72)"><polygon id="clipping-14" data-name="clipping" points="1208.64 402.18 1169.71 434.03 1169.71 758.91 1270.02 758.91 1308.95 727.06 1308.95 402.18 1208.64 402.18" style="fill:none"/></clipPath><clipPath id="clip-path-15" transform="translate(-10 -9.72)"><polygon id="clipping-15" data-name="clipping" points="879.62 275.17 840.69 307.02 840.69 631.89 941.01 631.89 979.94 600.05 979.94 275.17 879.62 275.17" style="fill:none"/></clipPath><clipPath id="clip-path-16" transform="translate(-10 -9.72)"><polygon id="clipping-16" data-name="clipping" points="849.86 356.72 810.93 388.57 810.93 713.45 911.24 713.45 950.17 681.6 950.17 356.72 849.86 356.72" style="fill:none"/></clipPath><clipPath id="clip-path-17" transform="translate(-10 -9.72)"><polygon id="clipping-17" data-name="clipping" points="1394.83 291.28 1355.9 323.13 1355.9 648 1456.21 648 1495.15 616.16 1495.15 291.28 1394.83 291.28" style="fill:none"/></clipPath><clipPath id="clip-path-18" transform="translate(-10 -9.72)"><polygon id="clipping-18" data-name="clipping" points="1325.21 431.39 1286.28 463.24 1286.28 788.12 1386.59 788.12 1425.52 756.27 1425.52 431.39 1325.21 431.39" style="fill:none"/></clipPath><clipPath id="clip-path-19" transform="translate(-10 -9.72)"><polygon id="clipping-19" data-name="clipping" points="1002.31 307.39 963.38 339.24 963.38 664.11 1063.69 664.11 1102.62 632.26 1102.62 307.39 1002.31 307.39" style="fill:none"/></clipPath><clipPath id="clip-path-20" transform="translate(-10 -9.72)"><polygon id="clipping-20" data-name="clipping" points="1049.71 402.18 1010.78 434.03 1010.78 758.91 1111.09 758.91 1150.02 727.06 1150.02 402.18 1049.71 402.18" style="fill:none"/></clipPath><clipPath id="clip-path-21" transform="translate(-10 -9.72)"><polygon id="clipping-21" data-name="clipping" points="896.89 469.64 857.96 501.49 857.96 826.37 958.27 826.37 997.2 794.52 997.2 469.64 896.89 469.64" style="fill:none"/></clipPath><clipPath id="clip-path-22" transform="translate(-10 -9.72)"><polygon id="clipping-22" data-name="clipping" points="1022.45 519.35 983.52 551.2 983.52 876.07 1083.83 876.07 1122.76 844.23 1122.76 519.35 1022.45 519.35" style="fill:none"/></clipPath><clipPath id="clip-path-23" transform="translate(-10 -9.72)"><polygon id="clipping-23" data-name="clipping" points="724.29 453.53 685.36 485.38 685.36 810.25 785.67 810.25 824.6 778.41 824.6 453.53 724.29 453.53" style="fill:none"/></clipPath><clipPath id="clip-path-24" transform="translate(-10 -9.72)"><polygon id="clipping-24" data-name="clipping" points="795.98 535.09 757.05 566.93 757.05 891.81 857.36 891.81 896.29 859.96 896.29 535.09 795.98 535.09" style="fill:none"/></clipPath><clipPath id="clip-path-25" transform="translate(-10 -9.72)"><polygon id="clipping-25" data-name="clipping" points="616.46 519.35 577.53 551.2 577.53 876.07 677.84 876.07 716.78 844.23 716.78 519.35 616.46 519.35" style="fill:none"/></clipPath><clipPath id="clip-path-26" transform="translate(-10 -9.72)"><polygon id="clipping-26" data-name="clipping" points="664.76 580.54 625.83 612.39 625.83 937.27 726.14 937.27 765.08 905.42 765.08 580.54 664.76 580.54" style="fill:none"/></clipPath><clipPath id="clip-path-27" transform="translate(-10 -9.72)"><polygon id="clipping-27" data-name="clipping" points="833.01 618.25 794.08 650.1 794.08 974.97 894.39 974.97 933.32 943.13 933.32 618.25 833.01 618.25" style="fill:none"/></clipPath><clipPath id="clip-path-28" transform="translate(-10 -9.72)"><polygon id="clipping-28" data-name="clipping" points="697.41 648 658.48 679.85 658.48 1004.73 758.79 1004.73 797.72 972.88 797.72 648 697.41 648" style="fill:none"/></clipPath><clipPath id="clip-path-29" transform="translate(-10 -9.72)"><polygon id="clipping-29" data-name="clipping" points="399.92 580.54 360.98 612.39 360.98 937.27 461.3 937.27 500.23 905.42 500.23 580.54 399.92 580.54" style="fill:none"/></clipPath><clipPath id="clip-path-30" transform="translate(-10 -9.72)"><polygon id="clipping-30" data-name="clipping" points="458.23 674.53 419.3 706.38 419.3 1031.25 519.61 1031.25 558.54 999.41 558.54 674.53 458.23 674.53" style="fill:none"/></clipPath><clipPath id="clip-path-31" transform="translate(-10 -9.72)"><polygon id="clipping-31" data-name="clipping" points="738.08 717.17 699.15 749.02 699.15 1073.9 799.46 1073.9 838.4 1042.05 838.4 717.17 738.08 717.17" style="fill:none"/></clipPath><clipPath id="clip-path-32" transform="translate(-10 -9.72)"><polygon id="clipping-32" data-name="clipping" points="1414.48 489.47 1375.55 521.32 1375.55 846.2 1475.86 846.2 1514.79 814.35 1514.79 489.47 1414.48 489.47" style="fill:none"/></clipPath><clipPath id="clip-path-33" transform="translate(-10 -9.72)"><polygon id="clipping-33" data-name="clipping" points="1256.91 506.11 1217.98 537.95 1217.98 862.83 1318.3 862.83 1357.23 830.98 1357.23 506.11 1256.91 506.11" style="fill:none"/></clipPath><clipPath id="clip-path-34" transform="translate(-10 -9.72)"><polygon id="clipping-34" data-name="clipping" points="1412.25 538.81 1373.32 570.66 1373.32 895.53 1473.63 895.53 1512.56 863.69 1512.56 538.81 1412.25 538.81" style="fill:none"/></clipPath><clipPath id="clip-path-35" transform="translate(-10 -9.72)"><polygon id="clipping-35" data-name="clipping" points="1289.56 584.27 1250.63 616.11 1250.63 940.99 1350.94 940.99 1389.88 909.14 1389.88 584.27 1289.56 584.27" style="fill:none"/></clipPath><clipPath id="clip-path-36" transform="translate(-10 -9.72)"><polygon id="clipping-36" data-name="clipping" points="1134.51 562.12 1095.58 593.96 1095.58 918.84 1195.89 918.84 1234.82 886.99 1234.82 562.12 1134.51 562.12" style="fill:none"/></clipPath><clipPath id="clip-path-37" transform="translate(-10 -9.72)"><polygon id="clipping-37" data-name="clipping" points="1381.34 635.62 1342.4 667.46 1342.4 992.34 1442.72 992.34 1481.65 960.49 1481.65 635.62 1381.34 635.62" style="fill:none"/></clipPath><clipPath id="clip-path-38" transform="translate(-10 -9.72)"><polygon id="clipping-38" data-name="clipping" points="1394.98 697.71 1356.05 729.56 1356.05 1054.44 1456.36 1054.44 1495.3 1022.59 1495.3 697.71 1394.98 697.71" style="fill:none"/></clipPath><clipPath id="clip-path-39" transform="translate(-10 -9.72)"><polygon id="clipping-39" data-name="clipping" points="1101.58 635.62 1062.65 667.46 1062.65 992.34 1162.96 992.34 1201.89 960.49 1201.89 635.62 1101.58 635.62" style="fill:none"/></clipPath><clipPath id="clip-path-40" transform="translate(-10 -9.72)"><polygon id="clipping-40" data-name="clipping" points="1071.82 717.17 1032.88 749.02 1032.88 1073.9 1133.2 1073.9 1172.13 1042.05 1172.13 717.17 1071.82 717.17" style="fill:none"/></clipPath><clipPath id="clip-path-41" transform="translate(-10 -9.72)"><polygon id="clipping-41" data-name="clipping" points="1224.27 667.84 1185.34 699.68 1185.34 1024.56 1285.65 1024.56 1324.58 992.71 1324.58 667.84 1224.27 667.84" style="fill:none"/></clipPath><clipPath id="clip-path-42" transform="translate(-10 -9.72)"><polygon id="clipping-42" data-name="clipping" points="1271.66 762.63 1232.73 794.48 1232.73 1119.35 1333.04 1119.35 1371.98 1087.51 1371.98 762.63 1271.66 762.63" style="fill:none"/></clipPath><clipPath id="clip-path-43" transform="translate(-10 -9.72)"><polygon id="clipping-43" data-name="clipping" points="1118.85 830.09 1079.91 861.93 1079.91 1186.81 1180.23 1186.81 1219.16 1154.97 1219.16 830.09 1118.85 830.09" style="fill:none"/></clipPath><clipPath id="clip-path-44" transform="translate(-10 -9.72)"><polygon id="clipping-44" data-name="clipping" points="926.11 632.26 887.18 664.11 887.18 988.99 987.49 988.99 1026.42 957.14 1026.42 632.26 926.11 632.26" style="fill:none"/></clipPath><clipPath id="clip-path-45" transform="translate(-10 -9.72)"><polygon id="clipping-45" data-name="clipping" points="902.63 740.48 863.7 772.33 863.7 1097.2 964.01 1097.2 1002.95 1065.36 1002.95 740.48 902.63 740.48" style="fill:none"/></clipPath><clipPath id="clip-path-46" transform="translate(-10 -9.72)"><polygon id="clipping-46" data-name="clipping" points="467.31 758.91 428.38 790.75 428.38 1115.63 528.69 1115.63 567.62 1083.78 567.62 758.91 467.31 758.91" style="fill:none"/></clipPath><clipPath id="clip-path-47" transform="translate(-10 -9.72)"><polygon id="clipping-47" data-name="clipping" points="289 713.45 250.06 745.29 250.06 1070.17 350.38 1070.17 389.31 1038.33 389.31 713.45 289 713.45" style="fill:none"/></clipPath><clipPath id="clip-path-48" transform="translate(-10 -9.72)"><polygon id="clipping-48" data-name="clipping" points="645.62 813.98 606.69 845.83 606.69 1170.7 707 1170.7 745.93 1138.86 745.93 813.98 645.62 813.98" style="fill:none"/></clipPath><clipPath id="clip-path-49" transform="translate(-10 -9.72)"><polygon id="clipping-49" data-name="clipping" points="330.29 810.63 291.36 842.47 291.36 1167.35 391.67 1167.35 430.61 1135.51 430.61 810.63 330.29 810.63" style="fill:none"/></clipPath><clipPath id="clip-path-50" transform="translate(-10 -9.72)"><polygon id="clipping-50" data-name="clipping" points="48.93 650.73 10 682.57 10 1007.45 110.31 1007.45 149.24 975.6 149.24 650.73 48.93 650.73" style="fill:none"/></clipPath><clipPath id="clip-path-51" transform="translate(-10 -9.72)"><polygon id="clipping-51" data-name="clipping" points="53.6 740.48 14.67 772.33 14.67 1097.2 114.98 1097.2 153.91 1065.36 153.91 740.48 53.6 740.48" style="fill:none"/></clipPath><clipPath id="clip-path-52" transform="translate(-10 -9.72)"><polygon id="clipping-52" data-name="clipping" points="172.39 762.63 133.46 794.48 133.46 1119.35 233.78 1119.35 272.71 1087.51 272.71 762.63 172.39 762.63" style="fill:none"/></clipPath><clipPath id="clip-path-53" transform="translate(-10 -9.72)"><polygon id="clipping-53" data-name="clipping" points="172.39 813.98 133.46 845.83 133.46 1170.7 233.78 1170.7 272.71 1138.86 272.71 813.98 172.39 813.98" style="fill:none"/></clipPath><clipPath id="clip-path-54" transform="translate(-10 -9.72)"><polygon id="clipping-54" data-name="clipping" points="1381.34 810.63 1342.4 842.47 1342.4 1167.35 1442.72 1167.35 1481.65 1135.51 1481.65 810.63 1381.34 810.63" style="fill:none"/></clipPath></defs><g id="bar-clip"><g style="clip-path:url(#clip-path)"><g id="bar"><polygon points="171.49 964.25 171.49 640.85 209.78 609.53 308.74 609.53 308.74 932.93 270.45 964.25 171.49 964.25" style="fill:#fff"/><path d="M317.74,620.25V942.18L280.09,973h-97.6V651l37.65-30.79h97.6m2-2H219.42L180.49,650.1V975H280.8l38.94-31.84V618.25Z" transform="translate(-10 -9.72)" style="fill:#231f20"/><polyline points="309.74 608.53 270.8 640.38 170.49 640.38" style="fill:#fff;stroke:#231f20;stroke-miterlimit:10"/><line x1="270.8" y1="640.38" x2="270.8" y2="965.25" style="fill:#fff;stroke:#231f20;stroke-miterlimit:10"/></g><polyline id="bottom-line" points="309.74 933.41 270.8 965.25 170.49 965.25" style="fill:none;stroke:#231f20;stroke-miterlimit:10;stroke-width:2px"/></g></g><g id="bar-clip-2" data-name="bar-clip"><g style="clip-path:url(#clip-path-2)"><g id="bar-2" data-name="bar"><polygon points="458.71 815.65 458.71 492.24 497 460.92 595.96 460.92 595.96 784.33 557.67 815.65 458.71 815.65" style="fill:#fff"/><path d="M605,471.64V793.57l-37.65,30.79h-97.6V502.44l37.65-30.8H605m2-2H506.64l-38.93,31.85V826.36H568L607,794.52V469.64Z" transform="translate(-10 -9.72)" style="fill:#231f20"/><polyline points="596.96 459.92 558.02 491.77 457.71 491.77" style="fill:#fff;stroke:#231f20;stroke-miterlimit:10"/><line x1="558.02" y1="491.77" x2="558.02" y2="816.65" style="fill:#fff;stroke:#231f20;stroke-miterlimit:10"/></g><polyline id="bottom-line-2" data-name="bottom-line" points="596.96 784.8 558.02 816.65 457.71 816.65" style="fill:none;stroke:#231f20;stroke-miterlimit:10;stroke-width:2px"/></g></g><g id="bar-clip-3" data-name="bar-clip"><g style="clip-path:url(#clip-path-3)"><g id="bar-3" data-name="bar"><polygon points="1364.32 356.11 1364.32 32.71 1402.61 1.39 1501.56 1.39 1501.56 324.79 1463.27 356.11 1364.32 356.11" style="fill:#fff"/><path d="M1510.56,12.11V334l-37.64,30.8h-97.6V42.9L1413,12.11h97.6m2-2H1412.25L1373.32,42V366.83h100.31L1512.56,335V10.11Z" transform="translate(-10 -9.72)" style="fill:#231f20"/><polyline points="1502.56 0.39 1463.63 32.23 1363.32 32.23" style="fill:#fff;stroke:#231f20;stroke-miterlimit:10"/><line x1="1463.63" y1="32.23" x2="1463.63" y2="357.11" style="fill:#fff;stroke:#231f20;stroke-miterlimit:10"/></g><polyline id="bottom-line-3" data-name="bottom-line" points="1502.56 325.26 1463.63 357.11 1363.32 357.11" style="fill:none;stroke:#231f20;stroke-miterlimit:10;stroke-width:2px"/></g></g><g id="bar-clip-4" data-name="bar-clip"><g style="clip-path:url(#clip-path-4)"><g id="bar-4" data-name="bar"><polygon points="1232.12 401.53 1232.12 78.13 1270.41 46.81 1369.37 46.81 1369.37 370.21 1331.08 401.53 1232.12 401.53" style="fill:#fff"/><path d="M1378.36,57.53V379.46l-37.64,30.79h-97.6V88.32l37.65-30.79h97.59m2-2H1280.05l-38.93,31.84V412.25h100.31l38.93-31.85V55.53Z" transform="translate(-10 -9.72)" style="fill:#231f20"/><polyline points="1370.37 45.81 1331.43 77.66 1231.12 77.66" style="fill:#fff;stroke:#231f20;stroke-miterlimit:10"/><line x1="1331.43" y1="77.65" x2="1331.43" y2="402.53" style="fill:#fff;stroke:#231f20;stroke-miterlimit:10"/></g><polyline id="bottom-line-4" data-name="bottom-line" points="1370.37 370.69 1331.43 402.53 1231.12 402.53" style="fill:none;stroke:#231f20;stroke-miterlimit:10;stroke-width:2px"/></g></g><g id="bar-clip-5" data-name="bar-clip"><g style="clip-path:url(#clip-path-5)"><g id="bar-5" data-name="bar"><polygon points="1301.74 475.03 1301.74 151.63 1340.03 120.31 1438.99 120.31 1438.99 443.71 1400.7 475.03 1301.74 475.03" style="fill:#fff"/><path d="M1448,131V453l-37.65,30.79h-97.6V161.82L1350.39,131H1448m2-2H1349.67l-38.93,31.84V485.75h100.32L1450,453.9V129Z" transform="translate(-10 -9.72)" style="fill:#231f20"/><polyline points="1439.99 119.31 1401.06 151.16 1300.74 151.16" style="fill:#fff;stroke:#231f20;stroke-miterlimit:10"/><line x1="1401.06" y1="151.15" x2="1401.06" y2="476.03" style="fill:#fff;stroke:#231f20;stroke-miterlimit:10"/></g><polyline id="bottom-line-5" data-name="bottom-line" points="1439.99 444.19 1401.06 476.03 1300.74 476.03" style="fill:none;stroke:#231f20;stroke-miterlimit:10;stroke-width:2px"/></g></g><g id="bar-clip-6" data-name="bar-clip"><g style="clip-path:url(#clip-path-6)"><g id="bar-6" data-name="bar"><polygon points="1154.59 475.03 1154.59 151.63 1192.88 120.31 1291.84 120.31 1291.84 443.71 1253.55 475.03 1154.59 475.03" style="fill:#fff"/><path d="M1300.84,131V453l-37.65,30.79h-97.6V161.82L1203.24,131h97.6m2-2H1202.52l-38.93,31.84V485.75h100.32l38.93-31.85V129Z" transform="translate(-10 -9.72)" style="fill:#231f20"/><polyline points="1292.84 119.31 1253.91 151.16 1153.59 151.16" style="fill:#fff;stroke:#231f20;stroke-miterlimit:10"/><line x1="1253.91" y1="151.15" x2="1253.91" y2="476.03" style="fill:#fff;stroke:#231f20;stroke-miterlimit:10"/></g><polyline id="bottom-line-6" data-name="bottom-line" points="1292.84 444.19 1253.91 476.03 1153.59 476.03" style="fill:none;stroke:#231f20;stroke-miterlimit:10;stroke-width:2px"/></g></g><g id="bar-clip-7" data-name="bar-clip"><g style="clip-path:url(#clip-path-7)"><g id="bar-7" data-name="bar"><polygon points="987.03 491.66 987.03 168.26 1025.32 136.94 1124.27 136.94 1124.27 460.34 1085.98 491.66 987.03 491.66" style="fill:#fff"/><path d="M1133.27,147.66V469.59l-37.64,30.79H998V178.45l37.64-30.79h97.6m2-2H1035L996,177.5V502.38h100.31l38.93-31.85V145.66Z" transform="translate(-10 -9.72)" style="fill:#231f20"/><polyline points="1125.27 135.94 1086.34 167.79 986.03 167.79" style="fill:#fff;stroke:#231f20;stroke-miterlimit:10"/><line x1="1086.34" y1="167.79" x2="1086.34" y2="492.66" style="fill:#fff;stroke:#231f20;stroke-miterlimit:10"/></g><polyline id="bottom-line-7" data-name="bottom-line" points="1125.27 460.82 1086.34 492.66 986.03 492.66" style="fill:none;stroke:#231f20;stroke-miterlimit:10;stroke-width:2px"/></g></g><g id="bar-clip-8" data-name="bar-clip"><g style="clip-path:url(#clip-path-8)"><g id="bar-8" data-name="bar"><polygon points="1346.9 559.76 1346.9 236.35 1385.19 205.03 1484.15 205.03 1484.15 528.44 1445.86 559.76 1346.9 559.76" style="fill:#fff"/><path d="M1493.15,215.75V537.68l-37.65,30.8h-97.6V246.55l37.65-30.8h97.6m2-2H1394.83L1355.9,245.6V570.48h100.31l38.94-31.85V213.75Z" transform="translate(-10 -9.72)" style="fill:#231f20"/><polyline points="1485.15 204.03 1446.21 235.88 1345.9 235.88" style="fill:#fff;stroke:#231f20;stroke-miterlimit:10"/><line x1="1446.21" y1="235.88" x2="1446.21" y2="560.76" style="fill:#fff;stroke:#231f20;stroke-miterlimit:10"/></g><polyline id="bottom-line-8" data-name="bottom-line" points="1485.15 528.91 1446.21 560.76 1345.9 560.76" style="fill:none;stroke:#231f20;stroke-miterlimit:10;stroke-width:2px"/></g></g><g id="bar-clip-9" data-name="bar-clip"><g style="clip-path:url(#clip-path-9)"><g id="bar-9" data-name="bar"><polygon points="1171.86 547.67 1171.86 224.27 1210.15 192.95 1309.1 192.95 1309.1 516.35 1270.82 547.67 1171.86 547.67" style="fill:#fff"/><path d="M1318.1,203.67V525.6l-37.64,30.79h-97.6V234.46l37.64-30.79h97.6m2-2H1219.79l-38.93,31.85V558.39h100.31l38.93-31.84V201.67Z" transform="translate(-10 -9.72)" style="fill:#231f20"/><polyline points="1310.1 191.95 1271.17 223.8 1170.86 223.8" style="fill:#fff;stroke:#231f20;stroke-miterlimit:10"/><line x1="1271.17" y1="223.8" x2="1271.17" y2="548.67" style="fill:#fff;stroke:#231f20;stroke-miterlimit:10"/></g><polyline id="bottom-line-9" data-name="bottom-line" points="1310.1 516.83 1271.17 548.67 1170.86 548.67" style="fill:none;stroke:#231f20;stroke-miterlimit:10;stroke-width:2px"/></g></g><g id="bar-clip-10" data-name="bar-clip"><g style="clip-path:url(#clip-path-10)"><g id="bar-10" data-name="bar"><polygon points="1019.68 569.83 1019.68 246.42 1057.96 215.1 1156.92 215.1 1156.92 538.5 1118.63 569.83 1019.68 569.83" style="fill:#fff"/><path d="M1165.92,225.82V547.75l-37.65,30.79h-97.59V256.61l37.64-30.79h97.6m2-2H1067.61l-38.93,31.85V580.54H1129l38.93-31.84V223.82Z" transform="translate(-10 -9.72)" style="fill:#231f20"/><polyline points="1157.92 214.1 1118.99 245.95 1018.67 245.95" style="fill:#fff;stroke:#231f20;stroke-miterlimit:10"/><line x1="1118.99" y1="245.95" x2="1118.99" y2="570.83" style="fill:#fff;stroke:#231f20;stroke-miterlimit:10"/></g><polyline id="bottom-line-10" data-name="bottom-line" points="1157.92 538.98 1118.99 570.83 1018.67 570.83" style="fill:none;stroke:#231f20;stroke-miterlimit:10;stroke-width:2px"/></g></g><g id="bar-clip-11" data-name="bar-clip"><g style="clip-path:url(#clip-path-11)"><g id="bar-11" data-name="bar"><polygon points="864.62 547.67 864.62 224.27 902.91 192.95 1001.86 192.95 1001.86 516.35 963.58 547.67 864.62 547.67" style="fill:#fff"/><path d="M1010.86,203.67V525.6l-37.64,30.79h-97.6V234.46l37.65-30.79h97.59m2-2H912.55l-38.93,31.85V558.39H973.93l38.93-31.84V201.67Z" transform="translate(-10 -9.72)" style="fill:#231f20"/><polyline points="1002.86 191.95 963.93 223.8 863.62 223.8" style="fill:#fff;stroke:#231f20;stroke-miterlimit:10"/><line x1="963.93" y1="223.8" x2="963.93" y2="548.67" style="fill:#fff;stroke:#231f20;stroke-miterlimit:10"/></g><polyline id="bottom-line-11" data-name="bottom-line" points="1002.86 516.83 963.93 548.67 863.62 548.67" style="fill:none;stroke:#231f20;stroke-miterlimit:10;stroke-width:2px"/></g></g><g id="bar-clip-12" data-name="bar-clip"><g style="clip-path:url(#clip-path-12)"><g id="bar-12" data-name="bar"><polygon points="1111.45 621.17 1111.45 297.77 1149.74 266.45 1248.69 266.45 1248.69 589.85 1210.4 621.17 1111.45 621.17" style="fill:#fff"/><path d="M1257.69,277.17V599.1l-37.64,30.79h-97.6V308l37.64-30.79h97.6m2-2H1159.38L1120.45,307V631.89h100.31l38.93-31.84V275.17Z" transform="translate(-10 -9.72)" style="fill:#231f20"/><polyline points="1249.69 265.45 1210.76 297.3 1110.45 297.3" style="fill:#fff;stroke:#231f20;stroke-miterlimit:10"/><line x1="1210.76" y1="297.3" x2="1210.76" y2="622.17" style="fill:#fff;stroke:#231f20;stroke-miterlimit:10"/></g><polyline id="bottom-line-12" data-name="bottom-line" points="1249.69 590.33 1210.76 622.17 1110.45 622.17" style="fill:none;stroke:#231f20;stroke-miterlimit:10;stroke-width:2px"/></g></g><g id="bar-clip-13" data-name="bar-clip"><g style="clip-path:url(#clip-path-13)"><g id="bar-13" data-name="bar"><polygon points="1193.56 653.39 1193.56 329.99 1231.85 298.67 1330.81 298.67 1330.81 622.07 1292.52 653.39 1193.56 653.39" style="fill:#fff"/><path d="M1339.81,309.39V631.32l-37.65,30.79h-97.6V340.18l37.65-30.79h97.6m2-2H1241.49l-38.93,31.85V664.11h100.31l38.94-31.84V307.39Z" transform="translate(-10 -9.72)" style="fill:#231f20"/><polyline points="1331.81 297.67 1292.87 329.52 1192.56 329.52" style="fill:#fff;stroke:#231f20;stroke-miterlimit:10"/><line x1="1292.87" y1="329.52" x2="1292.87" y2="654.39" style="fill:#fff;stroke:#231f20;stroke-miterlimit:10"/></g><polyline id="bottom-line-13" data-name="bottom-line" points="1331.81 622.55 1292.87 654.39 1192.56 654.39" style="fill:none;stroke:#231f20;stroke-miterlimit:10;stroke-width:2px"/></g></g><g id="bar-clip-14" data-name="bar-clip"><g style="clip-path:url(#clip-path-14)"><g id="bar-14" data-name="bar"><polygon points="1160.71 748.19 1160.71 424.78 1199 393.46 1297.95 393.46 1297.95 716.87 1259.67 748.19 1160.71 748.19" style="fill:#fff"/><path d="M1307,404.18V726.11l-37.64,30.8h-97.6V435l37.64-30.8H1307m2-2H1208.64L1169.71,434V758.91H1270L1309,727.06V402.18Z" transform="translate(-10 -9.72)" style="fill:#231f20"/><polyline points="1298.95 392.46 1260.02 424.31 1159.71 424.31" style="fill:#fff;stroke:#231f20;stroke-miterlimit:10"/><line x1="1260.02" y1="424.31" x2="1260.02" y2="749.19" style="fill:#fff;stroke:#231f20;stroke-miterlimit:10"/></g><polyline id="bottom-line-14" data-name="bottom-line" points="1298.95 717.34 1260.02 749.19 1159.71 749.19" style="fill:none;stroke:#231f20;stroke-miterlimit:10;stroke-width:2px"/></g></g><g id="bar-clip-15" data-name="bar-clip"><g style="clip-path:url(#clip-path-15)"><g id="bar-15" data-name="bar"><polygon points="831.69 621.17 831.69 297.77 869.98 266.45 968.94 266.45 968.94 589.85 930.65 621.17 831.69 621.17" style="fill:#fff"/><path d="M977.94,277.17V599.1l-37.65,30.79h-97.6V308l37.65-30.79h97.6m2-2H879.62L840.69,307V631.89H941l38.93-31.84V275.17Z" transform="translate(-10 -9.72)" style="fill:#231f20"/><polyline points="969.94 265.45 931.01 297.3 830.69 297.3" style="fill:#fff;stroke:#231f20;stroke-miterlimit:10"/><line x1="931.01" y1="297.3" x2="931.01" y2="622.17" style="fill:#fff;stroke:#231f20;stroke-miterlimit:10"/></g><polyline id="bottom-line-15" data-name="bottom-line" points="969.94 590.33 931.01 622.17 830.69 622.17" style="fill:none;stroke:#231f20;stroke-miterlimit:10;stroke-width:2px"/></g></g><g id="bar-clip-16" data-name="bar-clip"><g style="clip-path:url(#clip-path-16)"><g id="bar-16" data-name="bar"><polygon points="801.93 702.73 801.93 379.33 840.22 348.01 939.17 348.01 939.17 671.41 900.88 702.73 801.93 702.73" style="fill:#fff"/><path d="M948.17,358.72V680.65l-37.64,30.8h-97.6V389.52l37.64-30.8h97.6m2-2H849.86l-38.93,31.85V713.45H911.24l38.93-31.85V356.72Z" transform="translate(-10 -9.72)" style="fill:#231f20"/><polyline points="940.17 347.01 901.24 378.85 800.93 378.85" style="fill:#fff;stroke:#231f20;stroke-miterlimit:10"/><line x1="901.24" y1="378.85" x2="901.24" y2="703.73" style="fill:#fff;stroke:#231f20;stroke-miterlimit:10"/></g><polyline id="bottom-line-16" data-name="bottom-line" points="940.17 671.88 901.24 703.73 800.93 703.73" style="fill:none;stroke:#231f20;stroke-miterlimit:10;stroke-width:2px"/></g></g><g id="bar-clip-17" data-name="bar-clip"><g style="clip-path:url(#clip-path-17)"><g id="bar-17" data-name="bar"><polygon points="1346.9 637.28 1346.9 313.88 1385.19 282.56 1484.15 282.56 1484.15 605.96 1445.86 637.28 1346.9 637.28" style="fill:#fff"/><path d="M1493.15,293.28V615.21L1455.5,646h-97.6V324.07l37.65-30.79h97.6m2-2H1394.83l-38.93,31.85V648h100.31l38.94-31.84V291.28Z" transform="translate(-10 -9.72)" style="fill:#231f20"/><polyline points="1485.15 281.56 1446.21 313.41 1345.9 313.41" style="fill:#fff;stroke:#231f20;stroke-miterlimit:10"/><line x1="1446.21" y1="313.41" x2="1446.21" y2="638.28" style="fill:#fff;stroke:#231f20;stroke-miterlimit:10"/></g><polyline id="bottom-line-17" data-name="bottom-line" points="1485.15 606.44 1446.21 638.28 1345.9 638.28" style="fill:none;stroke:#231f20;stroke-miterlimit:10;stroke-width:2px"/></g></g><g id="bar-clip-18" data-name="bar-clip"><g style="clip-path:url(#clip-path-18)"><g id="bar-18" data-name="bar"><polygon points="1277.28 777.4 1277.28 453.99 1315.57 422.67 1414.52 422.67 1414.52 746.08 1376.24 777.4 1277.28 777.4" style="fill:#fff"/><path d="M1423.52,433.39V755.32l-37.64,30.8h-97.6V464.19l37.65-30.8h97.59m2-2H1325.21l-38.93,31.85V788.12h100.31l38.93-31.85V431.39Z" transform="translate(-10 -9.72)" style="fill:#231f20"/><polyline points="1415.52 421.67 1376.59 453.52 1276.28 453.52" style="fill:#fff;stroke:#231f20;stroke-miterlimit:10"/><line x1="1376.59" y1="453.52" x2="1376.59" y2="778.4" style="fill:#fff;stroke:#231f20;stroke-miterlimit:10"/></g><polyline id="bottom-line-18" data-name="bottom-line" points="1415.52 746.55 1376.59 778.4 1276.28 778.4" style="fill:none;stroke:#231f20;stroke-miterlimit:10;stroke-width:2px"/></g></g><g id="bar-clip-19" data-name="bar-clip"><g style="clip-path:url(#clip-path-19)"><g id="bar-19" data-name="bar"><polygon points="954.38 653.39 954.38 329.99 992.67 298.67 1091.62 298.67 1091.62 622.07 1053.34 653.39 954.38 653.39" style="fill:#fff"/><path d="M1100.62,309.39V631.32L1063,662.11h-97.6V340.18L1003,309.39h97.6m2-2H1002.31l-38.93,31.85V664.11h100.31l38.93-31.84V307.39Z" transform="translate(-10 -9.72)" style="fill:#231f20"/><polyline points="1092.62 297.67 1053.69 329.52 953.38 329.52" style="fill:#fff;stroke:#231f20;stroke-miterlimit:10"/><line x1="1053.69" y1="329.52" x2="1053.69" y2="654.39" style="fill:#fff;stroke:#231f20;stroke-miterlimit:10"/></g><polyline id="bottom-line-19" data-name="bottom-line" points="1092.62 622.55 1053.69 654.39 953.38 654.39" style="fill:none;stroke:#231f20;stroke-miterlimit:10;stroke-width:2px"/></g></g><g id="bar-clip-20" data-name="bar-clip"><g style="clip-path:url(#clip-path-20)"><g id="bar-20" data-name="bar"><polygon points="1001.78 748.19 1001.78 424.78 1040.06 393.46 1139.02 393.46 1139.02 716.87 1100.73 748.19 1001.78 748.19" style="fill:#fff"/><path d="M1148,404.18V726.11l-37.65,30.8h-97.59V435l37.64-30.8H1148m2-2H1049.71L1010.78,434V758.91h100.31L1150,727.06V402.18Z" transform="translate(-10 -9.72)" style="fill:#231f20"/><polyline points="1140.02 392.46 1101.09 424.31 1000.78 424.31" style="fill:#fff;stroke:#231f20;stroke-miterlimit:10"/><line x1="1101.09" y1="424.31" x2="1101.09" y2="749.19" style="fill:#fff;stroke:#231f20;stroke-miterlimit:10"/></g><polyline id="bottom-line-20" data-name="bottom-line" points="1140.02 717.34 1101.09 749.19 1000.78 749.19" style="fill:none;stroke:#231f20;stroke-miterlimit:10;stroke-width:2px"/></g></g><g id="bar-clip-21" data-name="bar-clip"><g style="clip-path:url(#clip-path-21)"><g id="bar-21" data-name="bar"><polygon points="848.96 815.65 848.96 492.24 887.25 460.92 986.2 460.92 986.2 784.33 947.91 815.65 848.96 815.65" style="fill:#fff"/><path d="M995.2,471.64V793.57l-37.64,30.79H860V502.44l37.64-30.8h97.6m2-2H896.89L858,501.49V826.36H958.27l38.93-31.84V469.64Z" transform="translate(-10 -9.72)" style="fill:#231f20"/><polyline points="987.2 459.92 948.27 491.77 847.96 491.77" style="fill:#fff;stroke:#231f20;stroke-miterlimit:10"/><line x1="948.27" y1="491.77" x2="948.27" y2="816.65" style="fill:#fff;stroke:#231f20;stroke-miterlimit:10"/></g><polyline id="bottom-line-21" data-name="bottom-line" points="987.2 784.8 948.27 816.65 847.96 816.65" style="fill:none;stroke:#231f20;stroke-miterlimit:10;stroke-width:2px"/></g></g><g id="bar-clip-22" data-name="bar-clip"><g style="clip-path:url(#clip-path-22)"><g id="bar-22" data-name="bar"><polygon points="974.52 865.36 974.52 541.95 1012.8 510.63 1111.76 510.63 1111.76 834.03 1073.47 865.36 974.52 865.36" style="fill:#fff"/><path d="M1120.76,521.35V843.28l-37.64,30.79h-97.6V552.15l37.64-30.8h97.6m2-2H1022.45L983.52,551.2V876.07h100.31l38.93-31.84V519.35Z" transform="translate(-10 -9.72)" style="fill:#231f20"/><polyline points="1112.76 509.63 1073.83 541.48 973.52 541.48" style="fill:#fff;stroke:#231f20;stroke-miterlimit:10"/><line x1="1073.83" y1="541.48" x2="1073.83" y2="866.36" style="fill:#fff;stroke:#231f20;stroke-miterlimit:10"/></g><polyline id="bottom-line-22" data-name="bottom-line" points="1112.76 834.51 1073.83 866.36 973.52 866.36" style="fill:none;stroke:#231f20;stroke-miterlimit:10;stroke-width:2px"/></g></g><g id="bar-clip-23" data-name="bar-clip"><g style="clip-path:url(#clip-path-23)"><g id="bar-23" data-name="bar"><polygon points="676.36 799.54 676.36 476.13 714.65 444.81 813.6 444.81 813.6 768.22 775.32 799.54 676.36 799.54" style="fill:#fff"/><path d="M822.6,455.53V777.46L785,808.26h-97.6V486.33L725,455.53h97.6m2-2H724.29l-38.93,31.85V810.26H785.67l38.93-31.85V453.53Z" transform="translate(-10 -9.72)" style="fill:#231f20"/><polyline points="814.6 443.81 775.67 475.66 675.36 475.66" style="fill:#fff;stroke:#231f20;stroke-miterlimit:10"/><line x1="775.67" y1="475.66" x2="775.67" y2="800.54" style="fill:#fff;stroke:#231f20;stroke-miterlimit:10"/></g><polyline id="bottom-line-23" data-name="bottom-line" points="814.6 768.69 775.67 800.54 675.36 800.54" style="fill:none;stroke:#231f20;stroke-miterlimit:10;stroke-width:2px"/></g></g><g id="bar-clip-24" data-name="bar-clip"><g style="clip-path:url(#clip-path-24)"><g id="bar-24" data-name="bar"><polygon points="748.05 881.09 748.05 557.69 786.34 526.37 885.29 526.37 885.29 849.77 847.01 881.09 748.05 881.09" style="fill:#fff"/><path d="M894.29,537.09V859l-37.64,30.79h-97.6V567.88l37.65-30.79h97.59m2-2H796l-38.93,31.84V891.81H857.36L896.29,860V535.09Z" transform="translate(-10 -9.72)" style="fill:#231f20"/><polyline points="886.29 525.37 847.36 557.22 747.05 557.22" style="fill:#fff;stroke:#231f20;stroke-miterlimit:10"/><line x1="847.36" y1="557.21" x2="847.36" y2="882.09" style="fill:#fff;stroke:#231f20;stroke-miterlimit:10"/></g><polyline id="bottom-line-24" data-name="bottom-line" points="886.29 850.25 847.36 882.09 747.05 882.09" style="fill:none;stroke:#231f20;stroke-miterlimit:10;stroke-width:2px"/></g></g><g id="bar-clip-25" data-name="bar-clip"><g style="clip-path:url(#clip-path-25)"><g id="bar-25" data-name="bar"><polygon points="568.53 865.36 568.53 541.95 606.82 510.63 705.78 510.63 705.78 834.03 667.49 865.36 568.53 865.36" style="fill:#fff"/><path d="M714.78,521.35V843.28l-37.65,30.79h-97.6V552.15l37.65-30.8h97.6m2-2H616.46L577.53,551.2V876.07H677.84l38.94-31.84V519.35Z" transform="translate(-10 -9.72)" style="fill:#231f20"/><polyline points="706.78 509.63 667.84 541.48 567.53 541.48" style="fill:#fff;stroke:#231f20;stroke-miterlimit:10"/><line x1="667.84" y1="541.48" x2="667.84" y2="866.36" style="fill:#fff;stroke:#231f20;stroke-miterlimit:10"/></g><polyline id="bottom-line-25" data-name="bottom-line" points="706.78 834.51 667.84 866.36 567.53 866.36" style="fill:none;stroke:#231f20;stroke-miterlimit:10;stroke-width:2px"/></g></g><g id="bar-clip-26" data-name="bar-clip"><g style="clip-path:url(#clip-path-26)"><g id="bar-26" data-name="bar"><polygon points="616.83 926.55 616.83 603.15 655.12 571.83 754.08 571.83 754.08 895.23 715.79 926.55 616.83 926.55" style="fill:#fff"/><path d="M763.08,582.54V904.47l-37.65,30.8h-97.6V613.34l37.65-30.8h97.6m2-2H664.76l-38.93,31.85V937.27H726.14l38.94-31.85V580.54Z" transform="translate(-10 -9.72)" style="fill:#231f20"/><polyline points="755.08 570.83 716.14 602.67 615.83 602.67" style="fill:#fff;stroke:#231f20;stroke-miterlimit:10"/><line x1="716.14" y1="602.67" x2="716.14" y2="927.55" style="fill:#fff;stroke:#231f20;stroke-miterlimit:10"/></g><polyline id="bottom-line-26" data-name="bottom-line" points="755.08 895.7 716.14 927.55 615.83 927.55" style="fill:none;stroke:#231f20;stroke-miterlimit:10;stroke-width:2px"/></g></g><g id="bar-clip-27" data-name="bar-clip"><g style="clip-path:url(#clip-path-27)"><g id="bar-27" data-name="bar"><polygon points="785.08 964.25 785.08 640.85 823.37 609.53 922.32 609.53 922.32 932.93 884.04 964.25 785.08 964.25" style="fill:#fff"/><path d="M931.32,620.25V942.18L893.68,973h-97.6V651l37.64-30.79h97.6m2-2H833L794.08,650.1V975H894.39l38.93-31.84V618.25Z" transform="translate(-10 -9.72)" style="fill:#231f20"/><polyline points="923.32 608.53 884.39 640.38 784.08 640.38" style="fill:#fff;stroke:#231f20;stroke-miterlimit:10"/><line x1="884.39" y1="640.38" x2="884.39" y2="965.25" style="fill:#fff;stroke:#231f20;stroke-miterlimit:10"/></g><polyline id="bottom-line-27" data-name="bottom-line" points="923.32 933.41 884.39 965.25 784.08 965.25" style="fill:none;stroke:#231f20;stroke-miterlimit:10;stroke-width:2px"/></g></g><g id="bar-clip-28" data-name="bar-clip"><g style="clip-path:url(#clip-path-28)"><g id="bar-28" data-name="bar"><polygon points="649.48 994.01 649.48 670.61 687.77 639.28 786.72 639.28 786.72 962.69 748.43 994.01 649.48 994.01" style="fill:#fff"/><path d="M795.72,650V971.93l-37.64,30.8h-97.6V680.8L698.12,650h97.6m2-2H697.41l-38.93,31.85v324.88H758.79l38.93-31.85V648Z" transform="translate(-10 -9.72)" style="fill:#231f20"/><polyline points="787.72 638.28 748.79 670.13 648.48 670.13" style="fill:#fff;stroke:#231f20;stroke-miterlimit:10"/><line x1="748.79" y1="670.13" x2="748.79" y2="995.01" style="fill:#fff;stroke:#231f20;stroke-miterlimit:10"/></g><polyline id="bottom-line-28" data-name="bottom-line" points="787.72 963.16 748.79 995.01 648.48 995.01" style="fill:none;stroke:#231f20;stroke-miterlimit:10;stroke-width:2px"/></g></g><g id="bar-clip-29" data-name="bar-clip"><g style="clip-path:url(#clip-path-29)"><g id="bar-29" data-name="bar"><polygon points="351.98 926.55 351.98 603.15 390.27 571.83 489.23 571.83 489.23 895.23 450.94 926.55 351.98 926.55" style="fill:#fff"/><path d="M498.23,582.54V904.47l-37.65,30.8H363V613.34l37.65-30.8h97.6m2-2H399.91L361,612.39V937.27H461.3l38.93-31.85V580.54Z" transform="translate(-10 -9.72)" style="fill:#231f20"/><polyline points="490.23 570.83 451.3 602.67 350.98 602.67" style="fill:#fff;stroke:#231f20;stroke-miterlimit:10"/><line x1="451.3" y1="602.67" x2="451.3" y2="927.55" style="fill:#fff;stroke:#231f20;stroke-miterlimit:10"/></g><polyline id="bottom-line-29" data-name="bottom-line" points="490.23 895.7 451.3 927.55 350.98 927.55" style="fill:none;stroke:#231f20;stroke-miterlimit:10;stroke-width:2px"/></g></g><g id="bar-clip-30" data-name="bar-clip"><g style="clip-path:url(#clip-path-30)"><g id="bar-30" data-name="bar"><polygon points="410.3 1020.53 410.3 697.13 448.59 665.81 547.54 665.81 547.54 989.21 509.25 1020.53 410.3 1020.53" style="fill:#fff"/><path d="M556.54,676.53V998.46l-37.64,30.79H421.3V707.32l37.64-30.79h97.6m2-2H458.23L419.3,706.38v324.87H519.61l38.93-31.84V674.53Z" transform="translate(-10 -9.72)" style="fill:#231f20"/><polyline points="548.54 664.81 509.61 696.66 409.3 696.66" style="fill:#fff;stroke:#231f20;stroke-miterlimit:10"/><line x1="509.61" y1="696.66" x2="509.61" y2="1021.53" style="fill:#fff;stroke:#231f20;stroke-miterlimit:10"/></g><polyline id="bottom-line-30" data-name="bottom-line" points="548.54 989.69 509.61 1021.53 409.3 1021.53" style="fill:none;stroke:#231f20;stroke-miterlimit:10;stroke-width:2px"/></g></g><g id="bar-clip-31" data-name="bar-clip"><g style="clip-path:url(#clip-path-31)"><g id="bar-31" data-name="bar"><polygon points="690.15 1063.18 690.15 739.77 728.44 708.45 827.4 708.45 827.4 1031.86 789.11 1063.18 690.15 1063.18" style="fill:#fff"/><path d="M836.4,719.17V1041.1l-37.65,30.8h-97.6V750l37.65-30.8h97.6m2-2H738.08L699.15,749V1073.9H799.46l38.94-31.85V717.17Z" transform="translate(-10 -9.72)" style="fill:#231f20"/><polyline points="828.4 707.45 789.46 739.3 689.15 739.3" style="fill:#fff;stroke:#231f20;stroke-miterlimit:10"/><line x1="789.46" y1="739.3" x2="789.46" y2="1064.18" style="fill:#fff;stroke:#231f20;stroke-miterlimit:10"/></g><polyline id="bottom-line-31" data-name="bottom-line" points="828.4 1032.33 789.46 1064.18 689.15 1064.18" style="fill:none;stroke:#231f20;stroke-miterlimit:10;stroke-width:2px"/></g></g><g id="bar-clip-32" data-name="bar-clip"><g style="clip-path:url(#clip-path-32)"><g id="bar-32" data-name="bar"><polygon points="1366.55 835.48 1366.55 512.08 1404.84 480.76 1503.79 480.76 1503.79 804.16 1465.51 835.48 1366.55 835.48" style="fill:#fff"/><path d="M1512.79,491.47V813.4l-37.64,30.8h-97.6V522.27l37.64-30.8h97.6m2-2H1414.48l-38.93,31.85V846.2h100.31l38.93-31.85V489.47Z" transform="translate(-10 -9.72)" style="fill:#231f20"/><polyline points="1504.79 479.76 1465.86 511.6 1365.55 511.6" style="fill:#fff;stroke:#231f20;stroke-miterlimit:10"/><line x1="1465.86" y1="511.6" x2="1465.86" y2="836.48" style="fill:#fff;stroke:#231f20;stroke-miterlimit:10"/></g><polyline id="bottom-line-32" data-name="bottom-line" points="1504.79 804.63 1465.86 836.48 1365.55 836.48" style="fill:none;stroke:#231f20;stroke-miterlimit:10;stroke-width:2px"/></g></g><g id="bar-clip-33" data-name="bar-clip"><g style="clip-path:url(#clip-path-33)"><g id="bar-33" data-name="bar"><polygon points="1208.98 852.11 1208.98 528.71 1247.27 497.39 1346.23 497.39 1346.23 820.79 1307.94 852.11 1208.98 852.11" style="fill:#fff"/><path d="M1355.23,508.11V830l-37.65,30.8H1220V538.9l37.65-30.79h97.6m2-2H1256.91L1218,538V862.83H1318.3L1357.23,831V506.11Z" transform="translate(-10 -9.72)" style="fill:#231f20"/><polyline points="1347.23 496.39 1308.3 528.23 1207.98 528.23" style="fill:#fff;stroke:#231f20;stroke-miterlimit:10"/><line x1="1308.3" y1="528.23" x2="1308.3" y2="853.11" style="fill:#fff;stroke:#231f20;stroke-miterlimit:10"/></g><polyline id="bottom-line-33" data-name="bottom-line" points="1347.23 821.26 1308.3 853.11 1207.98 853.11" style="fill:none;stroke:#231f20;stroke-miterlimit:10;stroke-width:2px"/></g></g><g id="bar-clip-34" data-name="bar-clip"><g style="clip-path:url(#clip-path-34)"><g id="bar-34" data-name="bar"><polygon points="1364.32 884.82 1364.32 561.41 1402.61 530.09 1501.56 530.09 1501.56 853.5 1463.27 884.82 1364.32 884.82" style="fill:#fff"/><path d="M1510.56,540.81V862.74l-37.64,30.79h-97.6V571.6L1413,540.81h97.6m2-2H1412.25l-38.93,31.85V895.53h100.31l38.93-31.84V538.81Z" transform="translate(-10 -9.72)" style="fill:#231f20"/><polyline points="1502.56 529.09 1463.63 560.94 1363.32 560.94" style="fill:#fff;stroke:#231f20;stroke-miterlimit:10"/><line x1="1463.63" y1="560.94" x2="1463.63" y2="885.82" style="fill:#fff;stroke:#231f20;stroke-miterlimit:10"/></g><polyline id="bottom-line-34" data-name="bottom-line" points="1502.56 853.97 1463.63 885.82 1363.32 885.82" style="fill:none;stroke:#231f20;stroke-miterlimit:10;stroke-width:2px"/></g></g><g id="bar-clip-35" data-name="bar-clip"><g style="clip-path:url(#clip-path-35)"><g id="bar-35" data-name="bar"><polygon points="1241.63 930.27 1241.63 606.87 1279.92 575.55 1378.88 575.55 1378.88 898.95 1340.59 930.27 1241.63 930.27" style="fill:#fff"/><path d="M1387.88,586.27V908.2L1350.23,939h-97.6V617.06l37.65-30.79h97.6m2-2H1289.56l-38.93,31.84V941h100.31l38.94-31.85V584.27Z" transform="translate(-10 -9.72)" style="fill:#231f20"/><polyline points="1379.88 574.55 1340.94 606.4 1240.63 606.4" style="fill:#fff;stroke:#231f20;stroke-miterlimit:10"/><line x1="1340.94" y1="606.4" x2="1340.94" y2="931.27" style="fill:#fff;stroke:#231f20;stroke-miterlimit:10"/></g><polyline id="bottom-line-35" data-name="bottom-line" points="1379.88 899.43 1340.94 931.27 1240.63 931.27" style="fill:none;stroke:#231f20;stroke-miterlimit:10;stroke-width:2px"/></g></g><g id="bar-clip-36" data-name="bar-clip"><g style="clip-path:url(#clip-path-36)"><g id="bar-36" data-name="bar"><polygon points="1086.58 908.12 1086.58 584.72 1124.86 553.4 1223.82 553.4 1223.82 876.8 1185.53 908.12 1086.58 908.12" style="fill:#fff"/><path d="M1232.82,564.12V886.05l-37.65,30.79h-97.59V594.91l37.64-30.79h97.6m2-2H1134.51L1095.58,594V918.84h100.31L1234.82,887V562.12Z" transform="translate(-10 -9.72)" style="fill:#231f20"/><polyline points="1224.82 552.4 1185.89 584.25 1085.58 584.25" style="fill:#fff;stroke:#231f20;stroke-miterlimit:10"/><line x1="1185.89" y1="584.25" x2="1185.89" y2="909.12" style="fill:#fff;stroke:#231f20;stroke-miterlimit:10"/></g><polyline id="bottom-line-36" data-name="bottom-line" points="1224.82 877.28 1185.89 909.12 1085.58 909.12" style="fill:none;stroke:#231f20;stroke-miterlimit:10;stroke-width:2px"/></g></g><g id="bar-clip-37" data-name="bar-clip"><g style="clip-path:url(#clip-path-37)"><g id="bar-37" data-name="bar"><polygon points="1333.4 981.62 1333.4 658.22 1371.69 626.9 1470.65 626.9 1470.65 950.3 1432.36 981.62 1333.4 981.62" style="fill:#fff"/><path d="M1479.65,637.62V959.55L1442,990.34h-97.6V668.41l37.65-30.79h97.6m2-2H1381.34l-38.94,31.84V992.34h100.32l38.93-31.85V635.62Z" transform="translate(-10 -9.72)" style="fill:#231f20"/><polyline points="1471.65 625.9 1432.72 657.75 1332.4 657.75" style="fill:#fff;stroke:#231f20;stroke-miterlimit:10"/><line x1="1432.72" y1="657.75" x2="1432.72" y2="982.62" style="fill:#fff;stroke:#231f20;stroke-miterlimit:10"/></g><polyline id="bottom-line-37" data-name="bottom-line" points="1471.65 950.78 1432.72 982.62 1332.4 982.62" style="fill:none;stroke:#231f20;stroke-miterlimit:10;stroke-width:2px"/></g></g><g id="bar-clip-38" data-name="bar-clip"><g style="clip-path:url(#clip-path-38)"><g id="bar-38" data-name="bar"><polygon points="1347.05 1043.72 1347.05 720.32 1385.34 688.99 1484.3 688.99 1484.3 1012.4 1446.01 1043.72 1347.05 1043.72" style="fill:#fff"/><path d="M1493.3,699.71v321.93l-37.65,30.8h-97.6V730.51l37.65-30.8h97.6m2-2H1395l-38.93,31.85v324.88h100.31l38.94-31.85V697.71Z" transform="translate(-10 -9.72)" style="fill:#231f20"/><polyline points="1485.3 687.99 1446.36 719.84 1346.05 719.84" style="fill:#fff;stroke:#231f20;stroke-miterlimit:10"/><line x1="1446.36" y1="719.84" x2="1446.36" y2="1044.72" style="fill:#fff;stroke:#231f20;stroke-miterlimit:10"/></g><polyline id="bottom-line-38" data-name="bottom-line" points="1485.3 1012.87 1446.36 1044.72 1346.05 1044.72" style="fill:none;stroke:#231f20;stroke-miterlimit:10;stroke-width:2px"/></g></g><g id="bar-clip-39" data-name="bar-clip"><g style="clip-path:url(#clip-path-39)"><g id="bar-39" data-name="bar"><polygon points="1053.65 981.62 1053.65 658.22 1091.94 626.9 1190.89 626.9 1190.89 950.3 1152.61 981.62 1053.65 981.62" style="fill:#fff"/><path d="M1199.89,637.62V959.55l-37.64,30.79h-97.6V668.41l37.64-30.79h97.6m2-2H1101.58l-38.93,31.84V992.34H1163l38.93-31.85V635.62Z" transform="translate(-10 -9.72)" style="fill:#231f20"/><polyline points="1191.89 625.9 1152.96 657.75 1052.65 657.75" style="fill:#fff;stroke:#231f20;stroke-miterlimit:10"/><line x1="1152.96" y1="657.75" x2="1152.96" y2="982.62" style="fill:#fff;stroke:#231f20;stroke-miterlimit:10"/></g><polyline id="bottom-line-39" data-name="bottom-line" points="1191.89 950.78 1152.96 982.62 1052.65 982.62" style="fill:none;stroke:#231f20;stroke-miterlimit:10;stroke-width:2px"/></g></g><g id="bar-clip-40" data-name="bar-clip"><g style="clip-path:url(#clip-path-40)"><g id="bar-40" data-name="bar"><polygon points="1023.88 1063.18 1023.88 739.77 1062.17 708.45 1161.13 708.45 1161.13 1031.86 1122.84 1063.18 1023.88 1063.18" style="fill:#fff"/><path d="M1170.13,719.17V1041.1l-37.65,30.8h-97.59V750l37.64-30.8h97.6m2-2H1071.82L1032.89,749V1073.9H1133.2l38.93-31.85V717.17Z" transform="translate(-10 -9.72)" style="fill:#231f20"/><polyline points="1162.13 707.45 1123.2 739.3 1022.88 739.3" style="fill:#fff;stroke:#231f20;stroke-miterlimit:10"/><line x1="1123.2" y1="739.3" x2="1123.2" y2="1064.18" style="fill:#fff;stroke:#231f20;stroke-miterlimit:10"/></g><polyline id="bottom-line-40" data-name="bottom-line" points="1162.13 1032.33 1123.2 1064.18 1022.88 1064.18" style="fill:none;stroke:#231f20;stroke-miterlimit:10;stroke-width:2px"/></g></g><g id="bar-clip-41" data-name="bar-clip"><g style="clip-path:url(#clip-path-41)"><g id="bar-41" data-name="bar"><polygon points="1176.34 1013.84 1176.34 690.44 1214.62 659.12 1313.58 659.12 1313.58 982.52 1275.29 1013.84 1176.34 1013.84" style="fill:#fff"/><path d="M1322.58,669.84V991.77l-37.65,30.79h-97.59V700.63L1225,669.84h97.6m2-2H1224.27l-38.93,31.84v324.88h100.31l38.93-31.85V667.84Z" transform="translate(-10 -9.72)" style="fill:#231f20"/><polyline points="1314.58 658.12 1275.65 689.97 1175.34 689.97" style="fill:#fff;stroke:#231f20;stroke-miterlimit:10"/><line x1="1275.65" y1="689.96" x2="1275.65" y2="1014.84" style="fill:#fff;stroke:#231f20;stroke-miterlimit:10"/></g><polyline id="bottom-line-41" data-name="bottom-line" points="1314.58 983 1275.65 1014.84 1175.34 1014.84" style="fill:none;stroke:#231f20;stroke-miterlimit:10;stroke-width:2px"/></g></g><g id="bar-clip-42" data-name="bar-clip"><g style="clip-path:url(#clip-path-42)"><g id="bar-42" data-name="bar"><polygon points="1223.73 1108.64 1223.73 785.23 1262.02 753.91 1360.98 753.91 1360.98 1077.32 1322.69 1108.64 1223.73 1108.64" style="fill:#fff"/><path d="M1370,764.63v321.93l-37.65,30.79h-97.6V795.42l37.65-30.79H1370m2-2H1271.66l-38.93,31.85v324.87H1333l38.94-31.84V762.63Z" transform="translate(-10 -9.72)" style="fill:#231f20"/><polyline points="1361.98 752.91 1323.04 784.76 1222.73 784.76" style="fill:#fff;stroke:#231f20;stroke-miterlimit:10"/><line x1="1323.04" y1="784.76" x2="1323.04" y2="1109.64" style="fill:#fff;stroke:#231f20;stroke-miterlimit:10"/></g><polyline id="bottom-line-42" data-name="bottom-line" points="1361.98 1077.79 1323.04 1109.63 1222.73 1109.63" style="fill:none;stroke:#231f20;stroke-miterlimit:10;stroke-width:2px"/></g></g><g id="bar-clip-43" data-name="bar-clip"><g style="clip-path:url(#clip-path-43)"><g id="bar-43" data-name="bar"><polygon points="1070.91 1176.1 1070.91 852.69 1109.2 821.37 1208.16 821.37 1208.16 1144.77 1169.87 1176.1 1070.91 1176.1" style="fill:#fff"/><path d="M1217.16,832.09V1154l-37.65,30.79h-97.6V862.88l37.65-30.79h97.6m2-2H1118.85l-38.94,31.85v324.87h100.32l38.93-31.84V830.09Z" transform="translate(-10 -9.72)" style="fill:#231f20"/><polyline points="1209.16 820.37 1170.23 852.22 1069.91 852.22" style="fill:#fff;stroke:#231f20;stroke-miterlimit:10"/><line x1="1170.23" y1="852.22" x2="1170.23" y2="1177.09" style="fill:#fff;stroke:#231f20;stroke-miterlimit:10"/></g><polyline id="bottom-line-43" data-name="bottom-line" points="1209.16 1145.25 1170.23 1177.09 1069.91 1177.09" style="fill:none;stroke:#231f20;stroke-miterlimit:10;stroke-width:2px"/></g></g><g id="bar-clip-44" data-name="bar-clip"><g style="clip-path:url(#clip-path-44)"><g id="bar-44" data-name="bar"><polygon points="878.18 978.27 878.18 654.87 916.47 623.55 1015.42 623.55 1015.42 946.95 977.13 978.27 878.18 978.27" style="fill:#fff"/><path d="M1024.42,634.27V956.19L986.78,987h-97.6V665.06l37.64-30.79h97.6m2-2H926.11l-38.93,31.84V989H987.49l38.93-31.85V632.27Z" transform="translate(-10 -9.72)" style="fill:#231f20"/><polyline points="1016.42 622.55 977.49 654.39 877.18 654.39" style="fill:#fff;stroke:#231f20;stroke-miterlimit:10"/><line x1="977.49" y1="654.39" x2="977.49" y2="979.27" style="fill:#fff;stroke:#231f20;stroke-miterlimit:10"/></g><polyline id="bottom-line-44" data-name="bottom-line" points="1016.42 947.42 977.49 979.27 877.18 979.27" style="fill:none;stroke:#231f20;stroke-miterlimit:10;stroke-width:2px"/></g></g><g id="bar-clip-45" data-name="bar-clip"><g style="clip-path:url(#clip-path-45)"><g id="bar-45" data-name="bar"><polygon points="854.7 1086.48 854.7 763.08 892.99 731.76 991.95 731.76 991.95 1055.16 953.66 1086.48 854.7 1086.48" style="fill:#fff"/><path d="M1001,742.48v321.93L963.3,1095.2H865.7V773.27l37.65-30.79H1001m2-2H902.63L863.7,772.33V1097.2H964l38.94-31.84V740.48Z" transform="translate(-10 -9.72)" style="fill:#231f20"/><polyline points="992.95 730.76 954.01 762.61 853.7 762.61" style="fill:#fff;stroke:#231f20;stroke-miterlimit:10"/><line x1="954.01" y1="762.61" x2="954.01" y2="1087.48" style="fill:#fff;stroke:#231f20;stroke-miterlimit:10"/></g><polyline id="bottom-line-45" data-name="bottom-line" points="992.95 1055.64 954.01 1087.48 853.7 1087.48" style="fill:none;stroke:#231f20;stroke-miterlimit:10;stroke-width:2px"/></g></g><g id="bar-clip-46" data-name="bar-clip"><g style="clip-path:url(#clip-path-46)"><g id="bar-46" data-name="bar"><polygon points="419.38 1104.91 419.38 781.51 457.66 750.19 556.62 750.19 556.62 1073.59 518.33 1104.91 419.38 1104.91" style="fill:#fff"/><path d="M565.62,760.91v321.92L528,1113.63H430.38V791.7L468,760.91h97.6m2-2H467.31l-38.93,31.84v324.88H528.69l38.93-31.85V758.91Z" transform="translate(-10 -9.72)" style="fill:#231f20"/><polyline points="557.62 749.19 518.69 781.03 418.38 781.03" style="fill:#fff;stroke:#231f20;stroke-miterlimit:10"/><line x1="518.69" y1="781.03" x2="518.69" y2="1105.91" style="fill:#fff;stroke:#231f20;stroke-miterlimit:10"/></g><polyline id="bottom-line-46" data-name="bottom-line" points="557.62 1074.07 518.69 1105.91 418.38 1105.91" style="fill:none;stroke:#231f20;stroke-miterlimit:10;stroke-width:2px"/></g></g><g id="bar-clip-47" data-name="bar-clip"><g style="clip-path:url(#clip-path-47)"><g id="bar-47" data-name="bar"><polygon points="241.06 1059.45 241.06 736.05 279.35 704.73 378.31 704.73 378.31 1028.13 340.02 1059.45 241.06 1059.45" style="fill:#fff"/><path d="M387.31,715.45v321.93l-37.65,30.79h-97.6V746.24l37.65-30.79h97.6m2-2H289l-38.93,31.84v324.88H350.38l38.93-31.84V713.45Z" transform="translate(-10 -9.72)" style="fill:#231f20"/><polyline points="379.31 703.73 340.38 735.58 240.06 735.58" style="fill:#fff;stroke:#231f20;stroke-miterlimit:10"/><line x1="340.38" y1="735.58" x2="340.38" y2="1060.45" style="fill:#fff;stroke:#231f20;stroke-miterlimit:10"/></g><polyline id="bottom-line-47" data-name="bottom-line" points="379.31 1028.61 340.38 1060.45 240.06 1060.45" style="fill:none;stroke:#231f20;stroke-miterlimit:10;stroke-width:2px"/></g></g><g id="bar-clip-48" data-name="bar-clip"><g style="clip-path:url(#clip-path-48)"><g id="bar-48" data-name="bar"><polygon points="597.69 1159.98 597.69 836.58 635.98 805.26 734.93 805.26 734.93 1128.66 696.64 1159.98 597.69 1159.98" style="fill:#fff"/><path d="M743.93,816v321.93l-37.64,30.79h-97.6V846.77L646.33,816h97.6m2-2H645.62l-38.93,31.85V1170.7H707l38.93-31.84V814Z" transform="translate(-10 -9.72)" style="fill:#231f20"/><polyline points="735.93 804.26 697 836.11 596.69 836.11" style="fill:#fff;stroke:#231f20;stroke-miterlimit:10"/><line x1="697" y1="836.11" x2="697" y2="1160.98" style="fill:#fff;stroke:#231f20;stroke-miterlimit:10"/></g><polyline id="bottom-line-48" data-name="bottom-line" points="735.93 1129.14 697 1160.98 596.69 1160.98" style="fill:none;stroke:#231f20;stroke-miterlimit:10;stroke-width:2px"/></g></g><g id="bar-clip-49" data-name="bar-clip"><g style="clip-path:url(#clip-path-49)"><g id="bar-49" data-name="bar"><polygon points="282.36 1156.63 282.36 833.23 320.65 801.91 419.61 801.91 419.61 1125.31 381.32 1156.63 282.36 1156.63" style="fill:#fff"/><path d="M428.61,812.63v321.93L391,1165.35h-97.6V843.42L331,812.63h97.6m2-2H330.29l-38.93,31.84v324.88H391.67l38.94-31.85V810.63Z" transform="translate(-10 -9.72)" style="fill:#231f20"/><polyline points="420.61 800.91 381.67 832.76 281.36 832.76" style="fill:#fff;stroke:#231f20;stroke-miterlimit:10"/><line x1="381.67" y1="832.76" x2="381.67" y2="1157.63" style="fill:#fff;stroke:#231f20;stroke-miterlimit:10"/></g><polyline id="bottom-line-49" data-name="bottom-line" points="420.61 1125.79 381.67 1157.63 281.36 1157.63" style="fill:none;stroke:#231f20;stroke-miterlimit:10;stroke-width:2px"/></g></g><g id="bar-clip-50" data-name="bar-clip"><g style="clip-path:url(#clip-path-50)"><g id="bar-50" data-name="bar"><polygon points="1 996.73 1 673.33 39.29 642.01 138.24 642.01 138.24 965.41 99.96 996.73 1 996.73" style="fill:#fff"/><path d="M147.24,652.73V974.66l-37.64,30.79H12V683.52l37.65-30.79h97.59m2-2H48.93L10,682.57v324.88H110.31l38.93-31.85V650.73Z" transform="translate(-10 -9.72)" style="fill:#231f20"/><polyline points="139.24 641.01 100.31 672.86 0 672.86" style="fill:#fff;stroke:#231f20;stroke-miterlimit:10"/><line x1="100.31" y1="672.86" x2="100.31" y2="997.73" style="fill:#fff;stroke:#231f20;stroke-miterlimit:10"/></g><polyline id="bottom-line-50" data-name="bottom-line" points="139.24 965.88 100.31 997.73 0 997.73" style="fill:none;stroke:#231f20;stroke-miterlimit:10;stroke-width:2px"/></g></g><g id="bar-clip-51" data-name="bar-clip"><g style="clip-path:url(#clip-path-51)"><g id="bar-51" data-name="bar"><polygon points="5.67 1086.48 5.67 763.08 43.95 731.76 142.91 731.76 142.91 1055.16 104.62 1086.48 5.67 1086.48" style="fill:#fff"/><path d="M151.91,742.48v321.93l-37.65,30.79H16.67V773.27l37.64-30.79h97.6m2-2H53.6L14.67,772.33V1097.2H115l38.93-31.84V740.48Z" transform="translate(-10 -9.72)" style="fill:#231f20"/><polyline points="143.91 730.76 104.98 762.61 4.67 762.61" style="fill:#fff;stroke:#231f20;stroke-miterlimit:10"/><line x1="104.98" y1="762.61" x2="104.98" y2="1087.48" style="fill:#fff;stroke:#231f20;stroke-miterlimit:10"/></g><polyline id="bottom-line-51" data-name="bottom-line" points="143.91 1055.64 104.98 1087.48 4.67 1087.48" style="fill:none;stroke:#231f20;stroke-miterlimit:10;stroke-width:2px"/></g></g><g id="bar-clip-52" data-name="bar-clip"><g style="clip-path:url(#clip-path-52)"><g id="bar-52" data-name="bar"><polygon points="124.46 1108.64 124.46 785.23 162.75 753.91 261.71 753.91 261.71 1077.31 223.42 1108.64 124.46 1108.64" style="fill:#fff"/><path d="M270.71,764.63v321.93l-37.65,30.79h-97.6V795.42l37.65-30.79h97.6m2-2H172.39l-38.93,31.85v324.87H233.77l38.94-31.84V762.63Z" transform="translate(-10 -9.72)" style="fill:#231f20"/><polyline points="262.71 752.91 223.78 784.76 123.46 784.76" style="fill:#fff;stroke:#231f20;stroke-miterlimit:10"/><line x1="223.77" y1="784.76" x2="223.77" y2="1109.64" style="fill:#fff;stroke:#231f20;stroke-miterlimit:10"/></g><polyline id="bottom-line-52" data-name="bottom-line" points="262.71 1077.79 223.78 1109.63 123.46 1109.63" style="fill:none;stroke:#231f20;stroke-miterlimit:10;stroke-width:2px"/></g></g><g id="bar-clip-53" data-name="bar-clip"><g style="clip-path:url(#clip-path-53)"><g id="bar-53" data-name="bar"><polygon points="124.46 1159.98 124.46 836.58 162.75 805.26 261.71 805.26 261.71 1128.66 223.42 1159.98 124.46 1159.98" style="fill:#fff"/><path d="M270.71,816v321.93l-37.65,30.79h-97.6V846.77L173.11,816h97.6m2-2H172.39l-38.93,31.85V1170.7H233.77l38.94-31.84V814Z" transform="translate(-10 -9.72)" style="fill:#231f20"/><polyline points="262.71 804.26 223.78 836.11 123.46 836.11" style="fill:#fff;stroke:#231f20;stroke-miterlimit:10"/><line x1="223.77" y1="836.11" x2="223.77" y2="1160.98" style="fill:#fff;stroke:#231f20;stroke-miterlimit:10"/></g><polyline id="bottom-line-53" data-name="bottom-line" points="262.71 1129.14 223.78 1160.98 123.46 1160.98" style="fill:none;stroke:#231f20;stroke-miterlimit:10;stroke-width:2px"/></g></g><g id="bar-clip-54" data-name="bar-clip"><g style="clip-path:url(#clip-path-54)"><g id="bar-54" data-name="bar"><polygon points="1333.4 1156.63 1333.4 833.23 1371.69 801.91 1470.65 801.91 1470.65 1125.31 1432.36 1156.63 1333.4 1156.63" style="fill:#fff"/><path d="M1479.65,812.63v321.93L1442,1165.35h-97.6V843.42l37.65-30.79h97.6m2-2H1381.34l-38.94,31.84v324.88h100.32l38.93-31.85V810.63Z" transform="translate(-10 -9.72)" style="fill:#231f20"/><polyline points="1471.65 800.91 1432.72 832.76 1332.4 832.76" style="fill:#fff;stroke:#231f20;stroke-miterlimit:10"/><line x1="1432.72" y1="832.76" x2="1432.72" y2="1157.63" style="fill:#fff;stroke:#231f20;stroke-miterlimit:10"/></g><polyline id="bottom-line-54" data-name="bottom-line" points="1471.65 1125.79 1432.72 1157.63 1332.4 1157.63" style="fill:none;stroke:#231f20;stroke-miterlimit:10;stroke-width:2px"/></g></g></svg>