<?xml version="1.0" encoding="utf-8"?>
<!-- Generator: Adobe Illustrator 25.0.1, SVG Export Plug-In . SVG Version: 6.00 Build 0)  -->
<svg version="1.1" id="illu-medical-company" xmlns="http://www.w3.org/2000/svg" xmlns:xlink="http://www.w3.org/1999/xlink"
	 x="0px" y="0px" viewBox="0 0 1280 890.8" style="enable-background:new 0 0 1280 890.8;" xml:space="preserve">
<g id="background">
	<g>
		<g>
			<path style="fill:none;stroke:#231F20;stroke-miterlimit:10;" d="M832.6,232.2c5.9,0,5.9,12,11.8,12c5.9,0,6-12,11.9-12
				c5.9,0,5.9,12,11.8,12c5.9,0,6-12,11.9-12c5.9,0,5.9,12,11.8,12c5.9,0,6-12,11.9-12c5.9,0,5.9,12,11.8,12c5.9,0,6-12,11.9-12
				c5.9,0,5.9,12,11.8,12c5.9,0,6-12,11.9-12c5.9,0,5.9,12,11.8,12c5.9,0,6-12,11.9-12c5.9,0,5.9,12,11.8,12c5.9,0,6-12,11.9-12
				c5.9,0,5.9,12,11.8,12c5.9,0,6-12,11.9-12c5.9,0,5.9,12,11.8,12c5.9,0,6-12,11.9-12c5.9,0,5.9,12,11.8,12c5.9,0,6-12,11.9-12
				c5.9,0,5.9,12,11.8,12c5.9,0,6-12,11.9-12c5.9,0,5.9,12,11.8,12c5.9,0,6-12,11.9-12c5.9,0,5.9,12,11.8,12c5.9,0,6-12,11.9-12
				c5.9,0,5.9,12,11.8,12c5.9,0,6-12,11.9-12c5.9,0,5.9,12,11.8,12c5.9,0,6-12,11.9-12c5.9,0,5.9,12,11.8,12c5.9,0,6-12,11.9-12
				c5.9,0,5.9,12,11.8,12c5.9,0,6-12,11.9-12c5.9,0,5.9,12,11.8,12c5.9,0,6-12,11.9-12c5.9,0,5.9,12,11.8,12c5.9,0,6-12,11.9-12
				c5.9,0,5.9,12,11.8,12c5.9,0,6-12,11.9-12c5.9,0,5.9,12,11.8,12c5.9,0,6-12,11.9-12c5.9,0,5.9,12,11.8,12c5.9,0,6-12,11.9-12
				c5.9,0,5.9,12,11.8,12c5.9,0,6-12,11.9-12c5.9,0,5.9,12,11.8,12c5.9,0,6-12,11.9-12c5.9,0,5.9,12,11.8,12c5.9,0,6-12,11.9-12
				c5.9,0,5.9,12,11.8,12c5.9,0,6-12,11.9-12c5.9,0,5.9,12,11.8,12c5.9,0,6-12,11.9-12c5.9,0,5.9,12,11.8,12c5.9,0,6-12,11.9-12
				c5.9,0,5.9,12,11.8,12c5.9,0,6-12,11.9-12c5.9,0,5.9,12,11.8,12c5.9,0,6-12,11.9-12c5.9,0,5.9,12,11.8,12c5.9,0,6-12,11.9-12
				c5.9,0,5.9,12,11.8,12c5.9,0,6-12,11.9-12c5.9,0,5.9,12,11.8,12c5.9,0,6-12,11.9-12c5.9,0,5.9,12,11.8,12c5.9,0,6-12,11.9-12
				c5.9,0,5.9,12,11.8,12c5.9,0,6-12,11.9-12c5.9,0,5.9,12,11.8,12c5.9,0,6-12,11.9-12c5.9,0,5.9,12,11.8,12c5.9,0,6-12,11.9-12
				c5.9,0,5.9,12,11.8,12c5.9,0,6-12,11.9-12c5.9,0,5.9,12,11.8,12"/>
		</g>
		<g>
			<path style="fill:none;stroke:#231F20;stroke-miterlimit:10;" d="M807.3,252c6.1,0,6.1,12,12.1,12c6.1,0,6.1-12,12.2-12
				c6.1,0,6.1,12,12.1,12c6.1,0,6.1-12,12.2-12c6.1,0,6.1,12,12.1,12c6.1,0,6.1-12,12.2-12c6.1,0,6.1,12,12.1,12
				c6.1,0,6.1-12,12.2-12c6.1,0,6.1,12,12.1,12c6.1,0,6.1-12,12.2-12c6.1,0,6.1,12,12.1,12c6.1,0,6.1-12,12.2-12s6.1,12,12.1,12
				c6.1,0,6.1-12,12.2-12c6.1,0,6.1,12,12.1,12c6.1,0,6.1-12,12.2-12c6.1,0,6.1,12,12.1,12c6.1,0,6.1-12,12.2-12
				c6.1,0,6.1,12,12.1,12c6.1,0,6.1-12,12.2-12c6.1,0,6.1,12,12.1,12c6.1,0,6.1-12,12.2-12c6.1,0,6.1,12,12.1,12
				c6.1,0,6.1-12,12.2-12c6.1,0,6.1,12,12.1,12c6.1,0,6.1-12,12.2-12c6.1,0,6.1,12,12.1,12c6.1,0,6.1-12,12.2-12
				c6.1,0,6.1,12,12.1,12c6.1,0,6.1-12,12.2-12c6.1,0,6.1,12,12.1,12c6.1,0,6.1-12,12.2-12c6.1,0,6.1,12,12.1,12
				c6.1,0,6.1-12,12.2-12c6.1,0,6.1,12,12.1,12c6.1,0,6.1-12,12.2-12c6.1,0,6.1,12,12.1,12c6.1,0,6.1-12,12.2-12
				c6.1,0,6.1,12,12.1,12c6.1,0,6.1-12,12.2-12c6.1,0,6.1,12,12.1,12c6.1,0,6.1-12,12.2-12c6.1,0,6.1,12,12.1,12
				c6.1,0,6.1-12,12.2-12c6.1,0,6.1,12,12.1,12c6.1,0,6.1-12,12.2-12c6.1,0,6.1,12,12.1,12c6.1,0,6.1-12,12.2-12
				c6.1,0,6.1,12,12.1,12c6.1,0,6.1-12,12.2-12c6.1,0,6.1,12,12.1,12c6.1,0,6.1-12,12.2-12c6.1,0,6.1,12,12.1,12
				c6.1,0,6.1-12,12.2-12c6.1,0,6.1,12,12.1,12c6.1,0,6.1-12,12.2-12c6.1,0,6.1,12,12.1,12c6.1,0,6.1-12,12.2-12
				c6.1,0,6.1,12,12.1,12c6.1,0,6.1-12,12.2-12c6.1,0,6.1,12,12.1,12c6.1,0,6.1-12,12.2-12c6.1,0,6.1,12,12.1,12
				c6.1,0,6.1-12,12.2-12c6.1,0,6.1,12,12.1,12c6.1,0,6.1-12,12.2-12c6.1,0,6.1,12,12.2,12c6.1,0,6.1-12,12.2-12
				c6.1,0,6.1,12,12.2,12c6.1,0,6.1-12,12.2-12c6.1,0,6.1,12,12.2,12c6.1,0,6.1-12,12.2-12c6.1,0,6.1,12,12.2,12
				c6.1,0,6.1-12,12.2-12c6.1,0,6.1,12,12.2,12c6.1,0,6.1-12,12.2-12c6.1,0,6.1,12,12.2,12"/>
		</g>
		<g>
			<path style="fill:none;stroke:#231F20;stroke-miterlimit:10;" d="M782.1,271.8c6.3,0,6.2,12,12.5,12c6.3,0,6.3-12,12.6-12
				c6.3,0,6.2,12,12.5,12c6.3,0,6.3-12,12.6-12c6.3,0,6.2,12,12.5,12c6.3,0,6.3-12,12.6-12c6.3,0,6.2,12,12.5,12
				c6.3,0,6.3-12,12.6-12c6.3,0,6.2,12,12.5,12c6.3,0,6.3-12,12.6-12c6.3,0,6.2,12,12.5,12c6.3,0,6.3-12,12.6-12
				c6.3,0,6.2,12,12.5,12c6.3,0,6.3-12,12.6-12c6.3,0,6.2,12,12.5,12c6.3,0,6.3-12,12.6-12c6.3,0,6.2,12,12.5,12
				c6.3,0,6.3-12,12.5-12c6.3,0,6.2,12,12.5,12c6.3,0,6.3-12,12.6-12c6.3,0,6.2,12,12.5,12c6.3,0,6.3-12,12.5-12
				c6.3,0,6.2,12,12.5,12c6.3,0,6.3-12,12.5-12c6.3,0,6.2,12,12.5,12c6.3,0,6.3-12,12.6-12c6.3,0,6.2,12,12.5,12
				c6.3,0,6.3-12,12.5-12c6.3,0,6.2,12,12.5,12c6.3,0,6.3-12,12.6-12c6.3,0,6.2,12,12.5,12c6.3,0,6.3-12,12.5-12
				c6.3,0,6.2,12,12.5,12c6.3,0,6.3-12,12.6-12c6.3,0,6.2,12,12.5,12c6.3,0,6.3-12,12.6-12c6.3,0,6.2,12,12.5,12
				c6.3,0,6.3-12,12.6-12c6.3,0,6.2,12,12.5,12c6.3,0,6.3-12,12.6-12c6.3,0,6.2,12,12.5,12c6.3,0,6.3-12,12.6-12
				c6.3,0,6.2,12,12.5,12c6.3,0,6.3-12,12.6-12c6.3,0,6.2,12,12.5,12c6.3,0,6.3-12,12.6-12c6.3,0,6.2,12,12.5,12
				c6.3,0,6.3-12,12.6-12c6.3,0,6.2,12,12.5,12c6.3,0,6.3-12,12.6-12c6.3,0,6.2,12,12.5,12c6.3,0,6.3-12,12.6-12
				c6.3,0,6.2,12,12.5,12c6.3,0,6.3-12,12.6-12c6.3,0,6.2,12,12.5,12c6.3,0,6.3-12,12.6-12c6.3,0,6.2,12,12.5,12
				c6.3,0,6.3-12,12.6-12c6.3,0,6.2,12,12.5,12c6.3,0,6.3-12,12.6-12c6.3,0,6.2,12,12.5,12c6.3,0,6.3-12,12.6-12
				c6.3,0,6.2,12,12.5,12c6.3,0,6.3-12,12.6-12c6.3,0,6.2,12,12.5,12c6.3,0,6.3-12,12.6-12c6.3,0,6.2,12,12.5,12
				c6.3,0,6.3-12,12.6-12c6.3,0,6.2,12,12.5,12c6.3,0,6.3-12,12.6-12c6.3,0,6.2,12,12.5,12c6.3,0,6.3-12,12.6-12
				c6.3,0,6.2,12,12.5,12c6.3,0,6.3-12,12.6-12c6.3,0,6.2,12,12.5,12c6.3,0,6.3-12,12.6-12c6.3,0,6.2,12,12.5,12"/>
		</g>
		<g>
			<path style="fill:none;stroke:#231F20;stroke-miterlimit:10;" d="M756.9,291.6c6.4,0,6.4,12,12.8,12c6.4,0,6.5-12,12.9-12
				c6.4,0,6.4,12,12.8,12c6.4,0,6.5-12,12.9-12c6.4,0,6.4,12,12.8,12c6.4,0,6.5-12,12.9-12c6.4,0,6.4,12,12.8,12
				c6.4,0,6.5-12,12.9-12c6.4,0,6.4,12,12.8,12c6.4,0,6.5-12,12.9-12c6.4,0,6.4,12,12.8,12c6.4,0,6.5-12,12.9-12
				c6.4,0,6.4,12,12.8,12c6.4,0,6.5-12,12.9-12c6.4,0,6.4,12,12.8,12c6.4,0,6.5-12,12.9-12c6.4,0,6.4,12,12.8,12
				c6.4,0,6.5-12,12.9-12c6.4,0,6.4,12,12.8,12c6.4,0,6.5-12,12.9-12c6.4,0,6.4,12,12.8,12c6.4,0,6.5-12,12.9-12
				c6.4,0,6.4,12,12.8,12c6.4,0,6.5-12,12.9-12c6.4,0,6.4,12,12.8,12c6.4,0,6.5-12,12.9-12c6.4,0,6.4,12,12.8,12
				c6.4,0,6.5-12,12.9-12c6.4,0,6.4,12,12.8,12c6.4,0,6.5-12,12.9-12c6.4,0,6.4,12,12.8,12c6.4,0,6.5-12,12.9-12
				c6.4,0,6.4,12,12.8,12c6.4,0,6.5-12,12.9-12c6.4,0,6.4,12,12.8,12c6.4,0,6.5-12,12.9-12c6.4,0,6.4,12,12.8,12
				c6.4,0,6.5-12,12.9-12c6.4,0,6.4,12,12.8,12c6.4,0,6.5-12,12.9-12c6.4,0,6.4,12,12.8,12c6.4,0,6.5-12,12.9-12
				c6.4,0,6.4,12,12.8,12c6.4,0,6.5-12,12.9-12c6.4,0,6.4,12,12.8,12c6.4,0,6.5-12,12.9-12c6.4,0,6.4,12,12.8,12
				c6.4,0,6.5-12,12.9-12c6.4,0,6.4,12,12.8,12c6.4,0,6.5-12,12.9-12c6.4,0,6.4,12,12.8,12c6.4,0,6.5-12,12.9-12
				c6.4,0,6.4,12,12.8,12c6.4,0,6.5-12,12.9-12c6.4,0,6.4,12,12.8,12c6.4,0,6.5-12,12.9-12c6.4,0,6.4,12,12.8,12
				c6.4,0,6.5-12,12.9-12s6.4,12,12.8,12s6.5-12,12.9-12c6.4,0,6.4,12,12.8,12c6.4,0,6.5-12,12.9-12c6.4,0,6.4,12,12.8,12
				c6.4,0,6.5-12,12.9-12c6.4,0,6.4,12,12.8,12c6.4,0,6.5-12,12.9-12c6.4,0,6.4,12,12.8,12c6.4,0,6.5-12,12.9-12
				c6.4,0,6.4,12,12.8,12c6.4,0,6.5-12,12.9-12c6.4,0,6.4,12,12.8,12c6.4,0,6.5-12,12.9-12c6.4,0,6.4,12,12.8,12
				c6.4,0,6.5-12,12.9-12c6.4,0,6.4,12,12.8,12c6.4,0,6.5-12,12.9-12c6.4,0,6.4,12,12.8,12"/>
		</g>
		<g>
			<path style="fill:none;stroke:#231F20;stroke-miterlimit:10;" d="M731.6,311.3c6.6,0,6.6,12,13.1,12c6.6,0,6.6-12,13.2-12
				c6.6,0,6.6,12,13.1,12c6.6,0,6.6-12,13.2-12c6.6,0,6.6,12,13.1,12c6.6,0,6.6-12,13.2-12c6.6,0,6.6,12,13.1,12
				c6.6,0,6.6-12,13.2-12c6.6,0,6.6,12,13.1,12c6.6,0,6.6-12,13.2-12c6.6,0,6.6,12,13.1,12c6.6,0,6.6-12,13.2-12
				c6.6,0,6.6,12,13.1,12c6.6,0,6.6-12,13.2-12c6.6,0,6.6,12,13.1,12c6.6,0,6.6-12,13.2-12c6.6,0,6.6,12,13.1,12s6.6-12,13.2-12
				c6.6,0,6.6,12,13.1,12c6.6,0,6.6-12,13.2-12c6.6,0,6.6,12,13.1,12c6.6,0,6.6-12,13.2-12c6.6,0,6.5,12,13.1,12
				c6.6,0,6.6-12,13.2-12c6.6,0,6.6,12,13.1,12c6.6,0,6.6-12,13.2-12c6.6,0,6.5,12,13.1,12c6.6,0,6.6-12,13.2-12
				c6.6,0,6.5,12,13.1,12c6.6,0,6.6-12,13.2-12c6.6,0,6.6,12,13.1,12c6.6,0,6.6-12,13.2-12c6.6,0,6.6,12,13.1,12
				c6.6,0,6.6-12,13.2-12c6.6,0,6.6,12,13.1,12c6.6,0,6.6-12,13.2-12c6.6,0,6.6,12,13.1,12c6.6,0,6.6-12,13.2-12
				c6.6,0,6.6,12,13.1,12c6.6,0,6.6-12,13.2-12c6.6,0,6.6,12,13.1,12c6.6,0,6.6-12,13.2-12c6.6,0,6.6,12,13.1,12
				c6.6,0,6.6-12,13.2-12s6.6,12,13.1,12c6.6,0,6.6-12,13.2-12c6.6,0,6.6,12,13.1,12c6.6,0,6.6-12,13.2-12c6.6,0,6.6,12,13.1,12
				c6.6,0,6.6-12,13.2-12c6.6,0,6.6,12,13.1,12c6.6,0,6.6-12,13.2-12c6.6,0,6.6,12,13.1,12c6.6,0,6.6-12,13.2-12
				c6.6,0,6.6,12,13.1,12c6.6,0,6.6-12,13.2-12c6.6,0,6.6,12,13.1,12c6.6,0,6.6-12,13.2-12s6.6,12,13.1,12c6.6,0,6.6-12,13.2-12
				c6.6,0,6.6,12,13.1,12c6.6,0,6.6-12,13.2-12c6.6,0,6.6,12,13.1,12c6.6,0,6.6-12,13.2-12c6.6,0,6.6,12,13.1,12
				c6.6,0,6.6-12,13.2-12c6.6,0,6.6,12,13.1,12c6.6,0,6.6-12,13.2-12c6.6,0,6.6,12,13.1,12c6.6,0,6.6-12,13.2-12
				c6.6,0,6.6,12,13.1,12c6.6,0,6.6-12,13.2-12c6.6,0,6.6,12,13.1,12c6.6,0,6.6-12,13.2-12c6.6,0,6.6,12,13.1,12
				c6.6,0,6.6-12,13.2-12c6.6,0,6.6,12,13.2,12"/>
		</g>
		<g>
			<path style="fill:none;stroke:#231F20;stroke-miterlimit:10;" d="M706.4,331.1c6.7,0,6.7,12,13.5,12c6.7,0,6.8-12,13.5-12
				c6.7,0,6.7,12,13.5,12c6.7,0,6.8-12,13.5-12c6.7,0,6.7,12,13.5,12c6.7,0,6.8-12,13.5-12c6.7,0,6.7,12,13.5,12
				c6.7,0,6.8-12,13.5-12c6.7,0,6.7,12,13.5,12c6.7,0,6.8-12,13.5-12c6.7,0,6.7,12,13.5,12c6.7,0,6.8-12,13.5-12
				c6.7,0,6.7,12,13.5,12c6.7,0,6.8-12,13.5-12c6.7,0,6.7,12,13.5,12c6.7,0,6.8-12,13.5-12c6.7,0,6.7,12,13.5,12
				c6.7,0,6.8-12,13.5-12c6.7,0,6.7,12,13.5,12c6.7,0,6.8-12,13.5-12c6.7,0,6.7,12,13.5,12c6.7,0,6.8-12,13.5-12
				c6.7,0,6.7,12,13.5,12c6.7,0,6.8-12,13.5-12c6.7,0,6.7,12,13.5,12c6.7,0,6.8-12,13.5-12c6.7,0,6.7,12,13.5,12
				c6.7,0,6.8-12,13.5-12c6.7,0,6.7,12,13.5,12c6.7,0,6.8-12,13.5-12c6.7,0,6.7,12,13.5,12c6.7,0,6.8-12,13.5-12
				c6.7,0,6.7,12,13.5,12c6.7,0,6.8-12,13.5-12c6.7,0,6.7,12,13.5,12c6.7,0,6.8-12,13.5-12c6.7,0,6.7,12,13.5,12
				c6.7,0,6.8-12,13.5-12c6.7,0,6.7,12,13.5,12c6.7,0,6.8-12,13.5-12c6.7,0,6.7,12,13.5,12c6.7,0,6.8-12,13.5-12
				c6.7,0,6.7,12,13.5,12c6.7,0,6.8-12,13.5-12c6.7,0,6.7,12,13.5,12c6.8,0,6.8-12,13.5-12c6.7,0,6.7,12,13.5,12
				c6.8,0,6.8-12,13.5-12c6.7,0,6.7,12,13.5,12c6.8,0,6.8-12,13.5-12c6.7,0,6.7,12,13.5,12c6.8,0,6.8-12,13.5-12s6.7,12,13.5,12
				c6.7,0,6.8-12,13.5-12c6.8,0,6.7,12,13.5,12c6.8,0,6.8-12,13.5-12c6.8,0,6.7,12,13.5,12c6.8,0,6.8-12,13.5-12
				c6.8,0,6.7,12,13.5,12c6.8,0,6.8-12,13.5-12c6.7,0,6.7,12,13.5,12c6.7,0,6.8-12,13.5-12c6.7,0,6.7,12,13.5,12
				c6.8,0,6.8-12,13.5-12c6.7,0,6.7,12,13.5,12c6.8,0,6.8-12,13.5-12c6.8,0,6.7,12,13.5,12c6.8,0,6.8-12,13.5-12
				c6.8,0,6.7,12,13.5,12c6.8,0,6.8-12,13.5-12c6.8,0,6.7,12,13.5,12c6.7,0,6.8-12,13.5-12c6.8,0,6.7,12,13.5,12
				c6.8,0,6.8-12,13.5-12c6.8,0,6.7,12,13.5,12c6.8,0,6.8-12,13.5-12s6.7,12,13.5,12"/>
		</g>
		<g>
			<path style="fill:none;stroke:#231F20;stroke-miterlimit:10;" d="M681.2,350.9c6.9,0,6.9,12,13.8,12c6.9,0,6.9-12,13.9-12
				c6.9,0,6.9,12,13.8,12c6.9,0,6.9-12,13.9-12c6.9,0,6.9,12,13.8,12c6.9,0,6.9-12,13.9-12c6.9,0,6.9,12,13.8,12
				c6.9,0,6.9-12,13.9-12c6.9,0,6.9,12,13.8,12c6.9,0,6.9-12,13.9-12c6.9,0,6.9,12,13.8,12c6.9,0,6.9-12,13.9-12
				c6.9,0,6.9,12,13.8,12c6.9,0,6.9-12,13.9-12c6.9,0,6.9,12,13.8,12c6.9,0,6.9-12,13.9-12c6.9,0,6.9,12,13.8,12
				c6.9,0,6.9-12,13.9-12c6.9,0,6.9,12,13.8,12c6.9,0,6.9-12,13.9-12c6.9,0,6.9,12,13.8,12c6.9,0,6.9-12,13.9-12
				c6.9,0,6.9,12,13.8,12c6.9,0,6.9-12,13.9-12c6.9,0,6.9,12,13.8,12c6.9,0,6.9-12,13.9-12c6.9,0,6.9,12,13.8,12
				c6.9,0,6.9-12,13.9-12c6.9,0,6.9,12,13.8,12c6.9,0,6.9-12,13.9-12c6.9,0,6.9,12,13.8,12c6.9,0,6.9-12,13.9-12
				c6.9,0,6.9,12,13.8,12c6.9,0,6.9-12,13.9-12c6.9,0,6.9,12,13.8,12c6.9,0,6.9-12,13.9-12c6.9,0,6.9,12,13.8,12
				c6.9,0,6.9-12,13.9-12c6.9,0,6.9,12,13.8,12c6.9,0,6.9-12,13.9-12c6.9,0,6.9,12,13.8,12c6.9,0,6.9-12,13.9-12
				c6.9,0,6.9,12,13.8,12c6.9,0,6.9-12,13.9-12c6.9,0,6.9,12,13.8,12c6.9,0,6.9-12,13.9-12c6.9,0,6.9,12,13.8,12
				c6.9,0,6.9-12,13.9-12c6.9,0,6.9,12,13.8,12c6.9,0,6.9-12,13.9-12c6.9,0,6.9,12,13.8,12c6.9,0,6.9-12,13.9-12
				c6.9,0,6.9,12,13.8,12c6.9,0,6.9-12,13.9-12c6.9,0,6.9,12,13.8,12c6.9,0,6.9-12,13.9-12c6.9,0,6.9,12,13.8,12
				c6.9,0,6.9-12,13.9-12s6.9,12,13.8,12c6.9,0,6.9-12,13.9-12c6.9,0,6.9,12,13.8,12c6.9,0,6.9-12,13.9-12c6.9,0,6.9,12,13.8,12
				c6.9,0,6.9-12,13.9-12c6.9,0,6.9,12,13.8,12c6.9,0,6.9-12,13.9-12c6.9,0,6.9,12,13.8,12c6.9,0,6.9-12,13.9-12
				c6.9,0,6.9,12,13.8,12c6.9,0,6.9-12,13.9-12c6.9,0,6.9,12,13.8,12c6.9,0,6.9-12,13.9-12c6.9,0,6.9,12,13.8,12
				c6.9,0,6.9-12,13.9-12c6.9,0,6.9,12,13.8,12c6.9,0,6.9-12,13.9-12c6.9,0,6.9,12,13.8,12"/>
		</g>
		<g>
			<path style="fill:none;stroke:#231F20;stroke-miterlimit:10;" d="M656,370.7c7.1,0,7,12,14.1,12c7.1,0,7.1-12,14.2-12
				c7.1,0,7,12,14.1,12c7.1,0,7.1-12,14.2-12c7.1,0,7,12,14.1,12c7.1,0,7.1-12,14.2-12c7.1,0,7,12,14.1,12c7.1,0,7.1-12,14.2-12
				c7.1,0,7,12,14.1,12c7.1,0,7.1-12,14.2-12c7.1,0,7,12,14.1,12c7.1,0,7.1-12,14.2-12c7.1,0,7,12,14.1,12c7.1,0,7.1-12,14.2-12
				c7.1,0,7,12,14.1,12c7.1,0,7.1-12,14.2-12c7.1,0,7,12,14.1,12c7.1,0,7.1-12,14.2-12c7.1,0,7,12,14.1,12c7.1,0,7.1-12,14.2-12
				c7.1,0,7,12,14.1,12c7.1,0,7.1-12,14.2-12c7.1,0,7,12,14.1,12c7.1,0,7.1-12,14.2-12c7.1,0,7,12,14.1,12c7.1,0,7.1-12,14.2-12
				c7.1,0,7,12,14.1,12c7.1,0,7.1-12,14.2-12c7.1,0,7,12,14.1,12c7.1,0,7.1-12,14.2-12c7.1,0,7,12,14.1,12c7.1,0,7.1-12,14.2-12
				c7.1,0,7,12,14.1,12c7.1,0,7.1-12,14.2-12c7.1,0,7,12,14.1,12c7.1,0,7.1-12,14.2-12c7.1,0,7,12,14.1,12c7.1,0,7.1-12,14.2-12
				c7.1,0,7,12,14.1,12c7.1,0,7.1-12,14.2-12c7.1,0,7,12,14.1,12c7.1,0,7.1-12,14.2-12c7.1,0,7,12,14.1,12c7.1,0,7.1-12,14.2-12
				c7.1,0,7,12,14.1,12c7.1,0,7.1-12,14.2-12c7.1,0,7,12,14.1,12c7.1,0,7.1-12,14.2-12c7.1,0,7,12,14.1,12c7.1,0,7.1-12,14.2-12
				c7.1,0,7,12,14.1,12c7.1,0,7.1-12,14.2-12c7.1,0,7,12,14.1,12c7.1,0,7.1-12,14.2-12c7.1,0,7,12,14.1,12c7.1,0,7.1-12,14.2-12
				c7.1,0,7,12,14.1,12c7.1,0,7.1-12,14.2-12s7,12,14.1,12c7.1,0,7.1-12,14.2-12c7.1,0,7.1,12,14.1,12c7.1,0,7.1-12,14.2-12
				c7.1,0,7,12,14.1,12c7.1,0,7.1-12,14.2-12c7.1,0,7,12,14.1,12c7.1,0,7.1-12,14.2-12c7.1,0,7.1,12,14.1,12c7.1,0,7.1-12,14.2-12
				c7.1,0,7.1,12,14.1,12c7.1,0,7.1-12,14.2-12c7.1,0,7.1,12,14.1,12c7.1,0,7.1-12,14.2-12c7.1,0,7,12,14.1,12c7.1,0,7.1-12,14.2-12
				c7.1,0,7.1,12,14.1,12c7.1,0,7.1-12,14.2-12c7.1,0,7.1,12,14.1,12"/>
		</g>
		<g>
			<path style="fill:none;stroke:#231F20;stroke-miterlimit:10;" d="M630.7,390.4c7.2,0,7.2,12,14.5,12c7.2,0,7.3-12,14.5-12
				c7.2,0,7.2,12,14.5,12c7.2,0,7.3-12,14.5-12c7.2,0,7.2,12,14.5,12c7.2,0,7.3-12,14.5-12c7.2,0,7.2,12,14.5,12
				c7.2,0,7.3-12,14.5-12c7.2,0,7.2,12,14.5,12c7.2,0,7.3-12,14.5-12c7.2,0,7.2,12,14.5,12c7.2,0,7.3-12,14.5-12
				c7.2,0,7.2,12,14.5,12c7.2,0,7.3-12,14.5-12c7.2,0,7.2,12,14.5,12c7.2,0,7.3-12,14.5-12c7.2,0,7.2,12,14.5,12
				c7.2,0,7.3-12,14.5-12c7.2,0,7.2,12,14.5,12c7.2,0,7.3-12,14.5-12c7.2,0,7.2,12,14.5,12c7.2,0,7.3-12,14.5-12
				c7.2,0,7.2,12,14.5,12c7.2,0,7.3-12,14.5-12c7.2,0,7.2,12,14.5,12c7.2,0,7.3-12,14.5-12c7.2,0,7.2,12,14.4,12
				c7.2,0,7.3-12,14.5-12c7.2,0,7.2,12,14.5,12c7.2,0,7.3-12,14.5-12c7.2,0,7.2,12,14.5,12c7.2,0,7.3-12,14.5-12
				c7.2,0,7.2,12,14.5,12c7.2,0,7.3-12,14.5-12c7.2,0,7.2,12,14.5,12c7.2,0,7.3-12,14.5-12c7.2,0,7.2,12,14.5,12
				c7.2,0,7.3-12,14.5-12c7.2,0,7.2,12,14.5,12c7.2,0,7.3-12,14.5-12c7.2,0,7.2,12,14.5,12c7.2,0,7.3-12,14.5-12
				c7.2,0,7.2,12,14.5,12c7.2,0,7.3-12,14.5-12c7.2,0,7.2,12,14.5,12c7.2,0,7.3-12,14.5-12c7.2,0,7.2,12,14.5,12
				c7.2,0,7.3-12,14.5-12c7.2,0,7.2,12,14.5,12c7.2,0,7.3-12,14.5-12c7.2,0,7.2,12,14.5,12c7.2,0,7.3-12,14.5-12
				c7.2,0,7.2,12,14.5,12c7.2,0,7.3-12,14.5-12c7.2,0,7.2,12,14.5,12c7.2,0,7.3-12,14.5-12c7.2,0,7.2,12,14.5,12
				c7.2,0,7.3-12,14.5-12c7.2,0,7.2,12,14.5,12c7.2,0,7.3-12,14.5-12c7.2,0,7.2,12,14.5,12c7.2,0,7.3-12,14.5-12
				c7.2,0,7.2,12,14.5,12c7.2,0,7.3-12,14.5-12c7.2,0,7.2,12,14.5,12c7.2,0,7.3-12,14.5-12c7.2,0,7.2,12,14.5,12
				c7.2,0,7.3-12,14.5-12c7.2,0,7.2,12,14.5,12c7.2,0,7.3-12,14.5-12c7.2,0,7.2,12,14.5,12c7.2,0,7.3-12,14.5-12
				c7.2,0,7.2,12,14.5,12c7.2,0,7.3-12,14.5-12c7.2,0,7.2,12,14.5,12c7.2,0,7.3-12,14.5-12c7.2,0,7.2,12,14.5,12"/>
		</g>
		<g>
			<path style="fill:none;stroke:#231F20;stroke-miterlimit:10;" d="M605.5,410.2c7.4,0,7.4,12,14.8,12c7.4,0,7.4-12,14.8-12
				c7.4,0,7.4,12,14.8,12c7.4,0,7.4-12,14.8-12c7.4,0,7.4,12,14.8,12c7.4,0,7.4-12,14.8-12c7.4,0,7.4,12,14.8,12
				c7.4,0,7.4-12,14.8-12c7.4,0,7.4,12,14.8,12c7.4,0,7.4-12,14.8-12c7.4,0,7.4,12,14.8,12c7.4,0,7.4-12,14.8-12
				c7.4,0,7.4,12,14.8,12c7.4,0,7.4-12,14.8-12c7.4,0,7.4,12,14.8,12c7.4,0,7.4-12,14.8-12c7.4,0,7.4,12,14.8,12
				c7.4,0,7.4-12,14.8-12c7.4,0,7.4,12,14.8,12c7.4,0,7.4-12,14.8-12c7.4,0,7.4,12,14.8,12c7.4,0,7.4-12,14.8-12
				c7.4,0,7.4,12,14.8,12c7.4,0,7.4-12,14.8-12c7.4,0,7.4,12,14.8,12c7.4,0,7.4-12,14.8-12c7.4,0,7.4,12,14.8,12
				c7.4,0,7.4-12,14.8-12c7.4,0,7.4,12,14.8,12c7.4,0,7.4-12,14.8-12c7.4,0,7.4,12,14.8,12c7.4,0,7.4-12,14.8-12
				c7.4,0,7.4,12,14.8,12c7.4,0,7.4-12,14.8-12c7.4,0,7.4,12,14.8,12c7.4,0,7.4-12,14.8-12c7.4,0,7.4,12,14.8,12
				c7.4,0,7.4-12,14.8-12c7.4,0,7.4,12,14.8,12c7.4,0,7.4-12,14.8-12c7.4,0,7.4,12,14.8,12c7.4,0,7.4-12,14.8-12
				c7.4,0,7.4,12,14.8,12c7.4,0,7.4-12,14.8-12c7.4,0,7.4,12,14.8,12c7.4,0,7.4-12,14.8-12c7.4,0,7.4,12,14.8,12
				c7.4,0,7.4-12,14.8-12c7.4,0,7.4,12,14.8,12c7.4,0,7.4-12,14.8-12c7.4,0,7.4,12,14.8,12c7.4,0,7.4-12,14.8-12
				c7.4,0,7.4,12,14.8,12c7.4,0,7.4-12,14.8-12c7.4,0,7.4,12,14.8,12c7.4,0,7.4-12,14.8-12c7.4,0,7.4,12,14.8,12
				c7.4,0,7.4-12,14.8-12c7.4,0,7.4,12,14.8,12c7.4,0,7.4-12,14.8-12c7.4,0,7.4,12,14.8,12c7.4,0,7.4-12,14.8-12
				c7.4,0,7.4,12,14.8,12c7.4,0,7.4-12,14.8-12c7.4,0,7.4,12,14.8,12c7.4,0,7.4-12,14.8-12c7.4,0,7.4,12,14.8,12
				c7.4,0,7.4-12,14.8-12c7.4,0,7.4,12,14.8,12c7.4,0,7.4-12,14.8-12c7.4,0,7.4,12,14.8,12c7.4,0,7.4-12,14.8-12
				c7.4,0,7.4,12,14.8,12c7.4,0,7.4-12,14.8-12c7.4,0,7.4,12,14.8,12c7.4,0,7.4-12,14.8-12c7.4,0,7.4,12,14.8,12"/>
		</g>
		<g>
			<path style="fill:none;stroke:#231F20;stroke-miterlimit:10;" d="M580.3,430c7.6,0,7.5,12,15.1,12c7.6,0,7.6-12,15.2-12
				c7.6,0,7.5,12,15.1,12c7.6,0,7.6-12,15.2-12c7.6,0,7.5,12,15.1,12c7.6,0,7.6-12,15.2-12c7.6,0,7.5,12,15.1,12
				c7.6,0,7.6-12,15.2-12c7.6,0,7.5,12,15.1,12c7.6,0,7.6-12,15.2-12c7.6,0,7.5,12,15.1,12c7.6,0,7.6-12,15.2-12
				c7.6,0,7.5,12,15.1,12c7.6,0,7.6-12,15.2-12c7.6,0,7.5,12,15.1,12c7.6,0,7.6-12,15.2-12c7.6,0,7.5,12,15.1,12
				c7.6,0,7.6-12,15.2-12c7.6,0,7.5,12,15.1,12c7.6,0,7.6-12,15.2-12c7.6,0,7.5,12,15.1,12c7.6,0,7.6-12,15.2-12
				c7.6,0,7.5,12,15.1,12c7.6,0,7.6-12,15.2-12c7.6,0,7.5,12,15.1,12c7.6,0,7.6-12,15.2-12c7.6,0,7.5,12,15.1,12
				c7.6,0,7.6-12,15.2-12c7.6,0,7.5,12,15.1,12c7.6,0,7.6-12,15.2-12c7.6,0,7.5,12,15.1,12c7.6,0,7.6-12,15.2-12
				c7.6,0,7.5,12,15.1,12c7.6,0,7.6-12,15.2-12c7.6,0,7.5,12,15.1,12c7.6,0,7.6-12,15.2-12c7.6,0,7.5,12,15.1,12
				c7.6,0,7.6-12,15.2-12c7.6,0,7.5,12,15.1,12c7.6,0,7.6-12,15.2-12c7.6,0,7.5,12,15.1,12c7.6,0,7.6-12,15.2-12
				c7.6,0,7.5,12,15.1,12c7.6,0,7.6-12,15.2-12c7.6,0,7.5,12,15.1,12c7.6,0,7.6-12,15.2-12c7.6,0,7.5,12,15.1,12
				c7.6,0,7.6-12,15.2-12c7.6,0,7.5,12,15.1,12c7.6,0,7.6-12,15.2-12c7.6,0,7.5,12,15.1,12c7.6,0,7.6-12,15.2-12
				c7.6,0,7.5,12,15.1,12c7.6,0,7.6-12,15.2-12c7.6,0,7.5,12,15.1,12c7.6,0,7.6-12,15.2-12c7.6,0,7.5,12,15.1,12
				c7.6,0,7.6-12,15.2-12c7.6,0,7.5,12,15.1,12c7.6,0,7.6-12,15.2-12c7.6,0,7.5,12,15.1,12c7.6,0,7.6-12,15.2-12
				c7.6,0,7.5,12,15.1,12c7.6,0,7.6-12,15.2-12c7.6,0,7.5,12,15.1,12c7.6,0,7.6-12,15.2-12c7.6,0,7.5,12,15.1,12
				c7.6,0,7.6-12,15.2-12c7.6,0,7.5,12,15.1,12c7.6,0,7.6-12,15.2-12c7.6,0,7.5,12,15.1,12c7.6,0,7.6-12,15.2-12
				c7.6,0,7.5,12,15.1,12c7.6,0,7.6-12,15.2-12c7.6,0,7.5,12,15.1,12c7.6,0,7.6-12,15.2-12c7.6,0,7.5,12,15.1,12"/>
		</g>
		<g>
			<path style="fill:none;stroke:#231F20;stroke-miterlimit:10;" d="M555,449.8c7.7,0,7.7,12,15.4,12c7.7,0,7.8-12,15.5-12
				c7.7,0,7.7,12,15.4,12c7.7,0,7.8-12,15.5-12c7.7,0,7.7,12,15.4,12c7.7,0,7.8-12,15.5-12c7.7,0,7.7,12,15.4,12
				c7.7,0,7.8-12,15.5-12c7.7,0,7.7,12,15.4,12c7.7,0,7.8-12,15.5-12c7.7,0,7.7,12,15.4,12c7.7,0,7.8-12,15.5-12
				c7.7,0,7.7,12,15.4,12c7.7,0,7.8-12,15.5-12c7.7,0,7.7,12,15.4,12c7.7,0,7.8-12,15.5-12c7.7,0,7.7,12,15.4,12
				c7.7,0,7.8-12,15.5-12c7.7,0,7.7,12,15.4,12c7.7,0,7.8-12,15.5-12c7.7,0,7.7,12,15.4,12c7.7,0,7.8-12,15.5-12
				c7.7,0,7.7,12,15.4,12c7.7,0,7.8-12,15.5-12c7.7,0,7.7,12,15.4,12c7.7,0,7.8-12,15.5-12c7.7,0,7.7,12,15.4,12
				c7.7,0,7.8-12,15.5-12c7.7,0,7.7,12,15.4,12c7.7,0,7.8-12,15.5-12c7.7,0,7.7,12,15.4,12c7.7,0,7.8-12,15.5-12
				c7.7,0,7.7,12,15.4,12c7.7,0,7.8-12,15.5-12c7.7,0,7.7,12,15.4,12c7.7,0,7.8-12,15.5-12c7.7,0,7.7,12,15.4,12
				c7.7,0,7.8-12,15.5-12c7.7,0,7.7,12,15.4,12c7.7,0,7.8-12,15.5-12c7.7,0,7.7,12,15.4,12c7.7,0,7.8-12,15.5-12
				c7.7,0,7.7,12,15.4,12c7.7,0,7.8-12,15.5-12c7.7,0,7.7,12,15.4,12c7.7,0,7.8-12,15.5-12c7.7,0,7.7,12,15.4,12
				c7.7,0,7.8-12,15.5-12c7.7,0,7.7,12,15.4,12c7.7,0,7.8-12,15.5-12c7.7,0,7.7,12,15.4,12c7.7,0,7.8-12,15.5-12
				c7.7,0,7.7,12,15.4,12c7.7,0,7.8-12,15.5-12c7.7,0,7.7,12,15.4,12c7.7,0,7.8-12,15.5-12c7.7,0,7.7,12,15.4,12
				c7.7,0,7.8-12,15.5-12c7.7,0,7.7,12,15.4,12c7.7,0,7.8-12,15.5-12c7.7,0,7.7,12,15.4,12c7.7,0,7.8-12,15.5-12
				c7.7,0,7.7,12,15.4,12c7.7,0,7.8-12,15.5-12c7.7,0,7.7,12,15.4,12c7.7,0,7.8-12,15.5-12c7.7,0,7.7,12,15.4,12
				c7.7,0,7.8-12,15.5-12c7.7,0,7.7,12,15.4,12c7.7,0,7.8-12,15.5-12c7.7,0,7.7,12,15.4,12c7.7,0,7.8-12,15.5-12
				c7.7,0,7.7,12,15.4,12c7.7,0,7.8-12,15.5-12c7.7,0,7.7,12,15.5,12c7.7,0,7.8-12,15.5-12c7.7,0,7.7,12,15.5,12"/>
		</g>
		<g>
			<path style="fill:none;stroke:#231F20;stroke-miterlimit:10;" d="M529.8,469.5c7.9,0,7.9,12,15.8,12c7.9,0,7.9-12,15.8-12
				c7.9,0,7.9,12,15.8,12c7.9,0,7.9-12,15.8-12c7.9,0,7.9,12,15.8,12c7.9,0,7.9-12,15.8-12c7.9,0,7.9,12,15.8,12
				c7.9,0,7.9-12,15.8-12c7.9,0,7.9,12,15.8,12c7.9,0,7.9-12,15.8-12c7.9,0,7.9,12,15.8,12c7.9,0,7.9-12,15.8-12
				c7.9,0,7.9,12,15.8,12c7.9,0,7.9-12,15.8-12c7.9,0,7.9,12,15.8,12c7.9,0,7.9-12,15.8-12c7.9,0,7.9,12,15.8,12
				c7.9,0,7.9-12,15.8-12c7.9,0,7.9,12,15.8,12c7.9,0,7.9-12,15.8-12c7.9,0,7.9,12,15.8,12c7.9,0,7.9-12,15.8-12
				c7.9,0,7.9,12,15.8,12c7.9,0,7.9-12,15.8-12c7.9,0,7.9,12,15.8,12c7.9,0,7.9-12,15.8-12c7.9,0,7.9,12,15.8,12
				c7.9,0,7.9-12,15.8-12c7.9,0,7.9,12,15.8,12c7.9,0,7.9-12,15.8-12c7.9,0,7.9,12,15.8,12c7.9,0,7.9-12,15.8-12
				c7.9,0,7.9,12,15.8,12c7.9,0,7.9-12,15.8-12c7.9,0,7.9,12,15.8,12c7.9,0,7.9-12,15.8-12c7.9,0,7.9,12,15.8,12
				c7.9,0,7.9-12,15.8-12c7.9,0,7.9,12,15.8,12c7.9,0,7.9-12,15.8-12c7.9,0,7.9,12,15.8,12c7.9,0,7.9-12,15.8-12
				c7.9,0,7.9,12,15.8,12c7.9,0,7.9-12,15.8-12c7.9,0,7.9,12,15.8,12c7.9,0,7.9-12,15.8-12c7.9,0,7.9,12,15.8,12
				c7.9,0,7.9-12,15.8-12c7.9,0,7.9,12,15.8,12c7.9,0,7.9-12,15.8-12c7.9,0,7.9,12,15.8,12c7.9,0,7.9-12,15.8-12
				c7.9,0,7.9,12,15.8,12c7.9,0,7.9-12,15.8-12c7.9,0,7.9,12,15.8,12c7.9,0,7.9-12,15.8-12c7.9,0,7.9,12,15.8,12
				c7.9,0,7.9-12,15.8-12c7.9,0,7.9,12,15.8,12c7.9,0,7.9-12,15.8-12c7.9,0,7.9,12,15.8,12c7.9,0,7.9-12,15.8-12
				c7.9,0,7.9,12,15.8,12c7.9,0,7.9-12,15.8-12c7.9,0,7.9,12,15.8,12c7.9,0,7.9-12,15.8-12c7.9,0,7.9,12,15.8,12
				c7.9,0,7.9-12,15.8-12c7.9,0,7.9,12,15.8,12c7.9,0,7.9-12,15.8-12c7.9,0,7.9,12,15.8,12c7.9,0,7.9-12,15.8-12
				c7.9,0,7.9,12,15.8,12c7.9,0,7.9-12,15.8-12c7.9,0,7.9,12,15.8,12c7.9,0,7.9-12,15.8-12s7.9,12,15.8,12"/>
		</g>
		<g>
			<path style="fill:none;stroke:#231F20;stroke-miterlimit:10;" d="M504.6,489.3c8.1,0,8,12,16.1,12c8.1,0,8.1-12,16.1-12
				c8.1,0,8,12,16.1,12c8.1,0,8.1-12,16.1-12c8.1,0,8,12,16.1,12c8.1,0,8.1-12,16.1-12c8.1,0,8,12,16.1,12c8.1,0,8.1-12,16.1-12
				c8.1,0,8,12,16.1,12c8.1,0,8.1-12,16.1-12c8.1,0,8,12,16.1,12c8.1,0,8.1-12,16.1-12c8.1,0,8,12,16.1,12c8.1,0,8.1-12,16.1-12
				c8.1,0,8,12,16.1,12c8.1,0,8.1-12,16.1-12c8.1,0,8,12,16.1,12s8.1-12,16.1-12c8.1,0,8,12,16.1,12c8.1,0,8.1-12,16.1-12
				c8.1,0,8,12,16.1,12c8.1,0,8.1-12,16.1-12c8.1,0,8,12,16.1,12c8.1,0,8.1-12,16.1-12c8.1,0,8,12,16.1,12c8.1,0,8.1-12,16.1-12
				c8.1,0,8,12,16.1,12c8.1,0,8.1-12,16.1-12c8.1,0,8,12,16.1,12c8.1,0,8.1-12,16.1-12c8.1,0,8,12,16.1,12c8.1,0,8.1-12,16.1-12
				c8.1,0,8,12,16.1,12c8.1,0,8.1-12,16.1-12c8.1,0,8,12,16.1,12c8.1,0,8.1-12,16.1-12c8.1,0,8,12,16.1,12c8.1,0,8.1-12,16.1-12
				c8.1,0,8,12,16.1,12c8.1,0,8.1-12,16.1-12c8.1,0,8,12,16.1,12c8.1,0,8.1-12,16.1-12c8.1,0,8,12,16.1,12c8.1,0,8.1-12,16.1-12
				c8.1,0,8,12,16.1,12c8.1,0,8.1-12,16.1-12c8.1,0,8,12,16.1,12c8.1,0,8.1-12,16.1-12c8.1,0,8,12,16.1,12c8.1,0,8.1-12,16.1-12
				c8.1,0,8,12,16.1,12c8.1,0,8.1-12,16.1-12c8.1,0,8,12,16.1,12c8.1,0,8.1-12,16.1-12c8.1,0,8,12,16.1,12c8.1,0,8.1-12,16.1-12
				c8.1,0,8,12,16.1,12c8.1,0,8.1-12,16.1-12c8.1,0,8,12,16.1,12c8.1,0,8.1-12,16.1-12c8.1,0,8,12,16.1,12c8.1,0,8.1-12,16.1-12
				c8.1,0,8,12,16.1,12c8.1,0,8.1-12,16.1-12c8.1,0,8,12,16.1,12c8.1,0,8.1-12,16.1-12c8.1,0,8,12,16.1,12c8.1,0,8.1-12,16.1-12
				c8.1,0,8,12,16.1,12c8.1,0,8.1-12,16.1-12c8.1,0,8,12,16.1,12c8.1,0,8.1-12,16.1-12c8.1,0,8,12,16.1,12c8.1,0,8.1-12,16.1-12
				c8.1,0,8,12,16.1,12c8.1,0,8.1-12,16.1-12c8.1,0,8,12,16.1,12"/>
		</g>
		<g>
			<path style="fill:none;stroke:#231F20;stroke-miterlimit:10;" d="M479.3,509.1c8.2,0,8.2,12,16.4,12c8.2,0,8.2-12,16.5-12
				c8.2,0,8.2,12,16.4,12c8.2,0,8.2-12,16.5-12c8.2,0,8.2,12,16.4,12c8.2,0,8.2-12,16.5-12c8.2,0,8.2,12,16.4,12
				c8.2,0,8.2-12,16.5-12c8.2,0,8.2,12,16.4,12c8.2,0,8.2-12,16.5-12c8.2,0,8.2,12,16.4,12c8.2,0,8.2-12,16.5-12
				c8.2,0,8.2,12,16.4,12c8.2,0,8.2-12,16.5-12c8.2,0,8.2,12,16.4,12c8.2,0,8.2-12,16.5-12c8.2,0,8.2,12,16.4,12
				c8.2,0,8.2-12,16.5-12c8.2,0,8.2,12,16.4,12c8.2,0,8.2-12,16.5-12c8.2,0,8.2,12,16.4,12c8.2,0,8.2-12,16.5-12
				c8.2,0,8.2,12,16.4,12c8.2,0,8.2-12,16.5-12c8.2,0,8.2,12,16.4,12c8.2,0,8.2-12,16.5-12c8.2,0,8.2,12,16.4,12
				c8.2,0,8.2-12,16.5-12c8.2,0,8.2,12,16.4,12c8.2,0,8.2-12,16.5-12c8.2,0,8.2,12,16.4,12c8.2,0,8.2-12,16.5-12
				c8.2,0,8.2,12,16.4,12c8.2,0,8.2-12,16.5-12c8.2,0,8.2,12,16.4,12c8.2,0,8.2-12,16.5-12c8.2,0,8.2,12,16.4,12
				c8.2,0,8.2-12,16.5-12c8.2,0,8.2,12,16.4,12c8.2,0,8.2-12,16.5-12c8.2,0,8.2,12,16.4,12c8.2,0,8.2-12,16.5-12
				c8.2,0,8.2,12,16.4,12c8.2,0,8.2-12,16.5-12c8.2,0,8.2,12,16.4,12c8.2,0,8.2-12,16.5-12c8.2,0,8.2,12,16.4,12
				c8.2,0,8.2-12,16.5-12c8.2,0,8.2,12,16.4,12c8.2,0,8.2-12,16.5-12c8.2,0,8.2,12,16.4,12c8.2,0,8.2-12,16.5-12
				c8.2,0,8.2,12,16.4,12c8.2,0,8.2-12,16.5-12c8.2,0,8.2,12,16.4,12c8.2,0,8.2-12,16.5-12c8.2,0,8.2,12,16.4,12
				c8.2,0,8.2-12,16.5-12c8.2,0,8.2,12,16.4,12c8.2,0,8.2-12,16.5-12c8.2,0,8.2,12,16.4,12c8.2,0,8.2-12,16.5-12
				c8.2,0,8.2,12,16.4,12s8.2-12,16.5-12c8.2,0,8.2,12,16.4,12c8.2,0,8.2-12,16.5-12c8.2,0,8.2,12,16.4,12c8.2,0,8.2-12,16.5-12
				c8.2,0,8.2,12,16.4,12c8.2,0,8.2-12,16.5-12c8.2,0,8.2,12,16.4,12c8.2,0,8.2-12,16.5-12c8.2,0,8.2,12,16.4,12
				c8.2,0,8.2-12,16.5-12c8.2,0,8.2,12,16.4,12c8.2,0,8.2-12,16.5-12c8.2,0,8.2,12,16.4,12"/>
		</g>
		<g>
			<path style="fill:none;stroke:#231F20;stroke-miterlimit:10;" d="M454.1,528.9c8.4,0,8.4,12,16.8,12c8.4,0,8.4-12,16.8-12
				c8.4,0,8.4,12,16.8,12c8.4,0,8.4-12,16.8-12c8.4,0,8.4,12,16.8,12c8.4,0,8.4-12,16.8-12c8.4,0,8.4,12,16.8,12
				c8.4,0,8.4-12,16.8-12c8.4,0,8.4,12,16.8,12c8.4,0,8.4-12,16.8-12c8.4,0,8.4,12,16.8,12c8.4,0,8.4-12,16.8-12
				c8.4,0,8.4,12,16.8,12c8.4,0,8.4-12,16.8-12c8.4,0,8.4,12,16.8,12c8.4,0,8.4-12,16.8-12c8.4,0,8.4,12,16.8,12
				c8.4,0,8.4-12,16.8-12c8.4,0,8.4,12,16.8,12c8.4,0,8.4-12,16.8-12c8.4,0,8.4,12,16.8,12c8.4,0,8.4-12,16.8-12
				c8.4,0,8.4,12,16.8,12c8.4,0,8.4-12,16.8-12c8.4,0,8.4,12,16.8,12c8.4,0,8.4-12,16.8-12c8.4,0,8.4,12,16.8,12
				c8.4,0,8.4-12,16.8-12c8.4,0,8.4,12,16.8,12c8.4,0,8.4-12,16.8-12c8.4,0,8.4,12,16.8,12c8.4,0,8.4-12,16.8-12
				c8.4,0,8.4,12,16.8,12c8.4,0,8.4-12,16.8-12c8.4,0,8.4,12,16.8,12c8.4,0,8.4-12,16.8-12c8.4,0,8.4,12,16.8,12
				c8.4,0,8.4-12,16.8-12c8.4,0,8.4,12,16.8,12c8.4,0,8.4-12,16.8-12c8.4,0,8.4,12,16.8,12c8.4,0,8.4-12,16.8-12
				c8.4,0,8.4,12,16.8,12c8.4,0,8.4-12,16.8-12c8.4,0,8.4,12,16.8,12c8.4,0,8.4-12,16.8-12c8.4,0,8.4,12,16.8,12
				c8.4,0,8.4-12,16.8-12c8.4,0,8.4,12,16.8,12c8.4,0,8.4-12,16.8-12c8.4,0,8.4,12,16.8,12c8.4,0,8.4-12,16.8-12
				c8.4,0,8.4,12,16.8,12c8.4,0,8.4-12,16.8-12c8.4,0,8.4,12,16.8,12c8.4,0,8.4-12,16.8-12c8.4,0,8.4,12,16.8,12
				c8.4,0,8.4-12,16.8-12s8.4,12,16.8,12c8.4,0,8.4-12,16.8-12c8.4,0,8.4,12,16.8,12c8.4,0,8.4-12,16.8-12c8.4,0,8.4,12,16.8,12
				c8.4,0,8.4-12,16.8-12c8.4,0,8.4,12,16.8,12c8.4,0,8.4-12,16.8-12c8.4,0,8.4,12,16.8,12c8.4,0,8.4-12,16.8-12
				c8.4,0,8.4,12,16.8,12c8.4,0,8.4-12,16.8-12c8.4,0,8.4,12,16.8,12c8.4,0,8.4-12,16.8-12c8.4,0,8.4,12,16.8,12
				c8.4,0,8.4-12,16.8-12c8.4,0,8.4,12,16.8,12c8.4,0,8.4-12,16.8-12c8.4,0,8.4,12,16.8,12"/>
		</g>
		<g>
			<path style="fill:none;stroke:#231F20;stroke-miterlimit:10;" d="M428.9,548.6c8.5,0,8.5,12,17.1,12c8.5,0,8.6-12,17.1-12
				c8.6,0,8.5,12,17.1,12c8.6,0,8.6-12,17.1-12c8.5,0,8.5,12,17.1,12c8.6,0,8.6-12,17.1-12c8.6,0,8.5,12,17.1,12
				c8.6,0,8.6-12,17.1-12c8.5,0,8.5,12,17.1,12c8.6,0,8.6-12,17.1-12c8.6,0,8.5,12,17.1,12c8.6,0,8.6-12,17.1-12
				c8.6,0,8.5,12,17.1,12c8.6,0,8.6-12,17.1-12c8.6,0,8.5,12,17.1,12c8.6,0,8.6-12,17.1-12c8.6,0,8.5,12,17.1,12
				c8.6,0,8.6-12,17.1-12c8.6,0,8.5,12,17.1,12c8.6,0,8.6-12,17.1-12c8.6,0,8.5,12,17.1,12c8.6,0,8.6-12,17.1-12
				c8.6,0,8.5,12,17.1,12c8.6,0,8.6-12,17.1-12c8.6,0,8.5,12,17.1,12c8.6,0,8.6-12,17.1-12c8.6,0,8.5,12,17.1,12
				c8.6,0,8.6-12,17.1-12c8.6,0,8.5,12,17.1,12c8.6,0,8.6-12,17.1-12c8.6,0,8.5,12,17.1,12c8.5,0,8.6-12,17.1-12
				c8.5,0,8.5,12,17.1,12c8.6,0,8.6-12,17.1-12c8.5,0,8.5,12,17.1,12c8.5,0,8.6-12,17.1-12c8.6,0,8.5,12,17.1,12
				c8.6,0,8.6-12,17.1-12c8.5,0,8.5,12,17.1,12c8.6,0,8.6-12,17.1-12c8.6,0,8.5,12,17.1,12c8.5,0,8.6-12,17.1-12
				c8.6,0,8.5,12,17.1,12c8.6,0,8.6-12,17.1-12c8.6,0,8.5,12,17.1,12c8.6,0,8.6-12,17.1-12c8.6,0,8.5,12,17.1,12
				c8.6,0,8.6-12,17.1-12c8.6,0,8.5,12,17.1,12c8.6,0,8.6-12,17.1-12c8.6,0,8.5,12,17.1,12c8.6,0,8.6-12,17.1-12
				c8.6,0,8.5,12,17.1,12c8.6,0,8.6-12,17.1-12c8.6,0,8.5,12,17.1,12c8.6,0,8.6-12,17.1-12c8.6,0,8.5,12,17.1,12
				c8.6,0,8.6-12,17.1-12s8.5,12,17.1,12c8.6,0,8.6-12,17.1-12c8.6,0,8.5,12,17.1,12c8.6,0,8.6-12,17.1-12c8.6,0,8.5,12,17.1,12
				c8.6,0,8.6-12,17.1-12c8.6,0,8.5,12,17.1,12c8.6,0,8.6-12,17.1-12c8.6,0,8.5,12,17.1,12c8.6,0,8.6-12,17.1-12
				c8.6,0,8.5,12,17.1,12c8.6,0,8.6-12,17.1-12c8.6,0,8.5,12,17.1,12c8.6,0,8.6-12,17.1-12c8.6,0,8.5,12,17.1,12
				c8.6,0,8.6-12,17.1-12c8.6,0,8.5,12,17.1,12c8.6,0,8.6-12,17.1-12c8.6,0,8.5,12,17.1,12"/>
		</g>
		<g>
			<path style="fill:none;stroke:#231F20;stroke-miterlimit:10;" d="M403.7,568.4c8.7,0,8.7,12,17.4,12c8.7,0,8.7-12,17.4-12
				c8.7,0,8.7,12,17.4,12c8.7,0,8.7-12,17.4-12c8.7,0,8.7,12,17.4,12c8.7,0,8.7-12,17.4-12c8.7,0,8.7,12,17.4,12
				c8.7,0,8.7-12,17.4-12c8.7,0,8.7,12,17.4,12c8.7,0,8.7-12,17.4-12c8.7,0,8.7,12,17.4,12c8.7,0,8.7-12,17.4-12
				c8.7,0,8.7,12,17.4,12c8.7,0,8.7-12,17.4-12c8.7,0,8.7,12,17.4,12c8.7,0,8.7-12,17.4-12c8.7,0,8.7,12,17.4,12
				c8.7,0,8.7-12,17.4-12c8.7,0,8.7,12,17.4,12c8.7,0,8.7-12,17.4-12c8.7,0,8.7,12,17.4,12c8.7,0,8.7-12,17.4-12
				c8.7,0,8.7,12,17.4,12c8.7,0,8.7-12,17.4-12c8.7,0,8.7,12,17.4,12c8.7,0,8.7-12,17.4-12c8.7,0,8.7,12,17.4,12
				c8.7,0,8.7-12,17.4-12c8.7,0,8.7,12,17.4,12c8.7,0,8.7-12,17.4-12c8.7,0,8.7,12,17.4,12c8.7,0,8.7-12,17.4-12
				c8.7,0,8.7,12,17.4,12c8.7,0,8.7-12,17.4-12c8.7,0,8.7,12,17.4,12c8.7,0,8.7-12,17.4-12c8.7,0,8.7,12,17.4,12
				c8.7,0,8.7-12,17.4-12c8.7,0,8.7,12,17.4,12c8.7,0,8.7-12,17.4-12c8.7,0,8.7,12,17.4,12c8.7,0,8.7-12,17.4-12
				c8.7,0,8.7,12,17.4,12c8.7,0,8.7-12,17.4-12c8.7,0,8.7,12,17.4,12c8.7,0,8.7-12,17.4-12c8.7,0,8.7,12,17.4,12
				c8.7,0,8.7-12,17.4-12c8.7,0,8.7,12,17.4,12c8.7,0,8.7-12,17.4-12c8.7,0,8.7,12,17.4,12c8.7,0,8.7-12,17.4-12
				c8.7,0,8.7,12,17.4,12c8.7,0,8.7-12,17.4-12c8.7,0,8.7,12,17.4,12c8.7,0,8.7-12,17.4-12c8.7,0,8.7,12,17.4,12
				c8.7,0,8.7-12,17.4-12c8.7,0,8.7,12,17.4,12c8.7,0,8.7-12,17.4-12c8.7,0,8.7,12,17.4,12c8.7,0,8.7-12,17.4-12
				c8.7,0,8.7,12,17.4,12c8.7,0,8.7-12,17.4-12c8.7,0,8.7,12,17.4,12c8.7,0,8.7-12,17.4-12c8.7,0,8.7,12,17.4,12
				c8.7,0,8.7-12,17.4-12c8.7,0,8.7,12,17.4,12c8.7,0,8.7-12,17.4-12c8.7,0,8.7,12,17.4,12c8.7,0,8.7-12,17.5-12
				c8.7,0,8.7,12,17.4,12c8.7,0,8.7-12,17.5-12c8.7,0,8.7,12,17.4,12c8.7,0,8.7-12,17.5-12s8.7,12,17.4,12"/>
		</g>
		<g>
			<path style="fill:none;stroke:#231F20;stroke-miterlimit:10;" d="M378.4,588.2c8.9,0,8.9,12,17.7,12c8.9,0,8.9-12,17.8-12
				c8.9,0,8.9,12,17.7,12c8.9,0,8.9-12,17.8-12c8.9,0,8.9,12,17.7,12c8.9,0,8.9-12,17.8-12c8.9,0,8.9,12,17.7,12
				c8.9,0,8.9-12,17.8-12c8.9,0,8.9,12,17.7,12c8.9,0,8.9-12,17.8-12c8.9,0,8.9,12,17.7,12c8.9,0,8.9-12,17.8-12
				c8.9,0,8.9,12,17.7,12c8.9,0,8.9-12,17.8-12c8.9,0,8.9,12,17.7,12c8.9,0,8.9-12,17.8-12c8.9,0,8.9,12,17.7,12
				c8.9,0,8.9-12,17.8-12c8.9,0,8.9,12,17.7,12c8.9,0,8.9-12,17.8-12c8.9,0,8.9,12,17.7,12c8.9,0,8.9-12,17.8-12
				c8.9,0,8.9,12,17.7,12c8.9,0,8.9-12,17.8-12c8.9,0,8.9,12,17.7,12c8.9,0,8.9-12,17.8-12c8.9,0,8.9,12,17.7,12
				c8.9,0,8.9-12,17.8-12c8.9,0,8.9,12,17.7,12c8.9,0,8.9-12,17.8-12c8.9,0,8.9,12,17.7,12c8.9,0,8.9-12,17.8-12
				c8.9,0,8.9,12,17.7,12c8.9,0,8.9-12,17.8-12c8.9,0,8.9,12,17.7,12c8.9,0,8.9-12,17.8-12c8.9,0,8.9,12,17.7,12
				c8.9,0,8.9-12,17.8-12c8.9,0,8.9,12,17.7,12c8.9,0,8.9-12,17.8-12c8.9,0,8.9,12,17.7,12c8.9,0,8.9-12,17.8-12
				c8.9,0,8.9,12,17.7,12c8.9,0,8.9-12,17.8-12c8.9,0,8.9,12,17.7,12c8.9,0,8.9-12,17.8-12c8.9,0,8.9,12,17.7,12
				c8.9,0,8.9-12,17.8-12c8.9,0,8.9,12,17.7,12c8.9,0,8.9-12,17.8-12c8.9,0,8.9,12,17.7,12c8.9,0,8.9-12,17.8-12
				c8.9,0,8.9,12,17.7,12c8.9,0,8.9-12,17.8-12c8.9,0,8.9,12,17.7,12c8.9,0,8.9-12,17.8-12c8.9,0,8.9,12,17.7,12
				c8.9,0,8.9-12,17.8-12c8.9,0,8.9,12,17.7,12c8.9,0,8.9-12,17.8-12c8.9,0,8.9,12,17.7,12c8.9,0,8.9-12,17.8-12
				c8.9,0,8.9,12,17.7,12c8.9,0,8.9-12,17.8-12c8.9,0,8.9,12,17.7,12c8.9,0,8.9-12,17.8-12c8.9,0,8.9,12,17.7,12
				c8.9,0,8.9-12,17.8-12c8.9,0,8.9,12,17.7,12c8.9,0,8.9-12,17.8-12c8.9,0,8.9,12,17.7,12c8.9,0,8.9-12,17.8-12
				c8.9,0,8.9,12,17.7,12c8.9,0,8.9-12,17.8-12c8.9,0,8.9,12,17.8,12c8.9,0,8.9-12,17.8-12c8.9,0,8.9,12,17.8,12"/>
		</g>
		<g>
			<path style="fill:none;stroke:#231F20;stroke-miterlimit:10;" d="M353.2,608c9,0,9,12,18.1,12c9,0,9.1-12,18.1-12
				c9,0,9,12,18.1,12c9,0,9.1-12,18.1-12c9,0,9,12,18.1,12c9,0,9.1-12,18.1-12c9,0,9,12,18.1,12c9,0,9.1-12,18.1-12
				c9,0,9,12,18.1,12c9,0,9.1-12,18.1-12c9,0,9,12,18.1,12c9,0,9.1-12,18.1-12c9,0,9,12,18.1,12c9,0,9.1-12,18.1-12
				c9,0,9,12,18.1,12c9,0,9.1-12,18.1-12c9,0,9,12,18.1,12c9,0,9.1-12,18.1-12c9,0,9,12,18.1,12c9,0,9.1-12,18.1-12
				c9,0,9,12,18.1,12c9,0,9.1-12,18.1-12c9,0,9,12,18.1,12c9,0,9.1-12,18.1-12c9,0,9,12,18.1,12c9,0,9.1-12,18.1-12
				c9,0,9,12,18.1,12c9,0,9.1-12,18.1-12c9,0,9,12,18.1,12c9,0,9.1-12,18.1-12c9,0,9,12,18.1,12c9,0,9.1-12,18.1-12
				c9,0,9,12,18.1,12c9,0,9.1-12,18.1-12c9,0,9,12,18.1,12c9,0,9.1-12,18.1-12c9,0,9,12,18.1,12c9,0,9.1-12,18.1-12
				c9,0,9,12,18.1,12c9,0,9.1-12,18.1-12c9,0,9,12,18.1,12c9,0,9.1-12,18.1-12c9,0,9,12,18.1,12c9,0,9.1-12,18.1-12
				c9,0,9,12,18.1,12c9,0,9.1-12,18.1-12c9,0,9,12,18.1,12c9,0,9.1-12,18.1-12c9,0,9,12,18.1,12c9,0,9.1-12,18.1-12
				c9,0,9,12,18.1,12c9,0,9.1-12,18.1-12c9,0,9,12,18.1,12c9,0,9.1-12,18.1-12c9,0,9,12,18.1,12c9,0,9.1-12,18.1-12
				c9,0,9,12,18.1,12c9,0,9.1-12,18.1-12s9,12,18.1,12c9,0,9.1-12,18.1-12c9,0,9,12,18.1,12c9,0,9.1-12,18.1-12c9,0,9,12,18.1,12
				c9,0,9.1-12,18.1-12c9,0,9,12,18.1,12c9,0,9.1-12,18.1-12c9,0,9,12,18.1,12c9,0,9.1-12,18.1-12c9,0,9,12,18.1,12
				c9,0,9.1-12,18.1-12c9,0,9,12,18.1,12c9,0,9.1-12,18.1-12c9,0,9,12,18.1,12c9,0,9.1-12,18.1-12c9,0,9,12,18.1,12
				c9,0,9.1-12,18.1-12c9,0,9,12,18.1,12"/>
		</g>
		<g>
			<path style="fill:none;stroke:#231F20;stroke-miterlimit:10;" d="M328,627.7c9.2,0,9.2,12,18.4,12c9.2,0,9.2-12,18.4-12
				c9.2,0,9.2,12,18.4,12c9.2,0,9.2-12,18.4-12c9.2,0,9.2,12,18.4,12c9.2,0,9.2-12,18.4-12c9.2,0,9.2,12,18.4,12
				c9.2,0,9.2-12,18.4-12c9.2,0,9.2,12,18.4,12c9.2,0,9.2-12,18.4-12c9.2,0,9.2,12,18.4,12c9.2,0,9.2-12,18.4-12
				c9.2,0,9.2,12,18.4,12c9.2,0,9.2-12,18.4-12c9.2,0,9.2,12,18.4,12c9.2,0,9.2-12,18.4-12c9.2,0,9.2,12,18.4,12
				c9.2,0,9.2-12,18.4-12c9.2,0,9.2,12,18.4,12c9.2,0,9.2-12,18.4-12c9.2,0,9.2,12,18.4,12c9.2,0,9.2-12,18.4-12
				c9.2,0,9.2,12,18.4,12c9.2,0,9.2-12,18.4-12c9.2,0,9.2,12,18.4,12c9.2,0,9.2-12,18.4-12c9.2,0,9.2,12,18.4,12
				c9.2,0,9.2-12,18.4-12c9.2,0,9.2,12,18.4,12c9.2,0,9.2-12,18.4-12c9.2,0,9.2,12,18.4,12c9.2,0,9.2-12,18.4-12
				c9.2,0,9.2,12,18.4,12c9.2,0,9.2-12,18.4-12c9.2,0,9.2,12,18.4,12c9.2,0,9.2-12,18.4-12c9.2,0,9.2,12,18.4,12
				c9.2,0,9.2-12,18.4-12c9.2,0,9.2,12,18.4,12c9.2,0,9.2-12,18.4-12c9.2,0,9.2,12,18.4,12c9.2,0,9.2-12,18.4-12
				c9.2,0,9.2,12,18.4,12c9.2,0,9.2-12,18.4-12c9.2,0,9.2,12,18.4,12c9.2,0,9.2-12,18.4-12c9.2,0,9.2,12,18.4,12
				c9.2,0,9.2-12,18.4-12c9.2,0,9.2,12,18.4,12c9.2,0,9.2-12,18.4-12c9.2,0,9.2,12,18.4,12c9.2,0,9.2-12,18.4-12
				c9.2,0,9.2,12,18.4,12c9.2,0,9.2-12,18.4-12c9.2,0,9.2,12,18.4,12c9.2,0,9.2-12,18.4-12c9.2,0,9.2,12,18.4,12
				c9.2,0,9.2-12,18.4-12c9.2,0,9.2,12,18.4,12c9.2,0,9.2-12,18.4-12c9.2,0,9.2,12,18.4,12c9.2,0,9.2-12,18.4-12
				c9.2,0,9.2,12,18.4,12c9.2,0,9.2-12,18.4-12c9.2,0,9.2,12,18.4,12c9.2,0,9.2-12,18.4-12c9.2,0,9.2,12,18.4,12
				c9.2,0,9.2-12,18.4-12c9.2,0,9.2,12,18.4,12c9.2,0,9.2-12,18.4-12c9.2,0,9.2,12,18.4,12c9.2,0,9.2-12,18.4-12
				c9.2,0,9.2,12,18.4,12c9.2,0,9.2-12,18.4-12c9.2,0,9.2,12,18.4,12c9.2,0,9.2-12,18.4-12c9.2,0,9.2,12,18.4,12"/>
		</g>
		<g>
			<path style="fill:none;stroke:#231F20;stroke-miterlimit:10;" d="M302.7,647.5c9.4,0,9.4,12,18.7,12c9.4,0,9.4-12,18.7-12
				c9.4,0,9.4,12,18.7,12c9.4,0,9.4-12,18.7-12c9.4,0,9.4,12,18.7,12c9.4,0,9.4-12,18.7-12c9.4,0,9.4,12,18.7,12
				c9.4,0,9.4-12,18.7-12c9.4,0,9.4,12,18.7,12c9.4,0,9.4-12,18.7-12c9.4,0,9.4,12,18.7,12c9.4,0,9.4-12,18.7-12
				c9.4,0,9.4,12,18.7,12c9.4,0,9.4-12,18.8-12c9.4,0,9.4,12,18.7,12c9.4,0,9.4-12,18.7-12c9.4,0,9.4,12,18.7,12
				c9.4,0,9.4-12,18.7-12c9.4,0,9.4,12,18.7,12c9.4,0,9.4-12,18.8-12c9.4,0,9.4,12,18.7,12c9.4,0,9.4-12,18.7-12
				c9.4,0,9.4,12,18.7,12c9.4,0,9.4-12,18.7-12c9.4,0,9.4,12,18.7,12c9.4,0,9.4-12,18.8-12c9.4,0,9.4,12,18.7,12
				c9.4,0,9.4-12,18.8-12c9.4,0,9.4,12,18.7,12c9.4,0,9.4-12,18.8-12c9.4,0,9.4,12,18.7,12c9.4,0,9.4-12,18.8-12
				c9.4,0,9.4,12,18.7,12c9.4,0,9.4-12,18.8-12c9.4,0,9.4,12,18.7,12c9.4,0,9.4-12,18.7-12c9.4,0,9.4,12,18.7,12
				c9.4,0,9.4-12,18.7-12c9.4,0,9.4,12,18.7,12c9.4,0,9.4-12,18.7-12c9.4,0,9.4,12,18.7,12c9.4,0,9.4-12,18.7-12
				c9.4,0,9.4,12,18.7,12c9.4,0,9.4-12,18.7-12c9.4,0,9.4,12,18.7,12c9.4,0,9.4-12,18.8-12c9.4,0,9.4,12,18.7,12
				c9.4,0,9.4-12,18.8-12c9.4,0,9.4,12,18.7,12c9.4,0,9.4-12,18.8-12c9.4,0,9.4,12,18.7,12c9.4,0,9.4-12,18.8-12
				c9.4,0,9.4,12,18.7,12c9.4,0,9.4-12,18.8-12c9.4,0,9.4,12,18.7,12c9.4,0,9.4-12,18.8-12c9.4,0,9.4,12,18.7,12
				c9.4,0,9.4-12,18.8-12c9.4,0,9.4,12,18.7,12c9.4,0,9.4-12,18.8-12c9.4,0,9.4,12,18.7,12c9.4,0,9.4-12,18.8-12
				c9.4,0,9.4,12,18.7,12c9.4,0,9.4-12,18.8-12c9.4,0,9.4,12,18.7,12c9.4,0,9.4-12,18.8-12c9.4,0,9.4,12,18.7,12
				c9.4,0,9.4-12,18.8-12c9.4,0,9.4,12,18.7,12c9.4,0,9.4-12,18.8-12c9.4,0,9.4,12,18.7,12c9.4,0,9.4-12,18.8-12
				c9.4,0,9.4,12,18.7,12c9.4,0,9.4-12,18.8-12c9.4,0,9.4,12,18.7,12c9.4,0,9.4-12,18.8-12c9.4,0,9.4,12,18.7,12"/>
		</g>
		<g>
			<path style="fill:none;stroke:#231F20;stroke-miterlimit:10;" d="M277.5,667.3c9.5,0,9.5,12,19.1,12c9.5,0,9.5-12,19.1-12
				c9.5,0,9.5,12,19.1,12c9.5,0,9.5-12,19.1-12c9.5,0,9.5,12,19.1,12c9.5,0,9.5-12,19.1-12c9.5,0,9.5,12,19.1,12
				c9.5,0,9.5-12,19.1-12c9.5,0,9.5,12,19.1,12c9.5,0,9.5-12,19.1-12c9.5,0,9.5,12,19.1,12c9.5,0,9.5-12,19.1-12
				c9.5,0,9.5,12,19.1,12c9.5,0,9.5-12,19.1-12c9.5,0,9.5,12,19.1,12c9.5,0,9.5-12,19.1-12c9.5,0,9.5,12,19.1,12
				c9.5,0,9.5-12,19.1-12c9.5,0,9.5,12,19.1,12c9.5,0,9.5-12,19.1-12c9.5,0,9.5,12,19.1,12c9.5,0,9.5-12,19.1-12
				c9.5,0,9.5,12,19.1,12c9.5,0,9.5-12,19.1-12c9.5,0,9.5,12,19.1,12c9.5,0,9.5-12,19.1-12c9.5,0,9.5,12,19.1,12
				c9.5,0,9.5-12,19.1-12c9.5,0,9.5,12,19.1,12c9.5,0,9.5-12,19.1-12c9.5,0,9.5,12,19.1,12c9.5,0,9.5-12,19.1-12
				c9.5,0,9.5,12,19.1,12c9.5,0,9.5-12,19.1-12c9.5,0,9.5,12,19.1,12c9.5,0,9.5-12,19.1-12c9.5,0,9.5,12,19.1,12
				c9.5,0,9.5-12,19.1-12c9.5,0,9.5,12,19.1,12c9.5,0,9.5-12,19.1-12c9.5,0,9.5,12,19.1,12c9.5,0,9.5-12,19.1-12
				c9.5,0,9.5,12,19.1,12c9.5,0,9.5-12,19.1-12c9.5,0,9.5,12,19.1,12c9.5,0,9.5-12,19.1-12c9.5,0,9.5,12,19.1,12
				c9.5,0,9.5-12,19.1-12c9.5,0,9.5,12,19.1,12c9.5,0,9.5-12,19.1-12c9.5,0,9.5,12,19.1,12c9.5,0,9.5-12,19.1-12
				c9.5,0,9.5,12,19.1,12c9.5,0,9.5-12,19.1-12c9.5,0,9.5,12,19.1,12c9.5,0,9.5-12,19.1-12c9.5,0,9.5,12,19.1,12
				c9.5,0,9.5-12,19.1-12s9.5,12,19.1,12c9.5,0,9.5-12,19.1-12c9.5,0,9.5,12,19.1,12c9.5,0,9.5-12,19.1-12c9.5,0,9.5,12,19.1,12
				c9.5,0,9.5-12,19.1-12c9.5,0,9.5,12,19.1,12c9.5,0,9.5-12,19.1-12c9.5,0,9.5,12,19.1,12c9.5,0,9.5-12,19.1-12
				c9.5,0,9.5,12,19.1,12c9.5,0,9.5-12,19.1-12c9.5,0,9.5,12,19.1,12c9.5,0,9.5-12,19.1-12c9.5,0,9.5,12,19.1,12
				c9.5,0,9.5-12,19.1-12c9.5,0,9.5,12,19.1,12c9.5,0,9.5-12,19.1-12c9.5,0,9.5,12,19.1,12"/>
		</g>
		<g>
			<path style="fill:none;stroke:#231F20;stroke-miterlimit:10;" d="M252.3,687.1c9.7,0,9.7,12,19.4,12c9.7,0,9.7-12,19.4-12
				c9.7,0,9.7,12,19.4,12c9.7,0,9.7-12,19.4-12c9.7,0,9.7,12,19.4,12c9.7,0,9.7-12,19.4-12c9.7,0,9.7,12,19.4,12
				c9.7,0,9.7-12,19.4-12c9.7,0,9.7,12,19.4,12c9.7,0,9.7-12,19.4-12c9.7,0,9.7,12,19.4,12c9.7,0,9.7-12,19.4-12
				c9.7,0,9.7,12,19.4,12c9.7,0,9.7-12,19.4-12c9.7,0,9.7,12,19.4,12c9.7,0,9.7-12,19.4-12c9.7,0,9.7,12,19.4,12
				c9.7,0,9.7-12,19.4-12c9.7,0,9.7,12,19.4,12c9.7,0,9.7-12,19.4-12c9.7,0,9.7,12,19.4,12c9.7,0,9.7-12,19.4-12
				c9.7,0,9.7,12,19.4,12c9.7,0,9.7-12,19.4-12c9.7,0,9.7,12,19.4,12c9.7,0,9.7-12,19.4-12c9.7,0,9.7,12,19.4,12
				c9.7,0,9.7-12,19.4-12c9.7,0,9.7,12,19.4,12c9.7,0,9.7-12,19.4-12c9.7,0,9.7,12,19.4,12c9.7,0,9.7-12,19.4-12
				c9.7,0,9.7,12,19.4,12c9.7,0,9.7-12,19.4-12c9.7,0,9.7,12,19.4,12c9.7,0,9.7-12,19.4-12c9.7,0,9.7,12,19.4,12
				c9.7,0,9.7-12,19.4-12c9.7,0,9.7,12,19.4,12c9.7,0,9.7-12,19.4-12c9.7,0,9.7,12,19.4,12c9.7,0,9.7-12,19.4-12
				c9.7,0,9.7,12,19.4,12c9.7,0,9.7-12,19.4-12c9.7,0,9.7,12,19.4,12c9.7,0,9.7-12,19.4-12c9.7,0,9.7,12,19.4,12
				c9.7,0,9.7-12,19.4-12c9.7,0,9.7,12,19.4,12c9.7,0,9.7-12,19.4-12c9.7,0,9.7,12,19.4,12c9.7,0,9.7-12,19.4-12
				c9.7,0,9.7,12,19.4,12c9.7,0,9.7-12,19.4-12c9.7,0,9.7,12,19.4,12c9.7,0,9.7-12,19.4-12c9.7,0,9.7,12,19.4,12
				c9.7,0,9.7-12,19.4-12c9.7,0,9.7,12,19.4,12c9.7,0,9.7-12,19.4-12c9.7,0,9.7,12,19.4,12c9.7,0,9.7-12,19.4-12
				c9.7,0,9.7,12,19.4,12c9.7,0,9.7-12,19.4-12c9.7,0,9.7,12,19.4,12c9.7,0,9.7-12,19.4-12c9.7,0,9.7,12,19.4,12
				c9.7,0,9.7-12,19.4-12c9.7,0,9.7,12,19.4,12c9.7,0,9.7-12,19.4-12c9.7,0,9.7,12,19.4,12c9.7,0,9.7-12,19.4-12
				c9.7,0,9.7,12,19.4,12s9.7-12,19.4-12c9.7,0,9.7,12,19.4,12c9.7,0,9.7-12,19.4-12c9.7,0,9.7,12,19.4,12"/>
		</g>
		<g>
			<path style="fill:none;stroke:#231F20;stroke-miterlimit:10;" d="M227.1,706.8c9.9,0,9.9,12,19.7,12c9.9,0,9.9-12,19.7-12
				c9.9,0,9.9,12,19.7,12c9.9,0,9.9-12,19.7-12c9.9,0,9.9,12,19.7,12c9.9,0,9.9-12,19.7-12c9.9,0,9.9,12,19.7,12
				c9.9,0,9.9-12,19.7-12c9.9,0,9.9,12,19.7,12c9.9,0,9.9-12,19.7-12c9.9,0,9.9,12,19.7,12c9.9,0,9.9-12,19.7-12
				c9.9,0,9.9,12,19.7,12c9.9,0,9.9-12,19.7-12c9.9,0,9.9,12,19.7,12c9.9,0,9.9-12,19.7-12c9.9,0,9.9,12,19.7,12
				c9.9,0,9.9-12,19.7-12c9.9,0,9.9,12,19.7,12c9.9,0,9.9-12,19.7-12c9.9,0,9.9,12,19.7,12c9.9,0,9.9-12,19.7-12
				c9.9,0,9.9,12,19.7,12c9.9,0,9.9-12,19.7-12c9.9,0,9.9,12,19.7,12c9.9,0,9.9-12,19.7-12c9.9,0,9.9,12,19.7,12
				c9.9,0,9.9-12,19.7-12c9.9,0,9.9,12,19.7,12c9.9,0,9.9-12,19.7-12c9.9,0,9.9,12,19.7,12c9.9,0,9.9-12,19.7-12
				c9.9,0,9.9,12,19.7,12c9.9,0,9.9-12,19.7-12c9.9,0,9.9,12,19.7,12c9.9,0,9.9-12,19.7-12c9.9,0,9.9,12,19.7,12
				c9.9,0,9.9-12,19.7-12c9.9,0,9.9,12,19.7,12c9.9,0,9.9-12,19.7-12c9.9,0,9.9,12,19.7,12c9.9,0,9.9-12,19.7-12
				c9.9,0,9.9,12,19.7,12c9.9,0,9.9-12,19.7-12c9.9,0,9.9,12,19.7,12c9.9,0,9.9-12,19.7-12c9.9,0,9.9,12,19.7,12
				c9.9,0,9.9-12,19.7-12c9.9,0,9.9,12,19.7,12c9.9,0,9.9-12,19.7-12c9.9,0,9.9,12,19.7,12c9.9,0,9.9-12,19.7-12
				c9.9,0,9.9,12,19.7,12c9.9,0,9.9-12,19.7-12c9.9,0,9.9,12,19.7,12c9.9,0,9.9-12,19.7-12c9.9,0,9.9,12,19.7,12
				c9.9,0,9.9-12,19.7-12c9.9,0,9.9,12,19.7,12c9.9,0,9.9-12,19.7-12c9.9,0,9.9,12,19.7,12c9.9,0,9.9-12,19.7-12
				c9.9,0,9.9,12,19.7,12c9.9,0,9.9-12,19.7-12c9.9,0,9.9,12,19.7,12c9.9,0,9.9-12,19.7-12c9.9,0,9.9,12,19.7,12
				c9.9,0,9.9-12,19.7-12c9.9,0,9.9,12,19.7,12c9.9,0,9.9-12,19.7-12c9.9,0,9.9,12,19.7,12c9.9,0,9.9-12,19.7-12s9.9,12,19.7,12
				c9.9,0,9.9-12,19.7-12c9.9,0,9.9,12,19.7,12c9.9,0,9.9-12,19.7-12c9.9,0,9.9,12,19.7,12"/>
		</g>
		<g>
			<path style="fill:none;stroke:#231F20;stroke-miterlimit:10;" d="M201.8,726.6c10,0,10,12,20,12c10,0,10-12,20.1-12
				c10,0,10,12,20,12c10,0,10-12,20.1-12c10,0,10,12,20,12c10,0,10-12,20.1-12c10,0,10,12,20,12c10,0,10-12,20.1-12
				c10,0,10,12,20,12c10,0,10-12,20.1-12c10,0,10,12,20,12c10,0,10-12,20.1-12c10,0,10,12,20,12c10,0,10-12,20.1-12
				c10,0,10,12,20,12c10,0,10-12,20.1-12c10,0,10,12,20,12c10,0,10-12,20.1-12c10,0,10,12,20,12c10,0,10-12,20.1-12
				c10,0,10,12,20,12c10,0,10-12,20.1-12c10,0,10,12,20,12c10,0,10-12,20.1-12c10,0,10,12,20,12c10,0,10-12,20.1-12
				c10,0,10,12,20,12c10,0,10-12,20.1-12c10,0,10,12,20,12c10,0,10-12,20.1-12c10,0,10,12,20,12c10,0,10-12,20.1-12
				c10,0,10,12,20,12c10,0,10-12,20.1-12c10,0,10,12,20,12c10,0,10-12,20.1-12c10,0,10,12,20,12c10,0,10-12,20.1-12
				c10,0,10,12,20,12c10,0,10-12,20.1-12c10,0,10,12,20,12c10,0,10-12,20.1-12c10,0,10,12,20,12c10,0,10-12,20.1-12
				c10,0,10,12,20,12c10,0,10-12,20.1-12c10,0,10,12,20,12c10,0,10-12,20.1-12c10,0,10,12,20,12c10,0,10-12,20.1-12
				c10,0,10,12,20,12c10,0,10-12,20.1-12c10,0,10,12,20,12c10,0,10-12,20.1-12c10,0,10,12,20,12c10,0,10-12,20.1-12
				c10,0,10,12,20,12c10,0,10-12,20.1-12c10,0,10,12,20,12c10,0,10-12,20.1-12c10,0,10,12,20,12c10,0,10-12,20.1-12
				c10,0,10,12,20,12c10,0,10-12,20.1-12c10,0,10,12,20,12c10,0,10-12,20.1-12c10,0,10,12,20,12c10,0,10-12,20.1-12
				c10,0,10,12,20,12c10,0,10-12,20.1-12c10,0,10,12,20,12c10,0,10-12,20.1-12c10,0,10,12,20.1,12c10,0,10-12,20.1-12
				c10,0,10,12,20.1,12c10,0,10-12,20.1-12c10,0,10,12,20.1,12"/>
		</g>
		<g>
			<path style="fill:none;stroke:#231F20;stroke-miterlimit:10;" d="M176.6,746.4c10.2,0,10.2,12,20.4,12c10.2,0,10.2-12,20.4-12
				c10.2,0,10.2,12,20.4,12c10.2,0,10.2-12,20.4-12c10.2,0,10.2,12,20.4,12c10.2,0,10.2-12,20.4-12c10.2,0,10.2,12,20.4,12
				c10.2,0,10.2-12,20.4-12c10.2,0,10.2,12,20.4,12c10.2,0,10.2-12,20.4-12c10.2,0,10.2,12,20.4,12c10.2,0,10.2-12,20.4-12
				c10.2,0,10.2,12,20.4,12c10.2,0,10.2-12,20.4-12c10.2,0,10.2,12,20.4,12c10.2,0,10.2-12,20.4-12c10.2,0,10.2,12,20.4,12
				c10.2,0,10.2-12,20.4-12c10.2,0,10.2,12,20.4,12c10.2,0,10.2-12,20.4-12c10.2,0,10.2,12,20.4,12c10.2,0,10.2-12,20.4-12
				c10.2,0,10.2,12,20.4,12c10.2,0,10.2-12,20.4-12c10.2,0,10.2,12,20.4,12c10.2,0,10.2-12,20.4-12c10.2,0,10.2,12,20.4,12
				c10.2,0,10.2-12,20.4-12c10.2,0,10.2,12,20.4,12c10.2,0,10.2-12,20.4-12c10.2,0,10.2,12,20.4,12c10.2,0,10.2-12,20.4-12
				c10.2,0,10.2,12,20.4,12c10.2,0,10.2-12,20.4-12c10.2,0,10.2,12,20.4,12c10.2,0,10.2-12,20.4-12c10.2,0,10.2,12,20.4,12
				c10.2,0,10.2-12,20.4-12c10.2,0,10.2,12,20.4,12c10.2,0,10.2-12,20.4-12c10.2,0,10.2,12,20.4,12c10.2,0,10.2-12,20.4-12
				c10.2,0,10.2,12,20.4,12c10.2,0,10.2-12,20.4-12c10.2,0,10.2,12,20.4,12c10.2,0,10.2-12,20.4-12c10.2,0,10.2,12,20.4,12
				c10.2,0,10.2-12,20.4-12c10.2,0,10.2,12,20.4,12c10.2,0,10.2-12,20.4-12c10.2,0,10.2,12,20.4,12c10.2,0,10.2-12,20.4-12
				c10.2,0,10.2,12,20.4,12c10.2,0,10.2-12,20.4-12c10.2,0,10.2,12,20.4,12c10.2,0,10.2-12,20.4-12c10.2,0,10.2,12,20.4,12
				c10.2,0,10.2-12,20.4-12s10.2,12,20.4,12c10.2,0,10.2-12,20.4-12c10.2,0,10.2,12,20.4,12c10.2,0,10.2-12,20.4-12
				c10.2,0,10.2,12,20.4,12c10.2,0,10.2-12,20.4-12c10.2,0,10.2,12,20.4,12c10.2,0,10.2-12,20.4-12c10.2,0,10.2,12,20.4,12
				c10.2,0,10.2-12,20.4-12c10.2,0,10.2,12,20.4,12c10.2,0,10.2-12,20.4-12c10.2,0,10.2,12,20.4,12c10.2,0,10.2-12,20.4-12
				c10.2,0,10.2,12,20.4,12c10.2,0,10.2-12,20.4-12c10.2,0,10.2,12,20.4,12c10.2,0,10.2-12,20.4-12c10.2,0,10.2,12,20.4,12"/>
		</g>
		<g>
			<path style="fill:none;stroke:#231F20;stroke-miterlimit:10;" d="M151.4,766.2c10.4,0,10.3,12,20.7,12c10.4,0,10.4-12,20.7-12
				c10.4,0,10.3,12,20.7,12c10.4,0,10.4-12,20.7-12c10.4,0,10.3,12,20.7,12c10.4,0,10.4-12,20.7-12c10.4,0,10.3,12,20.7,12
				c10.4,0,10.4-12,20.7-12c10.4,0,10.3,12,20.7,12c10.4,0,10.4-12,20.7-12c10.4,0,10.3,12,20.7,12c10.4,0,10.4-12,20.7-12
				c10.4,0,10.3,12,20.7,12c10.4,0,10.4-12,20.7-12c10.4,0,10.3,12,20.7,12c10.4,0,10.4-12,20.7-12c10.4,0,10.3,12,20.7,12
				c10.4,0,10.4-12,20.7-12c10.4,0,10.3,12,20.7,12c10.4,0,10.4-12,20.7-12c10.4,0,10.3,12,20.7,12c10.4,0,10.4-12,20.7-12
				c10.4,0,10.3,12,20.7,12c10.4,0,10.4-12,20.7-12c10.4,0,10.3,12,20.7,12c10.4,0,10.4-12,20.7-12c10.4,0,10.3,12,20.7,12
				c10.4,0,10.4-12,20.7-12c10.4,0,10.3,12,20.7,12c10.4,0,10.4-12,20.7-12c10.4,0,10.3,12,20.7,12c10.4,0,10.4-12,20.7-12
				c10.4,0,10.3,12,20.7,12c10.4,0,10.4-12,20.7-12c10.4,0,10.3,12,20.7,12c10.4,0,10.4-12,20.7-12c10.4,0,10.3,12,20.7,12
				c10.4,0,10.4-12,20.7-12c10.4,0,10.3,12,20.7,12c10.4,0,10.4-12,20.7-12c10.4,0,10.3,12,20.7,12c10.4,0,10.4-12,20.7-12
				c10.4,0,10.3,12,20.7,12c10.4,0,10.4-12,20.7-12c10.4,0,10.3,12,20.7,12c10.4,0,10.4-12,20.7-12c10.4,0,10.3,12,20.7,12
				c10.4,0,10.4-12,20.7-12c10.4,0,10.3,12,20.7,12c10.4,0,10.4-12,20.7-12c10.4,0,10.3,12,20.7,12c10.4,0,10.4-12,20.7-12
				c10.4,0,10.3,12,20.7,12c10.4,0,10.4-12,20.7-12c10.4,0,10.3,12,20.7,12c10.4,0,10.4-12,20.7-12c10.4,0,10.3,12,20.7,12
				c10.4,0,10.4-12,20.7-12c10.4,0,10.3,12,20.7,12c10.4,0,10.4-12,20.7-12c10.4,0,10.3,12,20.7,12c10.4,0,10.4-12,20.7-12
				c10.4,0,10.4,12,20.7,12c10.4,0,10.4-12,20.7-12c10.4,0,10.4,12,20.7,12c10.4,0,10.4-12,20.7-12c10.4,0,10.3,12,20.7,12
				c10.4,0,10.4-12,20.7-12c10.4,0,10.3,12,20.7,12c10.4,0,10.4-12,20.7-12c10.4,0,10.4,12,20.7,12c10.4,0,10.4-12,20.7-12
				c10.4,0,10.4,12,20.7,12c10.4,0,10.4-12,20.7-12c10.4,0,10.4,12,20.7,12c10.4,0,10.4-12,20.7-12c10.4,0,10.4,12,20.7,12"/>
		</g>
		<g>
			<path style="fill:none;stroke:#231F20;stroke-miterlimit:10;" d="M126.1,785.9c10.5,0,10.5,12,21,12c10.5,0,10.5-12,21-12
				c10.5,0,10.5,12,21,12c10.5,0,10.5-12,21-12c10.5,0,10.5,12,21,12c10.5,0,10.5-12,21-12c10.5,0,10.5,12,21,12
				c10.5,0,10.5-12,21-12c10.5,0,10.5,12,21,12c10.5,0,10.5-12,21-12c10.5,0,10.5,12,21,12c10.5,0,10.5-12,21-12
				c10.5,0,10.5,12,21,12c10.5,0,10.5-12,21-12c10.5,0,10.5,12,21,12c10.5,0,10.5-12,21-12c10.5,0,10.5,12,21,12
				c10.5,0,10.5-12,21-12c10.5,0,10.5,12,21,12c10.5,0,10.5-12,21-12c10.5,0,10.5,12,21,12c10.5,0,10.5-12,21-12
				c10.5,0,10.5,12,21,12c10.5,0,10.5-12,21-12c10.5,0,10.5,12,21,12c10.5,0,10.5-12,21-12c10.5,0,10.5,12,21,12
				c10.5,0,10.5-12,21-12c10.5,0,10.5,12,21,12c10.5,0,10.5-12,21-12c10.5,0,10.5,12,21,12c10.5,0,10.5-12,21-12
				c10.5,0,10.5,12,21,12c10.5,0,10.5-12,21-12c10.5,0,10.5,12,21,12c10.5,0,10.5-12,21-12c10.5,0,10.5,12,21,12
				c10.5,0,10.5-12,21-12c10.5,0,10.5,12,21,12c10.5,0,10.5-12,21-12c10.5,0,10.5,12,21,12c10.5,0,10.5-12,21-12
				c10.5,0,10.5,12,21,12c10.5,0,10.5-12,21-12c10.5,0,10.5,12,21,12c10.5,0,10.5-12,21-12c10.5,0,10.5,12,21,12
				c10.5,0,10.5-12,21-12c10.5,0,10.5,12,21,12c10.5,0,10.5-12,21-12c10.5,0,10.5,12,21,12c10.5,0,10.5-12,21-12
				c10.5,0,10.5,12,21,12c10.5,0,10.5-12,21-12c10.5,0,10.5,12,21,12c10.5,0,10.5-12,21-12c10.5,0,10.5,12,21,12
				c10.5,0,10.5-12,21-12c10.5,0,10.5,12,21,12c10.5,0,10.5-12,21-12c10.5,0,10.5,12,21,12c10.5,0,10.5-12,21-12
				c10.5,0,10.5,12,21,12c10.5,0,10.5-12,21-12c10.5,0,10.5,12,21,12c10.5,0,10.5-12,21-12c10.5,0,10.5,12,21,12
				c10.5,0,10.5-12,21-12c10.5,0,10.5,12,21,12c10.5,0,10.5-12,21-12c10.5,0,10.5,12,21,12c10.5,0,10.5-12,21-12
				c10.5,0,10.5,12,21,12c10.5,0,10.5-12,21-12c10.5,0,10.5,12,21,12c10.5,0,10.5-12,21-12c10.5,0,10.5,12,21,12"/>
		</g>
		<g>
			<path style="fill:none;stroke:#231F20;stroke-miterlimit:10;" d="M100.9,805.7c10.7,0,10.7,12,21.4,12c10.7,0,10.7-12,21.4-12
				c10.7,0,10.7,12,21.4,12c10.7,0,10.7-12,21.4-12c10.7,0,10.7,12,21.4,12c10.7,0,10.7-12,21.4-12c10.7,0,10.7,12,21.4,12
				c10.7,0,10.7-12,21.4-12c10.7,0,10.7,12,21.4,12c10.7,0,10.7-12,21.4-12c10.7,0,10.7,12,21.4,12c10.7,0,10.7-12,21.4-12
				c10.7,0,10.7,12,21.4,12c10.7,0,10.7-12,21.4-12c10.7,0,10.7,12,21.4,12c10.7,0,10.7-12,21.4-12c10.7,0,10.7,12,21.4,12
				c10.7,0,10.7-12,21.4-12c10.7,0,10.7,12,21.4,12c10.7,0,10.7-12,21.4-12c10.7,0,10.7,12,21.4,12c10.7,0,10.7-12,21.4-12
				c10.7,0,10.7,12,21.4,12c10.7,0,10.7-12,21.4-12c10.7,0,10.7,12,21.4,12c10.7,0,10.7-12,21.4-12c10.7,0,10.7,12,21.4,12
				c10.7,0,10.7-12,21.4-12c10.7,0,10.7,12,21.4,12c10.7,0,10.7-12,21.4-12c10.7,0,10.7,12,21.4,12c10.7,0,10.7-12,21.4-12
				c10.7,0,10.7,12,21.4,12c10.7,0,10.7-12,21.4-12c10.7,0,10.7,12,21.4,12c10.7,0,10.7-12,21.4-12c10.7,0,10.7,12,21.4,12
				c10.7,0,10.7-12,21.4-12c10.7,0,10.7,12,21.4,12c10.7,0,10.7-12,21.4-12c10.7,0,10.7,12,21.4,12c10.7,0,10.7-12,21.4-12
				c10.7,0,10.7,12,21.4,12c10.7,0,10.7-12,21.4-12c10.7,0,10.7,12,21.4,12c10.7,0,10.7-12,21.4-12c10.7,0,10.7,12,21.4,12
				c10.7,0,10.7-12,21.4-12c10.7,0,10.7,12,21.4,12c10.7,0,10.7-12,21.4-12c10.7,0,10.7,12,21.4,12c10.7,0,10.7-12,21.4-12
				c10.7,0,10.7,12,21.4,12c10.7,0,10.7-12,21.4-12c10.7,0,10.7,12,21.4,12c10.7,0,10.7-12,21.4-12c10.7,0,10.7,12,21.4,12
				c10.7,0,10.7-12,21.4-12c10.7,0,10.7,12,21.4,12c10.7,0,10.7-12,21.4-12c10.7,0,10.7,12,21.4,12c10.7,0,10.7-12,21.4-12
				c10.7,0,10.7,12,21.4,12c10.7,0,10.7-12,21.4-12c10.7,0,10.7,12,21.4,12c10.7,0,10.7-12,21.4-12c10.7,0,10.7,12,21.4,12
				c10.7,0,10.7-12,21.4-12c10.7,0,10.7,12,21.4,12c10.7,0,10.7-12,21.4-12c10.7,0,10.7,12,21.4,12c10.7,0,10.7-12,21.4-12
				c10.7,0,10.7,12,21.4,12c10.7,0,10.7-12,21.4-12c10.7,0,10.7,12,21.4,12c10.7,0,10.7-12,21.4-12s10.7,12,21.4,12"/>
		</g>
		<g>
			<path style="fill:none;stroke:#231F20;stroke-miterlimit:10;" d="M75.7,825.5c10.8,0,10.8,12,21.7,12c10.8,0,10.8-12,21.7-12
				c10.8,0,10.8,12,21.7,12c10.8,0,10.8-12,21.7-12c10.8,0,10.8,12,21.7,12c10.8,0,10.8-12,21.7-12c10.8,0,10.8,12,21.7,12
				c10.8,0,10.8-12,21.7-12c10.8,0,10.8,12,21.7,12c10.8,0,10.8-12,21.7-12c10.8,0,10.8,12,21.7,12c10.8,0,10.8-12,21.7-12
				c10.8,0,10.8,12,21.7,12c10.8,0,10.8-12,21.7-12c10.8,0,10.8,12,21.7,12c10.8,0,10.8-12,21.7-12c10.8,0,10.8,12,21.7,12
				c10.8,0,10.8-12,21.7-12c10.8,0,10.8,12,21.7,12c10.8,0,10.8-12,21.7-12c10.8,0,10.8,12,21.7,12c10.8,0,10.8-12,21.7-12
				c10.8,0,10.8,12,21.7,12c10.8,0,10.8-12,21.7-12c10.8,0,10.8,12,21.7,12c10.8,0,10.8-12,21.7-12c10.8,0,10.8,12,21.7,12
				c10.8,0,10.8-12,21.7-12c10.8,0,10.8,12,21.7,12c10.8,0,10.8-12,21.7-12c10.8,0,10.8,12,21.7,12c10.8,0,10.8-12,21.7-12
				c10.8,0,10.8,12,21.7,12c10.8,0,10.8-12,21.7-12c10.8,0,10.8,12,21.7,12c10.8,0,10.8-12,21.7-12c10.8,0,10.8,12,21.7,12
				c10.8,0,10.8-12,21.7-12c10.8,0,10.8,12,21.7,12c10.8,0,10.8-12,21.7-12c10.8,0,10.8,12,21.7,12c10.8,0,10.8-12,21.7-12
				c10.8,0,10.8,12,21.7,12c10.8,0,10.8-12,21.7-12c10.8,0,10.8,12,21.7,12c10.8,0,10.8-12,21.7-12c10.8,0,10.8,12,21.7,12
				c10.8,0,10.8-12,21.7-12c10.8,0,10.8,12,21.7,12c10.8,0,10.8-12,21.7-12c10.8,0,10.8,12,21.7,12c10.8,0,10.8-12,21.7-12
				c10.8,0,10.8,12,21.7,12c10.8,0,10.8-12,21.7-12c10.8,0,10.8,12,21.7,12c10.8,0,10.8-12,21.7-12c10.8,0,10.8,12,21.7,12
				c10.8,0,10.8-12,21.7-12c10.8,0,10.8,12,21.7,12c10.8,0,10.8-12,21.7-12c10.8,0,10.8,12,21.7,12c10.8,0,10.8-12,21.7-12
				c10.8,0,10.8,12,21.7,12c10.8,0,10.8-12,21.7-12c10.8,0,10.8,12,21.7,12c10.8,0,10.8-12,21.7-12c10.8,0,10.8,12,21.7,12
				c10.8,0,10.8-12,21.7-12c10.8,0,10.8,12,21.7,12c10.8,0,10.8-12,21.7-12c10.8,0,10.8,12,21.7,12c10.8,0,10.8-12,21.7-12
				c10.8,0,10.8,12,21.7,12c10.8,0,10.8-12,21.7-12c10.8,0,10.8,12,21.7,12c10.8,0,10.9-12,21.7-12c10.8,0,10.8,12,21.7,12"/>
		</g>
		<g>
			<path style="fill:none;stroke:#231F20;stroke-miterlimit:10;" d="M50.5,845.3c11,0,11,12,22,12c11,0,11-12,22-12
				c11,0,11,12,22,12c11,0,11-12,22-12c11,0,11,12,22,12c11,0,11-12,22-12c11,0,11,12,22,12c11,0,11-12,22-12c11,0,11,12,22,12
				c11,0,11-12,22-12c11,0,11,12,22,12c11,0,11-12,22-12c11,0,11,12,22,12c11,0,11-12,22-12c11,0,11,12,22,12c11,0,11-12,22-12
				c11,0,11,12,22,12c11,0,11-12,22-12c11,0,11,12,22,12c11,0,11-12,22-12c11,0,11,12,22,12c11,0,11-12,22-12c11,0,11,12,22,12
				c11,0,11-12,22-12c11,0,11,12,22,12c11,0,11-12,22-12c11,0,11,12,22,12c11,0,11-12,22-12c11,0,11,12,22,12c11,0,11-12,22-12
				c11,0,11,12,22,12c11,0,11-12,22-12c11,0,11,12,22,12c11,0,11-12,22-12c11,0,11,12,22,12c11,0,11-12,22-12c11,0,11,12,22,12
				c11,0,11-12,22-12c11,0,11,12,22,12c11,0,11-12,22-12c11,0,11,12,22,12c11,0,11-12,22-12c11,0,11,12,22,12c11,0,11-12,22-12
				c11,0,11,12,22,12c11,0,11-12,22-12c11,0,11,12,22,12c11,0,11-12,22-12c11,0,11,12,22,12c11,0,11-12,22-12c11,0,11,12,22,12
				c11,0,11-12,22-12c11,0,11,12,22,12c11,0,11-12,22-12c11,0,11,12,22,12c11,0,11-12,22-12c11,0,11,12,22,12c11,0,11-12,22-12
				c11,0,11,12,22,12c11,0,11-12,22-12c11,0,11,12,22,12c11,0,11-12,22-12c11,0,11,12,22,12c11,0,11-12,22-12c11,0,11,12,22,12
				c11,0,11-12,22-12c11,0,11,12,22,12c11,0,11-12,22-12c11,0,11,12,22,12c11,0,11-12,22-12c11,0,11,12,22,12c11,0,11-12,22-12
				c11,0,11,12,22,12c11,0,11-12,22-12c11,0,11,12,22,12c11,0,11-12,22-12c11,0,11,12,22,12"/>
		</g>
		<g>
			<path style="fill:none;stroke:#231F20;stroke-miterlimit:10;" d="M25.2,865c11.2,0,11.2,12,22.3,12c11.2,0,11.2-12,22.3-12
				c11.2,0,11.2,12,22.3,12c11.2,0,11.2-12,22.3-12c11.2,0,11.2,12,22.3,12c11.2,0,11.2-12,22.3-12c11.2,0,11.2,12,22.3,12
				c11.2,0,11.2-12,22.3-12c11.2,0,11.2,12,22.3,12c11.2,0,11.2-12,22.3-12c11.2,0,11.2,12,22.3,12c11.2,0,11.2-12,22.3-12
				c11.2,0,11.2,12,22.3,12c11.2,0,11.2-12,22.3-12c11.2,0,11.2,12,22.3,12c11.2,0,11.2-12,22.3-12c11.2,0,11.2,12,22.3,12
				c11.2,0,11.2-12,22.3-12c11.2,0,11.2,12,22.3,12c11.2,0,11.2-12,22.3-12c11.2,0,11.2,12,22.3,12c11.2,0,11.2-12,22.3-12
				c11.2,0,11.2,12,22.3,12c11.2,0,11.2-12,22.3-12c11.2,0,11.2,12,22.3,12c11.2,0,11.2-12,22.3-12c11.2,0,11.2,12,22.3,12
				c11.2,0,11.2-12,22.3-12c11.2,0,11.2,12,22.3,12c11.2,0,11.2-12,22.3-12c11.2,0,11.2,12,22.3,12c11.2,0,11.2-12,22.3-12
				c11.2,0,11.2,12,22.3,12c11.2,0,11.2-12,22.3-12c11.2,0,11.2,12,22.3,12c11.2,0,11.2-12,22.3-12c11.2,0,11.2,12,22.3,12
				c11.2,0,11.2-12,22.3-12c11.2,0,11.2,12,22.3,12c11.2,0,11.2-12,22.3-12c11.2,0,11.2,12,22.3,12c11.2,0,11.2-12,22.3-12
				c11.2,0,11.2,12,22.3,12c11.2,0,11.2-12,22.3-12c11.2,0,11.2,12,22.3,12c11.2,0,11.2-12,22.3-12c11.2,0,11.2,12,22.3,12
				c11.2,0,11.2-12,22.3-12c11.2,0,11.2,12,22.3,12c11.2,0,11.2-12,22.3-12c11.2,0,11.2,12,22.3,12c11.2,0,11.2-12,22.3-12
				c11.2,0,11.2,12,22.3,12c11.2,0,11.2-12,22.3-12c11.2,0,11.2,12,22.3,12c11.2,0,11.2-12,22.3-12c11.2,0,11.2,12,22.3,12
				c11.2,0,11.2-12,22.3-12c11.2,0,11.2,12,22.3,12c11.2,0,11.2-12,22.3-12c11.2,0,11.2,12,22.3,12c11.2,0,11.2-12,22.3-12
				c11.2,0,11.2,12,22.3,12c11.2,0,11.2-12,22.3-12c11.2,0,11.2,12,22.3,12c11.2,0,11.2-12,22.3-12c11.2,0,11.2,12,22.3,12
				c11.2,0,11.2-12,22.3-12c11.2,0,11.2,12,22.3,12c11.2,0,11.2-12,22.3-12c11.2,0,11.2,12,22.3,12c11.2,0,11.2-12,22.4-12
				c11.2,0,11.2,12,22.4,12c11.2,0,11.2-12,22.4-12c11.2,0,11.2,12,22.4,12c11.2,0,11.2-12,22.4-12c11.2,0,11.2,12,22.4,12"/>
		</g>
		<g>
			<path style="fill:none;stroke:#231F20;stroke-miterlimit:10;" d="M0,884.8c11.3,0,11.3,12,22.7,12c11.3,0,11.3-12,22.7-12
				c11.3,0,11.3,12,22.7,12c11.3,0,11.3-12,22.7-12c11.3,0,11.3,12,22.7,12c11.3,0,11.3-12,22.7-12c11.3,0,11.3,12,22.7,12
				c11.3,0,11.3-12,22.7-12c11.3,0,11.3,12,22.7,12c11.3,0,11.3-12,22.7-12c11.3,0,11.3,12,22.7,12c11.3,0,11.3-12,22.7-12
				c11.3,0,11.3,12,22.7,12c11.3,0,11.3-12,22.7-12c11.3,0,11.3,12,22.7,12c11.3,0,11.3-12,22.7-12c11.3,0,11.3,12,22.7,12
				s11.3-12,22.7-12c11.3,0,11.3,12,22.7,12c11.3,0,11.3-12,22.7-12c11.3,0,11.3,12,22.7,12c11.3,0,11.3-12,22.7-12
				c11.3,0,11.3,12,22.7,12c11.3,0,11.3-12,22.7-12c11.3,0,11.3,12,22.7,12c11.3,0,11.3-12,22.7-12c11.3,0,11.3,12,22.7,12
				c11.3,0,11.3-12,22.7-12c11.3,0,11.3,12,22.7,12c11.3,0,11.3-12,22.7-12c11.3,0,11.3,12,22.7,12c11.3,0,11.3-12,22.7-12
				c11.3,0,11.3,12,22.7,12c11.3,0,11.3-12,22.7-12c11.3,0,11.3,12,22.7,12c11.3,0,11.3-12,22.7-12c11.3,0,11.3,12,22.7,12
				c11.3,0,11.3-12,22.7-12c11.3,0,11.3,12,22.7,12c11.3,0,11.3-12,22.7-12c11.3,0,11.3,12,22.7,12c11.3,0,11.3-12,22.7-12
				c11.3,0,11.3,12,22.7,12c11.3,0,11.3-12,22.7-12c11.3,0,11.3,12,22.7,12c11.3,0,11.3-12,22.7-12c11.3,0,11.3,12,22.7,12
				c11.3,0,11.3-12,22.7-12c11.3,0,11.3,12,22.7,12c11.3,0,11.3-12,22.7-12c11.3,0,11.3,12,22.7,12c11.3,0,11.3-12,22.7-12
				c11.3,0,11.3,12,22.7,12c11.3,0,11.3-12,22.7-12c11.3,0,11.3,12,22.7,12c11.3,0,11.3-12,22.7-12c11.3,0,11.3,12,22.7,12
				c11.3,0,11.3-12,22.7-12s11.3,12,22.7,12c11.3,0,11.3-12,22.7-12c11.3,0,11.3,12,22.7,12c11.3,0,11.3-12,22.7-12
				c11.3,0,11.3,12,22.7,12c11.3,0,11.3-12,22.7-12c11.3,0,11.3,12,22.7,12c11.3,0,11.3-12,22.7-12c11.3,0,11.3,12,22.7,12
				c11.3,0,11.3-12,22.7-12c11.3,0,11.3,12,22.7,12c11.3,0,11.3-12,22.7-12c11.3,0,11.3,12,22.7,12c11.3,0,11.3-12,22.7-12
				c11.3,0,11.3,12,22.7,12c11.3,0,11.3-12,22.7-12c11.3,0,11.3,12,22.7,12c11.3,0,11.3-12,22.7-12c11.3,0,11.3,12,22.7,12"/>
		</g>
	</g>
</g>
<g id="eye">
	<circle id="eye-outer-rim" style="fill:#FFFFFF;stroke:#231F20;stroke-miterlimit:10;" cx="832.5" cy="442.7" r="322.7"/>
	<g>
		<defs>
			<circle id="mask" cx="832.5" cy="442.7" r="322.7"/>
		</defs>
		<clipPath id="mask_1_">
			<use xlink:href="#mask"  style="overflow:visible;"/>
		</clipPath>
		<g id="retinagroup" style="clip-path:url(#mask_1_);">
			<g id="eye-retina">
				<g id="eye-retina-rays">
					<line style="fill:none;stroke:#231F20;stroke-miterlimit:10;" x1="832.5" y1="517" x2="832.5" y2="645"/>
					<line style="fill:none;stroke:#231F20;stroke-miterlimit:10;" x1="830" y1="517" x2="825.5" y2="644.9"/>
					<line style="fill:none;stroke:#231F20;stroke-miterlimit:10;" x1="827.4" y1="516.8" x2="818.5" y2="644.6"/>
					<line style="fill:none;stroke:#231F20;stroke-miterlimit:10;" x1="824.8" y1="516.6" x2="811.5" y2="644"/>
					<line style="fill:none;stroke:#231F20;stroke-miterlimit:10;" x1="822.3" y1="516.3" x2="804.5" y2="643.1"/>
					<line style="fill:none;stroke:#231F20;stroke-miterlimit:10;" x1="819.7" y1="515.9" x2="797.6" y2="642"/>
					<line style="fill:none;stroke:#231F20;stroke-miterlimit:10;" x1="817.2" y1="515.4" x2="790.7" y2="640.7"/>
					<line style="fill:none;stroke:#231F20;stroke-miterlimit:10;" x1="814.7" y1="514.8" x2="783.9" y2="639.1"/>
					<line style="fill:none;stroke:#231F20;stroke-miterlimit:10;" x1="812.2" y1="514.2" x2="777.1" y2="637.3"/>
					<line style="fill:none;stroke:#231F20;stroke-miterlimit:10;" x1="809.7" y1="513.4" x2="770.4" y2="635.3"/>
					<line style="fill:none;stroke:#231F20;stroke-miterlimit:10;" x1="807.3" y1="512.6" x2="763.7" y2="633"/>
					<line style="fill:none;stroke:#231F20;stroke-miterlimit:10;" x1="804.9" y1="511.7" x2="757.2" y2="630.5"/>
					<line style="fill:none;stroke:#231F20;stroke-miterlimit:10;" x1="802.5" y1="510.7" x2="750.7" y2="627.8"/>
					<line style="fill:none;stroke:#231F20;stroke-miterlimit:10;" x1="800.2" y1="509.6" x2="744.3" y2="624.8"/>
					<line style="fill:none;stroke:#231F20;stroke-miterlimit:10;" x1="797.9" y1="508.4" x2="738.1" y2="621.6"/>
					<line style="fill:none;stroke:#231F20;stroke-miterlimit:10;" x1="795.6" y1="507.2" x2="731.9" y2="618.2"/>
					<line style="fill:none;stroke:#231F20;stroke-miterlimit:10;" x1="793.4" y1="505.9" x2="725.9" y2="614.7"/>
					<line style="fill:none;stroke:#231F20;stroke-miterlimit:10;" x1="791.2" y1="504.5" x2="720" y2="610.8"/>
					<line style="fill:none;stroke:#231F20;stroke-miterlimit:10;" x1="789.1" y1="503" x2="714.2" y2="606.8"/>
					<line style="fill:none;stroke:#231F20;stroke-miterlimit:10;" x1="787" y1="501.4" x2="708.6" y2="602.6"/>
					<line style="fill:none;stroke:#231F20;stroke-miterlimit:10;" x1="785" y1="499.8" x2="703.1" y2="598.2"/>
					<line style="fill:none;stroke:#231F20;stroke-miterlimit:10;" x1="783.1" y1="498.1" x2="697.8" y2="593.7"/>
					<line style="fill:none;stroke:#231F20;stroke-miterlimit:10;" x1="781.2" y1="496.4" x2="692.7" y2="588.9"/>
					<line style="fill:none;stroke:#231F20;stroke-miterlimit:10;" x1="779.4" y1="494.6" x2="687.7" y2="583.9"/>
					<line style="fill:none;stroke:#231F20;stroke-miterlimit:10;" x1="777.6" y1="492.7" x2="682.9" y2="578.8"/>
					<line style="fill:none;stroke:#231F20;stroke-miterlimit:10;" x1="775.9" y1="490.8" x2="678.2" y2="573.6"/>
					<line style="fill:none;stroke:#231F20;stroke-miterlimit:10;" x1="774.3" y1="488.8" x2="673.8" y2="568.1"/>
					<line style="fill:none;stroke:#231F20;stroke-miterlimit:10;" x1="772.7" y1="486.7" x2="669.5" y2="562.5"/>
					<line style="fill:none;stroke:#231F20;stroke-miterlimit:10;" x1="771.2" y1="484.6" x2="665.5" y2="556.8"/>
					<line style="fill:none;stroke:#231F20;stroke-miterlimit:10;" x1="769.8" y1="482.5" x2="661.6" y2="551"/>
					<line style="fill:none;stroke:#231F20;stroke-miterlimit:10;" x1="768.4" y1="480.3" x2="658" y2="545"/>
					<line style="fill:none;stroke:#231F20;stroke-miterlimit:10;" x1="767.2" y1="478" x2="654.5" y2="538.8"/>
					<line style="fill:none;stroke:#231F20;stroke-miterlimit:10;" x1="766" y1="475.7" x2="651.3" y2="532.6"/>
					<line style="fill:none;stroke:#231F20;stroke-miterlimit:10;" x1="764.9" y1="473.4" x2="648.3" y2="526.3"/>
					<line style="fill:none;stroke:#231F20;stroke-miterlimit:10;" x1="763.9" y1="471" x2="645.5" y2="519.8"/>
					<line style="fill:none;stroke:#231F20;stroke-miterlimit:10;" x1="762.9" y1="468.6" x2="642.9" y2="513.3"/>
					<line style="fill:none;stroke:#231F20;stroke-miterlimit:10;" x1="762.1" y1="466.2" x2="640.6" y2="506.7"/>
					<line style="fill:none;stroke:#231F20;stroke-miterlimit:10;" x1="761.3" y1="463.7" x2="638.5" y2="500"/>
					<line style="fill:none;stroke:#231F20;stroke-miterlimit:10;" x1="760.6" y1="461.3" x2="636.6" y2="493.2"/>
					<line style="fill:none;stroke:#231F20;stroke-miterlimit:10;" x1="760" y1="458.8" x2="635" y2="486.4"/>
					<line style="fill:none;stroke:#231F20;stroke-miterlimit:10;" x1="759.5" y1="456.2" x2="633.6" y2="479.5"/>
					<line style="fill:none;stroke:#231F20;stroke-miterlimit:10;" x1="759.1" y1="453.7" x2="632.4" y2="472.6"/>
					<line style="fill:none;stroke:#231F20;stroke-miterlimit:10;" x1="758.7" y1="451.1" x2="631.5" y2="465.6"/>
					<line style="fill:none;stroke:#231F20;stroke-miterlimit:10;" x1="758.5" y1="448.6" x2="630.9" y2="458.6"/>
					<line style="fill:none;stroke:#231F20;stroke-miterlimit:10;" x1="758.3" y1="446" x2="630.4" y2="451.6"/>
					<line style="fill:none;stroke:#231F20;stroke-miterlimit:10;" x1="758.3" y1="443.4" x2="630.2" y2="444.6"/>
					<line style="fill:none;stroke:#231F20;stroke-miterlimit:10;" x1="758.3" y1="440.8" x2="630.3" y2="437.6"/>
					<line style="fill:none;stroke:#231F20;stroke-miterlimit:10;" x1="758.4" y1="438.3" x2="630.6" y2="430.6"/>
					<line style="fill:none;stroke:#231F20;stroke-miterlimit:10;" x1="758.6" y1="435.7" x2="631.1" y2="423.6"/>
					<line style="fill:none;stroke:#231F20;stroke-miterlimit:10;" x1="758.9" y1="433.1" x2="631.9" y2="416.6"/>
					<line style="fill:none;stroke:#231F20;stroke-miterlimit:10;" x1="759.3" y1="430.6" x2="633" y2="409.6"/>
					<line style="fill:none;stroke:#231F20;stroke-miterlimit:10;" x1="759.7" y1="428.1" x2="634.2" y2="402.7"/>
					<line style="fill:none;stroke:#231F20;stroke-miterlimit:10;" x1="760.3" y1="425.5" x2="635.7" y2="395.9"/>
					<line style="fill:none;stroke:#231F20;stroke-miterlimit:10;" x1="760.9" y1="423" x2="637.5" y2="389.1"/>
					<line style="fill:none;stroke:#231F20;stroke-miterlimit:10;" x1="761.7" y1="420.6" x2="639.5" y2="382.3"/>
					<line style="fill:none;stroke:#231F20;stroke-miterlimit:10;" x1="762.5" y1="418.1" x2="641.7" y2="375.7"/>
					<line style="fill:none;stroke:#231F20;stroke-miterlimit:10;" x1="763.4" y1="415.7" x2="644.1" y2="369.1"/>
					<line style="fill:none;stroke:#231F20;stroke-miterlimit:10;" x1="764.3" y1="413.3" x2="646.8" y2="362.6"/>
					<line style="fill:none;stroke:#231F20;stroke-miterlimit:10;" x1="765.4" y1="411" x2="649.7" y2="356.2"/>
					<line style="fill:none;stroke:#231F20;stroke-miterlimit:10;" x1="766.5" y1="408.7" x2="652.8" y2="349.9"/>
					<line style="fill:none;stroke:#231F20;stroke-miterlimit:10;" x1="767.8" y1="406.4" x2="656.1" y2="343.7"/>
					<line style="fill:none;stroke:#231F20;stroke-miterlimit:10;" x1="769.1" y1="404.2" x2="659.7" y2="337.7"/>
					<line style="fill:none;stroke:#231F20;stroke-miterlimit:10;" x1="770.4" y1="402" x2="663.4" y2="331.7"/>
					<line style="fill:none;stroke:#231F20;stroke-miterlimit:10;" x1="771.9" y1="399.9" x2="667.4" y2="325.9"/>
					<line style="fill:none;stroke:#231F20;stroke-miterlimit:10;" x1="773.4" y1="397.8" x2="671.5" y2="320.3"/>
					<line style="fill:none;stroke:#231F20;stroke-miterlimit:10;" x1="775" y1="395.8" x2="675.9" y2="314.8"/>
					<line style="fill:none;stroke:#231F20;stroke-miterlimit:10;" x1="776.7" y1="393.8" x2="680.4" y2="309.4"/>
					<line style="fill:none;stroke:#231F20;stroke-miterlimit:10;" x1="778.4" y1="391.9" x2="685.1" y2="304.2"/>
					<line style="fill:none;stroke:#231F20;stroke-miterlimit:10;" x1="780.2" y1="390" x2="690" y2="299.2"/>
					<line style="fill:none;stroke:#231F20;stroke-miterlimit:10;" x1="782.1" y1="388.2" x2="695.1" y2="294.3"/>
					<line style="fill:none;stroke:#231F20;stroke-miterlimit:10;" x1="784" y1="386.5" x2="700.3" y2="289.6"/>
					<line style="fill:none;stroke:#231F20;stroke-miterlimit:10;" x1="786" y1="384.9" x2="705.7" y2="285.1"/>
					<line style="fill:none;stroke:#231F20;stroke-miterlimit:10;" x1="788" y1="383.3" x2="711.3" y2="280.8"/>
					<line style="fill:none;stroke:#231F20;stroke-miterlimit:10;" x1="790.1" y1="381.8" x2="716.9" y2="276.7"/>
					<line style="fill:none;stroke:#231F20;stroke-miterlimit:10;" x1="792.2" y1="380.4" x2="722.8" y2="272.8"/>
					<line style="fill:none;stroke:#231F20;stroke-miterlimit:10;" x1="794.4" y1="379" x2="728.7" y2="269.1"/>
					<line style="fill:none;stroke:#231F20;stroke-miterlimit:10;" x1="796.7" y1="377.7" x2="734.8" y2="265.6"/>
					<line style="fill:none;stroke:#231F20;stroke-miterlimit:10;" x1="798.9" y1="376.5" x2="741" y2="262.3"/>
					<line style="fill:none;stroke:#231F20;stroke-miterlimit:10;" x1="801.3" y1="375.4" x2="747.3" y2="259.3"/>
					<line style="fill:none;stroke:#231F20;stroke-miterlimit:10;" x1="803.6" y1="374.3" x2="753.8" y2="256.4"/>
					<line style="fill:none;stroke:#231F20;stroke-miterlimit:10;" x1="806" y1="373.4" x2="760.3" y2="253.8"/>
					<line style="fill:none;stroke:#231F20;stroke-miterlimit:10;" x1="808.4" y1="372.5" x2="766.9" y2="251.4"/>
					<line style="fill:none;stroke:#231F20;stroke-miterlimit:10;" x1="810.9" y1="371.7" x2="773.6" y2="249.2"/>
					<line style="fill:none;stroke:#231F20;stroke-miterlimit:10;" x1="813.4" y1="371" x2="780.3" y2="247.3"/>
					<line style="fill:none;stroke:#231F20;stroke-miterlimit:10;" x1="815.9" y1="370.4" x2="787.1" y2="245.6"/>
					<line style="fill:none;stroke:#231F20;stroke-miterlimit:10;" x1="818.4" y1="369.8" x2="794" y2="244.1"/>
					<line style="fill:none;stroke:#231F20;stroke-miterlimit:10;" x1="820.9" y1="369.4" x2="800.9" y2="242.9"/>
					<line style="fill:none;stroke:#231F20;stroke-miterlimit:10;" x1="823.5" y1="369" x2="807.9" y2="242"/>
					<line style="fill:none;stroke:#231F20;stroke-miterlimit:10;" x1="826" y1="368.8" x2="814.8" y2="241.2"/>
					<line style="fill:none;stroke:#231F20;stroke-miterlimit:10;" x1="828.6" y1="368.6" x2="821.8" y2="240.7"/>
					<line style="fill:none;stroke:#231F20;stroke-miterlimit:10;" x1="831.2" y1="368.5" x2="828.9" y2="240.5"/>
					<line style="fill:none;stroke:#231F20;stroke-miterlimit:10;" x1="833.8" y1="368.5" x2="835.9" y2="240.5"/>
					<line style="fill:none;stroke:#231F20;stroke-miterlimit:10;" x1="836.3" y1="368.6" x2="842.9" y2="240.7"/>
					<line style="fill:none;stroke:#231F20;stroke-miterlimit:10;" x1="838.9" y1="368.7" x2="849.9" y2="241.2"/>
					<line style="fill:none;stroke:#231F20;stroke-miterlimit:10;" x1="841.5" y1="369" x2="856.9" y2="241.9"/>
					<line style="fill:none;stroke:#231F20;stroke-miterlimit:10;" x1="844" y1="369.4" x2="863.8" y2="242.9"/>
					<line style="fill:none;stroke:#231F20;stroke-miterlimit:10;" x1="846.6" y1="369.8" x2="870.7" y2="244.1"/>
					<line style="fill:none;stroke:#231F20;stroke-miterlimit:10;" x1="849.1" y1="370.3" x2="877.6" y2="245.5"/>
					<line style="fill:none;stroke:#231F20;stroke-miterlimit:10;" x1="851.6" y1="371" x2="884.4" y2="247.2"/>
					<line style="fill:none;stroke:#231F20;stroke-miterlimit:10;" x1="854.1" y1="371.7" x2="891.2" y2="249.1"/>
					<line style="fill:none;stroke:#231F20;stroke-miterlimit:10;" x1="856.5" y1="372.5" x2="897.9" y2="251.3"/>
					<line style="fill:none;stroke:#231F20;stroke-miterlimit:10;" x1="858.9" y1="373.3" x2="904.5" y2="253.7"/>
					<line style="fill:none;stroke:#231F20;stroke-miterlimit:10;" x1="861.3" y1="374.3" x2="911" y2="256.3"/>
					<line style="fill:none;stroke:#231F20;stroke-miterlimit:10;" x1="863.7" y1="375.3" x2="917.4" y2="259.1"/>
					<line style="fill:none;stroke:#231F20;stroke-miterlimit:10;" x1="866" y1="376.4" x2="923.7" y2="262.2"/>
					<line style="fill:none;stroke:#231F20;stroke-miterlimit:10;" x1="868.3" y1="377.6" x2="929.9" y2="265.4"/>
					<line style="fill:none;stroke:#231F20;stroke-miterlimit:10;" x1="870.5" y1="378.9" x2="936" y2="268.9"/>
					<line style="fill:none;stroke:#231F20;stroke-miterlimit:10;" x1="872.7" y1="380.3" x2="942" y2="272.6"/>
					<line style="fill:none;stroke:#231F20;stroke-miterlimit:10;" x1="874.9" y1="381.7" x2="947.8" y2="276.5"/>
					<line style="fill:none;stroke:#231F20;stroke-miterlimit:10;" x1="877" y1="383.2" x2="953.5" y2="280.6"/>
					<line style="fill:none;stroke:#231F20;stroke-miterlimit:10;" x1="879" y1="384.8" x2="959.1" y2="284.9"/>
					<line style="fill:none;stroke:#231F20;stroke-miterlimit:10;" x1="881" y1="386.4" x2="964.5" y2="289.4"/>
					<line style="fill:none;stroke:#231F20;stroke-miterlimit:10;" x1="882.9" y1="388.2" x2="969.7" y2="294.1"/>
					<line style="fill:none;stroke:#231F20;stroke-miterlimit:10;" x1="884.8" y1="389.9" x2="974.8" y2="298.9"/>
					<line style="fill:none;stroke:#231F20;stroke-miterlimit:10;" x1="886.6" y1="391.8" x2="979.7" y2="303.9"/>
					<line style="fill:none;stroke:#231F20;stroke-miterlimit:10;" x1="888.3" y1="393.7" x2="984.4" y2="309.1"/>
					<line style="fill:none;stroke:#231F20;stroke-miterlimit:10;" x1="890" y1="395.7" x2="989" y2="314.5"/>
					<line style="fill:none;stroke:#231F20;stroke-miterlimit:10;" x1="891.6" y1="397.7" x2="993.3" y2="320"/>
					<line style="fill:none;stroke:#231F20;stroke-miterlimit:10;" x1="893.1" y1="399.8" x2="997.5" y2="325.6"/>
					<line style="fill:none;stroke:#231F20;stroke-miterlimit:10;" x1="894.6" y1="401.9" x2="1001.5" y2="331.4"/>
					<line style="fill:none;stroke:#231F20;stroke-miterlimit:10;" x1="895.9" y1="404.1" x2="1005.2" y2="337.4"/>
					<line style="fill:none;stroke:#231F20;stroke-miterlimit:10;" x1="897.2" y1="406.3" x2="1008.8" y2="343.4"/>
					<line style="fill:none;stroke:#231F20;stroke-miterlimit:10;" x1="898.5" y1="408.5" x2="1012.1" y2="349.6"/>
					<line style="fill:none;stroke:#231F20;stroke-miterlimit:10;" x1="899.6" y1="410.9" x2="1015.2" y2="355.9"/>
					<line style="fill:none;stroke:#231F20;stroke-miterlimit:10;" x1="900.7" y1="413.2" x2="1018.1" y2="362.3"/>
					<line style="fill:none;stroke:#231F20;stroke-miterlimit:10;" x1="901.7" y1="415.6" x2="1020.8" y2="368.8"/>
					<line style="fill:none;stroke:#231F20;stroke-miterlimit:10;" x1="902.6" y1="418" x2="1023.3" y2="375.3"/>
					<line style="fill:none;stroke:#231F20;stroke-miterlimit:10;" x1="903.4" y1="420.4" x2="1025.5" y2="382"/>
					<line style="fill:none;stroke:#231F20;stroke-miterlimit:10;" x1="904.1" y1="422.9" x2="1027.5" y2="388.7"/>
					<line style="fill:none;stroke:#231F20;stroke-miterlimit:10;" x1="904.8" y1="425.4" x2="1029.3" y2="395.5"/>
					<line style="fill:none;stroke:#231F20;stroke-miterlimit:10;" x1="905.3" y1="427.9" x2="1030.8" y2="402.4"/>
					<line style="fill:none;stroke:#231F20;stroke-miterlimit:10;" x1="905.8" y1="430.5" x2="1032.1" y2="409.3"/>
					<line style="fill:none;stroke:#231F20;stroke-miterlimit:10;" x1="906.2" y1="433" x2="1033.1" y2="416.2"/>
					<line style="fill:none;stroke:#231F20;stroke-miterlimit:10;" x1="906.5" y1="435.6" x2="1033.9" y2="423.2"/>
					<line style="fill:none;stroke:#231F20;stroke-miterlimit:10;" x1="906.7" y1="438.1" x2="1034.5" y2="430.2"/>
					<line style="fill:none;stroke:#231F20;stroke-miterlimit:10;" x1="906.8" y1="440.7" x2="1034.8" y2="437.2"/>
					<line style="fill:none;stroke:#231F20;stroke-miterlimit:10;" x1="906.8" y1="443.3" x2="1034.8" y2="444.2"/>
					<line style="fill:none;stroke:#231F20;stroke-miterlimit:10;" x1="906.7" y1="445.9" x2="1034.7" y2="451.3"/>
					<line style="fill:none;stroke:#231F20;stroke-miterlimit:10;" x1="906.6" y1="448.4" x2="1034.2" y2="458.3"/>
					<line style="fill:none;stroke:#231F20;stroke-miterlimit:10;" x1="906.3" y1="451" x2="1033.6" y2="465.3"/>
					<line style="fill:none;stroke:#231F20;stroke-miterlimit:10;" x1="906" y1="453.6" x2="1032.7" y2="472.2"/>
					<line style="fill:none;stroke:#231F20;stroke-miterlimit:10;" x1="905.6" y1="456.1" x2="1031.5" y2="479.1"/>
					<line style="fill:none;stroke:#231F20;stroke-miterlimit:10;" x1="905.1" y1="458.6" x2="1030.2" y2="486"/>
					<line style="fill:none;stroke:#231F20;stroke-miterlimit:10;" x1="904.5" y1="461.1" x2="1028.5" y2="492.9"/>
					<line style="fill:none;stroke:#231F20;stroke-miterlimit:10;" x1="903.8" y1="463.6" x2="1026.7" y2="499.6"/>
					<line style="fill:none;stroke:#231F20;stroke-miterlimit:10;" x1="903" y1="466.1" x2="1024.6" y2="506.3"/>
					<line style="fill:none;stroke:#231F20;stroke-miterlimit:10;" x1="902.2" y1="468.5" x2="1022.3" y2="513"/>
					<line style="fill:none;stroke:#231F20;stroke-miterlimit:10;" x1="901.3" y1="470.9" x2="1019.7" y2="519.5"/>
					<line style="fill:none;stroke:#231F20;stroke-miterlimit:10;" x1="900.2" y1="473.3" x2="1016.9" y2="525.9"/>
					<line style="fill:none;stroke:#231F20;stroke-miterlimit:10;" x1="899.1" y1="475.6" x2="1013.9" y2="532.3"/>
					<line style="fill:none;stroke:#231F20;stroke-miterlimit:10;" x1="898" y1="477.9" x2="1010.7" y2="538.5"/>
					<line style="fill:none;stroke:#231F20;stroke-miterlimit:10;" x1="896.7" y1="480.2" x2="1007.3" y2="544.7"/>
					<line style="fill:none;stroke:#231F20;stroke-miterlimit:10;" x1="895.4" y1="482.4" x2="1003.7" y2="550.7"/>
					<line style="fill:none;stroke:#231F20;stroke-miterlimit:10;" x1="893.9" y1="484.5" x2="999.8" y2="556.5"/>
					<line style="fill:none;stroke:#231F20;stroke-miterlimit:10;" x1="892.5" y1="486.6" x2="995.8" y2="562.3"/>
					<line style="fill:none;stroke:#231F20;stroke-miterlimit:10;" x1="890.9" y1="488.7" x2="991.5" y2="567.9"/>
					<line style="fill:none;stroke:#231F20;stroke-miterlimit:10;" x1="889.3" y1="490.7" x2="987.1" y2="573.3"/>
					<line style="fill:none;stroke:#231F20;stroke-miterlimit:10;" x1="887.6" y1="492.6" x2="982.4" y2="578.6"/>
					<line style="fill:none;stroke:#231F20;stroke-miterlimit:10;" x1="885.8" y1="494.5" x2="977.6" y2="583.7"/>
					<line style="fill:none;stroke:#231F20;stroke-miterlimit:10;" x1="884" y1="496.3" x2="972.7" y2="588.7"/>
					<line style="fill:none;stroke:#231F20;stroke-miterlimit:10;" x1="882.1" y1="498.1" x2="967.5" y2="593.4"/>
					<line style="fill:none;stroke:#231F20;stroke-miterlimit:10;" x1="880.1" y1="499.8" x2="962.2" y2="598"/>
					<line style="fill:none;stroke:#231F20;stroke-miterlimit:10;" x1="878.1" y1="501.4" x2="956.7" y2="602.4"/>
					<line style="fill:none;stroke:#231F20;stroke-miterlimit:10;" x1="876.1" y1="502.9" x2="951.1" y2="606.6"/>
					<line style="fill:none;stroke:#231F20;stroke-miterlimit:10;" x1="874" y1="504.4" x2="945.4" y2="610.7"/>
					<line style="fill:none;stroke:#231F20;stroke-miterlimit:10;" x1="871.8" y1="505.8" x2="939.5" y2="614.5"/>
					<line style="fill:none;stroke:#231F20;stroke-miterlimit:10;" x1="869.6" y1="507.1" x2="933.5" y2="618.1"/>
					<line style="fill:none;stroke:#231F20;stroke-miterlimit:10;" x1="867.3" y1="508.4" x2="927.3" y2="621.5"/>
					<line style="fill:none;stroke:#231F20;stroke-miterlimit:10;" x1="865" y1="509.5" x2="921.1" y2="624.7"/>
					<line style="fill:none;stroke:#231F20;stroke-miterlimit:10;" x1="862.7" y1="510.6" x2="914.7" y2="627.6"/>
					<line style="fill:none;stroke:#231F20;stroke-miterlimit:10;" x1="860.3" y1="511.6" x2="908.2" y2="630.4"/>
					<line style="fill:none;stroke:#231F20;stroke-miterlimit:10;" x1="857.9" y1="512.5" x2="901.7" y2="632.9"/>
					<line style="fill:none;stroke:#231F20;stroke-miterlimit:10;" x1="855.5" y1="513.4" x2="895" y2="635.2"/>
					<line style="fill:none;stroke:#231F20;stroke-miterlimit:10;" x1="853" y1="514.1" x2="888.3" y2="637.2"/>
					<line style="fill:none;stroke:#231F20;stroke-miterlimit:10;" x1="850.5" y1="514.8" x2="881.5" y2="639"/>
					<line style="fill:none;stroke:#231F20;stroke-miterlimit:10;" x1="848" y1="515.4" x2="874.7" y2="640.6"/>
					<line style="fill:none;stroke:#231F20;stroke-miterlimit:10;" x1="845.5" y1="515.9" x2="867.8" y2="641.9"/>
					<line style="fill:none;stroke:#231F20;stroke-miterlimit:10;" x1="842.9" y1="516.3" x2="860.9" y2="643.1"/>
					<line style="fill:none;stroke:#231F20;stroke-miterlimit:10;" x1="840.4" y1="516.6" x2="853.9" y2="643.9"/>
					<line style="fill:none;stroke:#231F20;stroke-miterlimit:10;" x1="837.8" y1="516.8" x2="846.9" y2="644.5"/>
					<line style="fill:none;stroke:#231F20;stroke-miterlimit:10;" x1="835.2" y1="517" x2="839.9" y2="644.9"/>
				</g>
				<circle id="eye-retina-hole" style="fill:#231F20;stroke:#231F20;stroke-miterlimit:10;" cx="832.5" cy="442.7" r="74.3"/>
			</g>
			<ellipse style="fill:none;" cx="832.5" cy="442.7" rx="457.1" ry="448.1"/>
		</g>
	</g>
</g>
</svg>
