<svg id="financial-services" xmlns="http://www.w3.org/2000/svg" viewBox="0 0 2217.63 799.57">
  <g>
    <polyline points="342.49 546.14 426.66 484.52 439.9 500.13 509.37 470.87 621.39 397.63 692.02 360.56 716.75 371.8 773.05 345.6 852.04 285.52 833.96 354.67 864.63 360.04 915.99 331.3 1004.19 227.7 1017.19 257.17 1046.52 255.82 1089.26 217.66 1118.05 210.58 1155.75 165.96 1185.05 138.46 1198.03 200.74 1224.08 196.16 1251.76 135.05 1273.65 128.38 1294.26 114.17 1312.12 90.73 1336.62 117.75 1356.24 111.72 1371.09 91.71 1395.45 105.32 1412.78 97.79 1414.41 57.88 1451.64 95.75 1451.96 61.49 1469.13 45.74 1491.43 66.73 1522.25 83.36 1547.66 108.6 1519.95 35.76 1554.46 55.72 1542.09 24.33 1555.61 21.98 1583.67 33.5 1640.32 74.32 1603.6 22.55 1619.69 0.27" style="fill: none;stroke: #000;stroke-miterlimit: 10;stroke-width: 0.9205805079018117px"/>
    <polyline points="322.35 557.21 409.23 497.1 420.96 513.47 489.78 485.91 603.4 414.63 675.17 378.98 698.81 390.97 754.15 366.48 833.66 307.25 810.73 378.59 839.01 385.87 892.9 358.06 991.47 252.92 1002.36 284.49 1031.49 284.56 1078.95 246.1 1108.73 240.02 1151.74 194.45 1183.63 169.08 1199.32 234.07 1225.93 230.82 1251.99 166.11 1275.59 160.08 1297.65 145.89 1318.34 121.71 1343.89 152.14 1366.37 146.78 1379.07 120.74 1408.73 142.39 1425.06 132.38 1424.82 88.68 1463.9 127.35 1465.89 97.6 1489.1 80.77 1516.78 105.41 1541.53 116.42 1563.47 135.83 1549.21 73.59 1588.77 95.15 1569.77 59.59 1585.91 57.83 1618.79 71.67 1664.4 103.4 1639.71 58.27 1648.82 33.67" style="fill: none;stroke: #000;stroke-miterlimit: 10;stroke-width: 0.9026450984781782px"/>
    <polyline points="302.21 568.28 391.8 509.68 402.02 526.81 470.19 500.94 585.41 431.64 658.32 397.4 680.87 410.15 735.25 387.35 815.27 328.98 787.5 402.51 813.39 411.7 869.81 384.81 978.76 278.14 987.53 311.8 1016.47 313.3 1068.64 274.54 1099.41 269.45 1147.73 222.94 1182.22 199.7 1200.61 267.39 1227.77 265.48 1252.22 197.17 1277.52 191.78 1301.05 177.61 1324.57 152.68 1351.16 186.53 1376.49 181.83 1387.04 149.76 1422.01 179.46 1437.34 166.96 1435.23 119.48 1476.17 158.95 1479.81 133.71 1509.08 115.8 1542.13 144.09 1560.8 149.48 1579.29 163.06 1578.46 111.42 1623.09 134.59 1597.46 94.86 1616.21 93.67 1653.9 109.85 1688.48 132.47 1675.82 93.99 1677.94 67.06" style="fill: none;stroke: #000;stroke-miterlimit: 10;stroke-width: 0.8847096891302678px"/>
    <polyline points="282.07 579.35 374.37 522.26 383.08 540.15 450.6 515.98 567.42 448.64 641.46 415.82 662.93 429.32 716.35 408.23 796.88 350.7 764.26 426.44 787.77 437.54 846.72 411.56 966.04 303.37 972.69 339.11 1001.44 342.04 1058.33 302.98 1090.09 298.89 1143.72 251.43 1180.8 230.32 1201.9 300.72 1229.61 300.14 1252.46 228.23 1279.46 223.48 1304.44 209.33 1330.79 183.66 1358.43 220.93 1386.61 216.89 1395.02 178.79 1435.3 216.53 1449.62 201.54 1445.65 150.27 1488.44 190.55 1493.74 169.83 1529.06 150.84 1567.48 182.76 1580.08 182.54 1595.1 190.29 1607.72 149.25 1657.4 174.03 1625.15 130.12 1646.51 129.52 1689.02 148.02 1712.57 161.55 1711.93 129.72 1707.07 100.46" style="fill: none;stroke: #000;stroke-miterlimit: 10;stroke-width: 0.8667742797823574px"/>
    <polyline points="261.93 590.41 356.94 534.84 364.14 553.5 431 531.01 549.43 465.65 624.61 434.25 644.99 448.49 697.45 429.1 778.5 372.43 741.03 450.36 762.15 463.37 823.63 438.32 953.33 328.58 957.86 366.42 986.42 370.78 1048.02 331.42 1080.77 328.32 1139.71 279.92 1179.38 260.95 1203.19 334.05 1231.45 334.8 1252.69 259.3 1281.39 255.18 1307.84 241.04 1337.02 214.63 1365.71 255.32 1396.74 251.94 1403 207.81 1448.58 253.6 1461.89 236.12 1456.06 181.07 1500.7 222.15 1507.66 205.94 1549.04 185.87 1592.84 221.44 1599.36 215.6 1610.91 217.52 1636.97 187.07 1691.71 213.46 1652.83 165.39 1676.81 165.37 1724.13 186.2 1736.64 190.63 1748.04 165.44 1736.19 133.86" style="fill: none;stroke: #000;stroke-miterlimit: 10;stroke-width: 0.8488388704344471px"/>
    <polyline points="241.78 601.48 339.51 547.42 345.2 566.84 411.41 546.05 531.44 482.65 607.75 452.67 627.06 467.67 678.55 449.98 760.11 394.16 717.8 474.29 736.53 489.2 800.54 465.07 940.61 353.81 943.03 393.74 971.39 399.52 1037.71 359.86 1071.45 357.76 1135.7 308.41 1177.97 291.57 1204.48 367.37 1233.3 369.46 1252.92 290.36 1283.33 286.88 1311.23 272.76 1343.25 245.6 1372.98 289.71 1406.86 287 1410.98 236.84 1461.86 290.68 1474.17 270.7 1466.47 211.87 1512.97 253.75 1521.59 242.05 1569.02 220.9 1618.19 260.12 1618.63 248.65 1626.73 244.75 1666.23 224.9 1726.02 252.9 1680.52 200.65 1707.11 201.22 1759.25 224.37 1760.72 219.71 1784.15 201.17 1765.31 167.26" style="fill: none;stroke: #000;stroke-miterlimit: 10;stroke-width: 0.8309034610865367px"/>
    <polyline points="221.64 612.55 322.08 560 326.25 580.18 391.82 561.08 513.45 499.66 590.9 471.09 609.12 486.84 659.66 470.85 741.72 415.89 694.57 498.21 710.91 515.04 777.45 491.83 927.9 379.03 928.2 421.05 956.37 428.26 1027.4 388.3 1062.14 387.19 1131.69 336.9 1176.55 322.19 1205.77 400.7 1235.14 404.12 1253.15 321.42 1285.26 318.58 1314.62 304.48 1349.47 276.57 1380.25 324.11 1416.99 322.05 1418.96 265.86 1475.14 327.75 1486.45 305.28 1476.88 242.66 1525.24 285.35 1535.51 278.16 1588.99 255.94 1643.54 298.79 1637.91 281.71 1642.54 271.98 1695.48 262.73 1760.33 292.33 1708.21 235.92 1737.41 237.07 1794.36 262.55 1784.81 248.78 1820.26 236.89 1794.44 200.65" style="fill: none;stroke: #000;stroke-miterlimit: 10;stroke-width: 0.8129680517386263px"/>
    <polyline points="201.5 623.62 304.65 572.58 307.31 593.53 372.23 576.12 495.46 516.66 574.05 489.51 591.18 506.02 640.76 491.73 723.34 437.61 671.33 522.13 685.29 540.87 754.36 518.58 915.18 404.25 913.37 448.36 941.34 457 1017.1 416.74 1052.82 416.62 1127.68 365.39 1175.13 352.81 1207.06 434.02 1236.98 438.78 1253.38 352.48 1287.2 350.28 1318.02 336.2 1355.7 307.55 1387.52 358.5 1427.11 357.1 1426.93 294.89 1488.42 364.82 1498.73 339.87 1487.3 273.46 1537.5 316.94 1549.43 314.27 1608.97 290.97 1668.89 337.47 1657.19 314.77 1658.36 299.2 1724.74 300.56 1794.64 331.77 1735.89 271.18 1767.71 272.92 1829.47 300.72 1808.89 277.86 1856.37 272.62 1823.56 234.05" style="fill: none;stroke: #000;stroke-miterlimit: 10;stroke-width: 0.7950326423907159px"/>
    <polyline points="181.36 634.69 287.21 585.16 288.37 606.87 352.63 591.15 477.47 533.67 557.2 507.93 573.24 525.19 621.86 512.6 704.95 459.34 648.1 546.06 659.67 566.71 731.27 545.34 902.47 429.47 898.53 475.67 926.32 485.75 1006.79 445.18 1043.5 446.06 1123.67 393.88 1173.72 383.44 1208.35 467.35 1238.82 473.44 1253.61 383.55 1289.13 381.98 1321.41 367.91 1361.92 338.52 1394.79 392.89 1437.23 392.16 1434.91 323.91 1501.7 401.89 1511.01 374.45 1497.71 304.26 1549.77 348.54 1563.36 350.38 1628.95 326 1694.24 376.14 1676.46 347.83 1674.17 326.43 1753.99 338.39 1828.96 371.2 1763.58 306.45 1798.01 308.77 1864.59 338.89 1832.97 306.94 1892.48 308.34 1852.69 267.45" style="fill: none;stroke: #000;stroke-miterlimit: 10;stroke-width: 0.7770972330428056px"/>
    <polyline points="161.22 645.76 269.78 597.74 269.43 620.21 333.04 606.18 459.48 550.67 540.34 526.36 555.3 544.36 602.96 533.48 686.56 481.07 624.87 569.98 634.05 592.54 708.18 572.09 889.75 454.69 883.7 502.99 911.29 514.49 996.48 473.62 1034.18 475.49 1119.66 422.37 1172.3 414.06 1209.64 500.68 1240.67 508.1 1253.84 414.61 1291.07 413.68 1324.8 399.63 1368.15 369.49 1402.06 427.29 1447.36 427.21 1442.89 352.94 1514.98 438.96 1523.29 409.03 1508.12 335.05 1562.04 380.14 1577.28 386.5 1648.93 361.03 1719.59 414.82 1695.74 380.88 1689.98 353.66 1783.25 376.22 1863.27 410.64 1791.27 341.71 1828.31 344.62 1899.7 377.07 1857.05 336.02 1928.59 344.06 1881.81 300.85" style="fill: none;stroke: #000;stroke-miterlimit: 10;stroke-width: 0.7591618236948953px"/>
    <polyline points="141.07 656.83 252.35 610.32 250.49 633.55 313.45 621.22 441.49 567.68 523.49 544.78 537.36 563.54 584.06 554.35 668.17 502.8 601.63 593.9 608.43 618.37 685.09 598.84 877.04 479.91 868.87 530.3 896.27 543.23 986.17 502.06 1024.86 504.93 1115.65 450.86 1170.88 444.68 1210.93 534 1242.51 542.76 1254.08 445.67 1293 445.38 1328.2 431.35 1374.38 400.47 1409.33 461.68 1457.48 462.27 1450.87 381.96 1528.26 476.03 1535.56 443.61 1518.54 365.85 1574.31 411.74 1591.21 422.61 1668.91 396.07 1744.94 453.5 1715.02 413.94 1705.8 380.89 1812.5 414.05 1897.58 450.08 1818.95 376.98 1858.61 380.47 1934.82 415.24 1881.13 365.1 1964.7 379.79 1910.93 334.24" style="fill: none;stroke: #000;stroke-miterlimit: 10;stroke-width: 0.7412264143469849px"/>
    <polyline points="120.93 667.9 234.92 622.9 231.55 646.9 293.86 636.25 423.5 584.68 506.64 563.2 519.43 582.71 565.16 575.23 649.79 524.52 578.4 617.83 582.81 644.21 662 625.6 864.33 505.13 854.03 557.61 881.25 571.97 975.86 530.5 1015.54 534.36 1111.64 479.36 1169.47 475.31 1212.23 567.33 1244.35 577.42 1254.31 476.73 1294.94 477.08 1331.59 463.06 1380.6 431.44 1416.6 496.07 1467.61 497.32 1458.85 410.99 1541.54 513.1 1547.84 478.19 1528.95 396.65 1586.57 443.34 1605.13 458.72 1688.89 431.1 1770.29 492.17 1734.3 447 1721.61 408.12 1841.76 451.88 1931.89 489.51 1846.64 412.24 1888.91 416.31 1969.93 453.42 1905.21 394.17 2000.81 415.51 1940.06 367.64" style="fill: none;stroke: #000;stroke-miterlimit: 10;stroke-width: 0.7232910049990745px"/>
    <polyline points="100.79 678.97 217.49 635.49 212.61 660.24 274.26 651.29 405.51 601.69 489.78 581.62 501.49 601.88 546.26 596.1 631.4 546.25 555.17 641.75 557.19 670.04 638.91 652.35 851.61 530.35 839.2 584.92 866.22 600.71 965.55 558.94 1006.23 563.79 1107.64 507.85 1168.05 505.93 1213.52 600.66 1246.19 612.08 1254.54 507.8 1296.87 508.79 1334.98 494.78 1386.83 462.41 1423.87 530.47 1477.73 532.38 1466.82 440.01 1554.82 550.17 1560.12 512.77 1539.36 427.44 1598.84 474.94 1619.06 494.83 1708.87 466.13 1795.64 530.85 1753.57 480.06 1737.43 435.35 1871.01 489.7 1966.2 528.95 1874.33 447.51 1919.21 452.17 2005.05 491.59 1929.29 423.25 2036.92 451.24 1969.18 401.04" style="fill: none;stroke: #000;stroke-miterlimit: 10;stroke-width: 0.7053555956511641px"/>
    <polyline points="80.65 690.04 200.06 648.07 193.66 673.58 254.67 666.32 387.52 618.69 472.93 600.04 483.55 621.06 527.37 616.98 613.01 567.98 531.93 665.68 531.57 695.87 615.82 679.11 838.89 555.57 824.37 612.23 851.2 629.45 955.24 587.38 996.91 593.23 1103.63 536.34 1166.64 536.55 1214.81 633.98 1248.04 646.74 1254.77 538.86 1298.81 540.49 1338.38 526.5 1393.05 493.39 1431.14 564.86 1487.86 567.43 1474.8 469.04 1568.1 587.24 1572.4 547.36 1549.77 458.24 1611.11 506.54 1632.98 530.94 1728.84 501.16 1821 569.53 1772.85 513.12 1753.24 462.57 1900.26 527.53 2000.52 568.38 1902.01 482.77 1949.51 488.01 2040.16 529.77 1953.37 452.33 2073.03 486.96 1998.31 434.44" style="fill: none;stroke: #000;stroke-miterlimit: 10;stroke-width: 0.6874201863032537px"/>
    <polyline points="60.51 701.11 182.63 660.64 174.72 686.93 235.08 681.36 369.53 635.7 456.08 618.46 465.61 640.23 508.47 637.85 594.63 589.71 508.7 689.6 505.95 721.71 592.73 705.86 826.18 580.79 809.54 639.55 836.17 658.19 944.93 615.82 987.59 622.66 1099.62 564.83 1165.22 567.17 1216.1 667.31 1249.88 681.39 1255 569.92 1300.74 572.19 1341.77 558.22 1399.28 524.36 1438.41 599.25 1497.98 602.49 1482.78 498.06 1581.38 624.31 1584.68 581.94 1560.19 489.04 1623.37 538.14 1646.9 567.06 1748.82 536.2 1846.35 608.2 1792.13 546.17 1769.06 489.8 1929.52 565.36 2034.83 607.82 1929.7 518.04 1979.81 523.86 2075.28 567.94 1977.45 481.41 2109.14 522.69 2027.43 467.83" style="fill: none;stroke: #000;stroke-miterlimit: 10;stroke-width: 0.6694847769553435px"/>
    <polyline points="40.37 712.17 165.2 673.23 155.78 700.27 215.49 696.39 351.54 652.7 439.22 636.88 447.67 659.41 489.57 658.72 576.24 611.43 485.47 713.52 480.32 747.54 569.64 732.61 813.47 606.01 794.71 666.86 821.15 686.93 934.62 644.26 978.27 652.1 1095.61 593.32 1163.8 597.8 1217.39 700.63 1251.72 716.05 1255.23 600.98 1302.68 603.89 1345.17 589.93 1405.51 555.33 1445.68 633.64 1508.1 637.54 1490.76 527.09 1594.66 661.38 1596.95 616.52 1570.6 519.84 1635.64 569.74 1660.83 603.17 1768.8 571.23 1871.7 646.88 1811.4 579.23 1784.87 517.03 1958.77 603.19 2069.14 647.26 1957.38 553.3 2010.11 559.71 2110.39 606.11 2001.53 510.48 2145.25 558.41 2056.56 501.23" style="fill: none;stroke: #000;stroke-miterlimit: 10;stroke-width: 0.6515493676074331px"/>
    <polyline points="20.22 723.24 147.77 685.81 136.84 713.61 195.9 711.43 333.55 669.71 422.37 655.31 429.74 678.58 470.67 679.6 557.85 633.16 462.24 737.45 454.7 773.37 546.55 759.37 800.75 631.23 779.87 694.17 806.12 715.67 924.31 672.7 968.95 681.53 1091.6 621.81 1162.39 628.42 1218.68 733.96 1253.56 750.72 1255.46 632.05 1304.61 635.59 1348.56 621.65 1411.73 586.3 1452.95 668.04 1518.23 672.59 1498.73 556.11 1607.94 698.45 1609.23 651.1 1581.01 550.63 1647.91 601.34 1674.75 639.28 1788.78 606.26 1897.05 685.55 1830.68 612.29 1800.68 544.26 1988.03 641.02 2103.45 686.69 1985.07 588.57 2040.41 595.56 2145.51 644.29 2025.61 539.56 2181.36 594.14 2085.68 534.63" style="fill: none;stroke: #000;stroke-miterlimit: 10;stroke-width: 0.6336139582595227px"/>
    <polyline points="0.08 734.31 130.34 698.39 117.9 726.96 176.3 726.46 315.56 686.71 405.52 673.73 411.8 697.75 451.77 700.47 539.46 654.89 439 761.37 429.08 799.21 523.46 786.12 788.04 656.45 765.04 721.48 791.1 744.41 914 701.14 959.63 710.97 1087.59 650.3 1160.97 659.04 1219.97 767.29 1255.41 785.38 1255.69 663.11 1306.55 667.29 1351.95 653.37 1417.96 617.28 1460.22 702.43 1528.35 707.65 1506.71 585.14 1621.22 735.52 1621.51 685.68 1591.42 581.43 1660.17 632.94 1688.68 675.39 1808.76 641.29 1922.4 724.23 1849.96 645.35 1816.5 571.49 2017.28 678.85 2137.76 726.13 2012.76 623.83 2070.71 631.41 2180.62 682.46 2049.69 568.64 2217.47 629.86 2114.8 568.02" style="fill: none;stroke: #000;stroke-miterlimit: 10;stroke-width: 0.6156785488358891px"/>
  </g>
</svg>
