<svg id="Layer_1" data-name="Layer 1" xmlns="http://www.w3.org/2000/svg" xmlns:xlink="http://www.w3.org/1999/xlink" viewBox="0 0 707.05 597.57"><defs><clipPath id="clip-path" transform="translate(-17 87.37)"><path id="eye-clip-clippath" d="M136.44,329.57c51.52,32.57,133.74,71.17,234.08,71.17,111.31,0,191.48-43.25,235.93-80.59,0,0,3.93-18.77,5.1-33.5s1.34-34.23-2.7-53.3C555.34,180.11,470.74,117,370.52,117c-139.13,0-215.87,97.56-240.71,136,0,0-.89,14.62,0,32.28C130.73,303.5,136.44,329.57,136.44,329.57Z" style="fill:none"/></clipPath></defs><circle id="ball" cx="353.52" cy="355.64" r="241.51" style="fill:none;stroke:#231f20;stroke-linecap:round;stroke-linejoin:round;stroke-width:0.8345133953287679px"/><path id="upperlid" d="M34,295.35l86.78-27.08S197.25,117,370.52,117,670.35,305.68,670.35,305.68" transform="translate(-17 87.37)" style="fill:none;stroke:#231f20;stroke-linecap:round;stroke-linejoin:round;stroke-width:3.6349061131477356px"/><path id="upperlid-closed" d="M25.71,285.25H670.35" transform="translate(-17 87.37)" style="fill:none"/><path id="lowerlid" d="M640.5,289.15s-96.42,111.59-270,111.59S86,292.71,86,292.71" transform="translate(-17 87.37)" style="fill:none;stroke:#231f20;stroke-linecap:round;stroke-linejoin:round;stroke-width:3.6349061131477356px"/><path id="lowerlid-closed" d="M646.2,285.25H77.6" transform="translate(-17 87.37)" style="fill:none"/><g id="eye-clip"><g style="clip-path:url(#clip-path)"><g id="retina"><g id="rays"><line x1="353.52" y1="355.64" x2="353.52" y2="231.43" style="fill:none;stroke:#231f20;stroke-linecap:round;stroke-linejoin:round;stroke-width:0.9807422629095225px"/><line x1="353.52" y1="355.64" x2="441.35" y2="267.81" style="fill:none;stroke:#231f20;stroke-linecap:round;stroke-linejoin:round;stroke-width:0.9807422629095225px"/><line x1="353.52" y1="355.64" x2="477.73" y2="355.64" style="fill:none;stroke:#231f20;stroke-linecap:round;stroke-linejoin:round;stroke-width:0.9807422629095225px"/><line x1="353.52" y1="355.64" x2="441.35" y2="443.46" style="fill:none;stroke:#231f20;stroke-linecap:round;stroke-linejoin:round;stroke-width:0.9807422629095225px"/><line x1="353.52" y1="355.64" x2="353.52" y2="479.84" style="fill:none;stroke:#231f20;stroke-linecap:round;stroke-linejoin:round;stroke-width:0.9807422629095225px"/><line x1="353.52" y1="355.64" x2="265.7" y2="443.46" style="fill:none;stroke:#231f20;stroke-linecap:round;stroke-linejoin:round;stroke-width:0.9807422629095225px"/><line x1="353.52" y1="355.64" x2="229.32" y2="355.64" style="fill:none;stroke:#231f20;stroke-linecap:round;stroke-linejoin:round;stroke-width:0.9807422629095225px"/><line x1="353.52" y1="355.64" x2="265.7" y2="267.81" style="fill:none;stroke:#231f20;stroke-linecap:round;stroke-linejoin:round;stroke-width:0.9807422629095225px"/><line x1="353.52" y1="355.64" x2="401.05" y2="240.89" style="fill:none;stroke:#231f20;stroke-linecap:round;stroke-linejoin:round;stroke-width:0.9807422629095225px"/><line x1="353.52" y1="355.64" x2="468.27" y2="308.11" style="fill:none;stroke:#231f20;stroke-linecap:round;stroke-linejoin:round;stroke-width:0.9807422629095225px"/><line x1="353.52" y1="355.64" x2="468.27" y2="403.17" style="fill:none;stroke:#231f20;stroke-linecap:round;stroke-linejoin:round;stroke-width:0.9807422629095225px"/><line x1="353.52" y1="355.64" x2="401.05" y2="470.39" style="fill:none;stroke:#231f20;stroke-linecap:round;stroke-linejoin:round;stroke-width:0.9807422629095225px"/><line x1="353.52" y1="355.64" x2="305.99" y2="470.39" style="fill:none;stroke:#231f20;stroke-linecap:round;stroke-linejoin:round;stroke-width:0.9807422629095225px"/><line x1="353.52" y1="355.64" x2="238.77" y2="403.17" style="fill:none;stroke:#231f20;stroke-linecap:round;stroke-linejoin:round;stroke-width:0.9807422629095225px"/><line x1="353.52" y1="355.64" x2="238.77" y2="308.11" style="fill:none;stroke:#231f20;stroke-linecap:round;stroke-linejoin:round;stroke-width:0.9807422629095225px"/><line x1="353.52" y1="355.64" x2="305.99" y2="240.89" style="fill:none;stroke:#231f20;stroke-linecap:round;stroke-linejoin:round;stroke-width:0.9807422629095225px"/><line x1="353.52" y1="355.64" x2="377.75" y2="233.82" style="fill:none;stroke:#231f20;stroke-linecap:round;stroke-linejoin:round;stroke-width:0.9807422629095225px"/><line x1="353.52" y1="355.64" x2="456.8" y2="286.63" style="fill:none;stroke:#231f20;stroke-linecap:round;stroke-linejoin:round;stroke-width:0.9807422629095225px"/><line x1="353.52" y1="355.64" x2="475.34" y2="379.87" style="fill:none;stroke:#231f20;stroke-linecap:round;stroke-linejoin:round;stroke-width:0.9807422629095225px"/><line x1="353.52" y1="355.64" x2="422.53" y2="458.91" style="fill:none;stroke:#231f20;stroke-linecap:round;stroke-linejoin:round;stroke-width:0.9807422629095225px"/><line x1="353.52" y1="355.64" x2="329.29" y2="477.46" style="fill:none;stroke:#231f20;stroke-linecap:round;stroke-linejoin:round;stroke-width:0.9807422629095225px"/><line x1="353.52" y1="355.64" x2="250.25" y2="424.64" style="fill:none;stroke:#231f20;stroke-linecap:round;stroke-linejoin:round;stroke-width:0.9807422629095225px"/><line x1="353.52" y1="355.64" x2="231.7" y2="331.41" style="fill:none;stroke:#231f20;stroke-linecap:round;stroke-linejoin:round;stroke-width:0.9807422629095225px"/><line x1="353.52" y1="355.64" x2="284.52" y2="252.36" style="fill:none;stroke:#231f20;stroke-linecap:round;stroke-linejoin:round;stroke-width:0.9807422629095225px"/><line x1="353.52" y1="355.64" x2="422.53" y2="252.36" style="fill:none;stroke:#231f20;stroke-linecap:round;stroke-linejoin:round;stroke-width:0.9807422629095225px"/><line x1="353.52" y1="355.64" x2="475.34" y2="331.41" style="fill:none;stroke:#231f20;stroke-linecap:round;stroke-linejoin:round;stroke-width:0.9807422629095225px"/><line x1="353.52" y1="355.64" x2="456.8" y2="424.64" style="fill:none;stroke:#231f20;stroke-linecap:round;stroke-linejoin:round;stroke-width:0.9807422629095225px"/><line x1="353.52" y1="355.64" x2="377.75" y2="477.46" style="fill:none;stroke:#231f20;stroke-linecap:round;stroke-linejoin:round;stroke-width:0.9807422629095225px"/><line x1="353.52" y1="355.64" x2="284.52" y2="458.91" style="fill:none;stroke:#231f20;stroke-linecap:round;stroke-linejoin:round;stroke-width:0.9807422629095225px"/><line x1="353.52" y1="355.64" x2="231.7" y2="379.87" style="fill:none;stroke:#231f20;stroke-linecap:round;stroke-linejoin:round;stroke-width:0.9807422629095225px"/><line x1="353.52" y1="355.64" x2="250.25" y2="286.63" style="fill:none;stroke:#231f20;stroke-linecap:round;stroke-linejoin:round;stroke-width:0.9807422629095225px"/><line x1="353.52" y1="355.64" x2="329.29" y2="233.82" style="fill:none;stroke:#231f20;stroke-linecap:round;stroke-linejoin:round;stroke-width:0.9807422629095225px"/><line x1="353.52" y1="355.64" x2="365.7" y2="232.03" style="fill:none;stroke:#231f20;stroke-linecap:round;stroke-linejoin:round;stroke-width:0.9807422629095225px"/><line x1="353.52" y1="355.64" x2="449.54" y2="276.84" style="fill:none;stroke:#231f20;stroke-linecap:round;stroke-linejoin:round;stroke-width:0.9807422629095225px"/><line x1="353.52" y1="355.64" x2="477.13" y2="367.81" style="fill:none;stroke:#231f20;stroke-linecap:round;stroke-linejoin:round;stroke-width:0.9807422629095225px"/><line x1="353.52" y1="355.64" x2="432.32" y2="451.65" style="fill:none;stroke:#231f20;stroke-linecap:round;stroke-linejoin:round;stroke-width:0.9807422629095225px"/><line x1="353.52" y1="355.64" x2="341.35" y2="479.25" style="fill:none;stroke:#231f20;stroke-linecap:round;stroke-linejoin:round;stroke-width:0.9807422629095225px"/><line x1="353.52" y1="355.64" x2="257.51" y2="434.43" style="fill:none;stroke:#231f20;stroke-linecap:round;stroke-linejoin:round;stroke-width:0.9807422629095225px"/><line x1="353.52" y1="355.64" x2="229.91" y2="343.46" style="fill:none;stroke:#231f20;stroke-linecap:round;stroke-linejoin:round;stroke-width:0.9807422629095225px"/><line x1="353.52" y1="355.64" x2="274.73" y2="259.63" style="fill:none;stroke:#231f20;stroke-linecap:round;stroke-linejoin:round;stroke-width:0.9807422629095225px"/><line x1="353.52" y1="355.64" x2="412.07" y2="246.1" style="fill:none;stroke:#231f20;stroke-linecap:round;stroke-linejoin:round;stroke-width:0.9807422629095225px"/><line x1="353.52" y1="355.64" x2="472.38" y2="319.58" style="fill:none;stroke:#231f20;stroke-linecap:round;stroke-linejoin:round;stroke-width:0.9807422629095225px"/><line x1="353.52" y1="355.64" x2="463.06" y2="414.19" style="fill:none;stroke:#231f20;stroke-linecap:round;stroke-linejoin:round;stroke-width:0.9807422629095225px"/><line x1="353.52" y1="355.64" x2="389.58" y2="474.5" style="fill:none;stroke:#231f20;stroke-linecap:round;stroke-linejoin:round;stroke-width:0.9807422629095225px"/><line x1="353.52" y1="355.64" x2="294.97" y2="465.18" style="fill:none;stroke:#231f20;stroke-linecap:round;stroke-linejoin:round;stroke-width:0.9807422629095225px"/><line x1="353.52" y1="355.64" x2="234.66" y2="391.69" style="fill:none;stroke:#231f20;stroke-linecap:round;stroke-linejoin:round;stroke-width:0.9807422629095225px"/><line x1="353.52" y1="355.64" x2="243.98" y2="297.09" style="fill:none;stroke:#231f20;stroke-linecap:round;stroke-linejoin:round;stroke-width:0.9807422629095225px"/><line x1="353.52" y1="355.64" x2="317.47" y2="236.78" style="fill:none;stroke:#231f20;stroke-linecap:round;stroke-linejoin:round;stroke-width:0.9807422629095225px"/><line x1="353.52" y1="355.64" x2="389.58" y2="236.78" style="fill:none;stroke:#231f20;stroke-linecap:round;stroke-linejoin:round;stroke-width:0.9807422629095225px"/><line x1="353.52" y1="355.64" x2="463.06" y2="297.09" style="fill:none;stroke:#231f20;stroke-linecap:round;stroke-linejoin:round;stroke-width:0.9807422629095225px"/><line x1="353.52" y1="355.64" x2="472.38" y2="391.69" style="fill:none;stroke:#231f20;stroke-linecap:round;stroke-linejoin:round;stroke-width:0.9807422629095225px"/><line x1="353.52" y1="355.64" x2="412.07" y2="465.18" style="fill:none;stroke:#231f20;stroke-linecap:round;stroke-linejoin:round;stroke-width:0.9807422629095225px"/><line x1="353.52" y1="355.64" x2="317.47" y2="474.5" style="fill:none;stroke:#231f20;stroke-linecap:round;stroke-linejoin:round;stroke-width:0.9807422629095225px"/><line x1="353.52" y1="355.64" x2="243.98" y2="414.19" style="fill:none;stroke:#231f20;stroke-linecap:round;stroke-linejoin:round;stroke-width:0.9807422629095225px"/><line x1="353.52" y1="355.64" x2="234.66" y2="319.58" style="fill:none;stroke:#231f20;stroke-linecap:round;stroke-linejoin:round;stroke-width:0.9807422629095225px"/><line x1="353.52" y1="355.64" x2="294.97" y2="246.1" style="fill:none;stroke:#231f20;stroke-linecap:round;stroke-linejoin:round;stroke-width:0.9807422629095225px"/><line x1="353.52" y1="355.64" x2="432.32" y2="259.63" style="fill:none;stroke:#231f20;stroke-linecap:round;stroke-linejoin:round;stroke-width:0.9807422629095225px"/><line x1="353.52" y1="355.64" x2="477.13" y2="343.46" style="fill:none;stroke:#231f20;stroke-linecap:round;stroke-linejoin:round;stroke-width:0.9807422629095225px"/><line x1="353.52" y1="355.64" x2="449.54" y2="434.43" style="fill:none;stroke:#231f20;stroke-linecap:round;stroke-linejoin:round;stroke-width:0.9807422629095225px"/><line x1="353.52" y1="355.64" x2="365.7" y2="479.25" style="fill:none;stroke:#231f20;stroke-linecap:round;stroke-linejoin:round;stroke-width:0.9807422629095225px"/><line x1="353.52" y1="355.64" x2="274.73" y2="451.65" style="fill:none;stroke:#231f20;stroke-linecap:round;stroke-linejoin:round;stroke-width:0.9807422629095225px"/><line x1="353.52" y1="355.64" x2="229.91" y2="367.81" style="fill:none;stroke:#231f20;stroke-linecap:round;stroke-linejoin:round;stroke-width:0.9807422629095225px"/><line x1="353.52" y1="355.64" x2="257.51" y2="276.84" style="fill:none;stroke:#231f20;stroke-linecap:round;stroke-linejoin:round;stroke-width:0.9807422629095225px"/><line x1="353.52" y1="355.64" x2="341.35" y2="232.03" style="fill:none;stroke:#231f20;stroke-linecap:round;stroke-linejoin:round;stroke-width:0.9807422629095225px"/></g><circle id="hole" cx="353.52" cy="355.64" r="78.8" style="fill:#231f20"/></g><circle cx="251.18" cy="277.49" r="39.17" style="fill:#fff;stroke:#231f20;stroke-miterlimit:10;stroke-width:0.7269812226295471px"/><circle cx="317.67" cy="320.28" r="15.65" style="fill:#fff;stroke:#231f20;stroke-miterlimit:10;stroke-width:0.7269812226295471px"/><path id="eye-clip-clippath-closed" d="M129.81,285.25H370.52c180.67,0,241,1.4,241,1.4h0s-140.81-1.4-241-1.4Z" transform="translate(-17 87.37)" style="fill:none"/></g></g><path d="M722.23,194.27S309-33.47,18.81,63.87" transform="translate(-17 87.37)" style="fill:none;stroke:#231f20;stroke-linecap:round;stroke-linejoin:round;stroke-width:3.6349061131477356px"/><line x1="1.82" y1="109.3" x2="94.45" y2="45.83" style="fill:none;stroke:#231f20;stroke-linecap:round;stroke-linejoin:round;stroke-width:3.6349061131477356px"/><line x1="39.61" y1="94.08" x2="133.95" y2="33.19" style="fill:none;stroke:#231f20;stroke-linecap:round;stroke-linejoin:round;stroke-width:3.6349061131477356px"/><line x1="77.81" y1="79.92" x2="173.79" y2="21.63" style="fill:none;stroke:#231f20;stroke-linecap:round;stroke-linejoin:round;stroke-width:3.6349061131477356px"/><line x1="116.38" y1="66.8" x2="213.92" y2="11.17" style="fill:none;stroke:#231f20;stroke-linecap:round;stroke-linejoin:round;stroke-width:3.6349061131477356px"/><line x1="155.3" y1="54.75" x2="254.33" y2="1.82" style="fill:none;stroke:#231f20;stroke-linecap:round;stroke-linejoin:round;stroke-width:3.6349061131477356px"/><line x1="180.01" y1="53.87" x2="280.03" y2="2.83" style="fill:none;stroke:#231f20;stroke-linecap:round;stroke-linejoin:round;stroke-width:3.6349061131477356px"/><line x1="204.73" y1="53.46" x2="305.7" y2="4.32" style="fill:none;stroke:#231f20;stroke-linecap:round;stroke-linejoin:round;stroke-width:3.6349061131477356px"/><line x1="229.46" y1="53.52" x2="331.34" y2="6.31" style="fill:none;stroke:#231f20;stroke-linecap:round;stroke-linejoin:round;stroke-width:3.6349061131477356px"/><line x1="254.18" y1="54.05" x2="356.93" y2="8.78" style="fill:none;stroke:#231f20;stroke-linecap:round;stroke-linejoin:round;stroke-width:3.6349061131477356px"/><line x1="278.88" y1="55.05" x2="382.48" y2="11.73" style="fill:none;stroke:#231f20;stroke-linecap:round;stroke-linejoin:round;stroke-width:3.6349061131477356px"/><line x1="303.57" y1="56.51" x2="407.96" y2="15.17" style="fill:none;stroke:#231f20;stroke-linecap:round;stroke-linejoin:round;stroke-width:3.6349061131477356px"/><line x1="328.21" y1="58.45" x2="433.38" y2="19.09" style="fill:none;stroke:#231f20;stroke-linecap:round;stroke-linejoin:round;stroke-width:3.6349061131477356px"/><line x1="352.82" y1="60.85" x2="458.71" y2="23.49" style="fill:none;stroke:#231f20;stroke-linecap:round;stroke-linejoin:round;stroke-width:3.6349061131477356px"/><line x1="377.38" y1="63.71" x2="479.3" y2="29.91" style="fill:none;stroke:#231f20;stroke-linecap:round;stroke-linejoin:round;stroke-width:3.6349061131477356px"/><line x1="401.88" y1="67.05" x2="499.12" y2="36.84" style="fill:none;stroke:#231f20;stroke-linecap:round;stroke-linejoin:round;stroke-width:3.6349061131477356px"/><line x1="426.31" y1="70.84" x2="517.8" y2="44.31" style="fill:none;stroke:#231f20;stroke-linecap:round;stroke-linejoin:round;stroke-width:3.6349061131477356px"/><line x1="450.67" y1="75.1" x2="540.91" y2="50.77" style="fill:none;stroke:#231f20;stroke-linecap:round;stroke-linejoin:round;stroke-width:3.6349061131477356px"/><line x1="474.94" y1="79.82" x2="560.65" y2="58.45" style="fill:none;stroke:#231f20;stroke-linecap:round;stroke-linejoin:round;stroke-width:3.6349061131477356px"/><line x1="499.12" y1="85" x2="580.94" y2="66.24" style="fill:none;stroke:#231f20;stroke-linecap:round;stroke-linejoin:round;stroke-width:3.6349061131477356px"/><line x1="523.19" y1="90.63" x2="595.28" y2="75.54" style="fill:none;stroke:#231f20;stroke-linecap:round;stroke-linejoin:round;stroke-width:3.6349061131477356px"/></svg>