<svg id="Layer_1" data-name="Layer 1" xmlns="http://www.w3.org/2000/svg" viewBox="0 0 771.69 186.48"><polyline points="193.11 142.22 202.7 136.42 208.73 129.31 218.3 120.32 225.52 117.75 228.17 118.48 238.58 115.54 243.53 124.85 273.79 109.14 340.36 86.61 348.88 86.92 368.14 78.85 391.93 64.81 395.52 72.72 404.22 72.65 417.22 63.01 413.41 79.8 437.37 50.03 446.3 43.06 449.58 59.63 457.34 58.69 469.09 42.93 474.83 38.46 478.86 37.75 484.36 31.74 488.9 40.97 497.24 37.72 499.71 32.52 501.17 34.03 514.52 56.13 514.95 24.09 525.63 34.47 528.97 27.46 531.26 21.44 534.67 27.1 537.65 31.6 544.35 38.5 546.71 19.13 551.58 23.59 565.14 14.99 569.29 10.63 571.5 13.75 574.22 16.5 577.69 5.25 582.74 0.36" style="fill:none;stroke:#000;stroke-miterlimit:10"/><polyline points="183.92 143.13 195.21 137.34 201.17 130.85 211.24 122.5 220.01 119.56 224.02 120.19 234.03 117.61 239.41 126.53 268.57 111.78 332.11 90.68 340.48 91.34 359.24 83.55 386.3 69.12 389.32 77.24 398.03 77.41 412.45 67.89 409.57 84 434.53 55.16 444.24 48.65 448.31 65.46 455.99 64.73 467.5 48.61 473.81 44.42 478.4 43.64 484.74 37.62 489.74 47.22 498.51 44.21 500.84 38.12 504.07 41.01 516.81 61.6 517.32 30.13 528.04 40.5 531.68 34.23 535.85 28.25 540.96 34.48 543.9 38.03 550.61 43.93 554 26.52 559.32 31.23 572.21 22.09 576.98 18.04 579.73 21.5 582.34 23.06 586.83 12.96 591.1 7.71" style="fill:none;stroke:#000;stroke-miterlimit:10"/><polyline points="174.72 144.04 187.73 138.27 193.61 132.38 204.18 124.67 214.5 121.37 219.87 121.89 229.48 119.68 235.28 128.2 263.35 114.41 323.86 94.76 332.08 95.76 350.33 88.24 380.68 73.44 383.12 81.77 391.84 82.16 407.69 72.78 405.74 88.2 431.68 60.29 442.17 54.23 447.03 71.29 454.63 70.78 465.92 54.3 472.79 50.38 477.94 49.53 485.12 43.51 490.58 53.48 499.79 50.69 501.96 43.72 506.97 47.99 519.09 67.06 519.69 36.16 530.45 46.53 534.39 41.01 540.45 35.06 547.24 41.85 550.16 44.47 556.87 49.37 561.28 33.9 567.06 38.86 579.27 29.18 584.66 25.44 587.96 29.25 590.46 29.63 595.96 20.67 599.46 15.06" style="fill:none;stroke:#000;stroke-miterlimit:10"/><polyline points="165.53 144.94 180.24 139.19 186.05 133.91 197.13 126.85 208.98 123.18 215.72 123.6 224.93 121.75 231.15 129.88 258.13 117.05 315.61 98.83 323.67 100.17 341.43 92.94 375.05 77.75 376.92 86.3 385.65 86.92 402.92 77.66 401.9 92.41 428.84 65.42 440.11 59.81 445.75 77.11 453.28 76.83 464.34 59.98 471.77 56.34 477.49 55.42 485.5 49.39 491.42 59.73 501.07 57.17 503.09 49.31 509.87 54.97 521.38 72.53 522.06 42.19 532.86 52.56 537.1 47.78 545.04 41.88 553.52 49.22 556.41 50.9 563.14 54.8 568.57 41.29 574.81 46.49 586.34 36.28 592.34 32.84 596.19 37 598.58 36.2 605.09 28.38 607.82 22.41" style="fill:none;stroke:#000;stroke-miterlimit:10"/><polyline points="156.34 145.85 172.75 140.12 178.49 135.45 190.07 129.02 203.47 124.99 211.57 125.3 220.38 123.83 227.03 131.55 252.91 119.69 307.35 102.91 315.27 104.59 332.53 97.63 369.42 82.07 370.72 90.82 379.46 91.67 398.15 82.55 398.07 96.61 425.99 70.55 438.05 65.4 444.47 82.94 451.93 82.88 462.75 65.66 470.75 62.3 477.03 61.32 485.88 55.27 492.25 65.98 502.35 63.66 504.22 54.91 512.77 61.94 523.66 78 524.44 48.23 535.27 58.6 539.81 54.56 549.63 48.69 559.8 56.59 562.67 57.33 569.4 60.24 575.86 48.68 582.55 54.13 593.41 43.38 600.02 40.24 604.42 44.74 606.7 42.77 614.23 36.08 616.18 29.77" style="fill:none;stroke:#000;stroke-miterlimit:10"/><polyline points="147.15 146.76 165.26 141.04 170.93 136.98 183.01 131.2 197.96 126.8 207.42 127.01 215.83 125.9 222.9 133.23 247.69 122.33 299.1 106.98 306.86 109.01 323.62 102.33 363.79 86.39 364.52 95.35 373.27 96.43 393.38 87.43 394.23 100.81 423.15 75.68 435.99 70.98 443.2 88.77 450.57 88.93 461.17 71.34 469.73 68.27 476.57 67.21 486.27 61.15 493.09 72.23 503.62 70.14 505.34 60.51 515.67 68.92 525.95 83.46 526.81 54.26 537.68 64.63 542.52 61.33 554.22 55.51 566.08 63.96 568.92 63.77 575.67 65.67 583.15 56.06 590.29 61.76 600.48 50.48 607.7 47.65 612.65 52.49 614.82 49.33 623.36 43.79 624.54 37.12" style="fill:none;stroke:#000;stroke-miterlimit:10"/><polyline points="137.95 147.66 157.77 141.97 163.37 138.52 175.95 133.37 192.44 128.61 203.27 128.72 211.28 127.97 218.77 134.9 242.47 124.97 290.85 111.06 298.46 113.43 314.72 107.03 358.16 90.7 358.33 99.88 367.08 101.19 388.62 92.32 390.4 105.01 420.3 80.82 433.93 76.57 441.92 94.59 449.22 94.98 459.58 77.02 468.71 74.23 476.12 73.1 486.65 67.04 493.93 78.48 504.9 76.62 506.47 66.11 518.57 75.9 528.23 88.93 529.18 60.29 540.1 70.66 545.23 68.11 558.82 62.32 572.36 71.34 575.17 70.2 581.93 71.11 590.44 63.45 598.04 69.4 607.54 57.58 615.38 55.05 620.88 60.24 622.94 55.9 632.49 51.5 632.9 44.47" style="fill:none;stroke:#000;stroke-miterlimit:10"/><polyline points="128.76 148.57 150.29 142.89 155.81 140.05 168.89 135.55 186.93 130.42 199.12 130.42 206.73 130.04 214.65 136.58 237.25 127.61 282.6 115.13 290.05 117.84 305.82 111.72 352.54 95.02 352.13 104.4 360.89 105.94 383.85 97.2 386.56 109.21 417.46 85.95 431.87 82.16 440.64 100.42 447.87 101.03 458 82.7 467.7 80.19 475.66 79 487.03 72.92 494.76 84.73 506.18 83.11 507.6 71.71 521.47 82.88 530.52 94.39 531.55 66.32 542.51 76.7 547.93 74.88 563.41 69.13 578.64 78.71 581.43 76.64 588.2 76.54 597.73 70.84 605.78 77.03 614.61 64.68 623.07 62.45 629.12 67.99 631.06 62.47 641.62 59.21 641.26 51.82" style="fill:none;stroke:#000;stroke-miterlimit:10"/><polyline points="119.57 149.48 142.8 143.82 148.25 141.59 161.84 137.72 181.42 132.23 194.97 132.13 202.18 132.11 210.52 138.25 232.03 130.25 274.35 119.2 281.65 122.26 296.91 116.42 346.91 99.34 345.93 108.93 354.7 110.7 379.08 102.09 382.73 113.41 414.62 91.08 429.81 87.74 439.37 106.25 446.51 107.08 456.42 88.39 466.68 86.15 475.2 84.89 487.42 78.8 495.6 90.99 507.45 89.59 508.72 77.31 524.37 89.85 532.8 99.86 533.93 72.36 544.92 82.73 550.64 81.65 568 75.95 584.92 86.08 587.68 83.07 594.46 81.97 605.01 78.22 613.52 84.67 621.68 71.78 630.75 69.86 637.35 75.74 639.18 69.04 650.76 66.92 649.63 59.18" style="fill:none;stroke:#000;stroke-miterlimit:10"/><polyline points="110.38 150.38 135.31 144.74 140.69 143.12 154.78 139.9 175.9 134.04 190.82 133.83 197.63 134.18 206.39 139.93 226.81 132.88 266.09 123.28 273.24 126.68 288.01 121.11 341.28 103.66 339.73 113.46 348.51 115.45 374.32 106.97 378.89 117.61 411.77 96.21 427.75 93.33 438.09 112.08 445.16 113.13 454.83 94.07 465.66 92.11 474.75 90.78 487.8 84.69 496.44 97.24 508.73 96.07 509.85 82.91 527.27 96.83 535.09 105.33 536.3 78.39 547.33 88.76 553.35 88.43 572.6 82.76 591.2 93.45 593.94 89.5 600.73 87.41 612.3 85.61 621.27 92.3 628.75 78.87 638.43 77.26 645.58 83.48 647.3 75.6 659.89 74.62 657.99 66.53" style="fill:none;stroke:#000;stroke-miterlimit:10"/><polyline points="101.18 151.29 127.82 145.67 133.13 144.66 147.72 142.07 170.39 135.85 186.67 135.54 193.08 136.25 202.27 141.6 221.59 135.52 257.84 127.35 264.84 131.1 279.11 125.81 335.65 107.97 333.53 117.98 342.32 120.21 369.55 111.86 375.06 121.82 408.93 101.34 425.69 98.91 436.81 117.9 443.81 119.17 453.25 99.75 464.64 98.07 474.29 96.67 488.18 90.57 497.27 103.49 510.01 102.56 510.98 88.51 530.17 103.81 537.37 110.79 538.67 84.42 549.74 94.8 556.06 95.2 577.19 89.58 597.48 100.83 600.19 95.94 606.99 92.84 619.59 93 629.01 99.93 635.82 85.97 646.11 84.66 653.81 91.23 655.42 82.17 669.02 82.33 666.35 73.88" style="fill:none;stroke:#000;stroke-miterlimit:10"/><polyline points="91.99 152.2 120.33 146.59 125.57 146.19 140.66 144.25 164.88 137.66 182.52 137.25 188.53 138.32 198.14 143.28 216.37 138.16 249.59 131.43 256.43 135.51 270.2 130.5 330.02 112.29 327.33 122.51 336.13 124.97 364.79 116.74 371.22 126.02 406.08 106.47 423.63 104.5 435.53 123.73 442.45 125.22 451.67 105.43 463.62 104.03 473.83 102.57 488.56 96.45 498.11 109.74 511.29 109.04 512.1 94.11 533.08 110.79 539.66 116.26 541.04 90.46 552.15 100.83 558.77 101.98 581.78 96.39 603.76 108.2 606.45 102.37 613.25 98.28 626.88 100.38 636.75 107.57 642.89 93.07 653.79 92.07 662.04 98.98 663.54 88.74 678.15 90.04 674.71 81.23" style="fill:none;stroke:#000;stroke-miterlimit:10"/><polyline points="82.8 153.1 112.85 147.52 118.01 147.72 133.6 146.42 159.36 139.47 178.37 138.95 183.98 140.39 194.01 144.95 211.15 140.8 241.34 135.5 248.03 139.93 261.3 135.2 324.4 116.61 321.13 127.04 329.94 129.72 360.02 121.63 367.39 130.22 403.24 111.6 421.57 110.08 434.26 129.56 441.1 131.27 450.08 111.11 462.6 110 473.38 108.46 488.94 102.33 498.95 116 512.56 115.52 513.23 99.71 535.98 117.77 541.94 121.72 543.42 96.49 554.56 106.86 561.48 108.75 586.38 103.2 610.04 115.57 612.7 108.81 619.52 103.72 634.17 107.77 644.5 115.2 649.95 100.17 661.47 99.47 670.27 106.73 671.66 95.31 687.29 97.75 683.07 88.58" style="fill:none;stroke:#000;stroke-miterlimit:10"/><polyline points="73.6 154.01 105.36 148.44 110.45 149.26 126.55 148.6 153.85 141.28 174.22 140.66 179.43 142.46 189.89 146.63 205.93 143.44 233.08 139.58 239.62 144.35 252.4 139.89 318.77 120.92 314.94 131.56 323.75 134.48 355.25 126.51 363.56 134.42 400.39 116.74 419.5 115.66 432.98 135.38 439.75 137.32 448.5 116.79 461.58 115.96 472.92 114.35 489.33 108.22 499.78 122.25 513.84 122.01 514.36 105.31 538.88 124.74 544.23 127.19 545.79 102.52 556.97 112.89 564.19 115.52 590.97 110.02 616.32 122.94 618.96 115.24 625.78 109.15 641.45 115.16 652.24 122.83 657.02 107.27 669.15 106.87 678.5 114.48 679.78 101.87 696.42 105.45 691.43 95.94" style="fill:none;stroke:#000;stroke-miterlimit:10"/><polyline points="64.41 154.92 97.87 149.37 102.89 150.79 119.49 150.77 148.34 143.09 170.07 142.36 174.88 144.53 185.76 148.3 200.71 146.08 224.83 143.65 231.22 148.77 243.49 144.59 313.14 125.24 308.74 136.09 317.56 139.23 350.49 131.4 359.72 138.62 397.55 121.87 417.44 121.25 431.7 141.21 438.39 143.37 446.92 122.47 460.56 121.92 472.46 120.24 489.71 114.1 500.62 128.5 515.12 128.49 515.48 110.91 541.78 131.72 546.51 132.66 548.16 108.56 559.38 118.93 566.9 122.3 595.56 116.83 622.6 130.31 625.21 121.67 632.05 114.58 648.74 122.54 659.99 130.47 664.09 114.36 676.83 114.28 686.73 122.23 687.9 108.44 705.55 113.16 699.79 103.29" style="fill:none;stroke:#000;stroke-miterlimit:10"/><polyline points="55.22 155.82 90.38 150.29 95.33 152.33 112.43 152.95 142.82 144.9 165.92 144.07 170.33 146.6 181.63 149.98 195.49 148.72 216.58 147.73 222.81 153.19 234.59 149.28 307.51 129.56 302.54 140.62 311.37 143.99 345.72 136.28 355.88 142.82 394.7 127 415.38 126.83 430.42 147.04 437.04 149.42 445.33 128.16 459.55 127.88 472.01 126.14 490.09 119.98 501.46 134.75 516.39 134.97 516.61 116.5 544.68 138.7 548.8 138.12 550.54 114.59 561.79 124.96 569.61 129.07 600.15 123.64 628.88 137.69 631.47 128.11 638.31 120.02 656.03 129.93 667.73 138.1 671.16 121.46 684.52 121.68 694.96 129.97 696.03 115.01 714.69 120.87 708.15 110.64" style="fill:none;stroke:#000;stroke-miterlimit:10"/><polyline points="46.02 156.73 82.89 151.22 87.77 153.86 105.37 155.12 137.31 146.71 161.77 145.77 165.78 148.68 177.51 151.65 190.26 151.35 208.33 151.8 214.41 157.6 225.68 153.98 301.88 133.87 296.34 145.14 305.18 148.75 340.95 141.17 352.05 147.02 391.86 132.13 413.32 132.42 429.15 152.86 435.69 155.47 443.75 133.84 458.53 133.84 471.55 132.03 490.47 125.86 502.29 141 517.67 141.46 517.74 122.1 547.58 145.68 551.08 143.59 552.91 120.62 564.2 130.99 572.31 135.85 604.75 130.46 635.16 145.06 637.72 134.54 644.58 125.45 663.32 137.32 675.47 145.74 678.23 128.56 692.2 129.08 703.2 137.72 704.15 121.58 723.82 128.58 716.51 117.99" style="fill:none;stroke:#000;stroke-miterlimit:10"/><polyline points="36.83 157.64 75.41 152.14 80.2 155.4 98.31 157.3 131.8 148.52 157.62 147.48 161.23 150.75 173.38 153.33 185.04 153.99 200.07 155.88 206 162.02 216.78 158.67 296.26 138.19 290.14 149.67 298.99 153.5 336.19 146.05 348.21 151.22 389.01 137.26 411.26 138 427.87 158.69 434.33 161.52 442.17 139.52 457.51 139.81 471.09 137.92 490.86 131.75 503.13 147.26 518.95 147.94 518.86 127.7 550.48 152.66 553.37 149.05 555.28 126.65 566.61 137.03 575.02 142.62 609.34 137.27 641.45 152.43 643.98 140.98 650.84 130.89 670.61 144.7 683.22 153.37 685.29 135.66 699.88 136.49 711.43 145.47 712.27 128.14 732.95 136.29 724.88 125.34" style="fill:none;stroke:#000;stroke-miterlimit:10"/><polyline points="27.64 158.54 67.92 153.07 72.64 156.93 91.26 159.47 126.28 150.33 153.47 149.19 156.68 152.82 169.25 155 179.82 156.63 191.82 159.95 197.6 166.44 207.88 163.37 290.63 142.51 283.94 154.2 292.8 158.26 331.42 150.94 344.38 155.43 386.17 142.39 409.2 143.59 426.59 164.52 432.98 167.57 440.58 145.2 456.49 145.77 470.64 143.81 491.24 137.63 503.97 153.51 520.23 154.42 519.99 133.3 553.38 159.63 555.65 154.52 557.65 132.69 569.02 143.06 577.73 149.39 613.93 144.09 647.73 159.8 650.23 147.41 657.11 136.32 677.89 152.09 690.96 161 692.36 142.76 707.56 143.89 719.66 153.22 720.39 134.71 742.09 143.99 733.24 132.7" style="fill:none;stroke:#000;stroke-miterlimit:10"/><polyline points="18.45 159.45 60.43 153.99 65.08 158.46 84.2 161.65 120.77 152.14 149.32 150.89 152.13 154.89 165.13 156.68 174.6 159.27 183.57 164.03 189.19 170.86 198.97 168.06 285 146.82 277.74 158.72 286.61 163.01 326.65 155.82 340.55 159.63 383.32 147.53 407.14 149.17 425.31 170.34 431.63 173.62 439 150.88 455.47 151.73 470.18 149.71 491.62 143.51 504.81 159.76 521.5 160.91 521.11 138.9 556.28 166.61 557.94 159.99 560.03 138.72 571.43 149.09 580.44 156.17 618.53 150.9 654.01 167.18 656.49 153.84 663.37 141.76 685.18 159.48 698.7 168.64 699.43 149.86 715.24 151.29 727.89 160.97 728.51 141.28 751.22 151.7 741.6 140.05" style="fill:none;stroke:#000;stroke-miterlimit:10"/><polyline points="9.25 160.36 52.94 154.92 57.52 160 77.14 163.82 115.26 153.95 145.17 152.6 147.59 156.96 161 158.35 169.38 161.91 175.32 168.1 180.79 175.27 190.07 172.76 279.37 151.14 271.54 163.25 280.42 167.77 321.89 160.71 336.71 163.83 380.48 152.66 405.08 154.76 424.04 176.17 430.27 179.66 437.42 156.56 454.45 157.69 469.72 155.6 492 149.4 505.64 166.01 522.78 167.39 522.24 144.5 559.18 173.59 560.22 165.45 562.4 144.75 573.85 155.13 583.15 162.94 623.12 157.71 660.29 174.55 662.74 160.28 669.63 147.19 692.47 166.86 706.45 176.27 706.5 156.95 722.92 158.7 736.12 168.72 736.63 147.84 760.35 159.41 749.96 147.4" style="fill:none;stroke:#000;stroke-miterlimit:10"/><polyline points="0.06 161.27 45.45 155.84 49.96 161.53 70.08 166 109.74 155.76 141.02 154.3 143.03 159.03 156.88 160.03 164.16 164.55 167.06 172.18 172.39 179.69 181.17 177.45 273.74 155.46 265.34 167.78 274.23 172.52 317.12 165.59 332.88 168.03 377.63 157.79 403.02 160.34 422.76 182 428.92 185.71 435.83 162.25 453.43 163.65 469.27 161.49 492.39 155.28 506.48 172.26 524.06 173.87 523.37 150.1 562.08 180.57 562.51 170.92 564.77 150.79 576.26 161.16 585.86 169.72 627.71 164.53 666.57 181.92 669 166.71 675.9 152.63 699.76 174.25 714.19 183.91 713.57 164.05 730.6 166.1 744.35 176.46 744.75 154.41 769.48 167.12 758.32 154.75" style="fill:none;stroke:#000;stroke-miterlimit:10"/></svg>