<svg id="Layer_1" data-name="Layer 1" xmlns="http://www.w3.org/2000/svg" viewBox="0 0 752.2 234.09"><polygon points="64.07 73.25 0.62 73.25 0.62 29.92 32.35 29.92 64.07 29.92 64.07 73.25" style="fill:#fff;stroke:#fff;stroke-miterlimit:10;stroke-width:0.272233329167752px"/><polygon points="1.05 73.84 0.3 30.07 32.31 29.56 64.16 29.91 64.55 73.33 1.05 73.84" style="fill:#fff;stroke:#fdfdfd;stroke-miterlimit:10;stroke-width:0.272233329167752px"/><polygon points="1.63 74.64 0.14 30.44 32.44 29.42 64.41 30.12 65.2 73.63 1.63 74.64" style="fill:#fff;stroke:#fbfbfb;stroke-miterlimit:10.000000000000002;stroke-width:0.272233329167752px"/><polygon points="2.38 75.67 0.14 31.02 32.72 29.49 64.82 30.54 66.01 74.14 2.38 75.67" style="fill:#fff;stroke:#fafafa;stroke-miterlimit:10;stroke-width:0.272233329167752px"/><polygon points="3.28 76.89 0.3 31.81 33.16 29.77 65.39 31.17 66.97 74.86 3.28 76.89" style="fill:#fff;stroke:#f8f8f8;stroke-miterlimit:10;stroke-width:0.272233329167752px"/><polygon points="4.34 78.32 0.61 32.79 33.76 30.25 66.11 31.99 68.09 75.77 4.34 78.32" style="fill:#fff;stroke:#f6f6f6;stroke-miterlimit:10;stroke-width:0.272233329167752px"/><polygon points="5.55 79.93 1.08 33.97 34.51 30.92 66.99 33.01 69.36 76.88 5.55 79.93" style="fill:#fff;stroke:#f4f4f4;stroke-miterlimit:10;stroke-width:0.272233329167752px"/><polygon points="6.91 81.73 1.7 35.32 35.42 31.76 68.02 34.2 70.79 78.17 6.91 81.73" style="fill:#fff;stroke:#f2f2f2;stroke-miterlimit:10;stroke-width:0.272233329167752px"/><polygon points="8.42 83.7 2.47 36.85 36.47 32.79 69.19 35.58 72.36 79.63 8.42 83.7" style="fill:#fff;stroke:#f1f1f1;stroke-miterlimit:10;stroke-width:0.272233329167752px"/><polygon points="10.08 85.83 3.38 38.55 37.67 33.98 70.52 37.11 74.08 81.26 10.08 85.83" style="fill:#fff;stroke:#efefef;stroke-miterlimit:10;stroke-width:0.272233329167752px"/><polygon points="11.89 88.13 4.44 40.41 39.02 35.33 71.99 38.81 75.95 83.05 11.89 88.13" style="fill:#fff;stroke:#ededed;stroke-miterlimit:10;stroke-width:0.272233329167752px"/><polygon points="13.84 90.58 5.65 42.42 40.51 36.82 73.61 40.66 77.96 84.98 13.84 90.58" style="fill:#fff;stroke:#ebebeb;stroke-miterlimit:10;stroke-width:0.272233329167752px"/><polygon points="15.93 93.17 7 44.57 42.14 38.47 75.36 42.65 80.11 87.07 15.93 93.17" style="fill:#fff;stroke:#e9e9e9;stroke-miterlimit:10;stroke-width:0.272233329167752px"/><polygon points="18.16 95.89 8.48 46.85 43.91 40.24 77.26 44.78 82.41 89.28 18.16 95.89" style="fill:#fff;stroke:#e8e8e8;stroke-miterlimit:10;stroke-width:0.272233329167752px"/><polygon points="20.53 98.75 10.1 49.27 45.82 42.15 79.29 47.03 84.83 91.63 20.53 98.75" style="fill:#fff;stroke:#e6e6e6;stroke-miterlimit:10;stroke-width:0.272233329167752px"/><polygon points="23.03 101.72 11.86 51.8 47.86 44.18 81.46 49.41 87.4 94.1 23.03 101.72" style="fill:#fff;stroke:#e4e4e4;stroke-miterlimit:10;stroke-width:0.272233329167752px"/><polygon points="25.66 104.81 13.75 54.45 50.04 46.32 83.76 51.89 90.1 96.67 25.66 104.81" style="fill:#fff;stroke:#e2e2e2;stroke-miterlimit:10;stroke-width:0.272233329167752px"/><polygon points="28.43 108 15.78 57.2 52.34 48.56 86.19 54.48 92.92 99.36 28.43 108" style="fill:#fff;stroke:#e0e0e0;stroke-miterlimit:10.000000000000002;stroke-width:0.272233329167752px"/><polygon points="31.33 111.29 17.93 60.05 54.78 50.9 88.76 57.17 95.88 102.14 31.33 111.29" style="fill:#fff;stroke:#dfdfdf;stroke-miterlimit:10;stroke-width:0.272233329167752px"/><polygon points="34.35 114.66 20.21 62.99 57.34 53.33 91.45 59.95 98.97 105 34.35 114.66" style="fill:#fff;stroke:#ddd;stroke-miterlimit:10;stroke-width:0.272233329167752px"/><polygon points="37.5 118.12 22.61 66 60.03 55.84 94.26 62.81 102.18 107.95 37.5 118.12" style="fill:#fff;stroke:#dbdbdb;stroke-miterlimit:10;stroke-width:0.272233329167752px"/><polygon points="40.77 121.65 25.14 69.1 62.85 58.42 97.2 65.74 105.51 110.97 40.77 121.65" style="fill:#fff;stroke:#d9d9d9;stroke-miterlimit:10;stroke-width:0.272233329167752px"/><polygon points="44.17 125.25 27.79 72.25 65.78 61.07 100.26 68.74 108.97 114.06 44.17 125.25" style="fill:#fff;stroke:#d7d7d7;stroke-miterlimit:10;stroke-width:0.272233329167752px"/><polygon points="47.68 128.9 30.55 75.47 68.83 63.77 103.43 71.79 112.54 117.21 47.68 128.9" style="fill:#fff;stroke:#d6d6d6;stroke-miterlimit:10;stroke-width:0.272233329167752px"/><polygon points="51.31 132.61 33.44 78.73 72 66.53 106.73 74.9 116.23 120.4 51.31 132.61" style="fill:#fff;stroke:#d4d4d4;stroke-miterlimit:10;stroke-width:0.272233329167752px"/><polygon points="55.05 136.35 36.44 82.04 75.29 69.33 110.14 78.04 120.04 123.64 55.05 136.35" style="fill:#fff;stroke:#d2d2d2;stroke-miterlimit:10;stroke-width:0.272233329167752px"/><polygon points="58.91 140.13 39.55 85.38 78.68 72.16 113.66 81.23 123.95 126.92 58.91 140.13" style="fill:#fff;stroke:#d0d0d0;stroke-miterlimit:10;stroke-width:0.272233329167752px"/><polygon points="62.88 143.94 42.77 88.75 82.19 75.02 117.3 84.44 127.98 130.22 62.88 143.94" style="fill:#fff;stroke:#cfcfcf;stroke-miterlimit:10;stroke-width:0.272233329167752px"/><polygon points="66.95 147.77 46.11 92.14 85.81 77.9 121.04 87.66 132.12 133.53 66.95 147.77" style="fill:#fff;stroke:#cdcdcd;stroke-miterlimit:10;stroke-width:0.272233329167752px"/><polygon points="71.14 151.61 49.55 95.54 89.53 80.79 124.89 90.9 136.37 136.86 71.14 151.61" style="fill:#fff;stroke:#cbcbcb;stroke-miterlimit:10;stroke-width:0.272233329167752px"/><polygon points="75.42 155.45 53.09 98.94 93.36 83.69 128.84 94.14 140.72 140.2 75.42 155.45" style="fill:#fff;stroke:#c9c9c9;stroke-miterlimit:10;stroke-width:0.272233329167752px"/><polygon points="79.81 159.29 56.73 102.34 97.29 86.58 132.9 97.38 145.17 143.53 79.81 159.29" style="fill:#fff;stroke:#c7c7c7;stroke-miterlimit:10;stroke-width:0.272233329167752px"/><polygon points="84.31 163.12 60.48 105.73 101.33 89.46 137.05 100.61 149.72 146.84 84.31 163.12" style="fill:#fff;stroke:#c6c6c6;stroke-miterlimit:10;stroke-width:0.272233329167752px"/><polygon points="88.9 166.92 64.33 109.09 105.46 92.31 141.31 103.82 154.38 150.14 88.9 166.92" style="fill:#fff;stroke:#c4c4c4;stroke-miterlimit:10;stroke-width:0.272233329167752px"/><polygon points="93.58 170.7 68.27 112.43 109.69 95.14 145.66 107 159.13 153.41 93.58 170.7" style="fill:#fff;stroke:#c2c2c2;stroke-miterlimit:10;stroke-width:0.272233329167752px"/><polygon points="98.37 174.44 72.31 115.74 114.01 97.94 150.11 110.14 163.97 156.65 98.37 174.44" style="fill:#fff;stroke:silver;stroke-miterlimit:10;stroke-width:0.272233329167752px"/><polygon points="103.24 178.14 76.44 119 118.42 100.69 154.65 113.24 168.9 159.84 103.24 178.14" style="fill:#fff;stroke:#bebebe;stroke-miterlimit:10;stroke-width:0.272233329167752px"/><polygon points="108.2 181.79 80.66 122.21 122.93 103.39 159.28 116.29 173.93 162.98 108.2 181.79" style="fill:#fff;stroke:#bdbdbd;stroke-miterlimit:10;stroke-width:0.272233329167752px"/><polygon points="113.26 185.38 84.97 125.36 127.52 106.04 164 119.28 179.05 166.06 113.26 185.38" style="fill:#fff;stroke:#bbb;stroke-miterlimit:10;stroke-width:0.272233329167752px"/><polygon points="118.4 188.91 89.36 128.44 132.2 108.61 168.81 122.21 184.25 169.08 118.4 188.91" style="fill:#fff;stroke:#b9b9b9;stroke-miterlimit:10;stroke-width:0.272233329167752px"/><polygon points="123.62 192.36 93.84 131.45 136.97 111.11 173.7 125.06 189.53 172.02 123.62 192.36" style="fill:#fff;stroke:#b7b7b7;stroke-miterlimit:10;stroke-width:0.272233329167752px"/><polygon points="128.93 195.72 98.4 134.38 141.81 113.53 178.67 127.83 194.9 174.88 128.93 195.72" style="fill:#fff;stroke:#b5b5b5;stroke-miterlimit:10;stroke-width:0.272233329167752px"/><polygon points="134.32 199 103.05 137.22 146.74 115.86 183.72 130.5 200.35 177.65 134.32 199" style="fill:#fff;stroke:#b4b4b4;stroke-miterlimit:10;stroke-width:0.272233329167752px"/><polygon points="139.78 202.18 107.77 139.96 151.75 118.1 188.85 133.09 205.88 180.32 139.78 202.18" style="fill:#fff;stroke:#b2b2b2;stroke-miterlimit:10;stroke-width:0.272233329167752px"/><polygon points="145.32 205.26 112.56 142.6 156.83 120.23 194.06 135.56 211.48 182.89 145.32 205.26" style="fill:#fff;stroke:#b0b0b0;stroke-miterlimit:10;stroke-width:0.272233329167752px"/><polygon points="150.94 208.22 117.44 145.12 161.99 122.24 199.34 137.93 217.16 185.34 150.94 208.22" style="fill:#fff;stroke:#aeaeae;stroke-miterlimit:10;stroke-width:0.272233329167752px"/><polygon points="156.63 211.06 122.38 147.52 167.21 124.14 204.69 140.17 222.91 187.68 156.63 211.06" style="fill:#fff;stroke:#acacac;stroke-miterlimit:10;stroke-width:0.272233329167752px"/><polygon points="162.39 213.78 127.39 149.8 172.51 125.9 210.12 142.28 228.73 189.88 162.39 213.78" style="fill:#fff;stroke:#ababab;stroke-miterlimit:10;stroke-width:0.272233329167752px"/><polygon points="168.21 216.35 132.47 151.94 177.88 127.53 215.61 144.26 234.62 191.95 168.21 216.35" style="fill:#fff;stroke:#a9a9a9;stroke-miterlimit:10;stroke-width:0.272233329167752px"/><polygon points="174.1 218.79 137.62 153.93 183.31 129.01 221.17 146.09 240.57 193.87 174.1 218.79" style="fill:#fff;stroke:#a7a7a7;stroke-miterlimit:10;stroke-width:0.272233329167752px"/><polygon points="180.06 221.07 142.84 155.77 188.81 130.35 226.79 147.78 246.59 195.65 180.06 221.07" style="fill:#fff;stroke:#a5a5a5;stroke-miterlimit:10;stroke-width:0.272233329167752px"/><polygon points="186.08 223.19 148.11 157.45 194.37 131.52 232.48 149.3 252.67 197.26 186.08 223.19" style="fill:#fff;stroke:#a3a3a3;stroke-miterlimit:10;stroke-width:0.272233329167752px"/><polygon points="192.16 225.15 153.44 158.97 199.99 132.53 238.22 150.66 258.81 198.71 192.16 225.15" style="fill:#fff;stroke:#a2a2a2;stroke-miterlimit:10;stroke-width:0.272233329167752px"/><polygon points="198.3 226.92 158.84 160.31 205.67 133.36 244.02 151.84 265.01 199.98 198.3 226.92" style="fill:#fff;stroke:#a0a0a0;stroke-miterlimit:10;stroke-width:0.272233329167752px"/><polygon points="204.49 228.52 164.28 161.47 211.4 134.01 249.88 152.83 271.26 201.06 204.49 228.52" style="fill:#fff;stroke:#9e9e9e;stroke-miterlimit:10;stroke-width:0.272233329167752px"/><polygon points="210.74 229.93 169.79 162.43 217.19 134.47 255.79 153.64 277.57 201.96 210.74 229.93" style="fill:#fff;stroke:#9c9c9c;stroke-miterlimit:10;stroke-width:0.272233329167752px"/><polygon points="217.03 231.13 175.34 163.2 223.03 134.73 261.76 154.25 283.93 202.66 217.03 231.13" style="fill:#fff;stroke:#9a9a9a;stroke-miterlimit:10;stroke-width:0.272233329167752px"/><polygon points="223.38 232.13 180.94 163.76 228.92 134.78 267.77 154.65 290.34 203.15 223.38 232.13" style="fill:#fff;stroke:#999;stroke-miterlimit:10;stroke-width:0.272233329167752px"/><polygon points="229.78 232.92 186.6 164.11 234.85 134.62 273.84 154.84 296.8 203.43 229.78 232.92" style="fill:#fff;stroke:#979797;stroke-miterlimit:10;stroke-width:0.272233329167752px"/><polygon points="236.22 233.49 192.29 164.23 240.84 134.24 279.94 154.8 303.3 203.49 236.22 233.49" style="fill:#fff;stroke:#959595;stroke-miterlimit:10;stroke-width:0.272233329167752px"/><polygon points="242.71 233.82 198.04 164.13 246.86 133.62 286.1 154.54 309.85 203.31 242.71 233.82" style="fill:#fff;stroke:#939393;stroke-miterlimit:10;stroke-width:0.272233329167752px"/><polygon points="249.24 233.92 203.82 163.79 252.93 132.77 292.29 154.04 316.44 202.91 249.24 233.92" style="fill:#fff;stroke:#919191;stroke-miterlimit:10;stroke-width:0.272233329167752px"/><polygon points="255.8 233.77 209.64 163.2 259.04 131.68 298.52 153.29 323.07 202.25 255.8 233.77" style="fill:#fff;stroke:#909090;stroke-miterlimit:10;stroke-width:0.272233329167752px"/><polygon points="262.41 233.38 215.5 162.37 265.18 130.33 304.79 152.29 329.74 201.34 262.41 233.38" style="fill:#fff;stroke:#8e8e8e;stroke-miterlimit:10;stroke-width:0.272233329167752px"/><polygon points="269.05 232.72 221.4 161.27 271.36 128.72 311.1 151.03 336.44 200.17 269.05 232.72" style="fill:#fff;stroke:#8c8c8c;stroke-miterlimit:10;stroke-width:0.272233329167752px"/><polygon points="275.72 231.79 227.33 159.9 277.58 126.85 317.44 149.51 343.17 198.74 275.72 231.79" style="fill:#fff;stroke:#8a8a8a;stroke-miterlimit:10;stroke-width:0.272233329167752px"/><polygon points="282.43 230.58 233.29 158.25 283.82 124.7 323.81 147.7 349.94 197.03 282.43 230.58" style="fill:#fff;stroke:#888;stroke-miterlimit:10;stroke-width:0.272233329167752px"/><polygon points="289.16 229.09 239.28 156.33 290.1 122.26 330.21 145.62 356.74 195.03 289.16 229.09" style="fill:#fff;stroke:#878787;stroke-miterlimit:10;stroke-width:0.272233329167752px"/><polygon points="295.92 227.31 245.3 154.11 296.4 119.53 336.64 143.24 363.56 192.74 295.92 227.31" style="fill:#fff;stroke:#858585;stroke-miterlimit:10;stroke-width:0.272233329167752px"/><polygon points="302.71 225.24 251.34 151.59 302.73 116.51 343.09 140.56 370.41 190.15 302.71 225.24" style="fill:#fff;stroke:#838383;stroke-miterlimit:10;stroke-width:0.272233329167752px"/><polygon points="309.52 222.85 257.41 148.76 309.08 113.17 349.57 137.57 377.28 187.26 309.52 222.85" style="fill:#fff;stroke:#818181;stroke-miterlimit:10;stroke-width:0.272233329167752px"/><polygon points="316.36 220.15 263.5 145.62 315.46 109.52 356.07 134.27 384.18 184.05 316.36 220.15" style="fill:#fff;stroke:gray;stroke-miterlimit:10;stroke-width:0.272233329167752px"/><polygon points="323.21 217.13 269.6 142.16 321.85 105.55 362.58 130.65 391.09 180.52 323.21 217.13" style="fill:#fff;stroke:#7e7e7e;stroke-miterlimit:10;stroke-width:0.272233329167752px"/><polygon points="330.08 213.77 275.73 138.37 328.26 101.25 369.12 126.7 398.02 176.65 330.08 213.77" style="fill:#fff;stroke:#7c7c7c;stroke-miterlimit:10;stroke-width:0.272233329167752px"/><polygon points="336.96 210.08 281.87 134.24 334.68 96.61 375.67 122.41 404.97 172.45 336.96 210.08" style="fill:#fff;stroke:#7a7a7a;stroke-miterlimit:10;stroke-width:0.272233329167752px"/><polygon points="343.86 206.04 288.02 129.76 341.12 91.62 382.23 117.77 411.93 167.91 343.86 206.04" style="fill:#fff;stroke:#787878;stroke-miterlimit:10;stroke-width:0.272233329167752px"/><polygon points="350.77 201.65 294.19 124.93 347.57 86.28 388.81 112.78 418.9 163 350.77 201.65" style="fill:#fff;stroke:#777;stroke-miterlimit:10;stroke-width:0.272233329167752px"/><polygon points="358.44 196.41 301.11 119.24 354.78 80.09 396.14 106.93 426.63 157.25 358.44 196.41" style="fill:#fff;stroke:#757575;stroke-miterlimit:10;stroke-width:0.272233329167752px"/><polygon points="366.63 190.97 308.56 113.37 362.51 73.71 404 100.9 434.88 151.31 366.63 190.97" style="fill:#fff;stroke:#737373;stroke-miterlimit:10;stroke-width:0.272233329167752px"/><polygon points="374.76 185.86 315.95 107.82 370.19 67.65 411.8 95.19 443.08 145.69 374.76 185.86" style="fill:#fff;stroke:#717171;stroke-miterlimit:10;stroke-width:0.272233329167752px"/><polygon points="382.83 181.06 323.27 102.59 377.8 61.91 419.54 89.8 451.21 140.39 382.83 181.06" style="fill:#fff;stroke:#6f6f6f;stroke-miterlimit:10;stroke-width:0.272233329167752px"/><polygon points="390.83 176.58 330.53 97.66 385.34 56.48 427.2 84.71 459.27 135.4 390.83 176.58" style="fill:#fff;stroke:#6e6e6e;stroke-miterlimit:10;stroke-width:0.272233329167752px"/><polygon points="398.77 172.4 337.72 93.05 392.82 51.35 434.8 79.94 467.27 130.71 398.77 172.4" style="fill:#fff;stroke:#6c6c6c;stroke-miterlimit:10;stroke-width:0.272233329167752px"/><polygon points="406.64 168.52 344.84 88.72 400.22 46.52 442.34 75.45 475.2 126.32 406.64 168.52" style="fill:#fff;stroke:#6a6a6a;stroke-miterlimit:10;stroke-width:0.272233329167752px"/><polygon points="414.43 164.93 351.89 84.69 407.56 41.98 449.8 71.26 483.05 122.22 414.43 164.93" style="fill:#fff;stroke:#686868;stroke-miterlimit:10;stroke-width:0.272233329167752px"/><polygon points="422.15 161.61 358.87 80.94 414.82 37.72 457.18 67.35 490.84 118.4 422.15 161.61" style="fill:#fff;stroke:#666;stroke-miterlimit:10;stroke-width:0.272233329167752px"/><polygon points="429.8 158.57 365.77 77.46 422 33.73 464.49 63.71 498.54 114.85 429.8 158.57" style="fill:#fff;stroke:#656565;stroke-miterlimit:10;stroke-width:0.272233329167752px"/><polygon points="437.36 155.8 372.59 74.25 429.11 30.01 471.73 60.34 506.17 111.57 437.36 155.8" style="fill:#fff;stroke:#636363;stroke-miterlimit:10;stroke-width:0.272233329167752px"/><polygon points="444.85 153.29 379.33 71.3 436.14 26.55 478.88 57.23 513.72 108.55 444.85 153.29" style="fill:#fff;stroke:#616161;stroke-miterlimit:10;stroke-width:0.272233329167752px"/><polygon points="452.26 151.03 386 68.59 443.09 23.34 485.95 54.37 521.19 105.78 452.26 151.03" style="fill:#fff;stroke:#5f5f5f;stroke-miterlimit:10;stroke-width:0.272233329167752px"/><polygon points="459.58 149.01 392.58 66.14 449.96 20.38 492.94 51.75 528.58 103.25 459.58 149.01" style="fill:#fff;stroke:#5d5d5d;stroke-miterlimit:10;stroke-width:0.272233329167752px"/><polygon points="466.83 147.23 399.07 63.92 456.74 17.65 499.85 49.37 535.88 100.96 466.83 147.23" style="fill:#fff;stroke:#5c5c5c;stroke-miterlimit:10;stroke-width:0.272233329167752px"/><polygon points="473.98 145.68 405.48 61.93 463.43 15.15 506.67 47.22 543.1 98.9 473.98 145.68" style="fill:#fff;stroke:#5a5a5a;stroke-miterlimit:10;stroke-width:0.272233329167752px"/><polygon points="481.05 144.35 411.8 60.16 470.04 12.88 513.4 45.29 550.22 97.07 481.05 144.35" style="fill:#fff;stroke:#585858;stroke-miterlimit:10;stroke-width:0.272233329167752px"/><polygon points="488.02 143.24 418.04 58.61 476.55 10.82 520.04 43.58 557.26 95.45 488.02 143.24" style="fill:#fff;stroke:#565656;stroke-miterlimit:10;stroke-width:0.272233329167752px"/><polygon points="494.9 142.34 424.17 57.27 482.98 8.96 526.59 42.08 564.21 94.03 494.9 142.34" style="fill:#fff;stroke:#545454;stroke-miterlimit:10;stroke-width:0.272233329167752px"/><polygon points="501.69 141.63 430.22 56.12 489.31 7.31 533.04 40.77 571.05 92.82 501.69 141.63" style="fill:#fff;stroke:#535353;stroke-miterlimit:10;stroke-width:0.272233329167752px"/><polygon points="508.38 141.12 436.17 55.17 495.54 5.85 539.4 39.66 577.81 91.8 508.38 141.12" style="fill:#fff;stroke:#515151;stroke-miterlimit:10;stroke-width:0.272233329167752px"/><polygon points="514.98 140.79 442.02 54.41 501.67 4.58 545.66 38.74 584.47 90.97 514.98 140.79" style="fill:#fff;stroke:#4f4f4f;stroke-miterlimit:10;stroke-width:0.272233329167752px"/><polygon points="521.47 140.65 447.77 53.82 507.71 3.48 551.83 37.99 591.02 90.31 521.47 140.65" style="fill:#fff;stroke:#4d4d4d;stroke-miterlimit:10;stroke-width:0.272233329167752px"/><polygon points="527.87 140.67 453.42 53.4 513.64 2.56 557.88 37.41 597.48 89.82 527.87 140.67" style="fill:#fff;stroke:#4b4b4b;stroke-miterlimit:10;stroke-width:0.272233329167752px"/><polygon points="534.16 140.85 458.96 53.15 519.47 1.79 563.84 37 603.83 89.5 534.16 140.85" style="fill:#fff;stroke:#4a4a4a;stroke-miterlimit:10;stroke-width:0.272233329167752px"/><polygon points="540.34 141.2 464.4 53.05 525.2 1.19 569.69 36.74 610.08 89.33 540.34 141.2" style="fill:#fff;stroke:#484848;stroke-miterlimit:10;stroke-width:0.272233329167752px"/><polygon points="546.42 141.69 469.73 53.1 530.82 0.73 575.43 36.63 616.22 89.32 546.42 141.69" style="fill:#fff;stroke:#464646;stroke-miterlimit:10;stroke-width:0.272233329167752px"/><polygon points="552.39 142.32 474.96 53.29 536.33 0.41 581.07 36.67 622.25 89.44 552.39 142.32" style="fill:#fff;stroke:#444;stroke-miterlimit:10;stroke-width:0.272233329167752px"/><polygon points="558.25 143.09 480.07 53.62 541.72 0.23 586.59 36.83 628.16 89.7 558.25 143.09" style="fill:#fff;stroke:#424242;stroke-miterlimit:10;stroke-width:0.272233329167752px"/><polygon points="563.99 143.98 485.07 54.07 547.01 0.18 592 37.13 633.97 90.08 563.99 143.98" style="fill:#fff;stroke:#414141;stroke-miterlimit:10;stroke-width:0.272233329167752px"/><polygon points="569.62 144.99 489.96 54.65 552.18 0.24 597.3 37.54 639.66 90.58 569.62 144.99" style="fill:#fff;stroke:#3f3f3f;stroke-miterlimit:10;stroke-width:0.272233329167752px"/><polygon points="575.13 146.11 494.73 55.33 557.23 0.42 602.48 38.06 645.24 91.2 575.13 146.11" style="fill:#fff;stroke:#3d3d3d;stroke-miterlimit:10;stroke-width:0.272233329167752px"/><polygon points="580.53 147.34 499.38 56.12 562.17 0.7 607.54 38.69 650.69 91.92 580.53 147.34" style="fill:#fff;stroke:#3b3b3b;stroke-miterlimit:10;stroke-width:0.272233329167752px"/><polygon points="585.8 148.67 503.9 57.01 566.98 1.08 612.48 39.42 656.03 92.74 585.8 148.67" style="fill:#fff;stroke:#393939;stroke-miterlimit:10;stroke-width:0.272233329167752px"/><polygon points="590.95 150.08 508.31 57.98 571.68 1.54 617.29 40.24 661.24 93.64 590.95 150.08" style="fill:#fff;stroke:#383838;stroke-miterlimit:10;stroke-width:0.272233329167752px"/><polygon points="595.98 151.58 512.6 59.04 576.25 2.09 621.99 41.13 666.33 94.63 595.98 151.58" style="fill:#fff;stroke:#363636;stroke-miterlimit:10;stroke-width:0.272233329167752px"/><polygon points="600.88 153.15 516.75 60.17 580.69 2.72 626.55 42.11 671.3 95.7 600.88 153.15" style="fill:#fff;stroke:#343434;stroke-miterlimit:10;stroke-width:0.272233329167752px"/><polygon points="605.66 154.79 520.78 61.38 585 3.41 631 43.15 676.13 96.83 605.66 154.79" style="fill:#fff;stroke:#323232;stroke-miterlimit:10;stroke-width:0.272233329167752px"/><polygon points="610.3 156.5 524.68 62.64 589.19 4.17 635.31 44.25 680.84 98.02 610.3 156.5" style="fill:#fff;stroke:#303030;stroke-miterlimit:10;stroke-width:0.272233329167752px"/><polygon points="614.82 158.25 528.45 63.95 593.24 4.97 639.48 45.41 685.41 99.27 614.82 158.25" style="fill:#fff;stroke:#2f2f2f;stroke-miterlimit:10;stroke-width:0.272233329167752px"/><polygon points="619.2 160.05 532.09 65.31 597.16 5.82 643.53 46.61 689.85 100.56 619.2 160.05" style="fill:#fff;stroke:#2d2d2d;stroke-miterlimit:10;stroke-width:0.272233329167752px"/><polygon points="623.44 161.89 535.59 66.71 600.95 6.71 647.44 47.84 694.16 101.89 623.44 161.89" style="fill:#fff;stroke:#2b2b2b;stroke-miterlimit:10;stroke-width:0.272233329167752px"/><polygon points="627.55 163.75 538.95 68.14 604.59 7.63 651.21 49.12 698.33 103.25 627.55 163.75" style="fill:#fff;stroke:#292929;stroke-miterlimit:10;stroke-width:0.272233329167752px"/><polygon points="631.51 165.65 542.17 69.59 608.1 8.58 654.85 50.41 702.36 104.63 631.51 165.65" style="fill:#fff;stroke:#282828;stroke-miterlimit:10;stroke-width:0.272233329167752px"/><polygon points="635.34 167.56 545.25 71.06 611.47 9.54 658.34 51.72 706.25 106.03 635.34 167.56" style="fill:#fff;stroke:#262626;stroke-miterlimit:10;stroke-width:0.272233329167752px"/><polygon points="639.02 169.47 548.19 72.54 614.69 10.51 661.69 53.03 709.99 107.44 639.02 169.47" style="fill:#fff;stroke:#242424;stroke-miterlimit:10;stroke-width:0.272233329167752px"/><polygon points="642.56 171.39 550.99 74.02 617.77 11.48 664.89 54.35 713.59 108.85 642.56 171.39" style="fill:#fff;stroke:#222;stroke-miterlimit:10;stroke-width:0.272233329167752px"/><polygon points="645.96 173.3 553.63 75.49 620.7 12.44 667.95 55.67 717.04 110.25 645.96 173.3" style="fill:#fff;stroke:#202020;stroke-miterlimit:10;stroke-width:0.272233329167752px"/><polygon points="649.2 175.2 556.13 76.95 623.49 13.39 670.86 56.97 720.35 111.64 649.2 175.2" style="fill:#fff;stroke:#1f1f1f;stroke-miterlimit:10;stroke-width:0.272233329167752px"/><polygon points="652.29 177.08 558.48 78.39 626.12 14.32 673.62 58.24 723.51 113.02 652.29 177.08" style="fill:#fff;stroke:#1d1d1d;stroke-miterlimit:10;stroke-width:0.272233329167752px"/><polygon points="655.23 178.93 560.68 79.8 628.6 15.23 676.23 59.5 726.51 114.36 655.23 178.93" style="fill:#fff;stroke:#1b1b1b;stroke-miterlimit:10;stroke-width:0.272233329167752px"/><polygon points="658.02 180.75 562.72 81.17 630.93 16.09 678.68 60.71 729.36 115.66 658.02 180.75" style="fill:#fff;stroke:#191919;stroke-miterlimit:10;stroke-width:0.272233329167752px"/><polygon points="660.65 182.52 564.61 82.51 633.1 16.92 680.97 61.88 732.05 116.93 660.65 182.52" style="fill:#fff;stroke:#171717;stroke-miterlimit:10;stroke-width:0.272233329167752px"/><polygon points="663.13 184.24 566.34 83.79 635.12 17.69 683.11 63.01 734.59 118.14 663.13 184.24" style="fill:#fff;stroke:#161616;stroke-miterlimit:10;stroke-width:0.272233329167752px"/><polygon points="665.44 185.9 567.91 85.02 636.97 18.41 685.09 64.07 736.96 119.3 665.44 185.9" style="fill:#fff;stroke:#141414;stroke-miterlimit:10;stroke-width:0.272233329167752px"/><polygon points="667.59 187.5 569.31 86.18 638.66 19.06 686.91 65.07 739.17 120.39 667.59 187.5" style="fill:#fff;stroke:#121212;stroke-miterlimit:10;stroke-width:0.272233329167752px"/><polygon points="669.58 189.03 570.56 87.26 640.19 19.64 688.56 66 741.22 121.41 669.58 189.03" style="fill:#fff;stroke:#101010;stroke-miterlimit:10;stroke-width:0.272233329167752px"/><polygon points="671.4 190.48 571.64 88.27 641.56 20.14 690.05 66.85 743.11 122.35 671.4 190.48" style="fill:#fff;stroke:#0e0e0e;stroke-miterlimit:10;stroke-width:0.272233329167752px"/><polygon points="673.06 191.84 572.55 89.19 642.75 20.55 691.37 67.61 744.83 123.2 673.06 191.84" style="fill:#fff;stroke:#0d0d0d;stroke-miterlimit:10;stroke-width:0.272233329167752px"/><polygon points="674.54 193.11 573.29 90.02 643.78 20.87 692.53 68.28 746.37 123.96 674.54 193.11" style="fill:#fff;stroke:#0b0b0b;stroke-miterlimit:10;stroke-width:0.272233329167752px"/><polygon points="675.86 194.27 573.86 90.75 644.63 21.09 693.51 68.84 747.75 124.61 675.86 194.27" style="fill:#fff;stroke:#090909;stroke-miterlimit:10;stroke-width:0.272233329167752px"/><polygon points="677 195.33 574.26 91.36 645.32 21.2 694.32 69.3 748.96 125.16 677 195.33" style="fill:#fff;stroke:#070707;stroke-miterlimit:10;stroke-width:0.272233329167752px"/><polygon points="677.97 196.26 574.48 91.86 645.83 21.19 694.95 69.64 749.99 125.59 677.97 196.26" style="fill:#fff;stroke:#050505;stroke-miterlimit:10;stroke-width:0.272233329167752px"/><polygon points="678.76 197.08 574.53 92.24 646.16 21.05 695.41 69.86 750.84 125.9 678.76 197.08" style="fill:#fff;stroke:#040404;stroke-miterlimit:10;stroke-width:0.272233329167752px"/><polygon points="679.37 197.76 574.4 92.48 646.31 20.79 695.68 69.94 751.51 126.07 679.37 197.76" style="fill:#fff;stroke:#020202;stroke-miterlimit:10;stroke-width:0.272233329167752px"/><polygon points="679.81 198.31 574.08 92.59 646.28 20.39 695.78 69.89 752.01 126.11 679.81 198.31" style="fill:#fff;stroke:#000;stroke-miterlimit:10;stroke-width:0.272233329167752px"/><g id="envelopelines"><polyline points="646.28 20.39 657.02 114.84 752.01 126.11" style="fill:none;stroke:#000;stroke-miterlimit:10;stroke-width:0.272233329167752px"/><line x1="669.47" y1="116.32" x2="679.81" y2="198.31" style="fill:none;stroke:#000;stroke-miterlimit:10;stroke-width:0.272233329167752px"/><line x1="574.08" y1="92.59" x2="655.57" y2="102.06" style="fill:none;stroke:#000;stroke-miterlimit:10;stroke-width:0.272233329167752px"/></g></svg>